%FSTAX23Y23*%
%MOIN*%
%SFA1B1*%

%IPPOS*%
%ADD72R,0.051000X0.047000*%
%ADD73R,0.047000X0.051000*%
%ADD85R,0.095000X0.087000*%
%ADD89C,0.063000*%
%ADD90C,0.004000*%
%ADD91C,0.079000*%
%ADD92R,0.079000X0.079000*%
%ADD93C,0.240000*%
%ADD94C,0.087000*%
%ADD95R,0.087000X0.087000*%
%ADD96R,0.079000X0.079000*%
%ADD97C,0.106000*%
%ADD98C,0.108000*%
%ADD99C,0.075000*%
%ADD100C,0.067000*%
%ADD101R,0.067000X0.067000*%
%ADD102C,0.043000*%
%ADD103C,0.028000*%
%ADD104R,0.067000X0.047000*%
%ADD105R,0.055000X0.047000*%
%ADD106R,0.087000X0.095000*%
%ADD107R,0.126000X0.144000*%
%ADD108R,0.071000X0.059000*%
%ADD109R,0.059000X0.071000*%
%ADD110R,0.067000X0.059000*%
%ADD111R,0.059000X0.067000*%
%ADD112R,0.032000X0.075000*%
%ADD113R,0.032000X0.028000*%
%ADD114R,0.026000X0.036000*%
%ADD115R,0.110000X0.095000*%
%ADD116R,0.095000X0.110000*%
%LNholoboard-1*%
%LPD*%
G54D72*
X00262Y02421D03*
X00195D03*
X01835Y01369D03*
X01768D03*
X03173Y00205D03*
X03106D03*
X03173Y00305D03*
X03106D03*
X01446Y0079D03*
X01379D03*
X02346D03*
X02279D03*
X02796D03*
X02729D03*
X01053Y01985D03*
X00986D03*
X01131Y0205D03*
X01198D03*
X01379Y01822D03*
X01312D03*
X00769Y01303D03*
X00836D03*
X00766Y01799D03*
X00833D03*
X00736Y02256D03*
X00803D03*
X01023Y02495D03*
X00956D03*
X00994Y02215D03*
X00927D03*
X00826Y02495D03*
X00893D03*
X03001Y0079D03*
X02934D03*
X01896D03*
X01829D03*
X02102D03*
X02035D03*
X01651D03*
X01584D03*
X00996D03*
X00929D03*
X01206D03*
X01139D03*
X02551D03*
X02484D03*
X03503Y03355D03*
X03436D03*
X02936Y00545D03*
X03003D03*
X02731D03*
X02798D03*
X01141D03*
X01208D03*
X02486D03*
X02553D03*
X02281D03*
X02348D03*
X02036D03*
X02103D03*
X01831D03*
X01898D03*
X01586D03*
X01653D03*
X01381D03*
X01448D03*
X00931D03*
X00998D03*
G54D73*
X02769Y01289D03*
Y01222D03*
X02674Y01289D03*
Y01222D03*
X02579Y01289D03*
Y01222D03*
X02769Y01472D03*
Y01539D03*
X02674Y01472D03*
Y01539D03*
X02579Y01472D03*
Y01539D03*
X01953Y01232D03*
Y01299D03*
X03209Y00557D03*
Y00624D03*
X03144Y00407D03*
Y00474D03*
X03464Y01307D03*
Y01374D03*
X03474Y00507D03*
Y00574D03*
X00939Y03089D03*
Y03022D03*
X01379Y01637D03*
Y01704D03*
X01049Y01889D03*
Y01822D03*
X0099Y01938D03*
Y01871D03*
X01219Y01888D03*
Y01821D03*
X00885Y01924D03*
Y01857D03*
X01112Y01889D03*
Y01822D03*
X01355Y01279D03*
Y01346D03*
X00784Y02389D03*
Y02322D03*
X00964Y0233D03*
Y02263D03*
X0107Y02365D03*
Y02298D03*
X02769Y03119D03*
Y03052D03*
X03469Y02419D03*
Y02352D03*
X00464Y03094D03*
Y03027D03*
X01424Y03089D03*
Y03022D03*
X01904Y03027D03*
Y03094D03*
X01019Y02332D03*
Y02399D03*
X00557Y02553D03*
Y0262D03*
X00631Y02619D03*
Y02686D03*
G54D85*
X02764Y02293D03*
Y0243D03*
Y02648D03*
Y02785D03*
X02969Y02495D03*
Y02358D03*
X02264Y0319D03*
Y03053D03*
X02384Y0243D03*
Y02293D03*
Y0278D03*
Y02643D03*
G54D89*
X01869Y0217D03*
X01969D03*
X02069D03*
X02169Y0207D03*
Y0197D03*
Y0187D03*
X02069Y0177D03*
X01969D03*
X01869D03*
X01769Y0187D03*
Y0197D03*
Y0207D03*
X00054Y0132D03*
X00154Y0127D03*
X00054Y0122D03*
X00154Y0117D03*
X02729Y02035D03*
X02827D03*
X02926D03*
X03024D03*
X00379Y0089D03*
X00479Y0084D03*
X00379Y0079D03*
X00479Y0074D03*
X00054Y0089D03*
X00154Y0084D03*
X00054Y0079D03*
X00154Y0074D03*
X00379Y0132D03*
X00479Y0127D03*
X00379Y0122D03*
X00479Y0117D03*
X00379Y0175D03*
X00479Y017D03*
X00379Y0165D03*
X00479Y016D03*
X00054Y0175D03*
X00154Y017D03*
X00054Y0165D03*
X00154Y016D03*
X00379Y0218D03*
X00479Y0213D03*
X00379Y0208D03*
X00479Y0203D03*
X00054Y0218D03*
X00154Y0213D03*
X00054Y0208D03*
X00154Y0203D03*
X02779Y00355D03*
X02829Y00455D03*
X02879Y00355D03*
X02929Y00455D03*
X02329Y00355D03*
X02379Y00455D03*
X02429Y00355D03*
X02479Y00455D03*
X01879Y00355D03*
X01929Y00455D03*
X01979Y00355D03*
X02029Y00455D03*
X01429Y00355D03*
X01479Y00455D03*
X01529Y00355D03*
X01579Y00455D03*
X00979Y00355D03*
X01029Y00455D03*
X01079Y00355D03*
X01129Y00455D03*
X02779Y00055D03*
X02829Y00155D03*
X02879Y00055D03*
X02929Y00155D03*
X02329Y00055D03*
X02379Y00155D03*
X02429Y00055D03*
X02479Y00155D03*
X01879Y00055D03*
X01929Y00155D03*
X01979Y00055D03*
X02029Y00155D03*
X01429Y00055D03*
X01479Y00155D03*
X01529Y00055D03*
X01579Y00155D03*
X00979Y00055D03*
X01029Y00155D03*
X01079Y00055D03*
X01129Y00155D03*
X03839Y01735D03*
X0376D03*
X03682D03*
X03459Y0175D03*
X03361D03*
X03262D03*
X03459Y02035D03*
X03361D03*
X03262D03*
X03682Y0202D03*
X0376D03*
X03839D03*
X02479Y0243D03*
X02579D03*
X02679D03*
X00439Y00262D03*
Y00362D03*
Y00462D03*
X02479Y0278D03*
X02579D03*
X02679D03*
X02729Y0175D03*
X02827D03*
X02926D03*
X03024D03*
G54D90*
X00125Y01375D03*
X0045Y00945D03*
X00125D03*
X0045Y01375D03*
Y01805D03*
X00125D03*
X0045Y02235D03*
X00125D03*
X02724Y00426D03*
X02274D03*
X01824D03*
X01374D03*
X00924D03*
X02724Y00126D03*
X02274D03*
X01824D03*
X01374D03*
X00924D03*
G54D91*
X03629Y0048D03*
Y0058D03*
X03879Y0048D03*
Y0058D03*
Y0008D03*
Y0018D03*
X03629Y0008D03*
Y0018D03*
X01479Y0112D03*
X01379D03*
X01579D03*
X02352Y01449D03*
X02452D03*
X02352Y01549D03*
X02252D03*
X03629Y0138D03*
Y0128D03*
X03879Y0138D03*
Y0128D03*
Y0098D03*
Y0088D03*
X03629Y0098D03*
Y0088D03*
G54D92*
X03629Y0068D03*
X03879D03*
Y0028D03*
X03629D03*
Y0148D03*
X03879D03*
Y0108D03*
X03629D03*
G54D93*
X03739Y0331D03*
X02124Y02405D03*
X03354Y00815D03*
X00138Y03799D03*
Y00138D03*
G54D94*
X01089Y0343D03*
Y0333D03*
X00989Y0343D03*
Y0333D03*
X00889Y0343D03*
Y0333D03*
X00789Y0343D03*
X02054D03*
Y0333D03*
X01954Y0343D03*
Y0333D03*
X01854Y0343D03*
Y0333D03*
X01754Y0343D03*
X01574D03*
Y0333D03*
X01474Y0343D03*
Y0333D03*
X01374Y0343D03*
Y0333D03*
X01274Y0343D03*
X00614D03*
Y0333D03*
X00514Y0343D03*
Y0333D03*
X00414Y0343D03*
Y0333D03*
X00314Y0343D03*
G54D95*
X00789Y0333D03*
X01754D03*
X01274D03*
X00314D03*
G54D96*
X01279Y0112D03*
X02452Y01549D03*
G54D97*
X02689Y0362D03*
X02551D03*
X02413D03*
X02276D03*
X03139D03*
X03001D03*
G54D98*
X03354Y03855D03*
Y0348D03*
Y03355D03*
Y0323D03*
Y0298D03*
X03854Y03855D03*
Y0298D03*
X02269Y0296D03*
X02644D03*
X02769D03*
X02894D03*
X03144D03*
X02269Y0346D03*
X03144D03*
X02969Y02265D03*
X03344D03*
X03469D03*
X03594D03*
X03844D03*
X02969Y02765D03*
X03844D03*
G54D99*
X02252Y01449D03*
X02152Y01549D03*
Y01449D03*
X02052Y01549D03*
Y01449D03*
X01952Y01549D03*
Y01449D03*
X01852Y01549D03*
Y01449D03*
X01752Y01549D03*
Y01449D03*
G54D100*
X02469Y01125D03*
X02369D03*
X02069D03*
X02269D03*
X02169D03*
G54D101*
X01969Y01125D03*
G54D102*
X00244Y02465D03*
X00194D03*
X00244Y02515D03*
X00194D03*
X00244Y02565D03*
X00194D03*
G54D103*
X02395Y02923D03*
X03149Y02185D03*
X01521Y01426D03*
X01594Y01482D03*
Y01533D03*
X01114Y0193D03*
X00734Y018D03*
X01411Y01819D03*
X01445Y01602D03*
Y01364D03*
X00854Y02065D03*
X01484Y017D03*
X01239Y0079D03*
X01029D03*
X01479D03*
X01684D03*
X01929D03*
X02135D03*
X02379D03*
X02584D03*
X02829D03*
X03034D03*
X03289Y00255D03*
Y00355D03*
Y00455D03*
Y00555D03*
X03284Y01355D03*
Y01255D03*
Y01155D03*
Y01055D03*
X03429D03*
X03434Y00255D03*
Y00505D03*
X03429Y01305D03*
X02804Y0154D03*
X02769Y0142D03*
X02804Y01217D03*
X02709D03*
X02614D03*
X02709Y0154D03*
X02614D03*
X02579Y0134D03*
X02674Y0142D03*
X02579D03*
X01486Y01635D03*
X01485Y01661D03*
X01777Y01127D03*
X01477Y01321D03*
X01521Y01373D03*
X01623Y01841D03*
X0155Y0184D03*
X01585D03*
X01219Y01927D03*
X01433Y02064D03*
X00709Y01679D03*
X00697Y02049D03*
X00735Y02125D03*
X00774Y02171D03*
X00804Y01385D03*
X00694Y01625D03*
X00672Y01605D03*
X00649Y0159D03*
X00629Y01565D03*
X00564Y02363D03*
X00529D03*
X00494D03*
X00461D03*
X02489Y0058D03*
X02039D03*
X01589D03*
X01139D03*
X02729D03*
X02279D03*
X01829D03*
X01379D03*
X00929D03*
X01204Y02395D03*
X01189Y02425D03*
X01109Y0248D03*
X01004Y02455D03*
X01854Y02705D03*
X01804D03*
X01854Y0263D03*
X01804D03*
X01374Y02635D03*
X01019Y0243D03*
X01374Y02705D03*
X01324D03*
Y0263D03*
X00694Y0256D03*
X00724D03*
X00874Y02635D03*
X00834D03*
X00889Y0273D03*
X00834D03*
X00749Y0232D03*
X00414Y0269D03*
X00364D03*
X00623Y02364D03*
Y02391D03*
X03209Y00505D03*
Y00405D03*
Y00305D03*
Y00205D03*
X01169Y0114D03*
X01139D03*
X01109D03*
X01079D03*
X03549Y03555D03*
X00924Y02255D03*
Y02495D03*
X00734Y0243D03*
X02649Y01865D03*
X02827D03*
X00646Y02297D03*
X00672Y02345D03*
X00701Y02319D03*
X01069Y02254D03*
X01277Y02293D03*
X02317Y0189D03*
X02539Y02D03*
X02409Y0189D03*
X01269Y01315D03*
X01049Y01925D03*
Y01955D03*
X01099Y0205D03*
X01325Y01278D03*
X00928Y00829D03*
X01138D03*
X01378D03*
X01583D03*
X01828D03*
X02034D03*
X02278D03*
X02484D03*
X02728D03*
X02933D03*
X01226Y01207D03*
X01231Y01233D03*
X00916Y01922D03*
X02674Y01345D03*
X02769Y0139D03*
X02557Y00973D03*
X00719Y01305D03*
X00834Y02255D03*
X02935Y00579D03*
X00824Y02195D03*
X00363Y02516D03*
X00307Y02343D03*
X00759Y02494D03*
G54D104*
X03248Y02265D03*
X0345Y0348D03*
X02553Y0296D03*
X0083Y0202D03*
G54D105*
X0315Y02303D03*
Y02228D03*
X03548Y03443D03*
Y03518D03*
X02455Y02998D03*
Y02923D03*
X00928Y01983D03*
Y02058D03*
G54D106*
X03456Y03855D03*
X03594D03*
X00444Y00162D03*
X00582D03*
X00439Y00557D03*
X00577D03*
G54D107*
X01324Y03161D03*
Y0298D03*
X00839Y03161D03*
Y0298D03*
X01804Y03161D03*
Y0298D03*
X00364D03*
Y03161D03*
G54D108*
X00759Y01385D03*
X00885D03*
G54D109*
X0127Y01278D03*
Y01404D03*
X02539Y01955D03*
Y01829D03*
G54D110*
X01143Y02258D03*
Y02333D03*
X03724Y02343D03*
Y02268D03*
X03009Y03038D03*
Y02963D03*
G54D111*
X01202Y02255D03*
X01277D03*
X02557Y0235D03*
X02482D03*
X00572Y00262D03*
X00497D03*
X02552Y02705D03*
X02477D03*
X03432Y03105D03*
X03357D03*
G54D112*
X01876Y01075D03*
X01826D03*
X01776D03*
X01726D03*
X01876Y013D03*
X01826D03*
X01776D03*
X01726D03*
G54D113*
X01912Y01627D03*
X01952D03*
X01912Y01597D03*
X01952D03*
G54D114*
X00557Y02763D03*
X00594D03*
X00632D03*
Y02858D03*
X00594D03*
X00557D03*
X02002Y02763D03*
X02039D03*
X02077D03*
Y02858D03*
X02039D03*
X02002D03*
X01522Y02763D03*
X01559D03*
X01597D03*
Y02858D03*
X01559D03*
X01522D03*
X01037Y02763D03*
X01074D03*
X01112D03*
Y02858D03*
X01074D03*
X01037D03*
G54D115*
X03695Y0298D03*
X03459D03*
G54D116*
X03144Y03302D03*
Y03065D03*
X03844Y02607D03*
Y0237D03*
M02*