%FSTAX23Y23*%
%MOIN*%
%SFA1B1*%

%IPPOS*%
%AMD76*
4,1,8,-0.003000,-0.015500,0.003000,-0.015500,0.007000,-0.011500,0.007000,0.011500,0.003000,0.015500,-0.003000,0.015500,-0.007000,0.011500,-0.007000,-0.011500,-0.003000,-0.015500,0.0*
1,1,0.008000,-0.003000,-0.011500*
1,1,0.008000,0.003000,-0.011500*
1,1,0.008000,0.003000,0.011500*
1,1,0.008000,-0.003000,0.011500*
%
%AMD77*
4,1,8,0.015500,-0.003000,0.015500,0.003000,0.011500,0.007000,-0.011500,0.007000,-0.015500,0.003000,-0.015500,-0.003000,-0.011500,-0.007000,0.011500,-0.007000,0.015500,-0.003000,0.0*
1,1,0.008000,0.011500,-0.003000*
1,1,0.008000,0.011500,0.003000*
1,1,0.008000,-0.011500,0.003000*
1,1,0.008000,-0.011500,-0.003000*
%
%ADD70R,0.025000X0.116000*%
%ADD71R,0.025000X0.116000*%
%ADD72R,0.051000X0.047000*%
%ADD73R,0.047000X0.051000*%
%ADD74R,0.067000X0.030000*%
%ADD75R,0.067000X0.043000*%
G04~CAMADD=76~8~0.0~0.0~140.0~310.0~40.0~0.0~15~0.0~0.0~0.0~0.0~0~0.0~0.0~0.0~0.0~0~0.0~0.0~0.0~180.0~140.0~310.0*
%ADD76D76*%
G04~CAMADD=77~8~0.0~0.0~140.0~310.0~40.0~0.0~15~0.0~0.0~0.0~0.0~0~0.0~0.0~0.0~0.0~0~0.0~0.0~0.0~270.0~310.0~140.0*
%ADD77D77*%
%ADD78R,0.142000X0.142000*%
%ADD79R,0.051000X0.016000*%
%ADD80R,0.016000X0.051000*%
%ADD81R,0.075000X0.032000*%
%ADD82R,0.028000X0.063000*%
%ADD83R,0.053000X0.047000*%
%ADD84R,0.055000X0.051000*%
%ADD85R,0.095000X0.087000*%
%ADD86R,0.144000X0.116000*%
%ADD87R,0.024000X0.091000*%
%ADD88R,0.028000X0.032000*%
%ADD89C,0.063000*%
%ADD90C,0.004000*%
%ADD91C,0.079000*%
%ADD92R,0.079000X0.079000*%
%ADD93C,0.240000*%
%ADD94C,0.087000*%
%ADD95R,0.087000X0.087000*%
%ADD96R,0.079000X0.079000*%
%ADD97C,0.106000*%
%ADD98C,0.108000*%
%ADD99C,0.075000*%
%ADD100C,0.067000*%
%ADD101R,0.067000X0.067000*%
%ADD102C,0.043000*%
%ADD103C,0.028000*%
%LNholoboard-1*%
%LPD*%
G54D70*
X00473Y02938D03*
X00948D03*
X01913D03*
X01433D03*
G54D71*
X00305Y02938D03*
X0078D03*
X01745D03*
X01265D03*
G54D72*
X01629Y02499D03*
X01562D03*
X01416D03*
X01483D03*
X01794Y025D03*
X01727D03*
X01844Y01167D03*
X01777D03*
X01906Y0274D03*
X01973D03*
X00941D03*
X01008D03*
X01426D03*
X01493D03*
X00528D03*
X00461D03*
X03101Y01005D03*
X03168D03*
X03101Y01105D03*
X03168D03*
X03101Y01205D03*
X03168D03*
X03101Y01305D03*
X03168D03*
G54D73*
X00594Y02777D03*
Y02844D03*
X01074D03*
Y02777D03*
X02039D03*
Y02844D03*
X01559Y02777D03*
Y02844D03*
X00364Y02587D03*
Y02654D03*
X0062Y0225D03*
Y02183D03*
G54D74*
X03473Y00205D03*
Y00255D03*
Y00305D03*
Y00355D03*
Y00405D03*
Y00455D03*
Y00505D03*
Y00555D03*
X0325Y00205D03*
Y00255D03*
Y00305D03*
Y00355D03*
Y00405D03*
Y00455D03*
Y00505D03*
Y00555D03*
X03245Y01355D03*
Y01305D03*
Y01255D03*
Y01205D03*
Y01155D03*
Y01105D03*
Y01055D03*
Y01005D03*
X03468Y01355D03*
Y01305D03*
Y01255D03*
Y01205D03*
Y01155D03*
Y01105D03*
Y01055D03*
Y01005D03*
G54D75*
X00793Y02048D03*
Y02115D03*
X00915Y02048D03*
Y02115D03*
G54D76*
X00814Y0228D03*
X00834D03*
X00854D03*
X00874D03*
X00894D03*
X00914D03*
X00934D03*
X00954D03*
Y0247D03*
X00934D03*
X00914D03*
X00894D03*
X00874D03*
X00854D03*
X00834D03*
X00814D03*
G54D77*
X00979Y02305D03*
Y02325D03*
Y02345D03*
Y02365D03*
Y02385D03*
Y02405D03*
Y02425D03*
Y02445D03*
X00789D03*
Y02425D03*
Y02405D03*
Y02385D03*
Y02365D03*
Y02345D03*
X0079Y02325D03*
Y02305D03*
G54D78*
X00884Y02375D03*
G54D79*
X01378Y01819D03*
Y01799D03*
Y0178D03*
Y0176D03*
Y0174D03*
Y0172D03*
Y01701D03*
Y01681D03*
Y01661D03*
Y01642D03*
Y01622D03*
Y01602D03*
Y01583D03*
Y01563D03*
Y01543D03*
Y01524D03*
Y01504D03*
Y01484D03*
Y01465D03*
Y01445D03*
Y01425D03*
Y01406D03*
Y01386D03*
Y01366D03*
Y01346D03*
X00768D03*
Y01366D03*
Y01386D03*
Y01406D03*
Y01425D03*
Y01445D03*
Y01465D03*
Y01484D03*
Y01504D03*
Y01524D03*
Y01543D03*
Y01563D03*
Y01583D03*
Y01602D03*
Y01622D03*
Y01642D03*
Y01661D03*
Y01681D03*
Y01701D03*
Y0172D03*
Y0174D03*
Y0176D03*
Y0178D03*
Y01799D03*
Y01819D03*
G54D80*
X01309Y01278D03*
X01289D03*
X0127D03*
X0125D03*
X0123D03*
X01211D03*
X01191D03*
X01171D03*
X01152D03*
X01132D03*
X01112D03*
X01093D03*
X01073D03*
X01053D03*
X01033D03*
X01014D03*
X00994D03*
X00974D03*
X00955D03*
X00935D03*
X00915D03*
X00896D03*
X00876D03*
X00856D03*
X00837D03*
Y01888D03*
X00856D03*
X00876D03*
X00896D03*
X00915D03*
X00935D03*
X00955D03*
X00974D03*
X00994D03*
X01014D03*
X01033D03*
X01053D03*
X01073D03*
X01093D03*
X01112D03*
X01132D03*
X01152D03*
X01171D03*
X01191D03*
X01211D03*
X0123D03*
X0125D03*
X0127D03*
X01289D03*
X01309D03*
G54D81*
X02317Y01965D03*
Y01915D03*
Y01865D03*
Y01815D03*
X02541Y01965D03*
Y01915D03*
Y01865D03*
Y01815D03*
G54D82*
X02934Y0079D03*
X02984D03*
Y0054D03*
X02934D03*
X02729Y0079D03*
X02779D03*
Y0054D03*
X02729D03*
X02484Y0079D03*
X02534D03*
Y0054D03*
X02484D03*
X02279Y0079D03*
X02329D03*
Y0054D03*
X02279D03*
X02034Y0079D03*
X02084D03*
Y0054D03*
X02034D03*
X01829Y0079D03*
X01879D03*
Y0054D03*
X01829D03*
X01584Y0079D03*
X01634D03*
Y0054D03*
X01584D03*
X01379Y0079D03*
X01429D03*
Y0054D03*
X01379D03*
X01139Y0079D03*
X01189D03*
Y0054D03*
X01139D03*
X00929Y0079D03*
X00979D03*
Y0054D03*
X00929D03*
G54D83*
X02579Y01455D03*
Y01542D03*
X02674Y01455D03*
Y01542D03*
X02769Y01455D03*
Y01542D03*
X02579Y01305D03*
Y01219D03*
X02674Y01305D03*
Y01219D03*
X02769Y01305D03*
Y01219D03*
G54D84*
X01134Y0205D03*
Y01983D03*
X01048Y0205D03*
Y01983D03*
G54D85*
X00559Y0313D03*
Y02993D03*
X01034Y0313D03*
Y02993D03*
X01519Y0313D03*
Y02993D03*
X01999Y0313D03*
Y02993D03*
G54D86*
X00389Y02938D03*
X00864D03*
X01829D03*
X01349D03*
G54D87*
X00314Y02825D03*
X00364D03*
X00414D03*
X00464D03*
Y0305D03*
X00414D03*
X00364D03*
X00314D03*
X00789Y02825D03*
X00839D03*
X00889D03*
X00939D03*
Y0305D03*
X00889D03*
X00839D03*
X00789D03*
X01754Y02825D03*
X01804D03*
X01854D03*
X01904D03*
Y0305D03*
X01854D03*
X01804D03*
X01754D03*
X01274Y02825D03*
X01324D03*
X01374D03*
X01424D03*
Y0305D03*
X01374D03*
X01324D03*
X01274D03*
G54D88*
X00896Y01956D03*
Y01995D03*
X00744D03*
Y01956D03*
X00799Y01995D03*
Y01956D03*
G54D89*
X01869Y0217D03*
X01969D03*
X02069D03*
X02169Y0207D03*
Y0197D03*
Y0187D03*
X02069Y0177D03*
X01969D03*
X01869D03*
X01769Y0187D03*
Y0197D03*
Y0207D03*
X00054Y0132D03*
X00154Y0127D03*
X00054Y0122D03*
X00154Y0117D03*
X02729Y02035D03*
X02827D03*
X02926D03*
X03024D03*
X00379Y0089D03*
X00479Y0084D03*
X00379Y0079D03*
X00479Y0074D03*
X00054Y0089D03*
X00154Y0084D03*
X00054Y0079D03*
X00154Y0074D03*
X00379Y0132D03*
X00479Y0127D03*
X00379Y0122D03*
X00479Y0117D03*
X00379Y0175D03*
X00479Y017D03*
X00379Y0165D03*
X00479Y016D03*
X00054Y0175D03*
X00154Y017D03*
X00054Y0165D03*
X00154Y016D03*
X00379Y0218D03*
X00479Y0213D03*
X00379Y0208D03*
X00479Y0203D03*
X00054Y0218D03*
X00154Y0213D03*
X00054Y0208D03*
X00154Y0203D03*
X02779Y00355D03*
X02829Y00455D03*
X02879Y00355D03*
X02929Y00455D03*
X02329Y00355D03*
X02379Y00455D03*
X02429Y00355D03*
X02479Y00455D03*
X01879Y00355D03*
X01929Y00455D03*
X01979Y00355D03*
X02029Y00455D03*
X01429Y00355D03*
X01479Y00455D03*
X01529Y00355D03*
X01579Y00455D03*
X00979Y00355D03*
X01029Y00455D03*
X01079Y00355D03*
X01129Y00455D03*
X02779Y00055D03*
X02829Y00155D03*
X02879Y00055D03*
X02929Y00155D03*
X02329Y00055D03*
X02379Y00155D03*
X02429Y00055D03*
X02479Y00155D03*
X01879Y00055D03*
X01929Y00155D03*
X01979Y00055D03*
X02029Y00155D03*
X01429Y00055D03*
X01479Y00155D03*
X01529Y00055D03*
X01579Y00155D03*
X00979Y00055D03*
X01029Y00155D03*
X01079Y00055D03*
X01129Y00155D03*
X03839Y01735D03*
X0376D03*
X03682D03*
X03459Y0175D03*
X03361D03*
X03262D03*
X03459Y02035D03*
X03361D03*
X03262D03*
X03682Y0202D03*
X0376D03*
X03839D03*
X02479Y0243D03*
X02579D03*
X02679D03*
X00439Y00262D03*
Y00362D03*
Y00462D03*
X02479Y0278D03*
X02579D03*
X02679D03*
X02729Y0175D03*
X02827D03*
X02926D03*
X03024D03*
G54D90*
X00125Y01375D03*
X0045Y00945D03*
X00125D03*
X0045Y01375D03*
Y01805D03*
X00125D03*
X0045Y02235D03*
X00125D03*
X02724Y00426D03*
X02274D03*
X01824D03*
X01374D03*
X00924D03*
X02724Y00126D03*
X02274D03*
X01824D03*
X01374D03*
X00924D03*
G54D91*
X03629Y0048D03*
Y0058D03*
X03879Y0048D03*
Y0058D03*
Y0008D03*
Y0018D03*
X03629Y0008D03*
Y0018D03*
X01479Y0112D03*
X01379D03*
X01579D03*
X02352Y01449D03*
X02452D03*
X02352Y01549D03*
X02252D03*
X03629Y0138D03*
Y0128D03*
X03879Y0138D03*
Y0128D03*
Y0098D03*
Y0088D03*
X03629Y0098D03*
Y0088D03*
G54D92*
X03629Y0068D03*
X03879D03*
Y0028D03*
X03629D03*
Y0148D03*
X03879D03*
Y0108D03*
X03629D03*
G54D93*
X03739Y0331D03*
X02124Y02405D03*
X03354Y00815D03*
X00138Y03799D03*
Y00138D03*
G54D94*
X01089Y0343D03*
Y0333D03*
X00989Y0343D03*
Y0333D03*
X00889Y0343D03*
Y0333D03*
X00789Y0343D03*
X02054D03*
Y0333D03*
X01954Y0343D03*
Y0333D03*
X01854Y0343D03*
Y0333D03*
X01754Y0343D03*
X01574D03*
Y0333D03*
X01474Y0343D03*
Y0333D03*
X01374Y0343D03*
Y0333D03*
X01274Y0343D03*
X00614D03*
Y0333D03*
X00514Y0343D03*
Y0333D03*
X00414Y0343D03*
Y0333D03*
X00314Y0343D03*
G54D95*
X00789Y0333D03*
X01754D03*
X01274D03*
X00314D03*
G54D96*
X01279Y0112D03*
X02452Y01549D03*
G54D97*
X02689Y0362D03*
X02551D03*
X02413D03*
X02276D03*
X03139D03*
X03001D03*
G54D98*
X03354Y03855D03*
Y0348D03*
Y03355D03*
Y0323D03*
Y0298D03*
X03854Y03855D03*
Y0298D03*
X02269Y0296D03*
X02644D03*
X02769D03*
X02894D03*
X03144D03*
X02269Y0346D03*
X03144D03*
X02969Y02265D03*
X03344D03*
X03469D03*
X03594D03*
X03844D03*
X02969Y02765D03*
X03844D03*
G54D99*
X02252Y01449D03*
X02152Y01549D03*
Y01449D03*
X02052Y01549D03*
Y01449D03*
X01952Y01549D03*
Y01449D03*
X01852Y01549D03*
Y01449D03*
X01752Y01549D03*
Y01449D03*
G54D100*
X02469Y01125D03*
X02369D03*
X02069D03*
X02269D03*
X02169D03*
G54D101*
X01969Y01125D03*
G54D102*
X00244Y02465D03*
X00194D03*
X00244Y02515D03*
X00194D03*
X00244Y02565D03*
X00194D03*
G54D103*
X02395Y02923D03*
X03149Y02185D03*
X01521Y01426D03*
X01594Y01482D03*
Y01533D03*
X01114Y0193D03*
X00734Y018D03*
X01411Y01819D03*
X01445Y01602D03*
Y01364D03*
X00854Y02065D03*
X01484Y017D03*
X01239Y0079D03*
X01029D03*
X01479D03*
X01684D03*
X01929D03*
X02135D03*
X02379D03*
X02584D03*
X02829D03*
X03034D03*
X03289Y00255D03*
Y00355D03*
Y00455D03*
Y00555D03*
X03284Y01355D03*
Y01255D03*
Y01155D03*
Y01055D03*
X03429D03*
X03434Y00255D03*
Y00505D03*
X03429Y01305D03*
X02804Y0154D03*
X02769Y0142D03*
X02804Y01217D03*
X02709D03*
X02614D03*
X02709Y0154D03*
X02614D03*
X02579Y0134D03*
X02674Y0142D03*
X02579D03*
X01486Y01635D03*
X01485Y01661D03*
X01777Y01127D03*
X01477Y01321D03*
X01521Y01373D03*
X01623Y01841D03*
X0155Y0184D03*
X01585D03*
X01219Y01927D03*
X01433Y02064D03*
X00709Y01679D03*
X00697Y02049D03*
X00735Y02125D03*
X00774Y02171D03*
X00804Y01385D03*
X00694Y01625D03*
X00672Y01605D03*
X00649Y0159D03*
X00629Y01565D03*
X00564Y02363D03*
X00529D03*
X00494D03*
X00461D03*
X02489Y0058D03*
X02039D03*
X01589D03*
X01139D03*
X02729D03*
X02279D03*
X01829D03*
X01379D03*
X00929D03*
X01204Y02395D03*
X01189Y02425D03*
X01109Y0248D03*
X01004Y02455D03*
X01854Y02705D03*
X01804D03*
X01854Y0263D03*
X01804D03*
X01374Y02635D03*
X01019Y0243D03*
X01374Y02705D03*
X01324D03*
Y0263D03*
X00694Y0256D03*
X00724D03*
X00874Y02635D03*
X00834D03*
X00889Y0273D03*
X00834D03*
X00749Y0232D03*
X00414Y0269D03*
X00364D03*
X00623Y02364D03*
Y02391D03*
X03209Y00505D03*
Y00405D03*
Y00305D03*
Y00205D03*
X01169Y0114D03*
X01139D03*
X01109D03*
X01079D03*
X03549Y03555D03*
X00924Y02255D03*
Y02495D03*
X00734Y0243D03*
X02649Y01865D03*
X02827D03*
X00646Y02297D03*
X00672Y02345D03*
X00701Y02319D03*
X01069Y02254D03*
X01277Y02293D03*
X02317Y0189D03*
X02539Y02D03*
X02409Y0189D03*
X01269Y01315D03*
X01049Y01925D03*
Y01955D03*
X01099Y0205D03*
X01325Y01278D03*
X00928Y00829D03*
X01138D03*
X01378D03*
X01583D03*
X01828D03*
X02034D03*
X02278D03*
X02484D03*
X02728D03*
X02933D03*
X01226Y01207D03*
X01231Y01233D03*
X00916Y01922D03*
X02674Y01345D03*
X02769Y0139D03*
X02557Y00973D03*
X00719Y01305D03*
X00834Y02255D03*
X02935Y00579D03*
X00824Y02195D03*
X00363Y02516D03*
X00307Y02343D03*
X00759Y02494D03*
M02*