%FSTAX23Y23*%
%MOIN*%
%SFA1B1*%

%IPPOS*%
%ADD27C,0.010000*%
%ADD65C,0.008000*%
%ADD66C,0.010000*%
%ADD67C,0.004000*%
%ADD68C,0.002000*%
%ADD69C,0.005000*%
%LNholoboard-1*%
%LPD*%
G54D27*
X00922Y02012D02*
D01*
X00921Y02012*
X00921Y02012*
X00921Y02012*
X00921Y02012*
X00921Y02012*
X00921Y02012*
X00921Y02012*
X00921Y02012*
X00921Y02012*
X00921Y02012*
X00921Y02012*
X00921Y02012*
X00921Y02012*
X00921Y02012*
X00921Y02012*
X00921Y02012*
X00921Y02012*
X00921Y02012*
X00921Y02012*
X00921Y02012*
X00921Y02012*
X00921Y02012*
X0092*
X0092Y02012*
X0092Y02012*
X0092Y02012*
X0092Y02012*
X0092Y02012*
X0092Y02012*
X0092Y02012*
X0092Y02012*
X0092Y02012*
X0092Y02012*
X0092Y02012*
X0092Y02012*
X0092Y02012*
X0092Y02012*
X0092Y02012*
X0092Y02012*
X0092Y02012*
X0092Y02012*
X0092Y02012*
X0092Y02012*
X0092Y02012*
X0092Y02012*
X0092Y02011*
X0092Y02011*
X0092Y02011*
X0092Y02011*
X0092Y02011*
X0092Y02011*
X0092Y02011*
X0092Y02011*
X0092Y02011*
X0092Y02011*
X0092Y02011*
X0092Y02011*
X0092Y02011*
X0092Y02011*
X0092Y02011*
X0092Y02011*
X0092Y02011*
X0092Y02011*
X0092Y02011*
X0092Y02011*
X0092Y02011*
X0092Y02011*
X00921*
X00921Y02011*
X00921Y02011*
X00921Y02011*
X00921Y02011*
X00921Y02011*
X00921Y02011*
X00921Y02011*
X00921Y02011*
X00921Y02011*
X00921Y02011*
X00921Y02011*
X00921Y02011*
X00921Y02011*
X00921Y02011*
X00921Y02011*
X00921Y02011*
X00921Y02011*
X00921Y02011*
X00921Y02011*
X00921Y02011*
X00921Y02011*
X00922Y02012*
X0188Y01147D02*
Y01187D01*
X00574Y0274D02*
X00614D01*
X00739Y03932D02*
X01139D01*
X00739Y035D02*
X01139D01*
X00739D02*
Y03932D01*
X01139Y035D02*
Y03932D01*
X01704D02*
X02104D01*
X01704Y035D02*
X02104D01*
X01704D02*
Y03932D01*
X02104Y035D02*
Y03932D01*
X02774Y03573D02*
Y03935D01*
X02467Y03573D02*
X02774D01*
X02467Y03935D02*
X02774D01*
X02329Y03573D02*
X02636D01*
X02329Y03935D02*
X02636D01*
X02191Y03573D02*
Y03935D01*
Y03573D02*
X02498D01*
X02191Y03935D02*
X02498D01*
X01224Y03932D02*
X01624D01*
X01224Y035D02*
X01624D01*
X01224D02*
Y03932D01*
X01624Y035D02*
Y03932D01*
X00264D02*
X00664D01*
X00264Y035D02*
X00664D01*
X00264D02*
Y03932D01*
X00664Y035D02*
Y03932D01*
X03274Y03935D02*
X03934D01*
Y029D02*
Y03935D01*
X03274Y029D02*
X03934D01*
X03274D02*
Y03935D01*
X02189Y0288D02*
Y0354D01*
X03224*
Y0288D02*
Y0354D01*
X02189Y0288D02*
X03224D01*
X02889Y02185D02*
Y02845D01*
X03924*
Y02185D02*
Y02845D01*
X02889Y02185D02*
X03924D01*
X02917Y03573D02*
Y03935D01*
X03224Y03573D02*
Y03935D01*
X02917Y03573D02*
X03224D01*
X02917Y03935D02*
X03224D01*
X00504Y02993D02*
Y0313D01*
X00614Y02993D02*
Y0313D01*
X00979Y02993D02*
Y0313D01*
X01089Y02993D02*
Y0313D01*
X01464Y02993D02*
Y0313D01*
X01574Y02993D02*
Y0313D01*
X01944Y02993D02*
Y0313D01*
X02054Y02993D02*
Y0313D01*
X01054Y0274D02*
X01094D01*
X02019D02*
X02059D01*
X01539D02*
X01579D01*
G54D65*
X03345Y00575D02*
D01*
X03345Y00574*
X03345Y00573*
X03345Y00572*
X03345Y00571*
X03345Y0057*
X03346Y00569*
X03346Y00568*
X03347Y00567*
X03347Y00566*
X03348Y00566*
X03348Y00565*
X03349Y00564*
X0335Y00563*
X03351Y00563*
X03352Y00562*
X03352Y00562*
X03353Y00562*
X03354Y00561*
X03355Y00561*
X03356Y00561*
X03357Y00561*
X03358Y00561*
X03359*
X0336Y00561*
X03361Y00561*
X03362Y00561*
X03363Y00561*
X03364Y00562*
X03365Y00562*
X03366Y00562*
X03366Y00563*
X03367Y00563*
X03368Y00564*
X03369Y00565*
X03369Y00566*
X0337Y00566*
X0337Y00567*
X03371Y00568*
X03371Y00569*
X03372Y0057*
X03372Y00571*
X03372Y00572*
X03372Y00573*
X03372Y00574*
X03374Y00575*
X0334Y01375D02*
D01*
X0334Y01374*
X0334Y01373*
X0334Y01372*
X0334Y01371*
X0334Y0137*
X03341Y01369*
X03341Y01368*
X03342Y01367*
X03342Y01366*
X03343Y01366*
X03343Y01365*
X03344Y01364*
X03345Y01363*
X03346Y01363*
X03347Y01362*
X03347Y01362*
X03348Y01362*
X03349Y01361*
X0335Y01361*
X03351Y01361*
X03352Y01361*
X03353Y01361*
X03354*
X03355Y01361*
X03356Y01361*
X03357Y01361*
X03358Y01361*
X03359Y01362*
X0336Y01362*
X03361Y01362*
X03361Y01363*
X03362Y01363*
X03363Y01364*
X03364Y01365*
X03364Y01366*
X03365Y01366*
X03365Y01367*
X03366Y01368*
X03366Y01369*
X03367Y0137*
X03367Y01371*
X03367Y01372*
X03367Y01373*
X03367Y01374*
X03369Y01375*
X02408Y01989D02*
D01*
X02408Y01987*
X02408Y01986*
X02408Y01984*
X02408Y01983*
X02409Y01981*
X02409Y0198*
X0241Y01979*
X02411Y01977*
X02412Y01976*
X02412Y01975*
X02413Y01974*
X02414Y01973*
X02416Y01972*
X02417Y01971*
X02418Y0197*
X02419Y0197*
X02421Y01969*
X02422Y01969*
X02423Y01968*
X02425Y01968*
X02426Y01968*
X02428Y01968*
X02429*
X02431Y01968*
X02432Y01968*
X02434Y01968*
X02435Y01969*
X02436Y01969*
X02438Y0197*
X02439Y0197*
X0244Y01971*
X02441Y01972*
X02443Y01973*
X02444Y01974*
X02445Y01975*
X02445Y01976*
X02446Y01977*
X02447Y01979*
X02448Y0198*
X02448Y01981*
X02449Y01983*
X02449Y01984*
X02449Y01986*
X02449Y01987*
X0245Y01989*
X01528Y02468D02*
Y02531D01*
Y02468D02*
X01662D01*
X01528Y02531D02*
X01662D01*
Y02468D02*
Y02531D01*
X01516Y02468D02*
Y02531D01*
X01382D02*
X01516D01*
X01382Y02468D02*
X01516D01*
X01382D02*
Y02531D01*
X01693Y02469D02*
Y02532D01*
Y02469D02*
X01827D01*
X01693Y02532D02*
X01827D01*
Y02469D02*
Y02532D01*
X03571Y00728D02*
X03681D01*
Y00432D02*
Y00728D01*
X03571Y00432D02*
X03681D01*
X03571D02*
Y00728D01*
X03821D02*
X03931D01*
Y00432D02*
Y00728D01*
X03821Y00432D02*
X03931D01*
X03821D02*
Y00728D01*
Y00328D02*
X03931D01*
Y00032D02*
Y00328D01*
X03821Y00032D02*
X03931D01*
X03821D02*
Y00328D01*
X03571D02*
X03681D01*
Y00032D02*
Y00328D01*
X03571Y00032D02*
X03681D01*
X03571D02*
Y00328D01*
X03374Y00575D02*
X03435D01*
X0329D02*
X03344D01*
X03435Y00183D02*
Y00575D01*
X0329Y00183D02*
Y00575D01*
Y00183D02*
X03435D01*
X03285Y00983D02*
X0343D01*
X03285D02*
Y01375D01*
X0343Y00983D02*
Y01375D01*
X03285D02*
X03339D01*
X03369D02*
X0343D01*
X01232Y01062D02*
Y01172D01*
X01627*
Y01062D02*
Y01172D01*
X01232Y01062D02*
X01627D01*
X02366Y01989D02*
X02408D01*
X0245D02*
X02492D01*
X02366Y01792D02*
X02492D01*
X02366D02*
Y01989D01*
X02492Y01792D02*
Y01989D01*
X01702Y01597D02*
X02499D01*
X01702Y01402D02*
Y01597D01*
Y01402D02*
X02499D01*
Y01597*
X03571Y01232D02*
Y01528D01*
Y01232D02*
X03681D01*
Y01528*
X03571D02*
X03681D01*
X03821Y01232D02*
Y01528D01*
Y01232D02*
X03931D01*
Y01528*
X03821D02*
X03931D01*
X03821Y00832D02*
Y01128D01*
Y00832D02*
X03931D01*
Y01128*
X03821D02*
X03931D01*
X03571Y00832D02*
Y01128D01*
Y00832D02*
X03681D01*
Y01128*
X03571D02*
X03681D01*
X01919Y01075D02*
Y01175D01*
Y01075D02*
X02519D01*
X01919Y01175D02*
X02519D01*
Y01075D02*
Y01175D01*
X02006Y02709D02*
Y02772D01*
X01872D02*
X02006D01*
X01872Y02709D02*
X02006D01*
X01872D02*
Y02772D01*
X01041Y02709D02*
Y02772D01*
X00907D02*
X01041D01*
X00907Y02709D02*
X01041D01*
X00907D02*
Y02772D01*
X01526Y02709D02*
Y02772D01*
X01392D02*
X01526D01*
X01392Y02709D02*
X01526D01*
X01392D02*
Y02772D01*
X00561Y02709D02*
Y02772D01*
X00427D02*
X00561D01*
X00427Y02709D02*
Y02772D01*
Y02709D02*
X00561D01*
X03201Y00974D02*
Y01037D01*
X03067D02*
X03201D01*
X03067Y00974D02*
X03201D01*
X03067D02*
Y01037D01*
X03201Y01074D02*
Y01137D01*
X03067D02*
X03201D01*
X03067Y01074D02*
X03201D01*
X03067D02*
Y01137D01*
X03201Y01174D02*
Y01237D01*
X03067D02*
X03201D01*
X03067Y01174D02*
X03201D01*
X03067D02*
Y01237D01*
X03201Y01274D02*
Y01337D01*
X03067D02*
X03201D01*
X03067Y01274D02*
X03201D01*
X03067D02*
Y01337D01*
X00333Y02687D02*
X00396D01*
X00333Y02553D02*
Y02687D01*
X00396Y02553D02*
Y02687D01*
X00333Y02553D02*
X00396D01*
X00589Y02149D02*
X00652D01*
Y02283*
X00589Y02149D02*
Y02283D01*
X00652*
G54D66*
X03259Y00588D02*
D01*
X03258Y00588*
X03258Y00588*
X03258Y00589*
X03258Y00589*
X03258Y00589*
X03258Y0059*
X03258Y0059*
X03258Y0059*
X03258Y0059*
X03257Y00591*
X03257Y00591*
X03257Y00591*
X03257Y00591*
X03256Y00592*
X03256Y00592*
X03256Y00592*
X03255Y00592*
X03255Y00592*
X03255Y00592*
X03254Y00592*
X03254Y00592*
X03254Y00592*
X03253*
X03253Y00592*
X03253Y00592*
X03252Y00592*
X03252Y00592*
X03252Y00592*
X03251Y00592*
X03251Y00592*
X03251Y00592*
X0325Y00591*
X0325Y00591*
X0325Y00591*
X0325Y00591*
X03249Y0059*
X03249Y0059*
X03249Y0059*
X03249Y0059*
X03249Y00589*
X03249Y00589*
X03249Y00589*
X03249Y00588*
X03249Y00588*
X03249Y00588*
X03249Y00587*
X03249Y00587*
X03249Y00586*
X03249Y00586*
X03249Y00586*
X03249Y00585*
X03249Y00585*
X03249Y00585*
X03249Y00585*
X0325Y00584*
X0325Y00584*
X0325Y00584*
X0325Y00584*
X03251Y00583*
X03251Y00583*
X03251Y00583*
X03252Y00583*
X03252Y00583*
X03252Y00583*
X03253Y00583*
X03253Y00583*
X03253Y00583*
X03254*
X03254Y00583*
X03254Y00583*
X03255Y00583*
X03255Y00583*
X03255Y00583*
X03256Y00583*
X03256Y00583*
X03256Y00583*
X03257Y00584*
X03257Y00584*
X03257Y00584*
X03257Y00584*
X03258Y00585*
X03258Y00585*
X03258Y00585*
X03258Y00585*
X03258Y00586*
X03258Y00586*
X03258Y00586*
X03258Y00587*
X03258Y00587*
X03259Y00588*
X03254Y01388D02*
D01*
X03253Y01388*
X03253Y01388*
X03253Y01389*
X03253Y01389*
X03253Y01389*
X03253Y0139*
X03253Y0139*
X03253Y0139*
X03253Y0139*
X03252Y01391*
X03252Y01391*
X03252Y01391*
X03252Y01391*
X03251Y01392*
X03251Y01392*
X03251Y01392*
X0325Y01392*
X0325Y01392*
X0325Y01392*
X03249Y01392*
X03249Y01392*
X03249Y01392*
X03248*
X03248Y01392*
X03248Y01392*
X03247Y01392*
X03247Y01392*
X03247Y01392*
X03246Y01392*
X03246Y01392*
X03246Y01392*
X03245Y01391*
X03245Y01391*
X03245Y01391*
X03245Y01391*
X03244Y0139*
X03244Y0139*
X03244Y0139*
X03244Y0139*
X03244Y01389*
X03244Y01389*
X03244Y01389*
X03244Y01388*
X03244Y01388*
X03244Y01388*
X03244Y01387*
X03244Y01387*
X03244Y01386*
X03244Y01386*
X03244Y01386*
X03244Y01385*
X03244Y01385*
X03244Y01385*
X03244Y01385*
X03245Y01384*
X03245Y01384*
X03245Y01384*
X03245Y01384*
X03246Y01383*
X03246Y01383*
X03246Y01383*
X03247Y01383*
X03247Y01383*
X03247Y01383*
X03248Y01383*
X03248Y01383*
X03248Y01383*
X03249*
X03249Y01383*
X03249Y01383*
X0325Y01383*
X0325Y01383*
X0325Y01383*
X03251Y01383*
X03251Y01383*
X03251Y01383*
X03252Y01384*
X03252Y01384*
X03252Y01384*
X03252Y01384*
X03253Y01385*
X03253Y01385*
X03253Y01385*
X03253Y01385*
X03253Y01386*
X03253Y01386*
X03253Y01386*
X03253Y01387*
X03253Y01387*
X03254Y01388*
X02322Y01999D02*
D01*
X02321Y01999*
X02321Y01999*
X02321Y02*
X02321Y02*
X02321Y02*
X02321Y02001*
X02321Y02001*
X02321Y02001*
X02321Y02001*
X0232Y02002*
X0232Y02002*
X0232Y02002*
X0232Y02002*
X02319Y02003*
X02319Y02003*
X02319Y02003*
X02318Y02003*
X02318Y02003*
X02318Y02003*
X02317Y02003*
X02317Y02003*
X02317Y02003*
X02316*
X02316Y02003*
X02316Y02003*
X02315Y02003*
X02315Y02003*
X02315Y02003*
X02314Y02003*
X02314Y02003*
X02314Y02003*
X02313Y02002*
X02313Y02002*
X02313Y02002*
X02313Y02002*
X02312Y02001*
X02312Y02001*
X02312Y02001*
X02312Y02001*
X02312Y02*
X02312Y02*
X02312Y02*
X02312Y01999*
X02312Y01999*
X02312Y01999*
X02312Y01998*
X02312Y01998*
X02312Y01997*
X02312Y01997*
X02312Y01997*
X02312Y01996*
X02312Y01996*
X02312Y01996*
X02312Y01996*
X02313Y01995*
X02313Y01995*
X02313Y01995*
X02313Y01995*
X02314Y01994*
X02314Y01994*
X02314Y01994*
X02315Y01994*
X02315Y01994*
X02315Y01994*
X02316Y01994*
X02316Y01994*
X02316Y01994*
X02317*
X02317Y01994*
X02317Y01994*
X02318Y01994*
X02318Y01994*
X02318Y01994*
X02319Y01994*
X02319Y01994*
X02319Y01994*
X0232Y01995*
X0232Y01995*
X0232Y01995*
X0232Y01995*
X02321Y01996*
X02321Y01996*
X02321Y01996*
X02321Y01996*
X02321Y01997*
X02321Y01997*
X02321Y01997*
X02321Y01998*
X02321Y01998*
X02322Y01999*
G54D67*
X00817Y02302D02*
D01*
X00816Y02302*
X00816Y02302*
X00816Y02302*
X00816Y02302*
X00816Y02302*
X00816Y02302*
X00816Y02302*
X00816Y02303*
X00816Y02303*
X00816Y02303*
X00816Y02303*
X00816Y02303*
X00816Y02303*
X00816Y02303*
X00816Y02303*
X00815Y02303*
X00815Y02303*
X00815Y02303*
X00815Y02303*
X00815Y02303*
X00815Y02303*
X00815Y02303*
X00814*
X00814Y02303*
X00814Y02303*
X00814Y02303*
X00814Y02303*
X00814Y02303*
X00814Y02303*
X00814Y02303*
X00813Y02303*
X00813Y02303*
X00813Y02303*
X00813Y02303*
X00813Y02303*
X00813Y02303*
X00813Y02303*
X00813Y02302*
X00813Y02302*
X00813Y02302*
X00813Y02302*
X00813Y02302*
X00813Y02302*
X00813Y02302*
X00813Y02302*
X00813Y02301*
X00813Y02301*
X00813Y02301*
X00813Y02301*
X00813Y02301*
X00813Y02301*
X00813Y02301*
X00813Y023*
X00813Y023*
X00813Y023*
X00813Y023*
X00813Y023*
X00813Y023*
X00813Y023*
X00814Y023*
X00814Y023*
X00814Y023*
X00814Y023*
X00814Y023*
X00814Y023*
X00814Y023*
X00814Y023*
X00815*
X00815Y023*
X00815Y023*
X00815Y023*
X00815Y023*
X00815Y023*
X00815Y023*
X00816Y023*
X00816Y023*
X00816Y023*
X00816Y023*
X00816Y023*
X00816Y023*
X00816Y023*
X00816Y023*
X00816Y02301*
X00816Y02301*
X00816Y02301*
X00816Y02301*
X00816Y02301*
X00816Y02301*
X00816Y02301*
X00817Y02302*
X01314Y01833D02*
D01*
X01313Y01833*
X01313Y01833*
X01313Y01834*
X01313Y01834*
X01313Y01834*
X01313Y01835*
X01313Y01835*
X01313Y01835*
X01313Y01835*
X01312Y01836*
X01312Y01836*
X01312Y01836*
X01312Y01836*
X01311Y01837*
X01311Y01837*
X01311Y01837*
X0131Y01837*
X0131Y01837*
X0131Y01837*
X01309Y01837*
X01309Y01837*
X01309Y01837*
X01308*
X01308Y01837*
X01308Y01837*
X01307Y01837*
X01307Y01837*
X01307Y01837*
X01306Y01837*
X01306Y01837*
X01306Y01837*
X01305Y01836*
X01305Y01836*
X01305Y01836*
X01305Y01836*
X01304Y01835*
X01304Y01835*
X01304Y01835*
X01304Y01835*
X01304Y01834*
X01304Y01834*
X01304Y01834*
X01304Y01833*
X01304Y01833*
X01304Y01833*
X01304Y01832*
X01304Y01832*
X01304Y01831*
X01304Y01831*
X01304Y01831*
X01304Y0183*
X01304Y0183*
X01304Y0183*
X01304Y0183*
X01305Y01829*
X01305Y01829*
X01305Y01829*
X01305Y01829*
X01306Y01828*
X01306Y01828*
X01306Y01828*
X01307Y01828*
X01307Y01828*
X01307Y01828*
X01308Y01828*
X01308Y01828*
X01308Y01828*
X01309*
X01309Y01828*
X01309Y01828*
X0131Y01828*
X0131Y01828*
X0131Y01828*
X01311Y01828*
X01311Y01828*
X01311Y01828*
X01312Y01829*
X01312Y01829*
X01312Y01829*
X01312Y01829*
X01313Y0183*
X01313Y0183*
X01313Y0183*
X01313Y0183*
X01313Y01831*
X01313Y01831*
X01313Y01831*
X01313Y01832*
X01313Y01832*
X01314Y01833*
X0131D02*
D01*
X01309Y01833*
X01309Y01833*
X01309Y01833*
X01309Y01833*
X01309Y01833*
X01309Y01833*
X01309Y01833*
X01309Y01833*
X01309Y01833*
X01309Y01833*
X01309Y01833*
X01309Y01833*
X01309Y01833*
X01309Y01833*
X01309Y01833*
X01309Y01833*
X01309Y01833*
X01309Y01833*
X01309Y01833*
X01309Y01833*
X01309Y01833*
X01309Y01833*
X01308*
X01308Y01833*
X01308Y01833*
X01308Y01833*
X01308Y01833*
X01308Y01833*
X01308Y01833*
X01308Y01833*
X01308Y01833*
X01308Y01833*
X01308Y01833*
X01308Y01833*
X01308Y01833*
X01308Y01833*
X01308Y01833*
X01308Y01833*
X01308Y01833*
X01308Y01833*
X01308Y01833*
X01308Y01833*
X01308Y01833*
X01308Y01833*
X01308Y01833*
X01308Y01832*
X01308Y01832*
X01308Y01832*
X01308Y01832*
X01308Y01832*
X01308Y01832*
X01308Y01832*
X01308Y01832*
X01308Y01832*
X01308Y01832*
X01308Y01832*
X01308Y01832*
X01308Y01832*
X01308Y01832*
X01308Y01832*
X01308Y01832*
X01308Y01832*
X01308Y01832*
X01308Y01832*
X01308Y01832*
X01308Y01832*
X01308Y01832*
X01309*
X01309Y01832*
X01309Y01832*
X01309Y01832*
X01309Y01832*
X01309Y01832*
X01309Y01832*
X01309Y01832*
X01309Y01832*
X01309Y01832*
X01309Y01832*
X01309Y01832*
X01309Y01832*
X01309Y01832*
X01309Y01832*
X01309Y01832*
X01309Y01832*
X01309Y01832*
X01309Y01832*
X01309Y01832*
X01309Y01832*
X01309Y01832*
X0131Y01833*
X02924Y00595D02*
D01*
X02923Y00595*
X02923Y00595*
X02923Y00595*
X02923Y00595*
X02923Y00595*
X02923Y00595*
X02923Y00595*
X02923Y00595*
X02923Y00595*
X02923Y00595*
X02923Y00595*
X02923Y00595*
X02923Y00595*
X02923Y00595*
X02923Y00595*
X02923Y00595*
X02923Y00595*
X02923Y00595*
X02923Y00595*
X02923Y00595*
X02923Y00595*
X02923Y00595*
X02922*
X02922Y00595*
X02922Y00595*
X02922Y00595*
X02922Y00595*
X02922Y00595*
X02922Y00595*
X02922Y00595*
X02922Y00595*
X02922Y00595*
X02922Y00595*
X02922Y00595*
X02922Y00595*
X02922Y00595*
X02922Y00595*
X02922Y00595*
X02922Y00595*
X02922Y00595*
X02922Y00595*
X02922Y00595*
X02922Y00595*
X02922Y00595*
X02922Y00595*
X02922Y00594*
X02922Y00594*
X02922Y00594*
X02922Y00594*
X02922Y00594*
X02922Y00594*
X02922Y00594*
X02922Y00594*
X02922Y00594*
X02922Y00594*
X02922Y00594*
X02922Y00594*
X02922Y00594*
X02922Y00594*
X02922Y00594*
X02922Y00594*
X02922Y00594*
X02922Y00594*
X02922Y00594*
X02922Y00594*
X02922Y00594*
X02922Y00594*
X02923*
X02923Y00594*
X02923Y00594*
X02923Y00594*
X02923Y00594*
X02923Y00594*
X02923Y00594*
X02923Y00594*
X02923Y00594*
X02923Y00594*
X02923Y00594*
X02923Y00594*
X02923Y00594*
X02923Y00594*
X02923Y00594*
X02923Y00594*
X02923Y00594*
X02923Y00594*
X02923Y00594*
X02923Y00594*
X02923Y00594*
X02923Y00594*
X02924Y00595*
X02926D02*
D01*
X02925Y00595*
X02925Y00595*
X02925Y00595*
X02925Y00596*
X02925Y00596*
X02925Y00596*
X02925Y00596*
X02925Y00597*
X02925Y00597*
X02925Y00597*
X02924Y00597*
X02924Y00597*
X02924Y00598*
X02924Y00598*
X02924Y00598*
X02923Y00598*
X02923Y00598*
X02923Y00598*
X02922Y00598*
X02922Y00598*
X02922Y00598*
X02922Y00598*
X02921*
X02921Y00598*
X02921Y00598*
X02921Y00598*
X0292Y00598*
X0292Y00598*
X0292Y00598*
X0292Y00598*
X02919Y00598*
X02919Y00598*
X02919Y00597*
X02919Y00597*
X02918Y00597*
X02918Y00597*
X02918Y00597*
X02918Y00596*
X02918Y00596*
X02918Y00596*
X02918Y00596*
X02918Y00595*
X02918Y00595*
X02918Y00595*
X02918Y00595*
X02918Y00594*
X02918Y00594*
X02918Y00594*
X02918Y00593*
X02918Y00593*
X02918Y00593*
X02918Y00593*
X02918Y00592*
X02918Y00592*
X02918Y00592*
X02919Y00592*
X02919Y00592*
X02919Y00591*
X02919Y00591*
X0292Y00591*
X0292Y00591*
X0292Y00591*
X0292Y00591*
X02921Y00591*
X02921Y00591*
X02921Y00591*
X02921Y00591*
X02922*
X02922Y00591*
X02922Y00591*
X02922Y00591*
X02923Y00591*
X02923Y00591*
X02923Y00591*
X02924Y00591*
X02924Y00591*
X02924Y00591*
X02924Y00592*
X02924Y00592*
X02925Y00592*
X02925Y00592*
X02925Y00592*
X02925Y00593*
X02925Y00593*
X02925Y00593*
X02925Y00593*
X02925Y00594*
X02925Y00594*
X02925Y00594*
X02926Y00595*
X0293D02*
D01*
X02929Y00595*
X02929Y00595*
X02929Y00596*
X02929Y00596*
X02929Y00597*
X02929Y00597*
X02929Y00598*
X02928Y00598*
X02928Y00599*
X02928Y00599*
X02928Y00599*
X02927Y006*
X02927Y006*
X02926Y006*
X02926Y00601*
X02926Y00601*
X02925Y00601*
X02925Y00601*
X02924Y00601*
X02924Y00601*
X02923Y00601*
X02923Y00601*
X02922*
X02922Y00601*
X02921Y00601*
X02921Y00601*
X0292Y00601*
X0292Y00601*
X02919Y00601*
X02919Y00601*
X02919Y006*
X02918Y006*
X02918Y006*
X02917Y00599*
X02917Y00599*
X02917Y00599*
X02917Y00598*
X02916Y00598*
X02916Y00597*
X02916Y00597*
X02916Y00596*
X02916Y00596*
X02916Y00595*
X02916Y00595*
X02916Y00595*
X02916Y00594*
X02916Y00594*
X02916Y00593*
X02916Y00593*
X02916Y00592*
X02916Y00592*
X02916Y00591*
X02917Y00591*
X02917Y0059*
X02917Y0059*
X02917Y0059*
X02918Y00589*
X02918Y00589*
X02919Y00589*
X02919Y00588*
X02919Y00588*
X0292Y00588*
X0292Y00588*
X02921Y00588*
X02921Y00588*
X02922Y00588*
X02922Y00588*
X02923*
X02923Y00588*
X02924Y00588*
X02924Y00588*
X02925Y00588*
X02925Y00588*
X02926Y00588*
X02926Y00588*
X02926Y00589*
X02927Y00589*
X02927Y00589*
X02928Y0059*
X02928Y0059*
X02928Y0059*
X02928Y00591*
X02929Y00591*
X02929Y00592*
X02929Y00592*
X02929Y00593*
X02929Y00593*
X02929Y00594*
X02929Y00594*
X0293Y00595*
X02719D02*
D01*
X02718Y00595*
X02718Y00595*
X02718Y00595*
X02718Y00595*
X02718Y00595*
X02718Y00595*
X02718Y00595*
X02718Y00595*
X02718Y00595*
X02718Y00595*
X02718Y00595*
X02718Y00595*
X02718Y00595*
X02718Y00595*
X02718Y00595*
X02718Y00595*
X02718Y00595*
X02718Y00595*
X02718Y00595*
X02718Y00595*
X02718Y00595*
X02718Y00595*
X02717*
X02717Y00595*
X02717Y00595*
X02717Y00595*
X02717Y00595*
X02717Y00595*
X02717Y00595*
X02717Y00595*
X02717Y00595*
X02717Y00595*
X02717Y00595*
X02717Y00595*
X02717Y00595*
X02717Y00595*
X02717Y00595*
X02717Y00595*
X02717Y00595*
X02717Y00595*
X02717Y00595*
X02717Y00595*
X02717Y00595*
X02717Y00595*
X02717Y00595*
X02717Y00594*
X02717Y00594*
X02717Y00594*
X02717Y00594*
X02717Y00594*
X02717Y00594*
X02717Y00594*
X02717Y00594*
X02717Y00594*
X02717Y00594*
X02717Y00594*
X02717Y00594*
X02717Y00594*
X02717Y00594*
X02717Y00594*
X02717Y00594*
X02717Y00594*
X02717Y00594*
X02717Y00594*
X02717Y00594*
X02717Y00594*
X02717Y00594*
X02718*
X02718Y00594*
X02718Y00594*
X02718Y00594*
X02718Y00594*
X02718Y00594*
X02718Y00594*
X02718Y00594*
X02718Y00594*
X02718Y00594*
X02718Y00594*
X02718Y00594*
X02718Y00594*
X02718Y00594*
X02718Y00594*
X02718Y00594*
X02718Y00594*
X02718Y00594*
X02718Y00594*
X02718Y00594*
X02718Y00594*
X02718Y00594*
X02719Y00595*
X02721D02*
D01*
X0272Y00595*
X0272Y00595*
X0272Y00595*
X0272Y00596*
X0272Y00596*
X0272Y00596*
X0272Y00596*
X0272Y00597*
X0272Y00597*
X0272Y00597*
X02719Y00597*
X02719Y00597*
X02719Y00598*
X02719Y00598*
X02719Y00598*
X02718Y00598*
X02718Y00598*
X02718Y00598*
X02717Y00598*
X02717Y00598*
X02717Y00598*
X02717Y00598*
X02716*
X02716Y00598*
X02716Y00598*
X02716Y00598*
X02715Y00598*
X02715Y00598*
X02715Y00598*
X02715Y00598*
X02714Y00598*
X02714Y00598*
X02714Y00597*
X02714Y00597*
X02713Y00597*
X02713Y00597*
X02713Y00597*
X02713Y00596*
X02713Y00596*
X02713Y00596*
X02713Y00596*
X02713Y00595*
X02713Y00595*
X02713Y00595*
X02713Y00595*
X02713Y00594*
X02713Y00594*
X02713Y00594*
X02713Y00593*
X02713Y00593*
X02713Y00593*
X02713Y00593*
X02713Y00592*
X02713Y00592*
X02713Y00592*
X02714Y00592*
X02714Y00592*
X02714Y00591*
X02714Y00591*
X02715Y00591*
X02715Y00591*
X02715Y00591*
X02715Y00591*
X02716Y00591*
X02716Y00591*
X02716Y00591*
X02716Y00591*
X02717*
X02717Y00591*
X02717Y00591*
X02717Y00591*
X02718Y00591*
X02718Y00591*
X02718Y00591*
X02719Y00591*
X02719Y00591*
X02719Y00591*
X02719Y00592*
X02719Y00592*
X0272Y00592*
X0272Y00592*
X0272Y00592*
X0272Y00593*
X0272Y00593*
X0272Y00593*
X0272Y00593*
X0272Y00594*
X0272Y00594*
X0272Y00594*
X02721Y00595*
X02725D02*
D01*
X02724Y00595*
X02724Y00595*
X02724Y00596*
X02724Y00596*
X02724Y00597*
X02724Y00597*
X02724Y00598*
X02723Y00598*
X02723Y00599*
X02723Y00599*
X02723Y00599*
X02722Y006*
X02722Y006*
X02721Y006*
X02721Y00601*
X02721Y00601*
X0272Y00601*
X0272Y00601*
X02719Y00601*
X02719Y00601*
X02718Y00601*
X02718Y00601*
X02717*
X02717Y00601*
X02716Y00601*
X02716Y00601*
X02715Y00601*
X02715Y00601*
X02714Y00601*
X02714Y00601*
X02714Y006*
X02713Y006*
X02713Y006*
X02712Y00599*
X02712Y00599*
X02712Y00599*
X02712Y00598*
X02711Y00598*
X02711Y00597*
X02711Y00597*
X02711Y00596*
X02711Y00596*
X02711Y00595*
X02711Y00595*
X02711Y00595*
X02711Y00594*
X02711Y00594*
X02711Y00593*
X02711Y00593*
X02711Y00592*
X02711Y00592*
X02711Y00591*
X02712Y00591*
X02712Y0059*
X02712Y0059*
X02712Y0059*
X02713Y00589*
X02713Y00589*
X02714Y00589*
X02714Y00588*
X02714Y00588*
X02715Y00588*
X02715Y00588*
X02716Y00588*
X02716Y00588*
X02717Y00588*
X02717Y00588*
X02718*
X02718Y00588*
X02719Y00588*
X02719Y00588*
X0272Y00588*
X0272Y00588*
X02721Y00588*
X02721Y00588*
X02721Y00589*
X02722Y00589*
X02722Y00589*
X02723Y0059*
X02723Y0059*
X02723Y0059*
X02723Y00591*
X02724Y00591*
X02724Y00592*
X02724Y00592*
X02724Y00593*
X02724Y00593*
X02724Y00594*
X02724Y00594*
X02725Y00595*
X02474D02*
D01*
X02473Y00595*
X02473Y00595*
X02473Y00595*
X02473Y00595*
X02473Y00595*
X02473Y00595*
X02473Y00595*
X02473Y00595*
X02473Y00595*
X02473Y00595*
X02473Y00595*
X02473Y00595*
X02473Y00595*
X02473Y00595*
X02473Y00595*
X02473Y00595*
X02473Y00595*
X02473Y00595*
X02473Y00595*
X02473Y00595*
X02473Y00595*
X02473Y00595*
X02472*
X02472Y00595*
X02472Y00595*
X02472Y00595*
X02472Y00595*
X02472Y00595*
X02472Y00595*
X02472Y00595*
X02472Y00595*
X02472Y00595*
X02472Y00595*
X02472Y00595*
X02472Y00595*
X02472Y00595*
X02472Y00595*
X02472Y00595*
X02472Y00595*
X02472Y00595*
X02472Y00595*
X02472Y00595*
X02472Y00595*
X02472Y00595*
X02472Y00595*
X02472Y00594*
X02472Y00594*
X02472Y00594*
X02472Y00594*
X02472Y00594*
X02472Y00594*
X02472Y00594*
X02472Y00594*
X02472Y00594*
X02472Y00594*
X02472Y00594*
X02472Y00594*
X02472Y00594*
X02472Y00594*
X02472Y00594*
X02472Y00594*
X02472Y00594*
X02472Y00594*
X02472Y00594*
X02472Y00594*
X02472Y00594*
X02472Y00594*
X02473*
X02473Y00594*
X02473Y00594*
X02473Y00594*
X02473Y00594*
X02473Y00594*
X02473Y00594*
X02473Y00594*
X02473Y00594*
X02473Y00594*
X02473Y00594*
X02473Y00594*
X02473Y00594*
X02473Y00594*
X02473Y00594*
X02473Y00594*
X02473Y00594*
X02473Y00594*
X02473Y00594*
X02473Y00594*
X02473Y00594*
X02473Y00594*
X02474Y00595*
X02476D02*
D01*
X02475Y00595*
X02475Y00595*
X02475Y00595*
X02475Y00596*
X02475Y00596*
X02475Y00596*
X02475Y00596*
X02475Y00597*
X02475Y00597*
X02475Y00597*
X02474Y00597*
X02474Y00597*
X02474Y00598*
X02474Y00598*
X02474Y00598*
X02473Y00598*
X02473Y00598*
X02473Y00598*
X02472Y00598*
X02472Y00598*
X02472Y00598*
X02472Y00598*
X02471*
X02471Y00598*
X02471Y00598*
X02471Y00598*
X0247Y00598*
X0247Y00598*
X0247Y00598*
X0247Y00598*
X02469Y00598*
X02469Y00598*
X02469Y00597*
X02469Y00597*
X02468Y00597*
X02468Y00597*
X02468Y00597*
X02468Y00596*
X02468Y00596*
X02468Y00596*
X02468Y00596*
X02468Y00595*
X02468Y00595*
X02468Y00595*
X02468Y00595*
X02468Y00594*
X02468Y00594*
X02468Y00594*
X02468Y00593*
X02468Y00593*
X02468Y00593*
X02468Y00593*
X02468Y00592*
X02468Y00592*
X02468Y00592*
X02469Y00592*
X02469Y00592*
X02469Y00591*
X02469Y00591*
X0247Y00591*
X0247Y00591*
X0247Y00591*
X0247Y00591*
X02471Y00591*
X02471Y00591*
X02471Y00591*
X02471Y00591*
X02472*
X02472Y00591*
X02472Y00591*
X02472Y00591*
X02473Y00591*
X02473Y00591*
X02473Y00591*
X02474Y00591*
X02474Y00591*
X02474Y00591*
X02474Y00592*
X02474Y00592*
X02475Y00592*
X02475Y00592*
X02475Y00592*
X02475Y00593*
X02475Y00593*
X02475Y00593*
X02475Y00593*
X02475Y00594*
X02475Y00594*
X02475Y00594*
X02476Y00595*
X0248D02*
D01*
X02479Y00595*
X02479Y00595*
X02479Y00596*
X02479Y00596*
X02479Y00597*
X02479Y00597*
X02479Y00598*
X02478Y00598*
X02478Y00599*
X02478Y00599*
X02478Y00599*
X02477Y006*
X02477Y006*
X02476Y006*
X02476Y00601*
X02476Y00601*
X02475Y00601*
X02475Y00601*
X02474Y00601*
X02474Y00601*
X02473Y00601*
X02473Y00601*
X02472*
X02472Y00601*
X02471Y00601*
X02471Y00601*
X0247Y00601*
X0247Y00601*
X02469Y00601*
X02469Y00601*
X02469Y006*
X02468Y006*
X02468Y006*
X02467Y00599*
X02467Y00599*
X02467Y00599*
X02467Y00598*
X02466Y00598*
X02466Y00597*
X02466Y00597*
X02466Y00596*
X02466Y00596*
X02466Y00595*
X02466Y00595*
X02466Y00595*
X02466Y00594*
X02466Y00594*
X02466Y00593*
X02466Y00593*
X02466Y00592*
X02466Y00592*
X02466Y00591*
X02467Y00591*
X02467Y0059*
X02467Y0059*
X02467Y0059*
X02468Y00589*
X02468Y00589*
X02469Y00589*
X02469Y00588*
X02469Y00588*
X0247Y00588*
X0247Y00588*
X02471Y00588*
X02471Y00588*
X02472Y00588*
X02472Y00588*
X02473*
X02473Y00588*
X02474Y00588*
X02474Y00588*
X02475Y00588*
X02475Y00588*
X02476Y00588*
X02476Y00588*
X02476Y00589*
X02477Y00589*
X02477Y00589*
X02478Y0059*
X02478Y0059*
X02478Y0059*
X02478Y00591*
X02479Y00591*
X02479Y00592*
X02479Y00592*
X02479Y00593*
X02479Y00593*
X02479Y00594*
X02479Y00594*
X0248Y00595*
X02269D02*
D01*
X02268Y00595*
X02268Y00595*
X02268Y00595*
X02268Y00595*
X02268Y00595*
X02268Y00595*
X02268Y00595*
X02268Y00595*
X02268Y00595*
X02268Y00595*
X02268Y00595*
X02268Y00595*
X02268Y00595*
X02268Y00595*
X02268Y00595*
X02268Y00595*
X02268Y00595*
X02268Y00595*
X02268Y00595*
X02268Y00595*
X02268Y00595*
X02268Y00595*
X02267*
X02267Y00595*
X02267Y00595*
X02267Y00595*
X02267Y00595*
X02267Y00595*
X02267Y00595*
X02267Y00595*
X02267Y00595*
X02267Y00595*
X02267Y00595*
X02267Y00595*
X02267Y00595*
X02267Y00595*
X02267Y00595*
X02267Y00595*
X02267Y00595*
X02267Y00595*
X02267Y00595*
X02267Y00595*
X02267Y00595*
X02267Y00595*
X02267Y00595*
X02267Y00594*
X02267Y00594*
X02267Y00594*
X02267Y00594*
X02267Y00594*
X02267Y00594*
X02267Y00594*
X02267Y00594*
X02267Y00594*
X02267Y00594*
X02267Y00594*
X02267Y00594*
X02267Y00594*
X02267Y00594*
X02267Y00594*
X02267Y00594*
X02267Y00594*
X02267Y00594*
X02267Y00594*
X02267Y00594*
X02267Y00594*
X02267Y00594*
X02268*
X02268Y00594*
X02268Y00594*
X02268Y00594*
X02268Y00594*
X02268Y00594*
X02268Y00594*
X02268Y00594*
X02268Y00594*
X02268Y00594*
X02268Y00594*
X02268Y00594*
X02268Y00594*
X02268Y00594*
X02268Y00594*
X02268Y00594*
X02268Y00594*
X02268Y00594*
X02268Y00594*
X02268Y00594*
X02268Y00594*
X02268Y00594*
X02269Y00595*
X02271D02*
D01*
X0227Y00595*
X0227Y00595*
X0227Y00595*
X0227Y00596*
X0227Y00596*
X0227Y00596*
X0227Y00596*
X0227Y00597*
X0227Y00597*
X0227Y00597*
X02269Y00597*
X02269Y00597*
X02269Y00598*
X02269Y00598*
X02269Y00598*
X02268Y00598*
X02268Y00598*
X02268Y00598*
X02267Y00598*
X02267Y00598*
X02267Y00598*
X02267Y00598*
X02266*
X02266Y00598*
X02266Y00598*
X02266Y00598*
X02265Y00598*
X02265Y00598*
X02265Y00598*
X02265Y00598*
X02264Y00598*
X02264Y00598*
X02264Y00597*
X02264Y00597*
X02263Y00597*
X02263Y00597*
X02263Y00597*
X02263Y00596*
X02263Y00596*
X02263Y00596*
X02263Y00596*
X02263Y00595*
X02263Y00595*
X02263Y00595*
X02263Y00595*
X02263Y00594*
X02263Y00594*
X02263Y00594*
X02263Y00593*
X02263Y00593*
X02263Y00593*
X02263Y00593*
X02263Y00592*
X02263Y00592*
X02263Y00592*
X02264Y00592*
X02264Y00592*
X02264Y00591*
X02264Y00591*
X02265Y00591*
X02265Y00591*
X02265Y00591*
X02265Y00591*
X02266Y00591*
X02266Y00591*
X02266Y00591*
X02266Y00591*
X02267*
X02267Y00591*
X02267Y00591*
X02267Y00591*
X02268Y00591*
X02268Y00591*
X02268Y00591*
X02269Y00591*
X02269Y00591*
X02269Y00591*
X02269Y00592*
X02269Y00592*
X0227Y00592*
X0227Y00592*
X0227Y00592*
X0227Y00593*
X0227Y00593*
X0227Y00593*
X0227Y00593*
X0227Y00594*
X0227Y00594*
X0227Y00594*
X02271Y00595*
X02275D02*
D01*
X02274Y00595*
X02274Y00595*
X02274Y00596*
X02274Y00596*
X02274Y00597*
X02274Y00597*
X02274Y00598*
X02273Y00598*
X02273Y00599*
X02273Y00599*
X02273Y00599*
X02272Y006*
X02272Y006*
X02271Y006*
X02271Y00601*
X02271Y00601*
X0227Y00601*
X0227Y00601*
X02269Y00601*
X02269Y00601*
X02268Y00601*
X02268Y00601*
X02267*
X02267Y00601*
X02266Y00601*
X02266Y00601*
X02265Y00601*
X02265Y00601*
X02264Y00601*
X02264Y00601*
X02264Y006*
X02263Y006*
X02263Y006*
X02262Y00599*
X02262Y00599*
X02262Y00599*
X02262Y00598*
X02261Y00598*
X02261Y00597*
X02261Y00597*
X02261Y00596*
X02261Y00596*
X02261Y00595*
X02261Y00595*
X02261Y00595*
X02261Y00594*
X02261Y00594*
X02261Y00593*
X02261Y00593*
X02261Y00592*
X02261Y00592*
X02261Y00591*
X02262Y00591*
X02262Y0059*
X02262Y0059*
X02262Y0059*
X02263Y00589*
X02263Y00589*
X02264Y00589*
X02264Y00588*
X02264Y00588*
X02265Y00588*
X02265Y00588*
X02266Y00588*
X02266Y00588*
X02267Y00588*
X02267Y00588*
X02268*
X02268Y00588*
X02269Y00588*
X02269Y00588*
X0227Y00588*
X0227Y00588*
X02271Y00588*
X02271Y00588*
X02271Y00589*
X02272Y00589*
X02272Y00589*
X02273Y0059*
X02273Y0059*
X02273Y0059*
X02273Y00591*
X02274Y00591*
X02274Y00592*
X02274Y00592*
X02274Y00593*
X02274Y00593*
X02274Y00594*
X02274Y00594*
X02275Y00595*
X02024D02*
D01*
X02023Y00595*
X02023Y00595*
X02023Y00595*
X02023Y00595*
X02023Y00595*
X02023Y00595*
X02023Y00595*
X02023Y00595*
X02023Y00595*
X02023Y00595*
X02023Y00595*
X02023Y00595*
X02023Y00595*
X02023Y00595*
X02023Y00595*
X02023Y00595*
X02023Y00595*
X02023Y00595*
X02023Y00595*
X02023Y00595*
X02023Y00595*
X02023Y00595*
X02022*
X02022Y00595*
X02022Y00595*
X02022Y00595*
X02022Y00595*
X02022Y00595*
X02022Y00595*
X02022Y00595*
X02022Y00595*
X02022Y00595*
X02022Y00595*
X02022Y00595*
X02022Y00595*
X02022Y00595*
X02022Y00595*
X02022Y00595*
X02022Y00595*
X02022Y00595*
X02022Y00595*
X02022Y00595*
X02022Y00595*
X02022Y00595*
X02022Y00595*
X02022Y00594*
X02022Y00594*
X02022Y00594*
X02022Y00594*
X02022Y00594*
X02022Y00594*
X02022Y00594*
X02022Y00594*
X02022Y00594*
X02022Y00594*
X02022Y00594*
X02022Y00594*
X02022Y00594*
X02022Y00594*
X02022Y00594*
X02022Y00594*
X02022Y00594*
X02022Y00594*
X02022Y00594*
X02022Y00594*
X02022Y00594*
X02022Y00594*
X02023*
X02023Y00594*
X02023Y00594*
X02023Y00594*
X02023Y00594*
X02023Y00594*
X02023Y00594*
X02023Y00594*
X02023Y00594*
X02023Y00594*
X02023Y00594*
X02023Y00594*
X02023Y00594*
X02023Y00594*
X02023Y00594*
X02023Y00594*
X02023Y00594*
X02023Y00594*
X02023Y00594*
X02023Y00594*
X02023Y00594*
X02023Y00594*
X02024Y00595*
X02026D02*
D01*
X02025Y00595*
X02025Y00595*
X02025Y00595*
X02025Y00596*
X02025Y00596*
X02025Y00596*
X02025Y00596*
X02025Y00597*
X02025Y00597*
X02025Y00597*
X02024Y00597*
X02024Y00597*
X02024Y00598*
X02024Y00598*
X02024Y00598*
X02023Y00598*
X02023Y00598*
X02023Y00598*
X02022Y00598*
X02022Y00598*
X02022Y00598*
X02022Y00598*
X02021*
X02021Y00598*
X02021Y00598*
X02021Y00598*
X0202Y00598*
X0202Y00598*
X0202Y00598*
X0202Y00598*
X02019Y00598*
X02019Y00598*
X02019Y00597*
X02019Y00597*
X02018Y00597*
X02018Y00597*
X02018Y00597*
X02018Y00596*
X02018Y00596*
X02018Y00596*
X02018Y00596*
X02018Y00595*
X02018Y00595*
X02018Y00595*
X02018Y00595*
X02018Y00594*
X02018Y00594*
X02018Y00594*
X02018Y00593*
X02018Y00593*
X02018Y00593*
X02018Y00593*
X02018Y00592*
X02018Y00592*
X02018Y00592*
X02019Y00592*
X02019Y00592*
X02019Y00591*
X02019Y00591*
X0202Y00591*
X0202Y00591*
X0202Y00591*
X0202Y00591*
X02021Y00591*
X02021Y00591*
X02021Y00591*
X02021Y00591*
X02022*
X02022Y00591*
X02022Y00591*
X02022Y00591*
X02023Y00591*
X02023Y00591*
X02023Y00591*
X02024Y00591*
X02024Y00591*
X02024Y00591*
X02024Y00592*
X02024Y00592*
X02025Y00592*
X02025Y00592*
X02025Y00592*
X02025Y00593*
X02025Y00593*
X02025Y00593*
X02025Y00593*
X02025Y00594*
X02025Y00594*
X02025Y00594*
X02026Y00595*
X0203D02*
D01*
X02029Y00595*
X02029Y00595*
X02029Y00596*
X02029Y00596*
X02029Y00597*
X02029Y00597*
X02029Y00598*
X02028Y00598*
X02028Y00599*
X02028Y00599*
X02028Y00599*
X02027Y006*
X02027Y006*
X02026Y006*
X02026Y00601*
X02026Y00601*
X02025Y00601*
X02025Y00601*
X02024Y00601*
X02024Y00601*
X02023Y00601*
X02023Y00601*
X02022*
X02022Y00601*
X02021Y00601*
X02021Y00601*
X0202Y00601*
X0202Y00601*
X02019Y00601*
X02019Y00601*
X02019Y006*
X02018Y006*
X02018Y006*
X02017Y00599*
X02017Y00599*
X02017Y00599*
X02017Y00598*
X02016Y00598*
X02016Y00597*
X02016Y00597*
X02016Y00596*
X02016Y00596*
X02016Y00595*
X02016Y00595*
X02016Y00595*
X02016Y00594*
X02016Y00594*
X02016Y00593*
X02016Y00593*
X02016Y00592*
X02016Y00592*
X02016Y00591*
X02017Y00591*
X02017Y0059*
X02017Y0059*
X02017Y0059*
X02018Y00589*
X02018Y00589*
X02019Y00589*
X02019Y00588*
X02019Y00588*
X0202Y00588*
X0202Y00588*
X02021Y00588*
X02021Y00588*
X02022Y00588*
X02022Y00588*
X02023*
X02023Y00588*
X02024Y00588*
X02024Y00588*
X02025Y00588*
X02025Y00588*
X02026Y00588*
X02026Y00588*
X02026Y00589*
X02027Y00589*
X02027Y00589*
X02028Y0059*
X02028Y0059*
X02028Y0059*
X02028Y00591*
X02029Y00591*
X02029Y00592*
X02029Y00592*
X02029Y00593*
X02029Y00593*
X02029Y00594*
X02029Y00594*
X0203Y00595*
X01819D02*
D01*
X01818Y00595*
X01818Y00595*
X01818Y00595*
X01818Y00595*
X01818Y00595*
X01818Y00595*
X01818Y00595*
X01818Y00595*
X01818Y00595*
X01818Y00595*
X01818Y00595*
X01818Y00595*
X01818Y00595*
X01818Y00595*
X01818Y00595*
X01818Y00595*
X01818Y00595*
X01818Y00595*
X01818Y00595*
X01818Y00595*
X01818Y00595*
X01818Y00595*
X01817*
X01817Y00595*
X01817Y00595*
X01817Y00595*
X01817Y00595*
X01817Y00595*
X01817Y00595*
X01817Y00595*
X01817Y00595*
X01817Y00595*
X01817Y00595*
X01817Y00595*
X01817Y00595*
X01817Y00595*
X01817Y00595*
X01817Y00595*
X01817Y00595*
X01817Y00595*
X01817Y00595*
X01817Y00595*
X01817Y00595*
X01817Y00595*
X01817Y00595*
X01817Y00594*
X01817Y00594*
X01817Y00594*
X01817Y00594*
X01817Y00594*
X01817Y00594*
X01817Y00594*
X01817Y00594*
X01817Y00594*
X01817Y00594*
X01817Y00594*
X01817Y00594*
X01817Y00594*
X01817Y00594*
X01817Y00594*
X01817Y00594*
X01817Y00594*
X01817Y00594*
X01817Y00594*
X01817Y00594*
X01817Y00594*
X01817Y00594*
X01818*
X01818Y00594*
X01818Y00594*
X01818Y00594*
X01818Y00594*
X01818Y00594*
X01818Y00594*
X01818Y00594*
X01818Y00594*
X01818Y00594*
X01818Y00594*
X01818Y00594*
X01818Y00594*
X01818Y00594*
X01818Y00594*
X01818Y00594*
X01818Y00594*
X01818Y00594*
X01818Y00594*
X01818Y00594*
X01818Y00594*
X01818Y00594*
X01819Y00595*
X01821D02*
D01*
X0182Y00595*
X0182Y00595*
X0182Y00595*
X0182Y00596*
X0182Y00596*
X0182Y00596*
X0182Y00596*
X0182Y00597*
X0182Y00597*
X0182Y00597*
X01819Y00597*
X01819Y00597*
X01819Y00598*
X01819Y00598*
X01819Y00598*
X01818Y00598*
X01818Y00598*
X01818Y00598*
X01817Y00598*
X01817Y00598*
X01817Y00598*
X01817Y00598*
X01816*
X01816Y00598*
X01816Y00598*
X01816Y00598*
X01815Y00598*
X01815Y00598*
X01815Y00598*
X01815Y00598*
X01814Y00598*
X01814Y00598*
X01814Y00597*
X01814Y00597*
X01813Y00597*
X01813Y00597*
X01813Y00597*
X01813Y00596*
X01813Y00596*
X01813Y00596*
X01813Y00596*
X01813Y00595*
X01813Y00595*
X01813Y00595*
X01813Y00595*
X01813Y00594*
X01813Y00594*
X01813Y00594*
X01813Y00593*
X01813Y00593*
X01813Y00593*
X01813Y00593*
X01813Y00592*
X01813Y00592*
X01813Y00592*
X01814Y00592*
X01814Y00592*
X01814Y00591*
X01814Y00591*
X01815Y00591*
X01815Y00591*
X01815Y00591*
X01815Y00591*
X01816Y00591*
X01816Y00591*
X01816Y00591*
X01816Y00591*
X01817*
X01817Y00591*
X01817Y00591*
X01817Y00591*
X01818Y00591*
X01818Y00591*
X01818Y00591*
X01819Y00591*
X01819Y00591*
X01819Y00591*
X01819Y00592*
X01819Y00592*
X0182Y00592*
X0182Y00592*
X0182Y00592*
X0182Y00593*
X0182Y00593*
X0182Y00593*
X0182Y00593*
X0182Y00594*
X0182Y00594*
X0182Y00594*
X01821Y00595*
X01825D02*
D01*
X01824Y00595*
X01824Y00595*
X01824Y00596*
X01824Y00596*
X01824Y00597*
X01824Y00597*
X01824Y00598*
X01823Y00598*
X01823Y00599*
X01823Y00599*
X01823Y00599*
X01822Y006*
X01822Y006*
X01821Y006*
X01821Y00601*
X01821Y00601*
X0182Y00601*
X0182Y00601*
X01819Y00601*
X01819Y00601*
X01818Y00601*
X01818Y00601*
X01817*
X01817Y00601*
X01816Y00601*
X01816Y00601*
X01815Y00601*
X01815Y00601*
X01814Y00601*
X01814Y00601*
X01814Y006*
X01813Y006*
X01813Y006*
X01812Y00599*
X01812Y00599*
X01812Y00599*
X01812Y00598*
X01811Y00598*
X01811Y00597*
X01811Y00597*
X01811Y00596*
X01811Y00596*
X01811Y00595*
X01811Y00595*
X01811Y00595*
X01811Y00594*
X01811Y00594*
X01811Y00593*
X01811Y00593*
X01811Y00592*
X01811Y00592*
X01811Y00591*
X01812Y00591*
X01812Y0059*
X01812Y0059*
X01812Y0059*
X01813Y00589*
X01813Y00589*
X01814Y00589*
X01814Y00588*
X01814Y00588*
X01815Y00588*
X01815Y00588*
X01816Y00588*
X01816Y00588*
X01817Y00588*
X01817Y00588*
X01818*
X01818Y00588*
X01819Y00588*
X01819Y00588*
X0182Y00588*
X0182Y00588*
X01821Y00588*
X01821Y00588*
X01821Y00589*
X01822Y00589*
X01822Y00589*
X01823Y0059*
X01823Y0059*
X01823Y0059*
X01823Y00591*
X01824Y00591*
X01824Y00592*
X01824Y00592*
X01824Y00593*
X01824Y00593*
X01824Y00594*
X01824Y00594*
X01825Y00595*
X01574D02*
D01*
X01573Y00595*
X01573Y00595*
X01573Y00595*
X01573Y00595*
X01573Y00595*
X01573Y00595*
X01573Y00595*
X01573Y00595*
X01573Y00595*
X01573Y00595*
X01573Y00595*
X01573Y00595*
X01573Y00595*
X01573Y00595*
X01573Y00595*
X01573Y00595*
X01573Y00595*
X01573Y00595*
X01573Y00595*
X01573Y00595*
X01573Y00595*
X01573Y00595*
X01572*
X01572Y00595*
X01572Y00595*
X01572Y00595*
X01572Y00595*
X01572Y00595*
X01572Y00595*
X01572Y00595*
X01572Y00595*
X01572Y00595*
X01572Y00595*
X01572Y00595*
X01572Y00595*
X01572Y00595*
X01572Y00595*
X01572Y00595*
X01572Y00595*
X01572Y00595*
X01572Y00595*
X01572Y00595*
X01572Y00595*
X01572Y00595*
X01572Y00595*
X01572Y00594*
X01572Y00594*
X01572Y00594*
X01572Y00594*
X01572Y00594*
X01572Y00594*
X01572Y00594*
X01572Y00594*
X01572Y00594*
X01572Y00594*
X01572Y00594*
X01572Y00594*
X01572Y00594*
X01572Y00594*
X01572Y00594*
X01572Y00594*
X01572Y00594*
X01572Y00594*
X01572Y00594*
X01572Y00594*
X01572Y00594*
X01572Y00594*
X01573*
X01573Y00594*
X01573Y00594*
X01573Y00594*
X01573Y00594*
X01573Y00594*
X01573Y00594*
X01573Y00594*
X01573Y00594*
X01573Y00594*
X01573Y00594*
X01573Y00594*
X01573Y00594*
X01573Y00594*
X01573Y00594*
X01573Y00594*
X01573Y00594*
X01573Y00594*
X01573Y00594*
X01573Y00594*
X01573Y00594*
X01573Y00594*
X01574Y00595*
X01576D02*
D01*
X01575Y00595*
X01575Y00595*
X01575Y00595*
X01575Y00596*
X01575Y00596*
X01575Y00596*
X01575Y00596*
X01575Y00597*
X01575Y00597*
X01575Y00597*
X01574Y00597*
X01574Y00597*
X01574Y00598*
X01574Y00598*
X01574Y00598*
X01573Y00598*
X01573Y00598*
X01573Y00598*
X01572Y00598*
X01572Y00598*
X01572Y00598*
X01572Y00598*
X01571*
X01571Y00598*
X01571Y00598*
X01571Y00598*
X0157Y00598*
X0157Y00598*
X0157Y00598*
X0157Y00598*
X01569Y00598*
X01569Y00598*
X01569Y00597*
X01569Y00597*
X01568Y00597*
X01568Y00597*
X01568Y00597*
X01568Y00596*
X01568Y00596*
X01568Y00596*
X01568Y00596*
X01568Y00595*
X01568Y00595*
X01568Y00595*
X01568Y00595*
X01568Y00594*
X01568Y00594*
X01568Y00594*
X01568Y00593*
X01568Y00593*
X01568Y00593*
X01568Y00593*
X01568Y00592*
X01568Y00592*
X01568Y00592*
X01569Y00592*
X01569Y00592*
X01569Y00591*
X01569Y00591*
X0157Y00591*
X0157Y00591*
X0157Y00591*
X0157Y00591*
X01571Y00591*
X01571Y00591*
X01571Y00591*
X01571Y00591*
X01572*
X01572Y00591*
X01572Y00591*
X01572Y00591*
X01573Y00591*
X01573Y00591*
X01573Y00591*
X01574Y00591*
X01574Y00591*
X01574Y00591*
X01574Y00592*
X01574Y00592*
X01575Y00592*
X01575Y00592*
X01575Y00592*
X01575Y00593*
X01575Y00593*
X01575Y00593*
X01575Y00593*
X01575Y00594*
X01575Y00594*
X01575Y00594*
X01576Y00595*
X0158D02*
D01*
X01579Y00595*
X01579Y00595*
X01579Y00596*
X01579Y00596*
X01579Y00597*
X01579Y00597*
X01579Y00598*
X01578Y00598*
X01578Y00599*
X01578Y00599*
X01578Y00599*
X01577Y006*
X01577Y006*
X01576Y006*
X01576Y00601*
X01576Y00601*
X01575Y00601*
X01575Y00601*
X01574Y00601*
X01574Y00601*
X01573Y00601*
X01573Y00601*
X01572*
X01572Y00601*
X01571Y00601*
X01571Y00601*
X0157Y00601*
X0157Y00601*
X01569Y00601*
X01569Y00601*
X01569Y006*
X01568Y006*
X01568Y006*
X01567Y00599*
X01567Y00599*
X01567Y00599*
X01567Y00598*
X01566Y00598*
X01566Y00597*
X01566Y00597*
X01566Y00596*
X01566Y00596*
X01566Y00595*
X01566Y00595*
X01566Y00595*
X01566Y00594*
X01566Y00594*
X01566Y00593*
X01566Y00593*
X01566Y00592*
X01566Y00592*
X01566Y00591*
X01567Y00591*
X01567Y0059*
X01567Y0059*
X01567Y0059*
X01568Y00589*
X01568Y00589*
X01569Y00589*
X01569Y00588*
X01569Y00588*
X0157Y00588*
X0157Y00588*
X01571Y00588*
X01571Y00588*
X01572Y00588*
X01572Y00588*
X01573*
X01573Y00588*
X01574Y00588*
X01574Y00588*
X01575Y00588*
X01575Y00588*
X01576Y00588*
X01576Y00588*
X01576Y00589*
X01577Y00589*
X01577Y00589*
X01578Y0059*
X01578Y0059*
X01578Y0059*
X01578Y00591*
X01579Y00591*
X01579Y00592*
X01579Y00592*
X01579Y00593*
X01579Y00593*
X01579Y00594*
X01579Y00594*
X0158Y00595*
X01369D02*
D01*
X01368Y00595*
X01368Y00595*
X01368Y00595*
X01368Y00595*
X01368Y00595*
X01368Y00595*
X01368Y00595*
X01368Y00595*
X01368Y00595*
X01368Y00595*
X01368Y00595*
X01368Y00595*
X01368Y00595*
X01368Y00595*
X01368Y00595*
X01368Y00595*
X01368Y00595*
X01368Y00595*
X01368Y00595*
X01368Y00595*
X01368Y00595*
X01368Y00595*
X01367*
X01367Y00595*
X01367Y00595*
X01367Y00595*
X01367Y00595*
X01367Y00595*
X01367Y00595*
X01367Y00595*
X01367Y00595*
X01367Y00595*
X01367Y00595*
X01367Y00595*
X01367Y00595*
X01367Y00595*
X01367Y00595*
X01367Y00595*
X01367Y00595*
X01367Y00595*
X01367Y00595*
X01367Y00595*
X01367Y00595*
X01367Y00595*
X01367Y00595*
X01367Y00594*
X01367Y00594*
X01367Y00594*
X01367Y00594*
X01367Y00594*
X01367Y00594*
X01367Y00594*
X01367Y00594*
X01367Y00594*
X01367Y00594*
X01367Y00594*
X01367Y00594*
X01367Y00594*
X01367Y00594*
X01367Y00594*
X01367Y00594*
X01367Y00594*
X01367Y00594*
X01367Y00594*
X01367Y00594*
X01367Y00594*
X01367Y00594*
X01368*
X01368Y00594*
X01368Y00594*
X01368Y00594*
X01368Y00594*
X01368Y00594*
X01368Y00594*
X01368Y00594*
X01368Y00594*
X01368Y00594*
X01368Y00594*
X01368Y00594*
X01368Y00594*
X01368Y00594*
X01368Y00594*
X01368Y00594*
X01368Y00594*
X01368Y00594*
X01368Y00594*
X01368Y00594*
X01368Y00594*
X01368Y00594*
X01369Y00595*
X01371D02*
D01*
X0137Y00595*
X0137Y00595*
X0137Y00595*
X0137Y00596*
X0137Y00596*
X0137Y00596*
X0137Y00596*
X0137Y00597*
X0137Y00597*
X0137Y00597*
X01369Y00597*
X01369Y00597*
X01369Y00598*
X01369Y00598*
X01369Y00598*
X01368Y00598*
X01368Y00598*
X01368Y00598*
X01367Y00598*
X01367Y00598*
X01367Y00598*
X01367Y00598*
X01366*
X01366Y00598*
X01366Y00598*
X01366Y00598*
X01365Y00598*
X01365Y00598*
X01365Y00598*
X01365Y00598*
X01364Y00598*
X01364Y00598*
X01364Y00597*
X01364Y00597*
X01363Y00597*
X01363Y00597*
X01363Y00597*
X01363Y00596*
X01363Y00596*
X01363Y00596*
X01363Y00596*
X01363Y00595*
X01363Y00595*
X01363Y00595*
X01363Y00595*
X01363Y00594*
X01363Y00594*
X01363Y00594*
X01363Y00593*
X01363Y00593*
X01363Y00593*
X01363Y00593*
X01363Y00592*
X01363Y00592*
X01363Y00592*
X01364Y00592*
X01364Y00592*
X01364Y00591*
X01364Y00591*
X01365Y00591*
X01365Y00591*
X01365Y00591*
X01365Y00591*
X01366Y00591*
X01366Y00591*
X01366Y00591*
X01366Y00591*
X01367*
X01367Y00591*
X01367Y00591*
X01367Y00591*
X01368Y00591*
X01368Y00591*
X01368Y00591*
X01369Y00591*
X01369Y00591*
X01369Y00591*
X01369Y00592*
X01369Y00592*
X0137Y00592*
X0137Y00592*
X0137Y00592*
X0137Y00593*
X0137Y00593*
X0137Y00593*
X0137Y00593*
X0137Y00594*
X0137Y00594*
X0137Y00594*
X01371Y00595*
X01375D02*
D01*
X01374Y00595*
X01374Y00595*
X01374Y00596*
X01374Y00596*
X01374Y00597*
X01374Y00597*
X01374Y00598*
X01373Y00598*
X01373Y00599*
X01373Y00599*
X01373Y00599*
X01372Y006*
X01372Y006*
X01371Y006*
X01371Y00601*
X01371Y00601*
X0137Y00601*
X0137Y00601*
X01369Y00601*
X01369Y00601*
X01368Y00601*
X01368Y00601*
X01367*
X01367Y00601*
X01366Y00601*
X01366Y00601*
X01365Y00601*
X01365Y00601*
X01364Y00601*
X01364Y00601*
X01364Y006*
X01363Y006*
X01363Y006*
X01362Y00599*
X01362Y00599*
X01362Y00599*
X01362Y00598*
X01361Y00598*
X01361Y00597*
X01361Y00597*
X01361Y00596*
X01361Y00596*
X01361Y00595*
X01361Y00595*
X01361Y00595*
X01361Y00594*
X01361Y00594*
X01361Y00593*
X01361Y00593*
X01361Y00592*
X01361Y00592*
X01361Y00591*
X01362Y00591*
X01362Y0059*
X01362Y0059*
X01362Y0059*
X01363Y00589*
X01363Y00589*
X01364Y00589*
X01364Y00588*
X01364Y00588*
X01365Y00588*
X01365Y00588*
X01366Y00588*
X01366Y00588*
X01367Y00588*
X01367Y00588*
X01368*
X01368Y00588*
X01369Y00588*
X01369Y00588*
X0137Y00588*
X0137Y00588*
X01371Y00588*
X01371Y00588*
X01371Y00589*
X01372Y00589*
X01372Y00589*
X01373Y0059*
X01373Y0059*
X01373Y0059*
X01373Y00591*
X01374Y00591*
X01374Y00592*
X01374Y00592*
X01374Y00593*
X01374Y00593*
X01374Y00594*
X01374Y00594*
X01375Y00595*
X01129D02*
D01*
X01128Y00595*
X01128Y00595*
X01128Y00595*
X01128Y00595*
X01128Y00595*
X01128Y00595*
X01128Y00595*
X01128Y00595*
X01128Y00595*
X01128Y00595*
X01128Y00595*
X01128Y00595*
X01128Y00595*
X01128Y00595*
X01128Y00595*
X01128Y00595*
X01128Y00595*
X01128Y00595*
X01128Y00595*
X01128Y00595*
X01128Y00595*
X01128Y00595*
X01127*
X01127Y00595*
X01127Y00595*
X01127Y00595*
X01127Y00595*
X01127Y00595*
X01127Y00595*
X01127Y00595*
X01127Y00595*
X01127Y00595*
X01127Y00595*
X01127Y00595*
X01127Y00595*
X01127Y00595*
X01127Y00595*
X01127Y00595*
X01127Y00595*
X01127Y00595*
X01127Y00595*
X01127Y00595*
X01127Y00595*
X01127Y00595*
X01127Y00595*
X01127Y00594*
X01127Y00594*
X01127Y00594*
X01127Y00594*
X01127Y00594*
X01127Y00594*
X01127Y00594*
X01127Y00594*
X01127Y00594*
X01127Y00594*
X01127Y00594*
X01127Y00594*
X01127Y00594*
X01127Y00594*
X01127Y00594*
X01127Y00594*
X01127Y00594*
X01127Y00594*
X01127Y00594*
X01127Y00594*
X01127Y00594*
X01127Y00594*
X01128*
X01128Y00594*
X01128Y00594*
X01128Y00594*
X01128Y00594*
X01128Y00594*
X01128Y00594*
X01128Y00594*
X01128Y00594*
X01128Y00594*
X01128Y00594*
X01128Y00594*
X01128Y00594*
X01128Y00594*
X01128Y00594*
X01128Y00594*
X01128Y00594*
X01128Y00594*
X01128Y00594*
X01128Y00594*
X01128Y00594*
X01128Y00594*
X01129Y00595*
X01131D02*
D01*
X0113Y00595*
X0113Y00595*
X0113Y00595*
X0113Y00596*
X0113Y00596*
X0113Y00596*
X0113Y00596*
X0113Y00597*
X0113Y00597*
X0113Y00597*
X01129Y00597*
X01129Y00597*
X01129Y00598*
X01129Y00598*
X01129Y00598*
X01128Y00598*
X01128Y00598*
X01128Y00598*
X01127Y00598*
X01127Y00598*
X01127Y00598*
X01127Y00598*
X01126*
X01126Y00598*
X01126Y00598*
X01126Y00598*
X01125Y00598*
X01125Y00598*
X01125Y00598*
X01125Y00598*
X01124Y00598*
X01124Y00598*
X01124Y00597*
X01124Y00597*
X01123Y00597*
X01123Y00597*
X01123Y00597*
X01123Y00596*
X01123Y00596*
X01123Y00596*
X01123Y00596*
X01123Y00595*
X01123Y00595*
X01123Y00595*
X01123Y00595*
X01123Y00594*
X01123Y00594*
X01123Y00594*
X01123Y00593*
X01123Y00593*
X01123Y00593*
X01123Y00593*
X01123Y00592*
X01123Y00592*
X01123Y00592*
X01124Y00592*
X01124Y00592*
X01124Y00591*
X01124Y00591*
X01125Y00591*
X01125Y00591*
X01125Y00591*
X01125Y00591*
X01126Y00591*
X01126Y00591*
X01126Y00591*
X01126Y00591*
X01127*
X01127Y00591*
X01127Y00591*
X01127Y00591*
X01128Y00591*
X01128Y00591*
X01128Y00591*
X01129Y00591*
X01129Y00591*
X01129Y00591*
X01129Y00592*
X01129Y00592*
X0113Y00592*
X0113Y00592*
X0113Y00592*
X0113Y00593*
X0113Y00593*
X0113Y00593*
X0113Y00593*
X0113Y00594*
X0113Y00594*
X0113Y00594*
X01131Y00595*
X01135D02*
D01*
X01134Y00595*
X01134Y00595*
X01134Y00596*
X01134Y00596*
X01134Y00597*
X01134Y00597*
X01134Y00598*
X01133Y00598*
X01133Y00599*
X01133Y00599*
X01133Y00599*
X01132Y006*
X01132Y006*
X01131Y006*
X01131Y00601*
X01131Y00601*
X0113Y00601*
X0113Y00601*
X01129Y00601*
X01129Y00601*
X01128Y00601*
X01128Y00601*
X01127*
X01127Y00601*
X01126Y00601*
X01126Y00601*
X01125Y00601*
X01125Y00601*
X01124Y00601*
X01124Y00601*
X01124Y006*
X01123Y006*
X01123Y006*
X01122Y00599*
X01122Y00599*
X01122Y00599*
X01122Y00598*
X01121Y00598*
X01121Y00597*
X01121Y00597*
X01121Y00596*
X01121Y00596*
X01121Y00595*
X01121Y00595*
X01121Y00595*
X01121Y00594*
X01121Y00594*
X01121Y00593*
X01121Y00593*
X01121Y00592*
X01121Y00592*
X01121Y00591*
X01122Y00591*
X01122Y0059*
X01122Y0059*
X01122Y0059*
X01123Y00589*
X01123Y00589*
X01124Y00589*
X01124Y00588*
X01124Y00588*
X01125Y00588*
X01125Y00588*
X01126Y00588*
X01126Y00588*
X01127Y00588*
X01127Y00588*
X01128*
X01128Y00588*
X01129Y00588*
X01129Y00588*
X0113Y00588*
X0113Y00588*
X01131Y00588*
X01131Y00588*
X01131Y00589*
X01132Y00589*
X01132Y00589*
X01133Y0059*
X01133Y0059*
X01133Y0059*
X01133Y00591*
X01134Y00591*
X01134Y00592*
X01134Y00592*
X01134Y00593*
X01134Y00593*
X01134Y00594*
X01134Y00594*
X01135Y00595*
X00919D02*
D01*
X00918Y00595*
X00918Y00595*
X00918Y00595*
X00918Y00595*
X00918Y00595*
X00918Y00595*
X00918Y00595*
X00918Y00595*
X00918Y00595*
X00918Y00595*
X00918Y00595*
X00918Y00595*
X00918Y00595*
X00918Y00595*
X00918Y00595*
X00918Y00595*
X00918Y00595*
X00918Y00595*
X00918Y00595*
X00918Y00595*
X00918Y00595*
X00918Y00595*
X00917*
X00917Y00595*
X00917Y00595*
X00917Y00595*
X00917Y00595*
X00917Y00595*
X00917Y00595*
X00917Y00595*
X00917Y00595*
X00917Y00595*
X00917Y00595*
X00917Y00595*
X00917Y00595*
X00917Y00595*
X00917Y00595*
X00917Y00595*
X00917Y00595*
X00917Y00595*
X00917Y00595*
X00917Y00595*
X00917Y00595*
X00917Y00595*
X00917Y00595*
X00917Y00594*
X00917Y00594*
X00917Y00594*
X00917Y00594*
X00917Y00594*
X00917Y00594*
X00917Y00594*
X00917Y00594*
X00917Y00594*
X00917Y00594*
X00917Y00594*
X00917Y00594*
X00917Y00594*
X00917Y00594*
X00917Y00594*
X00917Y00594*
X00917Y00594*
X00917Y00594*
X00917Y00594*
X00917Y00594*
X00917Y00594*
X00917Y00594*
X00918*
X00918Y00594*
X00918Y00594*
X00918Y00594*
X00918Y00594*
X00918Y00594*
X00918Y00594*
X00918Y00594*
X00918Y00594*
X00918Y00594*
X00918Y00594*
X00918Y00594*
X00918Y00594*
X00918Y00594*
X00918Y00594*
X00918Y00594*
X00918Y00594*
X00918Y00594*
X00918Y00594*
X00918Y00594*
X00918Y00594*
X00918Y00594*
X00919Y00595*
X00921D02*
D01*
X0092Y00595*
X0092Y00595*
X0092Y00595*
X0092Y00596*
X0092Y00596*
X0092Y00596*
X0092Y00596*
X0092Y00597*
X0092Y00597*
X0092Y00597*
X00919Y00597*
X00919Y00597*
X00919Y00598*
X00919Y00598*
X00919Y00598*
X00918Y00598*
X00918Y00598*
X00918Y00598*
X00917Y00598*
X00917Y00598*
X00917Y00598*
X00917Y00598*
X00916*
X00916Y00598*
X00916Y00598*
X00916Y00598*
X00915Y00598*
X00915Y00598*
X00915Y00598*
X00915Y00598*
X00914Y00598*
X00914Y00598*
X00914Y00597*
X00914Y00597*
X00913Y00597*
X00913Y00597*
X00913Y00597*
X00913Y00596*
X00913Y00596*
X00913Y00596*
X00913Y00596*
X00913Y00595*
X00913Y00595*
X00913Y00595*
X00913Y00595*
X00913Y00594*
X00913Y00594*
X00913Y00594*
X00913Y00593*
X00913Y00593*
X00913Y00593*
X00913Y00593*
X00913Y00592*
X00913Y00592*
X00913Y00592*
X00914Y00592*
X00914Y00592*
X00914Y00591*
X00914Y00591*
X00915Y00591*
X00915Y00591*
X00915Y00591*
X00915Y00591*
X00916Y00591*
X00916Y00591*
X00916Y00591*
X00916Y00591*
X00917*
X00917Y00591*
X00917Y00591*
X00917Y00591*
X00918Y00591*
X00918Y00591*
X00918Y00591*
X00919Y00591*
X00919Y00591*
X00919Y00591*
X00919Y00592*
X00919Y00592*
X0092Y00592*
X0092Y00592*
X0092Y00592*
X0092Y00593*
X0092Y00593*
X0092Y00593*
X0092Y00593*
X0092Y00594*
X0092Y00594*
X0092Y00594*
X00921Y00595*
X00925D02*
D01*
X00924Y00595*
X00924Y00595*
X00924Y00596*
X00924Y00596*
X00924Y00597*
X00924Y00597*
X00924Y00598*
X00923Y00598*
X00923Y00599*
X00923Y00599*
X00923Y00599*
X00922Y006*
X00922Y006*
X00921Y006*
X00921Y00601*
X00921Y00601*
X0092Y00601*
X0092Y00601*
X00919Y00601*
X00919Y00601*
X00918Y00601*
X00918Y00601*
X00917*
X00917Y00601*
X00916Y00601*
X00916Y00601*
X00915Y00601*
X00915Y00601*
X00914Y00601*
X00914Y00601*
X00914Y006*
X00913Y006*
X00913Y006*
X00912Y00599*
X00912Y00599*
X00912Y00599*
X00912Y00598*
X00911Y00598*
X00911Y00597*
X00911Y00597*
X00911Y00596*
X00911Y00596*
X00911Y00595*
X00911Y00595*
X00911Y00595*
X00911Y00594*
X00911Y00594*
X00911Y00593*
X00911Y00593*
X00911Y00592*
X00911Y00592*
X00911Y00591*
X00912Y00591*
X00912Y0059*
X00912Y0059*
X00912Y0059*
X00913Y00589*
X00913Y00589*
X00914Y00589*
X00914Y00588*
X00914Y00588*
X00915Y00588*
X00915Y00588*
X00916Y00588*
X00916Y00588*
X00917Y00588*
X00917Y00588*
X00918*
X00918Y00588*
X00919Y00588*
X00919Y00588*
X0092Y00588*
X0092Y00588*
X00921Y00588*
X00921Y00588*
X00921Y00589*
X00922Y00589*
X00922Y00589*
X00923Y0059*
X00923Y0059*
X00923Y0059*
X00923Y00591*
X00924Y00591*
X00924Y00592*
X00924Y00592*
X00924Y00593*
X00924Y00593*
X00924Y00594*
X00924Y00594*
X00925Y00595*
X00785Y02027D02*
X00921D01*
X00785Y02137D02*
X00921D01*
Y02068D02*
Y02096D01*
Y02135D02*
Y02137D01*
X00785Y02068D02*
Y02096D01*
Y02135D02*
Y02137D01*
Y02027D02*
Y02029D01*
X00921Y02027D02*
Y02029D01*
X00837Y01311D02*
X01309D01*
X00801Y01346D02*
X00837Y01311D01*
X00801Y01346D02*
Y01818D01*
X00838Y01854D02*
X01309D01*
X00801Y01818D02*
X00838Y01854D01*
X01344Y01346D02*
Y01819D01*
X01309Y01854D02*
X01344Y01819D01*
X01309Y01311D02*
X01344Y01346D01*
X01309Y01311D02*
Y01312D01*
G54D68*
X00819Y02302D02*
D01*
X00818Y02302*
X00818Y02302*
X00818Y02302*
X00818Y02303*
X00818Y02303*
X00818Y02303*
X00818Y02303*
X00818Y02304*
X00818Y02304*
X00818Y02304*
X00817Y02304*
X00817Y02304*
X00817Y02305*
X00817Y02305*
X00817Y02305*
X00816Y02305*
X00816Y02305*
X00816Y02305*
X00815Y02305*
X00815Y02305*
X00815Y02305*
X00815Y02305*
X00814*
X00814Y02305*
X00814Y02305*
X00814Y02305*
X00813Y02305*
X00813Y02305*
X00813Y02305*
X00813Y02305*
X00812Y02305*
X00812Y02305*
X00812Y02304*
X00812Y02304*
X00811Y02304*
X00811Y02304*
X00811Y02304*
X00811Y02303*
X00811Y02303*
X00811Y02303*
X00811Y02303*
X00811Y02302*
X00811Y02302*
X00811Y02302*
X00811Y02302*
X00811Y02301*
X00811Y02301*
X00811Y02301*
X00811Y023*
X00811Y023*
X00811Y023*
X00811Y023*
X00811Y02299*
X00811Y02299*
X00811Y02299*
X00812Y02299*
X00812Y02299*
X00812Y02298*
X00812Y02298*
X00813Y02298*
X00813Y02298*
X00813Y02298*
X00813Y02298*
X00814Y02298*
X00814Y02298*
X00814Y02298*
X00814Y02298*
X00815*
X00815Y02298*
X00815Y02298*
X00815Y02298*
X00816Y02298*
X00816Y02298*
X00816Y02298*
X00817Y02298*
X00817Y02298*
X00817Y02298*
X00817Y02299*
X00817Y02299*
X00818Y02299*
X00818Y02299*
X00818Y02299*
X00818Y023*
X00818Y023*
X00818Y023*
X00818Y023*
X00818Y02301*
X00818Y02301*
X00818Y02301*
X00819Y02302*
X02225Y01715D02*
D01*
X01713D02*
D01*
Y02227*
Y01715D02*
X02225D01*
Y02227D01*
X01713D02*
X02225D01*
X00054Y01104D02*
Y01131D01*
X00154D01*
Y01104D02*
Y01131D01*
X00002Y01384D02*
X00054D01*
X00164D02*
X00206D01*
Y01104D02*
Y01384D01*
X00002Y01104D02*
Y01384D01*
X00154Y01104D02*
X00206D01*
X00002D02*
X00054D01*
Y01356D02*
Y01384D01*
Y01356D02*
X0009D01*
X02632Y01913D02*
Y02035D01*
Y02106*
X03121Y02035D02*
Y02106D01*
Y01913D02*
Y02035D01*
X02632Y02106D02*
X03121D01*
X02632Y01913D02*
X03121D01*
X00379Y00674D02*
Y00701D01*
X00479D01*
Y00674D02*
Y00701D01*
X00327Y00954D02*
X00379D01*
X00489D02*
X00531D01*
Y00674D02*
Y00954D01*
X00327Y00674D02*
Y00954D01*
X00479Y00674D02*
X00531D01*
X00327D02*
X00379D01*
Y00926D02*
Y00954D01*
Y00926D02*
X00415D01*
X00054Y00674D02*
Y00701D01*
X00154D01*
Y00674D02*
Y00701D01*
X00002Y00954D02*
X00054D01*
X00164D02*
X00206D01*
Y00674D02*
Y00954D01*
X00002Y00674D02*
Y00954D01*
X00154Y00674D02*
X00206D01*
X00002D02*
X00054D01*
Y00926D02*
Y00954D01*
Y00926D02*
X0009D01*
X00379Y01104D02*
Y01131D01*
X00479D01*
Y01104D02*
Y01131D01*
X00327Y01384D02*
X00379D01*
X00489D02*
X00531D01*
Y01104D02*
Y01384D01*
X00327Y01104D02*
Y01384D01*
X00479Y01104D02*
X00531D01*
X00327D02*
X00379D01*
Y01356D02*
Y01384D01*
Y01356D02*
X00415D01*
X00379Y01534D02*
Y01561D01*
X00479D01*
Y01534D02*
Y01561D01*
X00327Y01814D02*
X00379D01*
X00489D02*
X00531D01*
Y01534D02*
Y01814D01*
X00327Y01534D02*
Y01814D01*
X00479Y01534D02*
X00531D01*
X00327D02*
X00379D01*
Y01786D02*
Y01814D01*
Y01786D02*
X00415D01*
X00054Y01534D02*
Y01561D01*
X00154D01*
Y01534D02*
Y01561D01*
X00002Y01814D02*
X00054D01*
X00164D02*
X00206D01*
Y01534D02*
Y01814D01*
X00002Y01534D02*
Y01814D01*
X00154Y01534D02*
X00206D01*
X00002D02*
X00054D01*
Y01786D02*
Y01814D01*
Y01786D02*
X0009D01*
X00379Y01964D02*
Y01991D01*
X00479D01*
Y01964D02*
Y01991D01*
X00327Y02244D02*
X00379D01*
X00489D02*
X00531D01*
Y01964D02*
Y02244D01*
X00327Y01964D02*
Y02244D01*
X00479Y01964D02*
X00531D01*
X00327D02*
X00379D01*
Y02216D02*
Y02244D01*
Y02216D02*
X00415D01*
X00054Y01964D02*
Y01991D01*
X00154D01*
Y01964D02*
Y01991D01*
X00002Y02244D02*
X00054D01*
X00164D02*
X00206D01*
Y01964D02*
Y02244D01*
X00002Y01964D02*
Y02244D01*
X00154Y01964D02*
X00206D01*
X00002D02*
X00054D01*
Y02216D02*
Y02244D01*
Y02216D02*
X0009D01*
X02969Y00355D02*
X02995D01*
X02969D02*
Y00455D01*
X02995D01*
X02716Y00303D02*
Y00355D01*
Y00465D02*
Y00507D01*
X02995*
X02716Y00303D02*
X02995D01*
Y00455D02*
Y00507D01*
Y00303D02*
Y00355D01*
X02716D02*
X02743D01*
Y00391*
X02519Y00355D02*
X02545D01*
X02519D02*
Y00455D01*
X02545D01*
X02266Y00303D02*
Y00355D01*
Y00465D02*
Y00507D01*
X02545*
X02266Y00303D02*
X02545D01*
Y00455D02*
Y00507D01*
Y00303D02*
Y00355D01*
X02266D02*
X02293D01*
Y00391*
X02069Y00355D02*
X02095D01*
X02069D02*
Y00455D01*
X02095D01*
X01816Y00303D02*
Y00355D01*
Y00465D02*
Y00507D01*
X02095*
X01816Y00303D02*
X02095D01*
Y00455D02*
Y00507D01*
Y00303D02*
Y00355D01*
X01816D02*
X01843D01*
Y00391*
X01619Y00355D02*
X01645D01*
X01619D02*
Y00455D01*
X01645D01*
X01366Y00303D02*
Y00355D01*
Y00465D02*
Y00507D01*
X01645*
X01366Y00303D02*
X01645D01*
Y00455D02*
Y00507D01*
Y00303D02*
Y00355D01*
X01366D02*
X01393D01*
Y00391*
X01169Y00355D02*
X01195D01*
X01169D02*
Y00455D01*
X01195D01*
X00916Y00303D02*
Y00355D01*
Y00465D02*
Y00507D01*
X01195*
X00916Y00303D02*
X01195D01*
Y00455D02*
Y00507D01*
Y00303D02*
Y00355D01*
X00916D02*
X00943D01*
Y00391*
X02969Y00055D02*
X02995D01*
X02969D02*
Y00155D01*
X02995D01*
X02716Y00003D02*
Y00055D01*
Y00165D02*
Y00207D01*
X02995*
X02716Y00003D02*
X02995D01*
Y00155D02*
Y00207D01*
Y00003D02*
Y00055D01*
X02716D02*
X02743D01*
Y00091*
X02519Y00055D02*
X02545D01*
X02519D02*
Y00155D01*
X02545D01*
X02266Y00003D02*
Y00055D01*
Y00165D02*
Y00207D01*
X02545*
X02266Y00003D02*
X02545D01*
Y00155D02*
Y00207D01*
Y00003D02*
Y00055D01*
X02266D02*
X02293D01*
Y00091*
X02069Y00055D02*
X02095D01*
X02069D02*
Y00155D01*
X02095D01*
X01816Y00003D02*
Y00055D01*
Y00165D02*
Y00207D01*
X02095*
X01816Y00003D02*
X02095D01*
Y00155D02*
Y00207D01*
Y00003D02*
Y00055D01*
X01816D02*
X01843D01*
Y00091*
X01619Y00055D02*
X01645D01*
X01619D02*
Y00155D01*
X01645D01*
X01366Y00003D02*
Y00055D01*
Y00165D02*
Y00207D01*
X01645*
X01366Y00003D02*
X01645D01*
Y00155D02*
Y00207D01*
Y00003D02*
Y00055D01*
X01366D02*
X01393D01*
Y00091*
X01169Y00055D02*
X01195D01*
X01169D02*
Y00155D01*
X01195D01*
X00916Y00003D02*
Y00055D01*
Y00165D02*
Y00207D01*
X01195*
X00916Y00003D02*
X01195D01*
Y00155D02*
Y00207D01*
Y00003D02*
Y00055D01*
X00916D02*
X00943D01*
Y00091*
X03918Y01676D02*
Y0182D01*
X03603D02*
X03918D01*
X03603Y01676D02*
Y0182D01*
Y01676D02*
X03918D01*
X03166Y01628D02*
X03556D01*
X03166Y01821D02*
X03556D01*
Y01628D02*
Y0175D01*
Y01821*
X03166Y01628D02*
Y01821D01*
X00964Y02275D02*
X00984D01*
Y02295*
X00964Y02475D02*
X00984D01*
Y02455D02*
Y02475D01*
X00784Y02455D02*
Y02475D01*
X00804*
X00784Y02275D02*
X00804D01*
X00784D02*
Y02295D01*
X03166Y01913D02*
X03556D01*
X03166Y02106D02*
X03556D01*
Y01913D02*
Y02035D01*
Y02106*
X03166Y01913D02*
Y02106D01*
X03603Y01961D02*
X03918D01*
X03603D02*
Y02105D01*
X03918*
Y01961D02*
Y02105D01*
X02906Y00579D02*
X03012D01*
Y00752*
X02906D02*
X03012D01*
X02906Y00579D02*
Y00752D01*
X02701Y00579D02*
X02807D01*
Y00752*
X02701D02*
X02807D01*
X02701Y00579D02*
Y00752D01*
X02456Y00579D02*
X02562D01*
Y00752*
X02456D02*
X02562D01*
X02456Y00579D02*
Y00752D01*
X02251Y00579D02*
X02357D01*
Y00752*
X02251D02*
X02357D01*
X02251Y00579D02*
Y00752D01*
X02006Y00579D02*
X02112D01*
Y00752*
X02006D02*
X02112D01*
X02006Y00579D02*
Y00752D01*
X01801Y00579D02*
X01907D01*
Y00752*
X01801D02*
X01907D01*
X01801Y00579D02*
Y00752D01*
X01556Y00579D02*
X01662D01*
Y00752*
X01556D02*
X01662D01*
X01556Y00579D02*
Y00752D01*
X01351Y00579D02*
X01457D01*
Y00752*
X01351D02*
X01457D01*
X01351Y00579D02*
Y00752D01*
X01111Y00579D02*
X01217D01*
Y00752*
X01111D02*
X01217D01*
X01111Y00579D02*
Y00752D01*
X00901Y00579D02*
X01007D01*
Y00752*
X00901D02*
X01007D01*
X00901Y00579D02*
Y00752D01*
X02555Y01459D02*
Y01538D01*
X02604*
X02555Y01459D02*
X02604D01*
Y01538*
X0265Y01459D02*
Y01538D01*
X02699*
X0265Y01459D02*
X02699D01*
Y01538*
X02745Y01459D02*
Y01538D01*
X02794*
X02745Y01459D02*
X02794D01*
Y01538*
X02604Y01223D02*
Y01301D01*
X02555Y01223D02*
X02604D01*
X02555Y01301D02*
X02604D01*
X02555Y01223D02*
Y01301D01*
X02699Y01223D02*
Y01301D01*
X0265Y01223D02*
X02699D01*
X0265Y01301D02*
X02699D01*
X0265Y01223D02*
Y01301D01*
X02794Y01223D02*
Y01301D01*
X02745Y01223D02*
X02794D01*
X02745Y01301D02*
X02794D01*
X02745Y01223D02*
Y01301D01*
X01154Y02011D02*
Y02023D01*
X01028Y02011D02*
Y02023D01*
X01077Y01968D02*
X01105D01*
X01077Y02066D02*
X01105D01*
X02348Y0221D02*
Y02509D01*
Y0221D02*
X02809D01*
X02348Y02509D02*
X02809D01*
Y0221D02*
Y02509D01*
X0036Y00131D02*
X0066D01*
Y00592*
X0036Y00131D02*
Y00592D01*
X0066*
X02348Y0256D02*
Y02859D01*
Y0256D02*
X02809D01*
X02348Y02859D02*
X02809D01*
Y0256D02*
Y02859D01*
X00287Y0244D02*
Y02591D01*
X00151Y0244D02*
X00287D01*
X00151Y02591D02*
X00287D01*
X00151Y0244D02*
Y02591D01*
X02632Y01628D02*
Y0175D01*
Y01821*
X03121Y0175D02*
Y01821D01*
Y01628D02*
Y0175D01*
X02632Y01821D02*
X03121D01*
X02632Y01628D02*
X03121D01*
G54D69*
X00059Y01445D02*
Y01475D01*
X00074*
X00079Y0147*
Y0146*
X00074Y01455*
X00059*
X00109Y01445D02*
X00089D01*
X00109Y01465*
Y0147*
X00104Y01475*
X00094*
X00089Y0147*
X00119D02*
X00124Y01475D01*
X00134*
X00139Y0147*
Y01465*
X00134Y0146*
X00139Y01455*
Y0145*
X00134Y01445*
X00124*
X00119Y0145*
Y01455*
X00124Y0146*
X00119Y01465*
Y0147*
X00124Y0146D02*
X00134D01*
X01784Y0123D02*
X01779Y01235D01*
X01769*
X01764Y0123*
Y0121*
X01769Y01205*
X01779*
X01784Y0121*
X01794Y0123D02*
X01799Y01235D01*
X01809*
X01814Y0123*
Y01225*
X01809Y0122*
X01804*
X01809*
X01814Y01215*
Y0121*
X01809Y01205*
X01799*
X01794Y0121*
X01844Y01235D02*
X01834Y0123D01*
X01824Y0122*
Y0121*
X01829Y01205*
X01839*
X01844Y0121*
Y01215*
X01839Y0122*
X01824*
X00654Y02816D02*
X00649Y02821D01*
X00639*
X00634Y02816*
Y02796*
X00639Y02791*
X00649*
X00654Y02796*
X00664Y02816D02*
X00669Y02821D01*
X00679*
X00684Y02816*
Y02811*
X00679Y02806*
X00674*
X00679*
X00684Y02801*
Y02796*
X00679Y02791*
X00669*
X00664Y02796*
X00714Y02791D02*
X00694D01*
X00714Y02811*
Y02816*
X00709Y02821*
X00699*
X00694Y02816*
X03567Y00744D02*
Y00774D01*
X03582*
X03587Y00769*
Y00759*
X03582Y00754*
X03567*
X03597Y00769D02*
X03602Y00774D01*
X03612*
X03617Y00769*
Y00764*
X03612Y00759*
X03607*
X03612*
X03617Y00754*
Y00749*
X03612Y00744*
X03602*
X03597Y00749*
X03647Y00744D02*
X03627D01*
X03647Y00764*
Y00769*
X03642Y00774*
X03632*
X03627Y00769*
X03811Y00744D02*
Y00774D01*
X03826*
X03831Y00769*
Y00759*
X03826Y00754*
X03811*
X03841Y00769D02*
X03846Y00774D01*
X03856*
X03861Y00769*
Y00764*
X03856Y00759*
X03851*
X03856*
X03861Y00754*
Y00749*
X03856Y00744*
X03846*
X03841Y00749*
X03871Y00769D02*
X03876Y00774D01*
X03886*
X03891Y00769*
Y00764*
X03886Y00759*
X03881*
X03886*
X03891Y00754*
Y00749*
X03886Y00744*
X03876*
X03871Y00749*
X03811Y00346D02*
Y00376D01*
X03826*
X03831Y00371*
Y00361*
X03826Y00356*
X03811*
X03841Y00371D02*
X03846Y00376D01*
X03856*
X03861Y00371*
Y00366*
X03856Y00361*
X03851*
X03856*
X03861Y00356*
Y00351*
X03856Y00346*
X03846*
X03841Y00351*
X03886Y00346D02*
Y00376D01*
X03871Y00361*
X03891*
X03575Y00346D02*
Y00376D01*
X0359*
X03595Y00371*
Y00361*
X0359Y00356*
X03575*
X03605Y00371D02*
X0361Y00376D01*
X0362*
X03625Y00371*
Y00366*
X0362Y00361*
X03615*
X0362*
X03625Y00356*
Y00351*
X0362Y00346*
X0361*
X03605Y00351*
X03655Y00376D02*
X03635D01*
Y00361*
X03645Y00366*
X0365*
X03655Y00361*
Y00351*
X0365Y00346*
X0364*
X03635Y00351*
X03323Y00636D02*
Y00611D01*
X03328Y00606*
X03338*
X03343Y00611*
Y00636*
X03373Y00606D02*
X03353D01*
X03373Y00626*
Y00631*
X03368Y00636*
X03358*
X03353Y00631*
X03403Y00636D02*
X03383D01*
Y00621*
X03393Y00626*
X03398*
X03403Y00621*
Y00611*
X03398Y00606*
X03388*
X03383Y00611*
X00945Y02665D02*
Y02695D01*
X0096*
X00965Y0269*
Y0268*
X0096Y02675*
X00945*
X00955D02*
X00965Y02665D01*
X00975Y0269D02*
X0098Y02695D01*
X0099*
X00995Y0269*
Y02685*
X0099Y0268*
X00995Y02675*
Y0267*
X0099Y02665*
X0098*
X00975Y0267*
Y02675*
X0098Y0268*
X00975Y02685*
Y0269*
X0098Y0268D02*
X0099D01*
X00917Y03248D02*
Y03278D01*
X00932*
X00937Y03273*
Y03263*
X00932Y03258*
X00917*
X00947Y03248D02*
X00957D01*
X00952*
Y03278*
X00947Y03273*
X00972D02*
X00977Y03278D01*
X00987*
X00992Y03273*
Y03253*
X00987Y03248*
X00977*
X00972Y03253*
Y03273*
X01866Y03252D02*
Y03282D01*
X01881*
X01886Y03277*
Y03267*
X01881Y03262*
X01866*
X01896Y03252D02*
X01906D01*
X01901*
Y03282*
X01896Y03277*
X01941Y03252D02*
X01921D01*
X01941Y03272*
Y03277*
X01936Y03282*
X01926*
X01921Y03277*
X01395Y03245D02*
Y03275D01*
X0141*
X01415Y0327*
Y0326*
X0141Y03255*
X01395*
X01425Y03245D02*
X01435D01*
X0143*
Y03275*
X01425Y0327*
X0145Y03245D02*
X0146D01*
X01455*
Y03275*
X0145Y0327*
X0374Y01839D02*
Y01869D01*
X03755*
X0376Y01864*
Y01854*
X03755Y01849*
X0374*
X0377Y01869D02*
X0379D01*
Y01864*
X0377Y01844*
Y01839*
X00646Y03159D02*
X00641Y03164D01*
X00631*
X00626Y03159*
Y03139*
X00631Y03134*
X00641*
X00646Y03139*
X00676Y03134D02*
X00656D01*
X00676Y03154*
Y03159*
X00671Y03164*
X00661*
X00656Y03159*
X00701Y03134D02*
Y03164D01*
X00686Y03149*
X00706*
X02091Y03155D02*
X02086Y0316D01*
X02076*
X02071Y03155*
Y03135*
X02076Y0313*
X02086*
X02091Y03135*
X02121Y0313D02*
X02101D01*
X02121Y0315*
Y03155*
X02116Y0316*
X02106*
X02101Y03155*
X02131Y0316D02*
X02151D01*
Y03155*
X02131Y03135*
Y0313*
X0113Y03155D02*
X01125Y0316D01*
X01115*
X0111Y03155*
Y03135*
X01115Y0313*
X01125*
X0113Y03135*
X0116Y0313D02*
X0114D01*
X0116Y0315*
Y03155*
X01155Y0316*
X01145*
X0114Y03155*
X0119Y0316D02*
X0117D01*
Y03145*
X0118Y0315*
X01185*
X0119Y03145*
Y03135*
X01185Y0313*
X01175*
X0117Y03135*
X01614Y0282D02*
X01609Y02825D01*
X01599*
X01594Y0282*
Y028*
X01599Y02795*
X01609*
X01614Y028*
X01624Y0282D02*
X01629Y02825D01*
X01639*
X01644Y0282*
Y02815*
X01639Y0281*
X01634*
X01639*
X01644Y02805*
Y028*
X01639Y02795*
X01629*
X01624Y028*
X01669Y02795D02*
Y02825D01*
X01654Y0281*
X01674*
X01611Y03159D02*
X01606Y03164D01*
X01596*
X01591Y03159*
Y03139*
X01596Y03134*
X01606*
X01611Y03139*
X01641Y03134D02*
X01621D01*
X01641Y03154*
Y03159*
X01636Y03164*
X01626*
X01621Y03159*
X01671Y03164D02*
X01661Y03159D01*
X01651Y03149*
Y03139*
X01656Y03134*
X01666*
X01671Y03139*
Y03144*
X01666Y03149*
X01651*
X02111Y02816D02*
X02106Y02821D01*
X02096*
X02091Y02816*
Y02796*
X02096Y02791*
X02106*
X02111Y02796*
X02121Y02816D02*
X02126Y02821D01*
X02136*
X02141Y02816*
Y02811*
X02136Y02806*
X02131*
X02136*
X02141Y02801*
Y02796*
X02136Y02791*
X02126*
X02121Y02796*
X02171Y02821D02*
X02151D01*
Y02806*
X02161Y02811*
X02166*
X02171Y02806*
Y02796*
X02166Y02791*
X02156*
X02151Y02796*
X00846Y02187D02*
Y02157D01*
X00861*
X00866Y02162*
Y02182*
X00861Y02187*
X00846*
X00876Y02157D02*
X00886D01*
X00881*
Y02187*
X00876Y02182*
X02551Y01612D02*
Y01582D01*
X02566*
X02571Y01587*
Y01607*
X02566Y01612*
X02551*
X02601Y01582D02*
X02581D01*
X02601Y01602*
Y01607*
X02596Y01612*
X02586*
X02581Y01607*
X02646Y01613D02*
Y01583D01*
X02661*
X02666Y01588*
Y01608*
X02661Y01613*
X02646*
X02676Y01608D02*
X02681Y01613D01*
X02691*
X02696Y01608*
Y01603*
X02691Y01598*
X02686*
X02691*
X02696Y01593*
Y01588*
X02691Y01583*
X02681*
X02676Y01588*
X0274Y01612D02*
Y01582D01*
X02755*
X0276Y01587*
Y01607*
X02755Y01612*
X0274*
X02785Y01582D02*
Y01612D01*
X0277Y01597*
X0279*
X02551Y01176D02*
Y01146D01*
X02566*
X02571Y01151*
Y01171*
X02566Y01176*
X02551*
X02601D02*
X02581D01*
Y01161*
X02591Y01166*
X02596*
X02601Y01161*
Y01151*
X02596Y01146*
X02586*
X02581Y01151*
X0265Y01176D02*
Y01146D01*
X02665*
X0267Y01151*
Y01171*
X02665Y01176*
X0265*
X027D02*
X0269Y01171D01*
X0268Y01161*
Y01151*
X02685Y01146*
X02695*
X027Y01151*
Y01156*
X02695Y01161*
X0268*
X02744Y01176D02*
Y01146D01*
X02759*
X02764Y01151*
Y01171*
X02759Y01176*
X02744*
X02774D02*
X02794D01*
Y01171*
X02774Y01151*
Y01146*
X02169Y01197D02*
Y01227D01*
X02184*
X02189Y01222*
Y01212*
X02184Y01207*
X02169*
X02199Y01197D02*
X02209D01*
X02204*
Y01227*
X02199Y01222*
X00193Y02622D02*
Y02652D01*
X00208*
X00213Y02647*
Y02637*
X00208Y02632*
X00193*
X00223Y02647D02*
X00228Y02652D01*
X00238*
X00243Y02647*
Y02642*
X00238Y02637*
X00233*
X00238*
X00243Y02632*
Y02627*
X00238Y02622*
X00228*
X00223Y02627*
X03343Y01835D02*
Y01865D01*
X03358*
X03363Y0186*
Y0185*
X03358Y01845*
X03343*
X03388Y01835D02*
Y01865D01*
X03373Y0185*
X03393*
X02854Y02126D02*
Y02156D01*
X02869*
X02874Y02151*
Y02141*
X02869Y02136*
X02854*
X02904Y02156D02*
X02884D01*
Y02141*
X02894Y02146*
X02899*
X02904Y02141*
Y02131*
X02899Y02126*
X02889*
X02884Y02131*
X00437Y03246D02*
Y03276D01*
X00452*
X00457Y03271*
Y03261*
X00452Y03256*
X00437*
X00467Y03251D02*
X00472Y03246D01*
X00482*
X00487Y03251*
Y03271*
X00482Y03276*
X00472*
X00467Y03271*
Y03266*
X00472Y03261*
X00487*
X03327Y0213D02*
Y0216D01*
X03342*
X03347Y02155*
Y02145*
X03342Y0214*
X03327*
X03377Y0213D02*
X03357D01*
X03377Y0215*
Y02155*
X03372Y0216*
X03362*
X03357Y02155*
X03728Y02134D02*
Y02164D01*
X03743*
X03748Y02159*
Y02149*
X03743Y02144*
X03728*
X03778Y02164D02*
X03768Y02159D01*
X03758Y02149*
Y02139*
X03763Y02134*
X03773*
X03778Y02139*
Y02144*
X03773Y02149*
X03758*
X0102Y00224D02*
Y00254D01*
X01035*
X0104Y00249*
Y00239*
X01035Y00234*
X0102*
X0105Y00224D02*
X0106D01*
X01055*
Y00254*
X0105Y00249*
X01075D02*
X0108Y00254D01*
X0109*
X01095Y00249*
Y00244*
X0109Y00239*
X01085*
X0109*
X01095Y00234*
Y00229*
X0109Y00224*
X0108*
X01075Y00229*
X0102Y00528D02*
Y00558D01*
X01035*
X0104Y00553*
Y00543*
X01035Y00538*
X0102*
X0105Y00528D02*
X0106D01*
X01055*
Y00558*
X0105Y00553*
X01075Y00533D02*
X0108Y00528D01*
X0109*
X01095Y00533*
Y00553*
X0109Y00558*
X0108*
X01075Y00553*
Y00548*
X0108Y00543*
X01095*
X03575Y01543D02*
Y01573D01*
X0359*
X03595Y01568*
Y01558*
X0359Y01553*
X03575*
X03605Y01568D02*
X0361Y01573D01*
X0362*
X03625Y01568*
Y01563*
X0362Y01558*
X03615*
X0362*
X03625Y01553*
Y01548*
X0362Y01543*
X0361*
X03605Y01548*
X03655Y01573D02*
X03645Y01568D01*
X03635Y01558*
Y01548*
X0364Y01543*
X0365*
X03655Y01548*
Y01553*
X0365Y01558*
X03635*
X03807Y01547D02*
Y01577D01*
X03822*
X03827Y01572*
Y01562*
X03822Y01557*
X03807*
X03837Y01572D02*
X03842Y01577D01*
X03852*
X03857Y01572*
Y01567*
X03852Y01562*
X03847*
X03852*
X03857Y01557*
Y01552*
X03852Y01547*
X03842*
X03837Y01552*
X03867Y01577D02*
X03887D01*
Y01572*
X03867Y01552*
Y01547*
X01469Y00228D02*
Y00258D01*
X01483*
X01488Y00253*
Y00243*
X01483Y00238*
X01469*
X01498Y00228D02*
X01508D01*
X01503*
Y00258*
X01498Y00253*
X01538Y00228D02*
Y00258D01*
X01523Y00243*
X01543*
X01461Y00524D02*
Y00554D01*
X01476*
X01481Y00549*
Y00539*
X01476Y00534*
X01461*
X01511Y00524D02*
X01491D01*
X01511Y00544*
Y00549*
X01506Y00554*
X01496*
X01491Y00549*
X01521D02*
X01526Y00554D01*
X01536*
X01541Y00549*
Y00529*
X01536Y00524*
X01526*
X01521Y00529*
Y00549*
X03811Y01142D02*
Y01172D01*
X03826*
X03831Y01167*
Y01157*
X03826Y01152*
X03811*
X03841Y01167D02*
X03846Y01172D01*
X03856*
X03861Y01167*
Y01162*
X03856Y01157*
X03851*
X03856*
X03861Y01152*
Y01147*
X03856Y01142*
X03846*
X03841Y01147*
X03871Y01167D02*
X03876Y01172D01*
X03886*
X03891Y01167*
Y01162*
X03886Y01157*
X03891Y01152*
Y01147*
X03886Y01142*
X03876*
X03871Y01147*
Y01152*
X03876Y01157*
X03871Y01162*
Y01167*
X03876Y01157D02*
X03886D01*
X01921Y00228D02*
Y00258D01*
X01936*
X01941Y00253*
Y00243*
X01936Y00238*
X01921*
X01951Y00228D02*
X01961D01*
X01956*
Y00258*
X01951Y00253*
X01996Y00258D02*
X01976D01*
Y00243*
X01986Y00248*
X01991*
X01996Y00243*
Y00233*
X01991Y00228*
X01981*
X01976Y00233*
X01917Y00524D02*
Y00554D01*
X01932*
X01937Y00549*
Y00539*
X01932Y00534*
X01917*
X01967Y00524D02*
X01947D01*
X01967Y00544*
Y00549*
X01962Y00554*
X01952*
X01947Y00549*
X01977Y00524D02*
X01987D01*
X01982*
Y00554*
X01977Y00549*
X03575Y01146D02*
Y01176D01*
X0359*
X03595Y01171*
Y01161*
X0359Y01156*
X03575*
X03605Y01171D02*
X0361Y01176D01*
X0362*
X03625Y01171*
Y01166*
X0362Y01161*
X03615*
X0362*
X03625Y01156*
Y01151*
X0362Y01146*
X0361*
X03605Y01151*
X03635D02*
X0364Y01146D01*
X0365*
X03655Y01151*
Y01171*
X0365Y01176*
X0364*
X03635Y01171*
Y01166*
X0364Y01161*
X03655*
X00055Y02303D02*
Y02333D01*
X0007*
X00075Y02328*
Y02318*
X0007Y02313*
X00055*
X00105Y02303D02*
X00085D01*
X00105Y02323*
Y02328*
X001Y02333*
X0009*
X00085Y02328*
X0013Y02303D02*
Y02333D01*
X00115Y02318*
X00135*
X02358Y00224D02*
Y00254D01*
X02373*
X02378Y00249*
Y00239*
X02373Y00234*
X02358*
X02388Y00224D02*
X02398D01*
X02393*
Y00254*
X02388Y00249*
X02433Y00254D02*
X02423Y00249D01*
X02413Y00239*
Y00229*
X02418Y00224*
X02428*
X02433Y00229*
Y00234*
X02428Y00239*
X02413*
X02358Y00524D02*
Y00554D01*
X02373*
X02378Y00549*
Y00539*
X02373Y00534*
X02358*
X02408Y00524D02*
X02388D01*
X02408Y00544*
Y00549*
X02403Y00554*
X02393*
X02388Y00549*
X02438Y00524D02*
X02418D01*
X02438Y00544*
Y00549*
X02433Y00554*
X02423*
X02418Y00549*
X00398Y02302D02*
Y02332D01*
X00413*
X00418Y02327*
Y02317*
X00413Y02312*
X00398*
X00448Y02302D02*
X00428D01*
X00448Y02322*
Y02327*
X00443Y02332*
X00433*
X00428Y02327*
X00478Y02332D02*
X00458D01*
Y02317*
X00468Y02322*
X00473*
X00478Y02317*
Y02307*
X00473Y02302*
X00463*
X00458Y02307*
X00386Y01449D02*
Y01479D01*
X00401*
X00406Y01474*
Y01464*
X00401Y01459*
X00386*
X00436Y01449D02*
X00416D01*
X00436Y01469*
Y01474*
X00431Y01479*
X00421*
X00416Y01474*
X00446Y01454D02*
X00451Y01449D01*
X00461*
X00466Y01454*
Y01474*
X00461Y01479*
X00451*
X00446Y01474*
Y01469*
X00451Y01464*
X00466*
X02811Y00224D02*
Y00254D01*
X02826*
X02831Y00249*
Y00239*
X02826Y00234*
X02811*
X02841Y00224D02*
X02851D01*
X02846*
Y00254*
X02841Y00249*
X02866Y00254D02*
X02886D01*
Y00249*
X02866Y00229*
Y00224*
X02811Y00524D02*
Y00554D01*
X02826*
X02831Y00549*
Y00539*
X02826Y00534*
X02811*
X02861Y00524D02*
X02841D01*
X02861Y00544*
Y00549*
X02856Y00554*
X02846*
X02841Y00549*
X02871D02*
X02876Y00554D01*
X02886*
X02891Y00549*
Y00544*
X02886Y00539*
X02881*
X02886*
X02891Y00534*
Y00529*
X02886Y00524*
X02876*
X02871Y00529*
X00043Y01874D02*
Y01904D01*
X00058*
X00063Y01899*
Y01889*
X00058Y01884*
X00043*
X00093Y01874D02*
X00073D01*
X00093Y01894*
Y01899*
X00088Y01904*
X00078*
X00073Y01899*
X00123Y01904D02*
X00113Y01899D01*
X00103Y01889*
Y01879*
X00108Y01874*
X00118*
X00123Y01879*
Y01884*
X00118Y01889*
X00103*
X00055Y01004D02*
Y01034D01*
X0007*
X00075Y01029*
Y01019*
X0007Y01014*
X00055*
X00085Y01029D02*
X0009Y01034D01*
X001*
X00105Y01029*
Y01024*
X001Y01019*
X00095*
X001*
X00105Y01014*
Y01009*
X001Y01004*
X0009*
X00085Y01009*
X00115Y01029D02*
X0012Y01034D01*
X0013*
X00135Y01029*
Y01009*
X0013Y01004*
X0012*
X00115Y01009*
Y01029*
X00374Y0187D02*
Y019D01*
X00389*
X00394Y01895*
Y01885*
X00389Y0188*
X00374*
X00424Y0187D02*
X00404D01*
X00424Y0189*
Y01895*
X00419Y019*
X00409*
X00404Y01895*
X00434Y019D02*
X00454D01*
Y01895*
X00434Y01875*
Y0187*
X00382Y01D02*
Y0103D01*
X00397*
X00402Y01025*
Y01015*
X00397Y0101*
X00382*
X00412Y01025D02*
X00417Y0103D01*
X00427*
X00432Y01025*
Y0102*
X00427Y01015*
X00422*
X00427*
X00432Y0101*
Y01005*
X00427Y01*
X00417*
X00412Y01005*
X00442Y01D02*
X00452D01*
X00447*
Y0103*
X00442Y01025*
X00929Y01965D02*
Y01995D01*
X00944*
X00949Y0199*
Y0198*
X00944Y01975*
X00929*
X00939D02*
X00949Y01965D01*
X00974D02*
Y01995D01*
X00959Y0198*
X00979*
X00661Y01957D02*
Y01987D01*
X00676*
X00681Y01982*
Y01972*
X00676Y01967*
X00661*
X00671D02*
X00681Y01957D01*
X00711Y01987D02*
X00691D01*
Y01972*
X00701Y01977*
X00706*
X00711Y01972*
Y01962*
X00706Y01957*
X00696*
X00691Y01962*
X00776Y01898D02*
Y01928D01*
X00791*
X00796Y01923*
Y01913*
X00791Y01908*
X00776*
X00786D02*
X00796Y01898D01*
X00826Y01928D02*
X00816Y01923D01*
X00806Y01913*
Y01903*
X00811Y01898*
X00821*
X00826Y01903*
Y01908*
X00821Y01913*
X00806*
X00461Y02796D02*
Y02826D01*
X00476*
X00481Y02821*
Y02811*
X00476Y02806*
X00461*
X00471D02*
X00481Y02796D01*
X00491Y02826D02*
X00511D01*
Y02821*
X00491Y02801*
Y02796*
X01441Y02661D02*
Y02691D01*
X01456*
X01461Y02686*
Y02676*
X01456Y02671*
X01441*
X01451D02*
X01461Y02661D01*
X01471Y02666D02*
X01476Y02661D01*
X01486*
X01491Y02666*
Y02686*
X01486Y02691*
X01476*
X01471Y02686*
Y02681*
X01476Y02676*
X01491*
X01898Y02665D02*
Y02695D01*
X01913*
X01918Y0269*
Y0268*
X01913Y02675*
X01898*
X01908D02*
X01918Y02665D01*
X01928D02*
X01938D01*
X01933*
Y02695*
X01928Y0269*
X01953D02*
X01958Y02695D01*
X01968*
X01973Y0269*
Y0267*
X01968Y02665*
X01958*
X01953Y0267*
Y0269*
X02976Y01291D02*
Y01321D01*
X02991*
X02996Y01316*
Y01306*
X02991Y01301*
X02976*
X02986D02*
X02996Y01291D01*
X03021D02*
Y01321D01*
X03006Y01306*
X03026*
X03036Y01291D02*
X03046D01*
X03041*
Y01321*
X03036Y01316*
X02961Y01189D02*
Y01219D01*
X02976*
X02981Y01214*
Y01204*
X02976Y01199*
X02961*
X02971D02*
X02981Y01189D01*
X03006D02*
Y01219D01*
X02991Y01204*
X03011*
X03041Y01189D02*
X03021D01*
X03041Y01209*
Y01214*
X03036Y01219*
X03026*
X03021Y01214*
X02961Y01091D02*
Y01121D01*
X02976*
X02981Y01116*
Y01106*
X02976Y01101*
X02961*
X02971D02*
X02981Y01091D01*
X03006D02*
Y01121D01*
X02991Y01106*
X03011*
X03021Y01116D02*
X03026Y01121D01*
X03036*
X03041Y01116*
Y01111*
X03036Y01106*
X03031*
X03036*
X03041Y01101*
Y01096*
X03036Y01091*
X03026*
X03021Y01096*
X02961Y00992D02*
Y01022D01*
X02976*
X02981Y01017*
Y01007*
X02976Y01002*
X02961*
X02971D02*
X02981Y00992D01*
X03006D02*
Y01022D01*
X02991Y01007*
X03011*
X03036Y00992D02*
Y01022D01*
X03021Y01007*
X03041*
X01551Y02551D02*
Y02581D01*
X01566*
X01571Y02576*
Y02566*
X01566Y02561*
X01551*
X01561D02*
X01571Y02551D01*
X01601Y02581D02*
X01581D01*
Y02566*
X01591Y02571*
X01596*
X01601Y02566*
Y02556*
X01596Y02551*
X01586*
X01581Y02556*
X01611Y02576D02*
X01616Y02581D01*
X01626*
X01631Y02576*
Y02571*
X01626Y02566*
X01621*
X01626*
X01631Y02561*
Y02556*
X01626Y02551*
X01616*
X01611Y02556*
X01417Y02551D02*
Y02581D01*
X01432*
X01437Y02576*
Y02566*
X01432Y02561*
X01417*
X01427D02*
X01437Y02551D01*
X01467Y02581D02*
X01447D01*
Y02566*
X01457Y02571*
X01462*
X01467Y02566*
Y02556*
X01462Y02551*
X01452*
X01447Y02556*
X01477Y02551D02*
X01487D01*
X01482*
Y02581*
X01477Y02576*
X01713Y02551D02*
Y02581D01*
X01728*
X01733Y02576*
Y02566*
X01728Y02561*
X01713*
X01723D02*
X01733Y02551D01*
X01763Y02581D02*
X01743D01*
Y02566*
X01753Y02571*
X01758*
X01763Y02566*
Y02556*
X01758Y02551*
X01748*
X01743Y02556*
X01788Y02551D02*
Y02581D01*
X01773Y02566*
X01793*
X01723Y02288D02*
Y02263D01*
X01728Y02258*
X01738*
X01743Y02263*
Y02288*
X01753Y02283D02*
X01758Y02288D01*
X01768*
X01773Y02283*
Y02278*
X01768Y02273*
X01763*
X01768*
X01773Y02268*
Y02263*
X01768Y02258*
X01758*
X01753Y02263*
X0137Y01908D02*
Y01883D01*
X01375Y01878*
X01385*
X0139Y01883*
Y01908*
X0142Y01878D02*
X014D01*
X0142Y01898*
Y01903*
X01415Y01908*
X01405*
X014Y01903*
X00213Y03054D02*
Y03029D01*
X00218Y03024*
X00228*
X00233Y03029*
Y03054*
X00263D02*
X00253Y03049D01*
X00243Y03039*
Y03029*
X00248Y03024*
X00258*
X00263Y03029*
Y03034*
X00258Y03039*
X00243*
X00829Y02555D02*
Y0253D01*
X00834Y02525*
X00844*
X00849Y0253*
Y02555*
X00874Y02525D02*
Y02555D01*
X00859Y0254*
X00879*
X00709Y03054D02*
Y03029D01*
X00714Y03024*
X00724*
X00729Y03029*
Y03054*
X00739D02*
X00759D01*
Y03049*
X00739Y03029*
Y03024*
X01185Y03058D02*
Y03033D01*
X0119Y03028*
X012*
X01205Y03033*
Y03058*
X01215Y03053D02*
X0122Y03058D01*
X0123*
X01235Y03053*
Y03048*
X0123Y03043*
X01235Y03038*
Y03033*
X0123Y03028*
X0122*
X01215Y03033*
Y03038*
X0122Y03043*
X01215Y03048*
Y03053*
X0122Y03043D02*
X0123D01*
X02409Y02046D02*
Y02021D01*
X02414Y02016*
X02424*
X02429Y02021*
Y02046*
X02459D02*
X02439D01*
Y02031*
X02449Y02036*
X02454*
X02459Y02031*
Y02021*
X02454Y02016*
X02444*
X02439Y02021*
X01673Y03042D02*
Y03017D01*
X01678Y03012*
X01688*
X01693Y03017*
Y03042*
X01703Y03017D02*
X01708Y03012D01*
X01718*
X01723Y03017*
Y03037*
X01718Y03042*
X01708*
X01703Y03037*
Y03032*
X01708Y03027*
X01723*
X0112Y00882D02*
Y00857D01*
X01125Y00852*
X01135*
X0114Y00857*
Y00882*
X0115Y00852D02*
X0116D01*
X01155*
Y00882*
X0115Y00877*
X0119Y00852D02*
Y00882D01*
X01175Y00867*
X01195*
X0091Y00882D02*
Y00857D01*
X00915Y00852*
X00925*
X0093Y00857*
Y00882*
X0094Y00852D02*
X0095D01*
X00945*
Y00882*
X0094Y00877*
X00965Y00857D02*
X0097Y00852D01*
X0098*
X00985Y00857*
Y00877*
X0098Y00882*
X0097*
X00965Y00877*
Y00872*
X0097Y00867*
X00985*
X03311Y01428D02*
Y01403D01*
X03316Y01398*
X03326*
X03331Y01403*
Y01428*
X03361Y01398D02*
X03341D01*
X03361Y01418*
Y01423*
X03356Y01428*
X03346*
X03341Y01423*
X03391Y01428D02*
X03381Y01423D01*
X03371Y01413*
Y01403*
X03376Y01398*
X03386*
X03391Y01403*
Y01408*
X03386Y01413*
X03371*
X01565Y00882D02*
Y00857D01*
X0157Y00852*
X0158*
X01585Y00857*
Y00882*
X01595Y00852D02*
X01605D01*
X016*
Y00882*
X01595Y00877*
X0164Y00882D02*
X0162D01*
Y00867*
X0163Y00872*
X01635*
X0164Y00867*
Y00857*
X01635Y00852*
X01625*
X0162Y00857*
X0136Y00882D02*
Y00857D01*
X01365Y00852*
X01375*
X0138Y00857*
Y00882*
X0141Y00852D02*
X0139D01*
X0141Y00872*
Y00877*
X01405Y00882*
X01395*
X0139Y00877*
X0142D02*
X01425Y00882D01*
X01435*
X0144Y00877*
Y00857*
X01435Y00852*
X01425*
X0142Y00857*
Y00877*
X02015Y00882D02*
Y00857D01*
X0202Y00852*
X0203*
X02035Y00857*
Y00882*
X02045Y00852D02*
X02055D01*
X0205*
Y00882*
X02045Y00877*
X0209Y00882D02*
X0208Y00877D01*
X0207Y00867*
Y00857*
X02075Y00852*
X02085*
X0209Y00857*
Y00862*
X02085Y00867*
X0207*
X0181Y00882D02*
Y00857D01*
X01815Y00852*
X01825*
X0183Y00857*
Y00882*
X0186Y00852D02*
X0184D01*
X0186Y00872*
Y00877*
X01855Y00882*
X01845*
X0184Y00877*
X0187Y00852D02*
X0188D01*
X01875*
Y00882*
X0187Y00877*
X02465Y00882D02*
Y00857D01*
X0247Y00852*
X0248*
X02485Y00857*
Y00882*
X02495Y00852D02*
X02505D01*
X025*
Y00882*
X02495Y00877*
X0252Y00882D02*
X0254D01*
Y00877*
X0252Y00857*
Y00852*
X0226Y00882D02*
Y00857D01*
X02265Y00852*
X02275*
X0228Y00857*
Y00882*
X0231Y00852D02*
X0229D01*
X0231Y00872*
Y00877*
X02305Y00882*
X02295*
X0229Y00877*
X0234Y00852D02*
X0232D01*
X0234Y00872*
Y00877*
X02335Y00882*
X02325*
X0232Y00877*
X02917Y00884D02*
Y00859D01*
X02922Y00854*
X02932*
X02937Y00859*
Y00884*
X02947Y00854D02*
X02957D01*
X02952*
Y00884*
X02947Y00879*
X02972D02*
X02977Y00884D01*
X02987*
X02992Y00879*
Y00874*
X02987Y00869*
X02992Y00864*
Y00859*
X02987Y00854*
X02977*
X02972Y00859*
Y00864*
X02977Y00869*
X02972Y00874*
Y00879*
X02977Y00869D02*
X02987D01*
X0271Y00882D02*
Y00857D01*
X02715Y00852*
X02725*
X0273Y00857*
Y00882*
X0276Y00852D02*
X0274D01*
X0276Y00872*
Y00877*
X02755Y00882*
X02745*
X0274Y00877*
X0277D02*
X02775Y00882D01*
X02785*
X0279Y00877*
Y00872*
X02785Y00867*
X0278*
X02785*
X0279Y00862*
Y00857*
X02785Y00852*
X02775*
X0277Y00857*
X02685Y03258D02*
Y03233D01*
X0269Y03228*
X027*
X02705Y03233*
Y03258*
X02715Y03253D02*
X0272Y03258D01*
X0273*
X02735Y03253*
Y03248*
X0273Y03243*
X02725*
X0273*
X02735Y03238*
Y03233*
X0273Y03228*
X0272*
X02715Y03233*
X02745Y03228D02*
X02755D01*
X0275*
Y03258*
X02745Y03253*
X03598Y03581D02*
Y03556D01*
X03603Y03551*
X03613*
X03618Y03556*
Y03581*
X03648Y03551D02*
X03628D01*
X03648Y03571*
Y03576*
X03643Y03581*
X03633*
X03628Y03576*
X03658Y03581D02*
X03678D01*
Y03576*
X03658Y03556*
Y03551*
X03425Y02546D02*
Y02521D01*
X0343Y02516*
X0344*
X03445Y02521*
Y02546*
X03455Y02541D02*
X0346Y02546D01*
X0347*
X03475Y02541*
Y02536*
X0347Y02531*
X03465*
X0347*
X03475Y02526*
Y02521*
X0347Y02516*
X0346*
X03455Y02521*
X03505Y02516D02*
X03485D01*
X03505Y02536*
Y02541*
X035Y02546*
X0349*
X03485Y02541*
X01075Y02128D02*
Y02123D01*
X01085Y02113*
X01095Y02123*
Y02128*
X01085Y02113D02*
Y02098D01*
X01105D02*
X01115D01*
X0111*
Y02128*
X01105Y02123*
X01701Y0161D02*
Y0164D01*
X01716*
X01721Y01635*
Y01625*
X01716Y0162*
X01701*
X01731Y0161D02*
X01741D01*
X01736*
Y0164*
X01731Y01635*
X01756D02*
X01761Y0164D01*
X01771*
X01776Y01635*
Y0163*
X01771Y01625*
X01776Y0162*
Y01615*
X01771Y0161*
X01761*
X01756Y01615*
Y0162*
X01761Y01625*
X01756Y0163*
Y01635*
X01761Y01625D02*
X01771D01*
X01362Y01193D02*
Y01223D01*
X01377*
X01382Y01218*
Y01208*
X01377Y01203*
X01362*
X01407Y01193D02*
Y01223D01*
X01392Y01208*
X01412*
X01422Y01218D02*
X01427Y01223D01*
X01437*
X01442Y01218*
Y01198*
X01437Y01193*
X01427*
X01422Y01198*
Y01218*
X02114Y03579D02*
Y03609D01*
X02129*
X02134Y03604*
Y03594*
X02129Y03589*
X02114*
X02159Y03579D02*
Y03609D01*
X02144Y03594*
X02164*
X02174Y03579D02*
X02184D01*
X02179*
Y03609*
X02174Y03604*
X02827Y03579D02*
Y03609D01*
X02842*
X02847Y03604*
Y03594*
X02842Y03589*
X02827*
X02872Y03579D02*
Y03609D01*
X02857Y03594*
X02877*
X02907Y03579D02*
X02887D01*
X02907Y03599*
Y03604*
X02902Y03609*
X02892*
X02887Y03604*
X02252Y02597D02*
Y02572D01*
X02257Y02567*
X02267*
X02272Y02572*
Y02597*
X02302Y02567D02*
X02282D01*
X02302Y02587*
Y02592*
X02297Y02597*
X02287*
X02282Y02592*
X02312D02*
X02317Y02597D01*
X02327*
X02332Y02592*
Y02587*
X02327Y02582*
X02332Y02577*
Y02572*
X02327Y02567*
X02317*
X02312Y02572*
Y02577*
X02317Y02582*
X02312Y02587*
Y02592*
X02317Y02582D02*
X02327D01*
X00461Y00113D02*
Y00088D01*
X00466Y00083*
X00476*
X00481Y00088*
Y00113*
X00511Y00083D02*
X00491D01*
X00511Y00103*
Y00108*
X00506Y00113*
X00496*
X00491Y00108*
X00521Y00088D02*
X00526Y00083D01*
X00536*
X00541Y00088*
Y00108*
X00536Y00113*
X00526*
X00521Y00108*
Y00103*
X00526Y00098*
X00541*
X02248Y02254D02*
Y02229D01*
X02253Y02224*
X02263*
X02268Y02229*
Y02254*
X02278Y02249D02*
X02283Y02254D01*
X02293*
X02298Y02249*
Y02244*
X02293Y02239*
X02288*
X02293*
X02298Y02234*
Y02229*
X02293Y02224*
X02283*
X02278Y02229*
X02308Y02249D02*
X02313Y02254D01*
X02323*
X02328Y02249*
Y02229*
X02323Y02224*
X02313*
X02308Y02229*
Y02249*
X0113Y02808D02*
X01125Y02813D01*
X01115*
X0111Y02808*
Y02788*
X01115Y02783*
X01125*
X0113Y02788*
X0114Y02808D02*
X01145Y02813D01*
X01155*
X0116Y02808*
Y02803*
X01155Y02798*
X0115*
X01155*
X0116Y02793*
Y02788*
X01155Y02783*
X01145*
X0114Y02788*
X0117Y02808D02*
X01175Y02813D01*
X01185*
X0119Y02808*
Y02803*
X01185Y02798*
X0118*
X01185*
X0119Y02793*
Y02788*
X01185Y02783*
X01175*
X0117Y02788*
X02862Y01839D02*
Y01869D01*
X02877*
X02882Y01864*
Y01854*
X02877Y01849*
X02862*
X02892Y01864D02*
X02897Y01869D01*
X02907*
X02912Y01864*
Y01859*
X02907Y01854*
X02912Y01849*
Y01844*
X02907Y01839*
X02897*
X02892Y01844*
Y01849*
X02897Y01854*
X02892Y01859*
Y01864*
X02897Y01854D02*
X02907D01*
X00672Y02196D02*
Y02226D01*
X00687*
X00692Y02221*
Y02211*
X00687Y02206*
X00672*
X00682D02*
X00692Y02196D01*
X00722Y02226D02*
X00702D01*
Y02211*
X00712Y02216*
X00717*
X00722Y02211*
Y02201*
X00717Y02196*
X00707*
X00702Y02201*
X00732Y02226D02*
X00752D01*
Y02221*
X00732Y02201*
Y02196*
X00324Y02456D02*
Y02486D01*
X00339*
X00344Y02481*
Y02471*
X00339Y02466*
X00324*
X00334D02*
X00344Y02456D01*
X00374Y02486D02*
X00354D01*
Y02471*
X00364Y02476*
X00369*
X00374Y02471*
Y02461*
X00369Y02456*
X00359*
X00354Y02461*
X00384Y02481D02*
X00389Y02486D01*
X00399*
X00404Y02481*
Y02476*
X00399Y02471*
X00404Y02466*
Y02461*
X00399Y02456*
X00389*
X00384Y02461*
Y02466*
X00389Y02471*
X00384Y02476*
Y02481*
X00389Y02471D02*
X00399D01*
M02*