%FSTAX23Y23*%
%MOIN*%
%SFA1B1*%

%IPPOS*%
%ADD10R,0.043000X0.039000*%
%ADD11R,0.039000X0.043000*%
%ADD23R,0.087000X0.079000*%
%ADD27C,0.010000*%
%ADD28C,0.020000*%
%ADD30C,0.012000*%
%ADD32C,0.040000*%
%ADD33C,0.050000*%
%ADD36C,0.009000*%
%ADD37C,0.059000*%
%ADD38C,0.071000*%
%ADD39R,0.071000X0.071000*%
%ADD40C,0.236000*%
%ADD41C,0.079000*%
%ADD42R,0.079000X0.079000*%
%ADD43R,0.071000X0.071000*%
%ADD44C,0.098000*%
%ADD45C,0.100000*%
%ADD46R,0.059000X0.059000*%
%ADD47C,0.039000*%
%ADD48C,0.020000*%
%ADD49C,0.018000*%
%ADD50R,0.059000X0.039000*%
%ADD51R,0.047000X0.039000*%
%ADD52R,0.079000X0.087000*%
%ADD53R,0.122000X0.140000*%
%ADD54R,0.063000X0.051000*%
%ADD55R,0.051000X0.063000*%
%ADD56R,0.059000X0.051000*%
%ADD57R,0.051000X0.059000*%
%ADD58R,0.024000X0.067000*%
%ADD59R,0.024000X0.020000*%
%ADD60R,0.018000X0.028000*%
%ADD61R,0.102000X0.087000*%
%ADD62R,0.087000X0.102000*%
%ADD63C,0.030000*%
%ADD64C,0.015000*%
%LNholoboard-1*%
%LPD*%
G36*
X03929Y03925D02*
Y00008D01*
X00012*
X00008Y00012*
Y03929*
X03925*
X03929Y03925*
G37*
%LNholoboard-2*%
%LPC*%
G36*
X00863Y01329D02*
X00841D01*
Y01308*
X00863*
Y01329*
G37*
G36*
X0135Y01341D02*
X01329D01*
Y01318*
X0135*
Y01341*
G37*
G36*
X00831Y01329D02*
X00808D01*
Y01308*
X00831*
Y01329*
G37*
G36*
X02795Y01316D02*
X02774D01*
Y01294*
X02795*
Y01316*
G37*
G36*
X01445Y01619D02*
X01439Y01617D01*
X01434Y01614*
X0143Y01609*
X01429Y01602*
X0143Y01596*
X01434Y01591*
Y01376*
X0143Y01371*
X01429Y01364*
X0143Y01358*
X01434Y01353*
X01439Y01349*
X01445Y01348*
X01451Y01349*
X01457Y01353*
X0146Y01358*
X01461Y0136*
X01465Y01359*
Y01333*
X01462Y01328*
X01461Y01321*
X01462Y01315*
X01466Y0131*
X01471Y01306*
X01477Y01305*
X01483Y01306*
X01489Y0131*
X01492Y01315*
X01493Y01321*
X01492Y01328*
X01489Y01333*
X01488*
Y01433*
X01492Y01439*
X01493Y01445*
X01492Y01451*
X01488Y01456*
X01483Y0146*
X01477Y01461*
X0147Y0146*
X01465Y01456*
X01462Y01451*
X01461Y0145*
X01456*
Y01591*
X01457*
X0146Y01596*
X01461Y01602*
X0146Y01609*
X01457Y01614*
X01451Y01617*
X01445Y01619*
G37*
G36*
X01381Y01341D02*
X0136D01*
Y01318*
X01381*
Y01341*
G37*
G36*
X03879Y01422D02*
X03868Y01421D01*
X03858Y01417*
X0385Y0141*
X03843Y01401*
X03839Y01391*
X03837Y0138*
X03839Y01369*
X03843Y01359*
X0385Y01351*
X03858Y01344*
X03868Y0134*
X03879Y01339*
X0389Y0134*
X039Y01344*
X03909Y01351*
X03915Y01359*
X0392Y01369*
X03921Y0138*
X0392Y01391*
X03915Y01401*
X03909Y0141*
X039Y01417*
X0389Y01421*
X03879Y01422*
G37*
G36*
X03284Y01372D02*
X03278Y0137D01*
X03273Y01367*
X03269Y01362*
X03268Y01355*
X03269Y01349*
X03273Y01344*
X03278Y0134*
X03284Y01339*
X0329Y0134*
X03296Y01344*
X03299Y01349*
X033Y01355*
X03299Y01362*
X03296Y01367*
X0329Y0137*
X03284Y01372*
G37*
G36*
X03629Y01422D02*
X03618Y01421D01*
X03608Y01417*
X036Y0141*
X03593Y01401*
X03589Y01391*
X03587Y0138*
X03589Y01369*
X03593Y01359*
X036Y01351*
X03608Y01344*
X03618Y0134*
X03629Y01339*
X0364Y0134*
X0365Y01344*
X03659Y01351*
X03665Y01359*
X0367Y01369*
X03671Y0138*
X0367Y01391*
X03665Y01401*
X03659Y0141*
X0365Y01417*
X0364Y01421*
X03629Y01422*
G37*
G36*
X00125Y01417D02*
X00114Y01415D01*
X00104Y01411*
X00095Y01405*
X00088Y01396*
X00084Y01386*
X00083Y01375*
X00084Y01364*
X00088Y01354*
X00095Y01345*
X00104Y01339*
X00114Y01335*
X00125Y01333*
X00135Y01335*
X00146Y01339*
X00154Y01345*
X00161Y01354*
X00165Y01364*
X00166Y01375*
X00165Y01386*
X00161Y01396*
X00154Y01405*
X00146Y01411*
X00135Y01415*
X00125Y01417*
G37*
G36*
X0045D02*
X00439Y01415D01*
X00429Y01411*
X0042Y01405*
X00413Y01396*
X00409Y01386*
X00408Y01375*
X00409Y01364*
X00413Y01354*
X0042Y01345*
X00429Y01339*
X00439Y01335*
X0045Y01333*
X0046Y01335*
X00471Y01339*
X00479Y01345*
X00486Y01354*
X0049Y01364*
X00491Y01375*
X0049Y01386*
X00486Y01396*
X00479Y01405*
X00471Y01411*
X0046Y01415*
X0045Y01417*
G37*
G36*
X02764Y01316D02*
X02743D01*
Y01294*
X02764*
Y01316*
G37*
G36*
X03624Y01321D02*
X03618D01*
X03608Y01317*
X036Y0131*
X03593Y01301*
X03589Y01291*
X03588Y01285*
X03624*
Y01321*
G37*
G36*
X03634D02*
Y01285D01*
X0367*
Y01291*
X03665Y01301*
X03659Y0131*
X0365Y01317*
X0364Y01321*
X03634*
G37*
G36*
X00379Y01356D02*
X0037Y01355D01*
X00361Y01351*
X00354Y01346*
X00348Y01338*
X00345Y0133*
X00343Y0132*
X00345Y01311*
X00348Y01302*
X00354Y01295*
X00361Y01289*
X0037Y01286*
X00379Y01284*
X00388Y01286*
X00397Y01289*
X00404Y01295*
X0041Y01302*
X00414Y01311*
X00415Y0132*
X00414Y0133*
X0041Y01338*
X00404Y01346*
X00397Y01351*
X00388Y01355*
X00379Y01356*
G37*
G36*
X0349Y01335D02*
X03438D01*
Y01322*
X03429*
X03423Y0132*
X03418Y01317*
X03414Y01312*
X03413Y01305*
X03414Y01299*
X03418Y01294*
X03423Y0129*
X03429Y01289*
X03438*
Y01279*
X0349*
Y01335*
G37*
G36*
X00054Y01356D02*
X00045Y01355D01*
X00036Y01351*
X00029Y01346*
X00023Y01338*
X0002Y0133*
X00018Y0132*
X0002Y01311*
X00023Y01302*
X00029Y01295*
X00036Y01289*
X00045Y01286*
X00054Y01284*
X00063Y01286*
X00072Y01289*
X00079Y01295*
X00085Y01302*
X00089Y01311*
X0009Y0132*
X00089Y0133*
X00085Y01338*
X00079Y01346*
X00072Y01351*
X00063Y01355*
X00054Y01356*
G37*
G36*
X03874Y01321D02*
X03868D01*
X03858Y01317*
X0385Y0131*
X03843Y01301*
X03839Y01291*
X03838Y01285*
X03874*
Y01321*
G37*
G36*
X02669Y01316D02*
X02648D01*
Y01294*
X02669*
Y01316*
G37*
G36*
X027D02*
X02679D01*
Y01294*
X027*
Y01316*
G37*
G36*
X02605D02*
X02584D01*
Y01294*
X02605*
Y01316*
G37*
G36*
X03884Y01321D02*
Y01285D01*
X0392*
Y01291*
X03915Y01301*
X03909Y0131*
X039Y01317*
X0389Y01321*
X03884*
G37*
G36*
X02574Y01316D02*
X02553D01*
Y01294*
X02574*
Y01316*
G37*
G36*
X02579Y01437D02*
X02573Y01435D01*
X02568Y01432*
X02564Y01427*
X02563Y0142*
X02524Y01381*
X02522Y01378*
X02521Y01373*
Y00999*
X02522Y00995*
X02524Y00991*
X02541Y00975*
Y00973*
X02542Y00967*
X02546Y00962*
X02551Y00958*
X02557Y00957*
X02563Y00958*
X02569Y00962*
X02572Y00967*
X02573Y00973*
X02572Y0098*
X02569Y00985*
X02563Y00988*
X02558Y00989*
X02543Y01004*
Y01369*
X02579Y01404*
X02585Y01405*
X02591Y01409*
X02594Y01414*
X02595Y0142*
X02594Y01427*
X02591Y01432*
X02585Y01435*
X02579Y01437*
G37*
G36*
X02674D02*
X02668Y01435D01*
X02663Y01432*
X02659Y01427*
X02658Y0142*
X02659Y01414*
X02663Y01409*
X02668Y01405*
X02674Y01404*
X0268Y01405*
X02686Y01409*
X02689Y01414*
X0269Y0142*
X02689Y01427*
X02686Y01432*
X0268Y01435*
X02674Y01437*
G37*
G36*
X00923Y01417D02*
X0089D01*
Y0139*
X00923*
Y01417*
G37*
G36*
X0349Y01401D02*
X03469D01*
Y01379*
X0349*
Y01401*
G37*
G36*
X0088Y01417D02*
X00848D01*
Y0139*
X0088*
Y01417*
G37*
G36*
X01852Y01491D02*
X01841Y0149D01*
X01831Y01486*
X01823Y01479*
X01816Y0147*
X01812Y0146*
X0181Y01449*
X01812Y01438*
X01814Y01434*
X01813Y01432*
X01811Y0143*
X0181Y01423*
Y01395*
X01807*
Y01344*
X01808*
Y01339*
Y0126*
X01844*
Y01339*
Y0134*
X01847Y01344*
X01858*
Y01339*
Y0126*
X01894*
Y01282*
X01927*
Y01271*
X01979*
Y01326*
X01927*
Y01315*
X01894*
Y01339*
X01862*
Y01344*
Y01395*
X01842*
Y01405*
X01846Y01408*
X01852*
X01863Y01409*
X01873Y01413*
X01882Y0142*
X01888Y01428*
X01893Y01438*
X01894Y01449*
X01893Y0146*
X01888Y0147*
X01882Y01479*
X01873Y01486*
X01863Y0149*
X01852Y01491*
G37*
G36*
X02452D02*
X02441Y0149D01*
X02431Y01486*
X02423Y01479*
X02416Y0147*
X02412Y0146*
X0241Y01449*
X02412Y01438*
X02416Y01428*
X02423Y0142*
X02431Y01413*
X02441Y01409*
X02452Y01408*
X02463Y01409*
X02473Y01413*
X02482Y0142*
X02488Y01428*
X02493Y01438*
X02494Y01449*
X02493Y0146*
X02488Y0147*
X02482Y01479*
X02473Y01486*
X02463Y0149*
X02452Y01491*
G37*
G36*
X01265Y01441D02*
X01238D01*
Y01409*
X01265*
Y01441*
G37*
G36*
X02352Y01491D02*
X02341Y0149D01*
X02331Y01486*
X02323Y01479*
X02316Y0147*
X02312Y0146*
X0231Y01449*
X02312Y01438*
X02316Y01428*
X02323Y0142*
X02331Y01413*
X02341Y01409*
X02352Y01408*
X02363Y01409*
X02373Y01413*
X02382Y0142*
X02388Y01428*
X02393Y01438*
X02394Y01449*
X02393Y0146*
X02388Y0147*
X02382Y01479*
X02373Y01486*
X02363Y0149*
X02352Y01491*
G37*
G36*
X01952D02*
X01941Y0149D01*
X01931Y01486*
X01923Y01479*
X01916Y0147*
X01912Y0146*
X0191Y01449*
X01912Y01438*
X01916Y01428*
X01923Y0142*
X01931Y01413*
X01941Y01409*
X01952Y01408*
X01963Y01409*
X01973Y01413*
X01982Y0142*
X01988Y01428*
X01993Y01438*
X01994Y01449*
X01993Y0146*
X01988Y0147*
X01982Y01479*
X01973Y01486*
X01963Y0149*
X01952Y01491*
G37*
G36*
X02252D02*
X02241Y0149D01*
X02231Y01486*
X02223Y01479*
X02216Y0147*
X02212Y0146*
X0221Y01449*
X02212Y01438*
X02216Y01428*
X02223Y0142*
X02231Y01413*
X02241Y01409*
X02252Y01408*
X02263Y01409*
X02273Y01413*
X02282Y0142*
X02288Y01428*
X02293Y01438*
X02294Y01449*
X02293Y0146*
X02288Y0147*
X02282Y01479*
X02273Y01486*
X02263Y0149*
X02252Y01491*
G37*
G36*
X03459Y01401D02*
X03438D01*
Y01379*
X03459*
Y01401*
G37*
G36*
X0135Y01373D02*
X01329D01*
Y01351*
X0135*
Y01373*
G37*
G36*
X01381D02*
X0136D01*
Y01351*
X01381*
Y01373*
G37*
G36*
X0349Y01369D02*
X03469D01*
Y01346*
X0349*
Y01369*
G37*
G36*
X01752Y01491D02*
X01741Y0149D01*
X01731Y01486*
X01723Y01479*
X01716Y0147*
X01712Y0146*
X0171Y01449*
X01712Y01438*
X01716Y01428*
X01723Y0142*
X01731Y01413*
X01741Y01409*
X01752Y01408*
X01756*
X0176Y01405*
Y01395*
X0174*
Y01344*
Y01343*
X01736Y01339*
X01708*
Y0126*
X01744*
Y01339*
Y0134*
X01747Y01344*
X01758*
Y01339*
Y0126*
X01794*
Y01339*
Y01342*
X01795Y01344*
Y01395*
X01792*
Y01425*
X01791Y01432*
X0179Y01433*
X01793Y01438*
X01794Y01449*
X01793Y0146*
X01788Y0147*
X01782Y01479*
X01773Y01486*
X01763Y0149*
X01752Y01491*
G37*
G36*
X03459Y01369D02*
X03438D01*
Y01346*
X03459*
Y01369*
G37*
G36*
X00797Y01417D02*
X00722D01*
Y01354*
X00797*
Y01369*
X00804*
X0081Y0137*
X00816Y01374*
X00819Y01379*
X0082Y01385*
X00819Y01392*
X00816Y01397*
X0081Y014*
X00804Y01402*
X00797*
Y01417*
G37*
G36*
X01265Y01399D02*
X01238D01*
Y01366*
X01265*
Y01399*
G37*
G36*
X01301D02*
X01275D01*
Y01366*
X01301*
Y01399*
G37*
G36*
X01521Y01443D02*
X01515Y01441D01*
X0151Y01438*
X01506Y01433*
X01505Y01426*
X01506Y0142*
X0151Y01415*
Y01385*
X01506Y0138*
X01505Y01373*
X01506Y01367*
X0151Y01362*
X01515Y01358*
X01521Y01357*
X01527Y01358*
X01533Y01362*
X01536Y01367*
X01537Y01373*
X01536Y0138*
X01533Y01385*
X01532*
Y01415*
X01533*
X01536Y0142*
X01537Y01426*
X01536Y01433*
X01533Y01438*
X01527Y01441*
X01521Y01443*
G37*
G36*
X0088Y0138D02*
X00848D01*
Y01354*
X0088*
Y0138*
G37*
G36*
X00923D02*
X0089D01*
Y01354*
X00923*
Y0138*
G37*
G36*
X00863Y01298D02*
X00841D01*
Y01278*
X00863*
Y01298*
G37*
G36*
X00379Y01256D02*
X0037Y01255D01*
X00361Y01251*
X00354Y01246*
X00348Y01238*
X00345Y0123*
X00343Y0122*
X00345Y01211*
X00348Y01202*
X00354Y01195*
X00361Y01189*
X0037Y01186*
X00379Y01184*
X00388Y01186*
X00397Y01189*
X00404Y01195*
X0041Y01202*
X00414Y01211*
X00415Y0122*
X00414Y0123*
X0041Y01238*
X00404Y01246*
X00397Y01251*
X00388Y01255*
X00379Y01256*
G37*
G36*
X02605Y0125D02*
X02553D01*
Y01194*
X02605*
Y01199*
X02609Y01202*
X02614Y01201*
X0262Y01202*
X02626Y01206*
X02629Y01211*
X0263Y01217*
X02629Y01223*
X02626Y01229*
X0262Y01232*
X02614Y01233*
X02609Y01232*
X02605Y01235*
Y0125*
G37*
G36*
X00054Y01256D02*
X00045Y01255D01*
X00036Y01251*
X00029Y01246*
X00023Y01238*
X0002Y0123*
X00018Y0122*
X0002Y01211*
X00023Y01202*
X00029Y01195*
X00036Y01189*
X00045Y01186*
X00054Y01184*
X00063Y01186*
X00072Y01189*
X00079Y01195*
X00085Y01202*
X00089Y01211*
X0009Y0122*
X00089Y0123*
X00085Y01238*
X00079Y01246*
X00072Y01251*
X00063Y01255*
X00054Y01256*
G37*
G36*
X00479Y01206D02*
X0047Y01205D01*
X00461Y01201*
X00454Y01196*
X00448Y01188*
X00445Y0118*
X00443Y0117*
X00445Y01161*
X00448Y01152*
X00454Y01145*
X00461Y01139*
X0047Y01136*
X00479Y01134*
X00488Y01136*
X00497Y01139*
X00504Y01145*
X0051Y01152*
X00514Y01161*
X00515Y0117*
X00514Y0118*
X0051Y01188*
X00504Y01196*
X00497Y01201*
X00488Y01205*
X00479Y01206*
G37*
G36*
X03284Y01172D02*
X03278Y0117D01*
X03273Y01167*
X03269Y01162*
X03268Y01155*
X03269Y01149*
X03273Y01144*
X03278Y0114*
X03284Y01139*
X0329Y0114*
X03296Y01144*
X03299Y01149*
X033Y01155*
X03299Y01162*
X03296Y01167*
X0329Y0117*
X03284Y01172*
G37*
G36*
X027Y0125D02*
X02648D01*
Y01194*
X027*
Y01199*
X02704Y01202*
X02709Y01201*
X02715Y01202*
X02721Y01206*
X02724Y01211*
X02725Y01217*
X02724Y01223*
X02721Y01229*
X02715Y01232*
X02709Y01233*
X02704Y01232*
X027Y01235*
Y0125*
G37*
G36*
X00149Y01265D02*
X00119D01*
X0012Y01261*
X00123Y01252*
X00129Y01245*
X00136Y01239*
X00145Y01236*
X00149Y01235*
Y01265*
G37*
G36*
X00189D02*
X00159D01*
Y01235*
X00163Y01236*
X00172Y01239*
X00179Y01245*
X00185Y01252*
X00189Y01261*
Y01265*
G37*
G36*
X01979Y01227D02*
X01958D01*
Y01204*
X01979*
Y01227*
G37*
G36*
X02795Y0125D02*
X02743D01*
Y01194*
X02795*
Y01199*
X02799Y01202*
X02804Y01201*
X0281Y01202*
X02816Y01206*
X02819Y01211*
X0282Y01217*
X02819Y01223*
X02816Y01229*
X0281Y01232*
X02804Y01233*
X02799Y01232*
X02795Y01235*
Y0125*
G37*
G36*
X01948Y01227D02*
X01927D01*
Y01204*
X01948*
Y01227*
G37*
G36*
X00154Y01206D02*
X00145Y01205D01*
X00136Y01201*
X00129Y01196*
X00123Y01188*
X0012Y0118*
X00118Y0117*
X0012Y01161*
X00123Y01152*
X00129Y01145*
X00136Y01139*
X00145Y01136*
X00154Y01134*
X00163Y01136*
X00172Y01139*
X00179Y01145*
X00185Y01152*
X00189Y01161*
X0019Y0117*
X00189Y0118*
X00185Y01188*
X00179Y01196*
X00172Y01201*
X00163Y01205*
X00154Y01206*
G37*
G36*
X02469Y01161D02*
X0246Y0116D01*
X02451Y01156*
X02444Y01151*
X02438Y01143*
X02435Y01135*
X02433Y01125*
X02435Y01116*
X02438Y01107*
X02444Y011*
X02451Y01094*
X0246Y01091*
X02469Y01089*
X02478Y01091*
X02487Y01094*
X02494Y011*
X025Y01107*
X02504Y01116*
X02505Y01125*
X02504Y01135*
X025Y01143*
X02494Y01151*
X02487Y01156*
X02478Y0116*
X02469Y01161*
G37*
G36*
X02005D02*
X01934D01*
Y0109*
X02005*
Y01161*
G37*
G36*
X02269D02*
X0226Y0116D01*
X02251Y01156*
X02244Y01151*
X02238Y01143*
X02235Y01135*
X02233Y01125*
X02235Y01116*
X02238Y01107*
X02244Y011*
X02251Y01094*
X0226Y01091*
X02269Y01089*
X02278Y01091*
X02287Y01094*
X02294Y011*
X023Y01107*
X02304Y01116*
X02305Y01125*
X02304Y01135*
X023Y01143*
X02294Y01151*
X02287Y01156*
X02278Y0116*
X02269Y01161*
G37*
G36*
X01844Y01115D02*
X01831D01*
Y0108*
X01844*
Y01115*
G37*
G36*
X02069Y01161D02*
X0206Y0116D01*
X02051Y01156*
X02044Y01151*
X02038Y01143*
X02035Y01135*
X02033Y01125*
X02035Y01116*
X02038Y01107*
X02044Y011*
X02051Y01094*
X0206Y01091*
X02069Y01089*
X02078Y01091*
X02087Y01094*
X02094Y011*
X021Y01107*
X02104Y01116*
X02105Y01125*
X02104Y01135*
X021Y01143*
X02094Y01151*
X02087Y01156*
X02078Y0116*
X02069Y01161*
G37*
G36*
X02164Y0112D02*
X02134D01*
X02135Y01116*
X02138Y01107*
X02144Y011*
X02151Y01094*
X0216Y01091*
X02164Y0109*
Y0112*
G37*
G36*
Y0116D02*
X0216D01*
X02151Y01156*
X02144Y01151*
X02138Y01143*
X02135Y01135*
X02134Y0113*
X02164*
Y0116*
G37*
G36*
X02174D02*
Y0113D01*
X02204*
Y01135*
X022Y01143*
X02194Y01151*
X02187Y01156*
X02178Y0116*
X02174*
G37*
G36*
X01384Y01161D02*
Y01125D01*
X0142*
Y01131*
X01415Y01141*
X01409Y0115*
X014Y01157*
X0139Y01161*
X01384*
G37*
G36*
X02204Y0112D02*
X02174D01*
Y0109*
X02178Y01091*
X02187Y01094*
X02194Y011*
X022Y01107*
X02204Y01116*
Y0112*
G37*
G36*
X01374Y01161D02*
X01368D01*
X01358Y01157*
X0135Y0115*
X01343Y01141*
X01339Y01131*
X01338Y01125*
X01374*
Y01161*
G37*
G36*
X02764Y01284D02*
X02743D01*
Y01261*
X02764*
Y01284*
G37*
G36*
X02795D02*
X02774D01*
Y01261*
X02795*
Y01284*
G37*
G36*
X027D02*
X02679D01*
Y01261*
X027*
Y01284*
G37*
G36*
X02605D02*
X02584D01*
Y01261*
X02605*
Y01284*
G37*
G36*
X02669D02*
X02648D01*
Y01261*
X02669*
Y01284*
G37*
G36*
X00149Y01305D02*
X00145D01*
X00136Y01301*
X00129Y01296*
X00123Y01288*
X0012Y0128*
X00119Y01275*
X00149*
Y01305*
G37*
G36*
X00769Y0133D02*
X00721D01*
X00714Y01329*
X00708Y01326*
X00702Y01322*
X00698Y01316*
X00695Y0131*
Y01303*
Y01297*
X00698Y0129*
X00702Y01285*
X00708Y01281*
X00714Y01278*
X00721Y01277*
X00769*
X00773Y01278*
X00796*
Y01329*
X00773*
X00769Y0133*
G37*
G36*
X00831Y01298D02*
X00808D01*
Y01278*
X00831*
Y01298*
G37*
G36*
X00484Y01305D02*
Y01275D01*
X00514*
Y0128*
X0051Y01288*
X00504Y01296*
X00497Y01301*
X00488Y01305*
X00484*
G37*
G36*
X00159D02*
Y01275D01*
X00189*
Y0128*
X00185Y01288*
X00179Y01296*
X00172Y01301*
X00163Y01305*
X00159*
G37*
G36*
X00474D02*
X0047D01*
X00461Y01301*
X00454Y01296*
X00448Y01288*
X00445Y0128*
X00444Y01275*
X00474*
Y01305*
G37*
G36*
X02574Y01284D02*
X02553D01*
Y01261*
X02574*
Y01284*
G37*
G36*
X01979Y0126D02*
X01958D01*
Y01237*
X01979*
Y0126*
G37*
G36*
X03284Y01272D02*
X03278Y0127D01*
X03273Y01267*
X03269Y01262*
X03268Y01255*
X03269Y01249*
X03273Y01244*
X03278Y0124*
X03284Y01239*
X0329Y0124*
X03296Y01244*
X03299Y01249*
X033Y01255*
X03299Y01262*
X03296Y01267*
X0329Y0127*
X03284Y01272*
G37*
G36*
X01948Y0126D02*
X01927D01*
Y01237*
X01948*
Y0126*
G37*
G36*
X00474Y01265D02*
X00444D01*
X00445Y01261*
X00448Y01252*
X00454Y01245*
X00461Y01239*
X0047Y01236*
X00474Y01235*
Y01265*
G37*
G36*
X00514D02*
X00484D01*
Y01235*
X00488Y01236*
X00497Y01239*
X00504Y01245*
X0051Y01252*
X00514Y01261*
Y01265*
G37*
G36*
X03624Y01275D02*
X03588D01*
X03589Y01269*
X03593Y01259*
X036Y01251*
X03608Y01244*
X03618Y0124*
X03624Y01239*
Y01275*
G37*
G36*
X01269Y01332D02*
X01263Y0133D01*
X01258Y01327*
X01254Y01322*
X01253Y01315*
X01238*
Y01252*
X01234Y01249*
X01231Y0125*
X01225Y01248*
X0122Y01245*
X01219*
X01214*
X0121Y01244*
X01206Y01241*
X01185Y0122*
X01183Y01217*
X01182Y01212*
Y01156*
X01178Y01154*
X01175Y01155*
X01169Y01157*
X01163Y01155*
X01158Y01152*
X01157Y0115*
X01152*
X01151Y01152*
X01145Y01155*
X01139Y01157*
X01133Y01155*
X01128Y01152*
X01127Y0115*
X01122*
X01121Y01152*
X01115Y01155*
X01109Y01157*
X01103Y01155*
X01098Y01152*
X01097Y0115*
X01092*
X01091Y01152*
X01085Y01155*
X01079Y01157*
X01073Y01155*
X01068Y01152*
X01064Y01147*
X01063Y0114*
X01064Y01134*
X01068Y01129*
Y01007*
X01069Y01003*
X01071Y00999*
X01253Y00818*
Y00806*
X01249Y00803*
X01245Y00805*
X01239Y00807*
X01233*
Y00816*
X01178*
Y00765*
X01233*
Y00774*
X01239*
X01245Y00775*
X01249Y00777*
X01253Y00775*
Y00701*
X01254Y00697*
X01256Y00693*
X01343Y00606*
X01347Y00604*
X01351Y00603*
X02999*
X03027Y00576*
X03025Y00571*
X02975*
Y0052*
X02991*
Y00126*
X02937Y00072*
X02911*
X0291Y00073*
X02904Y00081*
X02897Y00086*
X02888Y0009*
X02879Y00091*
X0287Y0009*
X02861Y00086*
X02854Y00081*
X02848Y00073*
X02845Y00065*
X02843Y00055*
X02845Y00046*
X02848Y00037*
X02854Y0003*
X02861Y00024*
X0287Y00021*
X02879Y00019*
X02888Y00021*
X02897Y00024*
X02904Y0003*
X0291Y00037*
X02911Y00039*
X02944*
X0295Y0004*
X02956Y00044*
X03019Y00107*
X03023Y00113*
X03024Y00119*
Y0052*
X0303*
Y00566*
X03035Y00568*
X03043Y0056*
Y00225*
X03044Y00221*
X03046Y00217*
X03066Y00197*
X0307Y00195*
X03074Y00194*
X03078*
Y0018*
X03133*
Y00231*
X03078*
Y00224*
X03073Y00222*
X03065Y0023*
Y00564*
X03064Y00569*
X03062Y00572*
X03012Y00622*
X03008Y00625*
X03004Y00626*
X01356*
X01354Y0063*
X01355Y00633*
X01359Y00632*
X03019*
X03094Y00557*
Y00331*
X03078*
Y0028*
X03133*
Y00331*
X03117*
Y00379*
X03118*
X0312*
X0317*
Y00389*
X03209*
X03215Y0039*
X03221Y00394*
X03224Y00399*
X03225Y00405*
X03224Y00412*
X03221Y00417*
X03215Y0042*
X03209Y00422*
X0317*
Y00435*
X0312*
X03118*
X03117Y00436*
Y00446*
X03118*
X0317*
Y00501*
X03155*
Y00572*
X03154Y00577*
X03152Y0058*
X03052Y0068*
X03048Y00683*
X03044Y00684*
Y00685*
X03048Y00688*
X0316*
X03193Y00656*
X03191Y00651*
X03183*
Y00596*
X03235*
Y00651*
X0322*
Y00655*
X03219Y0066*
X03217Y00663*
X03173Y00707*
X03169Y0071*
X03165Y00711*
X01385*
X0135Y00745*
Y00765*
X01351*
X01354*
X01406*
Y00816*
X01394*
X01391Y0082*
X01393Y00823*
X01394Y00829*
X01393Y00836*
X0139Y00841*
X01389*
X0139Y00846*
X01571*
X01572Y00841*
X01568Y00836*
X01567Y00829*
X01568Y00823*
X0157Y0082*
X01567Y00816*
X01556*
Y00765*
X01611*
Y00816*
X01599*
X01596Y0082*
X01598Y00823*
X01599Y00829*
X01598Y00836*
X01595Y00841*
X01594*
X01595Y00846*
X01816*
X01817Y00841*
X01813Y00836*
X01812Y00829*
X01813Y00823*
X01815Y0082*
X01812Y00816*
X01801*
Y00765*
X01856*
Y00816*
X01844*
X01841Y0082*
X01843Y00823*
X01844Y00829*
X01843Y00836*
X0184Y00841*
X01839*
X0184Y00846*
X02022*
X02023Y00841*
X02019Y00836*
X02018Y00829*
X02019Y00823*
X02021Y0082*
X02018Y00816*
X02007*
Y00765*
X02062*
Y00816*
X0205*
X02047Y0082*
X02049Y00823*
X0205Y00829*
X02049Y00836*
X02046Y00841*
X02045*
X02046Y00846*
X02266*
X02267Y00841*
X02263Y00836*
X02262Y00829*
X02263Y00823*
X02265Y0082*
X02262Y00816*
X02251*
Y00765*
X02306*
Y00816*
X02294*
X02291Y0082*
X02293Y00823*
X02294Y00829*
X02293Y00836*
X0229Y00841*
X02289*
X0229Y00846*
X02471*
X02473Y00841*
X02472*
X02469Y00836*
X02467Y00829*
X02469Y00823*
X0247Y0082*
X02468Y00816*
X02456*
Y00765*
X02511*
Y00816*
X02499*
X02497Y0082*
X02499Y00823*
X025Y00829*
X02499Y00836*
X02495Y00841*
X02494*
X02496Y00846*
X02695*
X02712Y0083*
Y00829*
X02713Y00823*
X02715Y0082*
X02712Y00816*
X02701*
Y00765*
X02756*
Y00816*
X02744*
X02741Y0082*
X02743Y00823*
X02744Y00829*
X02743Y00836*
X0274Y00841*
X02734Y00844*
X02728Y00846*
X02708Y00865*
X02704Y00868*
X027Y00869*
X02702Y0087*
X02876*
X02917Y0083*
Y00829*
X02918Y00823*
X0292Y0082*
X02917Y00816*
X02906*
Y00765*
X02961*
Y00816*
X02949*
X02946Y0082*
X02948Y00823*
X02949Y00829*
X02948Y00836*
X02945Y00841*
X02939Y00844*
X02933Y00846*
X02889Y00889*
X02885Y00892*
X02881Y00893*
X01396*
X01225Y01063*
Y01187*
X01226Y01191*
X01232Y01192*
X01238Y01196*
X01241Y01201*
X01242Y01207*
X01241Y01214*
X01238Y01219*
X01243Y01222*
X01246Y01227*
X01247Y01233*
X01246Y0124*
X01301*
Y01315*
X01285*
X01284Y01322*
X01281Y01327*
X01275Y0133*
X01269Y01332*
G37*
G36*
X01381Y01307D02*
X01329D01*
Y01295*
X01325*
X01319Y01293*
X01314Y0129*
X0131Y01285*
X01309Y01278*
X0131Y01272*
X01314Y01267*
X01319Y01263*
X01325Y01262*
X01329*
Y01251*
X01381*
Y01307*
G37*
G36*
X0392Y01275D02*
X03884D01*
Y01239*
X0389Y0124*
X039Y01244*
X03909Y01251*
X03915Y01259*
X0392Y01269*
Y01275*
G37*
G36*
X0367D02*
X03634D01*
Y01239*
X0364Y0124*
X0365Y01244*
X03659Y01251*
X03665Y01259*
X0367Y01269*
Y01275*
G37*
G36*
X03874D02*
X03838D01*
X03839Y01269*
X03843Y01259*
X0385Y01251*
X03858Y01244*
X03868Y0124*
X03874Y01239*
Y01275*
G37*
G36*
X01301Y01441D02*
X01275D01*
Y01409*
X01301*
Y01441*
G37*
G36*
X01245Y01816D02*
X01224D01*
Y01793*
X01245*
Y01816*
G37*
G36*
X01044Y01817D02*
X01023D01*
Y01794*
X01044*
Y01817*
G37*
G36*
X01214Y01816D02*
X01193D01*
Y01793*
X01214*
Y01816*
G37*
G36*
X02534Y01824D02*
X02508D01*
Y01792*
X02534*
Y01824*
G37*
G36*
X02571D02*
X02544D01*
Y01792*
X02571*
Y01824*
G37*
G36*
X01075Y01817D02*
X01054D01*
Y01794*
X01075*
Y01817*
G37*
G36*
X01339D02*
X01317D01*
Y01797*
X01339*
Y01817*
G37*
G36*
X01406Y01848D02*
X01351D01*
Y01797*
X01406*
Y018*
X0141Y01803*
X01411*
X01417Y01804*
X01423Y01808*
X01426Y01813*
X01427Y01819*
X01426Y01826*
X01423Y01831*
X01417Y01834*
X01411Y01836*
X0141Y01835*
X01406Y01839*
Y01848*
G37*
G36*
X01307Y01817D02*
X01284D01*
Y01797*
X01307*
Y01817*
G37*
G36*
X01107D02*
X01086D01*
Y01794*
X01107*
Y01817*
G37*
G36*
X01138D02*
X01117D01*
Y01794*
X01138*
Y01817*
G37*
G36*
X0086Y01794D02*
X00838D01*
Y01774*
X0086*
Y01794*
G37*
G36*
X03844Y0177D02*
Y0174D01*
X03874*
Y01745*
X0387Y01753*
X03864Y01761*
X03857Y01766*
X03848Y0177*
X03844*
G37*
G36*
X03019Y01785D02*
X03015D01*
X03006Y01781*
X02999Y01776*
X02993Y01768*
X0299Y0176*
X02989Y01755*
X03019*
Y01785*
G37*
G36*
X03834Y0177D02*
X0383D01*
X03821Y01766*
X03814Y01761*
X03808Y01753*
X03805Y01745*
X03804Y0174*
X03834*
Y0177*
G37*
G36*
X03454Y01745D02*
X03424D01*
X03425Y01741*
X03428Y01732*
X03434Y01725*
X03441Y01719*
X0345Y01716*
X03454Y01715*
Y01745*
G37*
G36*
X03494D02*
X03464D01*
Y01715*
X03468Y01716*
X03477Y01719*
X03484Y01725*
X0349Y01732*
X03494Y01741*
Y01745*
G37*
G36*
X03029Y01785D02*
Y01755D01*
X03059*
Y0176*
X03055Y01768*
X03049Y01776*
X03042Y01781*
X03033Y01785*
X03029*
G37*
G36*
X0045Y01847D02*
X00439Y01845D01*
X00429Y01841*
X0042Y01835*
X00413Y01826*
X00409Y01816*
X00408Y01805*
X00409Y01794*
X00413Y01784*
X0042Y01775*
X00429Y01769*
X00439Y01765*
X0045Y01763*
X0046Y01765*
X00471Y01769*
X00479Y01775*
X00486Y01784*
X0049Y01794*
X00491Y01805*
X0049Y01816*
X00486Y01826*
X00479Y01835*
X00471Y01841*
X0046Y01845*
X0045Y01847*
G37*
G36*
X00828Y01794D02*
X00805D01*
Y01774*
X00828*
Y01794*
G37*
G36*
X00125Y01847D02*
X00114Y01845D01*
X00104Y01841*
X00095Y01835*
X00088Y01826*
X00084Y01816*
X00083Y01805*
X00084Y01794*
X00088Y01784*
X00095Y01775*
X00104Y01769*
X00114Y01765*
X00125Y01763*
X00135Y01765*
X00146Y01769*
X00154Y01775*
X00161Y01784*
X00165Y01794*
X00166Y01805*
X00165Y01816*
X00161Y01826*
X00154Y01835*
X00146Y01841*
X00135Y01845*
X00125Y01847*
G37*
G36*
X03454Y01785D02*
X0345D01*
X03441Y01781*
X03434Y01776*
X03428Y01768*
X03425Y0176*
X03424Y01755*
X03454*
Y01785*
G37*
G36*
X03464D02*
Y01755D01*
X03494*
Y0176*
X0349Y01768*
X03484Y01776*
X03477Y01781*
X03468Y01785*
X03464*
G37*
G36*
X01016Y01866D02*
X00995D01*
Y01843*
X01016*
Y01866*
G37*
G36*
X02827Y01882D02*
X02649D01*
X02643Y0188*
X02638Y01877*
X02634Y01872*
X02633Y01865*
X02634Y01859*
X02638Y01854*
X02643Y0185*
X02649Y01849*
X02827*
X02833Y0185*
X02839Y01854*
X02842Y01859*
X02843Y01865*
X02842Y01872*
X02839Y01877*
X02833Y0188*
X02827Y01882*
G37*
G36*
X00985Y01866D02*
X00964D01*
Y01843*
X00985*
Y01866*
G37*
G36*
X02571Y01867D02*
X02544D01*
Y01834*
X02571*
Y01867*
G37*
G36*
X01433Y02081D02*
X01427Y02079D01*
X01422Y02076*
X01418Y02071*
X01417Y02064*
X01418Y02058*
X01422Y02053*
X01427Y02049*
X01433Y02048*
X01434*
X01621Y01861*
X01619Y01856*
X01617*
X01612Y01852*
X01608Y01847*
X01607Y01841*
X01606Y0184*
X01605*
X01601Y01843*
X016Y01847*
X01597Y01852*
X01591Y01855*
X01585Y01857*
X01579Y01855*
X01574Y01852*
X0157Y01847*
X01565*
X01562Y01852*
X01556Y01855*
X0155Y01857*
X01544Y01855*
X01539Y01852*
X01535Y01847*
X01534Y0184*
X01535Y01834*
X01539Y01829*
X01544Y01825*
X0155Y01824*
X01551*
X01703Y01671*
X01707Y01669*
X01711Y01668*
X01911*
X01912Y01663*
X01905Y01656*
X01902Y01652*
X01901Y01648*
Y01643*
X01895*
Y01639*
X01711*
X0139Y01959*
X01386Y01962*
X01382Y01963*
X0108*
Y02011*
X01025*
Y0196*
X0103*
X01033Y01956*
Y01955*
X01034Y01949*
X01038Y01944*
X01039Y01943*
Y01938*
X01038Y01937*
X01034Y01932*
X01033Y01925*
X01034Y0192*
X01031Y01916*
X01023*
Y01861*
X01075*
Y01916*
X01068*
X01064Y0192*
X01065Y01925*
X0108Y0194*
X01096*
X01099Y01936*
X01098Y0193*
X01099Y01924*
X01101Y01921*
Y01916*
X01086*
Y01861*
X01138*
Y01916*
X01129*
X01127Y01921*
X01129Y01924*
X0113Y0193*
X01129Y01937*
X01131Y0194*
X01202*
X01205Y01936*
X01203Y01934*
X01202Y01927*
X01203Y01921*
X01204Y0192*
X01202Y01915*
X01193*
Y0186*
X01245*
Y01915*
X01235*
X01233Y0192*
X01234Y01921*
X01235Y01927*
X01234Y01934*
X0123Y01939*
Y0194*
X01377*
X01698Y01619*
X01702Y01617*
X01706Y01616*
X01895*
Y01611*
Y01609*
X01682*
X01582Y01708*
X01578Y01711*
X01574Y01712*
X01496*
X0149Y01715*
X01484Y01717*
X01478Y01715*
X01473Y01712*
X01472*
X01405*
Y01731*
X01353*
Y01676*
X01405*
Y01689*
X01472*
X01473*
X01478Y01685*
X01484Y01684*
X0149Y01685*
X01496Y01689*
X01569*
X01669Y01589*
X01673Y01587*
X01677Y01586*
X01724*
X01726Y01581*
X01723Y01579*
X01716Y0157*
X01712Y0156*
X01711Y01554*
X01793*
Y0156*
X01788Y0157*
X01782Y01579*
X01773Y01586*
X01824*
X01826Y01581*
X01823Y01579*
X01816Y0157*
X01812Y0156*
X01811Y01554*
X01893*
Y0156*
X01888Y0157*
X01882Y01579*
X01873Y01586*
X01895*
Y01581*
X01919*
X01921Y01577*
X01916Y0157*
X01912Y0156*
X0191Y01549*
X01912Y01538*
X01916Y01528*
X01923Y0152*
X01931Y01513*
X01941Y01509*
X01952Y01508*
X01963Y01509*
X01973Y01513*
X01982Y0152*
X01988Y01528*
X01993Y01538*
X01994Y01549*
X01993Y0156*
X01988Y0157*
X01982Y01579*
X01973Y01586*
X0197Y01587*
Y01611*
Y01616*
X02023*
X02041Y01599*
Y0159*
X02031Y01586*
X02023Y01579*
X02016Y0157*
X02012Y0156*
X0201Y01549*
X02012Y01538*
X02016Y01528*
X02023Y0152*
X02031Y01513*
X02041Y01509*
X02052Y01508*
X02063Y01509*
X02073Y01513*
X02082Y0152*
X02084Y01523*
X02089Y01521*
Y01477*
X02084Y01476*
X02082Y01479*
X02073Y01486*
X02063Y0149*
X02052Y01491*
X02041Y0149*
X02031Y01486*
X02023Y01479*
X02016Y0147*
X02012Y0146*
X0201Y01449*
X02012Y01438*
X02016Y01428*
X02023Y0142*
X02031Y01413*
X02041Y01409*
X02052Y01408*
X02063Y01409*
X02073Y01413*
X02082Y0142*
X02084Y01423*
X02089Y01421*
Y01394*
X0209Y0139*
X02092Y01386*
X02149Y01329*
X02153Y01327*
X02157Y01326*
X02311*
X02358Y0128*
Y01159*
X02351Y01156*
X02344Y01151*
X02338Y01143*
X02335Y01135*
X02333Y01125*
X02335Y01116*
X02338Y01107*
X02344Y011*
X02351Y01094*
X0236Y01091*
X02369Y01089*
X02378Y01091*
X02387Y01094*
X02394Y011*
X024Y01107*
X02404Y01116*
X02405Y01125*
X02404Y01135*
X024Y01143*
X02394Y01151*
X02387Y01156*
X0238Y01159*
Y01284*
X02379Y01289*
X02377Y01292*
X02324Y01345*
X0232Y01348*
X02316Y01349*
X02162*
X02111Y01399*
Y01427*
X02113*
X02116Y01428*
X02123Y0142*
X02131Y01413*
X02141Y01409*
X02152Y01408*
X02163Y01409*
X02173Y01413*
X02182Y0142*
X02188Y01428*
X02193Y01438*
X02194Y01449*
X02193Y0146*
X02188Y0147*
X02182Y01479*
X02173Y01486*
X02163Y0149*
X02152Y01491*
X02141Y0149*
X02131Y01486*
X02123Y01479*
X02116Y0147*
X02113Y01472*
X02111*
Y01527*
X02113*
X02116Y01528*
X02123Y0152*
X02131Y01513*
X02141Y01509*
X02152Y01508*
X02163Y01509*
X02173Y01513*
X02182Y0152*
X02188Y01528*
X02193Y01538*
X02194Y01549*
X02193Y0156*
X02188Y0157*
X02182Y01579*
X02173Y01586*
X02163Y0159*
Y01608*
X02162Y01613*
X0216Y01616*
X02096Y0168*
X02098Y01685*
X02163*
X02241Y01608*
Y0159*
X02231Y01586*
X02223Y01579*
X02216Y0157*
X02212Y0156*
X0221Y01549*
X02212Y01538*
X02216Y01528*
X02223Y0152*
X02231Y01513*
X02241Y01509*
X02252Y01508*
X02263Y01509*
X02273Y01513*
X02282Y0152*
X02288Y01528*
X02293Y01538*
X02294Y01549*
X02293Y0156*
X02288Y0157*
X02282Y01579*
X02273Y01586*
X02263Y0159*
Y01612*
X02262Y01617*
X0226Y0162*
X02183Y01697*
X02185Y01702*
X02246*
X02343Y01606*
Y0159*
X02341*
X02331Y01586*
X02323Y01579*
X02316Y0157*
X02312Y0156*
X0231Y01549*
X02312Y01538*
X02316Y01528*
X02323Y0152*
X02331Y01513*
X02341Y01509*
X02352Y01508*
X02363Y01509*
X02373Y01513*
X02382Y0152*
X02388Y01528*
X02393Y01538*
X02394Y01549*
X02393Y0156*
X02388Y0157*
X02382Y01579*
X02373Y01586*
X02365Y01589*
Y0161*
X02364Y01615*
X02362Y01618*
X02259Y01721*
X02255Y01724*
X02251Y01725*
X01755*
X01726Y01754*
X01727Y01759*
X01835*
X01838Y01752*
X01844Y01745*
X01851Y01739*
X0186Y01736*
X01869Y01734*
X01878Y01736*
X01887Y01739*
X01894Y01745*
X019Y01752*
X01904Y01761*
X01905Y0177*
X01904Y0178*
X019Y01788*
X01894Y01796*
X01887Y01801*
X01878Y01805*
X01869Y01806*
X0186Y01805*
X01851Y01801*
X01844Y01796*
X01838Y01788*
X01835Y01782*
X01732*
X01449Y02064*
X01448Y02071*
X01445Y02076*
X01439Y02079*
X01433Y02081*
G37*
G36*
X0088Y01885D02*
X00859D01*
Y01862*
X0088*
Y01885*
G37*
G36*
X02409Y01907D02*
X02403Y01905D01*
X02398Y01902*
X02397*
X02329*
X02328*
X02323Y01905*
X02317Y01907*
X02311Y01905*
X02305Y01902*
X02302Y01897*
X02301Y0189*
X02302Y01884*
X02305Y01879*
X02311Y01875*
X02317Y01874*
X02323Y01875*
X02328Y01879*
X02329*
X02397*
X02398*
X02403Y01875*
X02409Y01874*
X02415Y01875*
X02421Y01879*
X02424Y01884*
X02425Y0189*
X02424Y01897*
X02421Y01902*
X02415Y01905*
X02409Y01907*
G37*
G36*
X02539Y02017D02*
X02533Y02015D01*
X02528Y02012*
X02524Y02007*
X02523Y02*
Y01993*
X02508*
Y01918*
X02571*
Y01993*
X02555*
Y02*
X02554Y02007*
X02551Y02012*
X02545Y02015*
X02539Y02017*
G37*
G36*
X01016Y01899D02*
X00995D01*
Y01876*
X01016*
Y01899*
G37*
G36*
X00911Y01885D02*
X0089D01*
Y01862*
X00911*
Y01885*
G37*
G36*
X00985Y01899D02*
X00964D01*
Y01876*
X00985*
Y01899*
G37*
G36*
X02534Y01867D02*
X02508D01*
Y01834*
X02534*
Y01867*
G37*
G36*
X01044Y0185D02*
X01023D01*
Y01827*
X01044*
Y0185*
G37*
G36*
X01075D02*
X01054D01*
Y01827*
X01075*
Y0185*
G37*
G36*
X01245Y01849D02*
X01224D01*
Y01826*
X01245*
Y01849*
G37*
G36*
X00828Y01825D02*
X00805D01*
Y01804*
X00828*
Y01825*
G37*
G36*
X01214Y01849D02*
X01193D01*
Y01826*
X01214*
Y01849*
G37*
G36*
X01107Y0185D02*
X01086D01*
Y01827*
X01107*
Y0185*
G37*
G36*
X00911Y01852D02*
X0089D01*
Y01829*
X00911*
Y01852*
G37*
G36*
X0088D02*
X00859D01*
Y01829*
X00856Y01825*
X00838*
Y01804*
X0086*
Y01825*
Y01826*
X00864Y01829*
X0088*
Y01852*
G37*
G36*
X01339Y01848D02*
X01317D01*
Y01827*
X01339*
Y01848*
G37*
G36*
X01138Y0185D02*
X01117D01*
Y01827*
X01138*
Y0185*
G37*
G36*
X01307Y01848D02*
X01284D01*
Y01827*
X01307*
Y01848*
G37*
G36*
X03059Y01745D02*
X03029D01*
Y01715*
X03033Y01716*
X03042Y01719*
X03049Y01725*
X03055Y01732*
X03059Y01741*
Y01745*
G37*
G36*
X01793Y01544D02*
X01757D01*
Y01508*
X01763Y01509*
X01773Y01513*
X01782Y0152*
X01788Y01528*
X01793Y01538*
Y01544*
G37*
G36*
X01847D02*
X01811D01*
X01812Y01538*
X01816Y01528*
X01823Y0152*
X01831Y01513*
X01841Y01509*
X01847Y01508*
Y01544*
G37*
G36*
X01747D02*
X01711D01*
X01712Y01538*
X01716Y01528*
X01723Y0152*
X01731Y01513*
X01741Y01509*
X01747Y01508*
Y01544*
G37*
G36*
X02795Y015D02*
X02774D01*
Y01477*
X02795*
Y015*
G37*
G36*
X02494Y01591D02*
X02411D01*
Y01508*
X02494*
Y01591*
G37*
G36*
X01893Y01544D02*
X01857D01*
Y01508*
X01863Y01509*
X01873Y01513*
X01882Y0152*
X01888Y01528*
X01893Y01538*
Y01544*
G37*
G36*
X00154Y01636D02*
X00145Y01635D01*
X00136Y01631*
X00129Y01626*
X00123Y01618*
X0012Y0161*
X00118Y016*
X0012Y01591*
X00123Y01582*
X00129Y01575*
X00136Y01569*
X00145Y01566*
X00154Y01564*
X00163Y01566*
X00172Y01569*
X00179Y01575*
X00185Y01582*
X00189Y01591*
X0019Y016*
X00189Y0161*
X00185Y01618*
X00179Y01626*
X00172Y01631*
X00163Y01635*
X00154Y01636*
G37*
G36*
X00479D02*
X0047Y01635D01*
X00461Y01631*
X00454Y01626*
X00448Y01618*
X00445Y0161*
X00443Y016*
X00445Y01591*
X00448Y01582*
X00454Y01575*
X00461Y01569*
X0047Y01566*
X00479Y01564*
X00488Y01566*
X00497Y01569*
X00504Y01575*
X0051Y01582*
X00514Y01591*
X00515Y016*
X00514Y0161*
X0051Y01618*
X00504Y01626*
X00497Y01631*
X00488Y01635*
X00479Y01636*
G37*
G36*
X02795Y01566D02*
X02743D01*
Y01511*
X02795*
Y01522*
X02799Y01525*
X02804Y01524*
X0281Y01525*
X02816Y01529*
X02819Y01534*
X0282Y0154*
X02819Y01547*
X02816Y01552*
X0281Y01555*
X02804Y01557*
X02799Y01556*
X02795Y01559*
Y01566*
G37*
G36*
X02605D02*
X02553D01*
Y01511*
X02605*
Y01522*
X02609Y01525*
X02614Y01524*
X0262Y01525*
X02626Y01529*
X02629Y01534*
X0263Y0154*
X02629Y01547*
X02626Y01552*
X0262Y01555*
X02614Y01557*
X02609Y01556*
X02605Y01559*
Y01566*
G37*
G36*
X027D02*
X02648D01*
Y01511*
X027*
Y01522*
X02704Y01525*
X02709Y01524*
X02715Y01525*
X02721Y01529*
X02724Y01534*
X02725Y0154*
X02724Y01547*
X02721Y01552*
X02715Y01555*
X02709Y01557*
X02704Y01556*
X027Y01559*
Y01566*
G37*
G36*
X02764Y015D02*
X02743D01*
Y01477*
X02764*
Y015*
G37*
G36*
X02669Y01467D02*
X02648D01*
Y01444*
X02669*
Y01467*
G37*
G36*
X027D02*
X02679D01*
Y01444*
X027*
Y01467*
G37*
G36*
X02605D02*
X02584D01*
Y01444*
X02605*
Y01467*
G37*
G36*
X03921Y01522D02*
X03838D01*
Y01439*
X03921*
Y01522*
G37*
G36*
X02574Y01467D02*
X02553D01*
Y01444*
X02574*
Y01467*
G37*
G36*
X02764D02*
X02743D01*
Y01444*
X02764*
Y01467*
G37*
G36*
X02669Y015D02*
X02648D01*
Y01477*
X02669*
Y015*
G37*
G36*
X027D02*
X02679D01*
Y01477*
X027*
Y015*
G37*
G36*
X02605D02*
X02584D01*
Y01477*
X02605*
Y015*
G37*
G36*
X02795Y01467D02*
X02774D01*
Y01444*
X02795*
Y01467*
G37*
G36*
X02574Y015D02*
X02553D01*
Y01477*
X02574*
Y015*
G37*
G36*
X00474Y01735D02*
X0047D01*
X00461Y01731*
X00454Y01726*
X00448Y01718*
X00445Y0171*
X00444Y01705*
X00474*
Y01735*
G37*
G36*
X00054Y01786D02*
X00045Y01785D01*
X00036Y01781*
X00029Y01776*
X00023Y01768*
X0002Y0176*
X00018Y0175*
X0002Y01741*
X00023Y01732*
X00029Y01725*
X00036Y01719*
X00045Y01716*
X00054Y01714*
X00063Y01716*
X00072Y01719*
X00079Y01725*
X00085Y01732*
X00089Y01741*
X0009Y0175*
X00089Y0176*
X00085Y01768*
X00079Y01776*
X00072Y01781*
X00063Y01785*
X00054Y01786*
G37*
G36*
X00159Y01735D02*
Y01705D01*
X00189*
Y0171*
X00185Y01718*
X00179Y01726*
X00172Y01731*
X00163Y01735*
X00159*
G37*
G36*
X03874Y0173D02*
X03844D01*
Y017*
X03848Y01701*
X03857Y01704*
X03864Y0171*
X0387Y01717*
X03874Y01726*
Y0173*
G37*
G36*
X00149Y01735D02*
X00145D01*
X00136Y01731*
X00129Y01726*
X00123Y01718*
X0012Y0171*
X00119Y01705*
X00149*
Y01735*
G37*
G36*
X00379Y01786D02*
X0037Y01785D01*
X00361Y01781*
X00354Y01776*
X00348Y01768*
X00345Y0176*
X00343Y0175*
X00345Y01741*
X00348Y01732*
X00354Y01725*
X00361Y01719*
X0037Y01716*
X00379Y01714*
X00388Y01716*
X00397Y01719*
X00404Y01725*
X0041Y01732*
X00414Y01741*
X00415Y0175*
X00414Y0176*
X0041Y01768*
X00404Y01776*
X00397Y01781*
X00388Y01785*
X00379Y01786*
G37*
G36*
X03262D02*
X03253Y01785D01*
X03244Y01781*
X03237Y01776*
X03231Y01768*
X03228Y0176*
X03226Y0175*
X03228Y01741*
X03231Y01732*
X03237Y01725*
X03244Y01719*
X03253Y01716*
X03262Y01714*
X03272Y01716*
X0328Y01719*
X03288Y01725*
X03293Y01732*
X03297Y01741*
X03298Y0175*
X03297Y0176*
X03293Y01768*
X03288Y01776*
X0328Y01781*
X03272Y01785*
X03262Y01786*
G37*
G36*
X03019Y01745D02*
X02989D01*
X0299Y01741*
X02993Y01732*
X02999Y01725*
X03006Y01719*
X03015Y01716*
X03019Y01715*
Y01745*
G37*
G36*
X02926Y01786D02*
X02916Y01785D01*
X02908Y01781*
X029Y01776*
X02895Y01768*
X02891Y0176*
X0289Y0175*
X02891Y01741*
X02895Y01732*
X029Y01725*
X02908Y01719*
X02916Y01716*
X02926Y01714*
X02935Y01716*
X02944Y01719*
X02951Y01725*
X02957Y01732*
X0296Y01741*
X02962Y0175*
X0296Y0176*
X02957Y01768*
X02951Y01776*
X02944Y01781*
X02935Y01785*
X02926Y01786*
G37*
G36*
X02729D02*
X0272Y01785D01*
X02711Y01781*
X02704Y01776*
X02698Y01768*
X02694Y0176*
X02693Y0175*
X02694Y01741*
X02698Y01732*
X02704Y01725*
X02711Y01719*
X0272Y01716*
X02729Y01714*
X02738Y01716*
X02747Y01719*
X02754Y01725*
X0276Y01732*
X02763Y01741*
X02765Y0175*
X02763Y0176*
X0276Y01768*
X02754Y01776*
X02747Y01781*
X02738Y01785*
X02729Y01786*
G37*
G36*
X02827D02*
X02818Y01785D01*
X02809Y01781*
X02802Y01776*
X02796Y01768*
X02793Y0176*
X02791Y0175*
X02793Y01741*
X02796Y01732*
X02802Y01725*
X02809Y01719*
X02818Y01716*
X02827Y01714*
X02837Y01716*
X02845Y01719*
X02853Y01725*
X02858Y01732*
X02862Y01741*
X02863Y0175*
X02862Y0176*
X02858Y01768*
X02853Y01776*
X02845Y01781*
X02837Y01785*
X02827Y01786*
G37*
G36*
X03834Y0173D02*
X03804D01*
X03805Y01726*
X03808Y01717*
X03814Y0171*
X03821Y01704*
X0383Y01701*
X03834Y017*
Y0173*
G37*
G36*
X00379Y01686D02*
X0037Y01685D01*
X00361Y01681*
X00354Y01676*
X00348Y01668*
X00345Y0166*
X00343Y0165*
X00345Y01641*
X00348Y01632*
X00354Y01625*
X00361Y01619*
X0037Y01616*
X00379Y01614*
X00388Y01616*
X00397Y01619*
X00404Y01625*
X0041Y01632*
X00414Y01641*
X00415Y0165*
X00414Y0166*
X0041Y01668*
X00404Y01676*
X00397Y01681*
X00388Y01685*
X00379Y01686*
G37*
G36*
X03361Y01786D02*
X03351Y01785D01*
X03343Y01781*
X03335Y01776*
X0333Y01768*
X03326Y0176*
X03325Y0175*
X03326Y01741*
X0333Y01732*
X03335Y01725*
X03343Y01719*
X03349Y01717*
Y01672*
X03269Y01592*
X03089*
X03085Y01591*
X03081Y01588*
X02894Y01402*
X02781*
X02779Y01403*
Y01408*
X02781Y01409*
X02784Y01414*
X02785Y0142*
X02784Y01427*
X02781Y01432*
X02775Y01435*
X02769Y01437*
X02763Y01435*
X02758Y01432*
X02754Y01427*
X02753Y0142*
X02754Y01414*
X02758Y01409*
X02759Y01408*
Y01403*
X02758Y01402*
X02754Y01397*
X02753Y0139*
X02754Y01384*
X02755Y01382*
X02753Y01378*
X02605*
X02601Y01377*
X02597Y01374*
X0258Y01357*
X02579*
X02573Y01355*
X02568Y01352*
X02564Y01347*
X02563Y0134*
X02564Y01334*
X02568Y01329*
X02573Y01325*
X02579Y01324*
X02585Y01325*
X02591Y01329*
X02594Y01334*
X02595Y0134*
Y01341*
X0261Y01355*
X02656*
X02659Y01351*
X02658Y01345*
X02659Y01339*
X02663Y01334*
X02668Y0133*
X02674Y01329*
X0268Y0133*
X02686Y01334*
X03109*
X03113Y01335*
X03117Y01337*
X03249Y01469*
X03588*
Y01439*
X03671*
Y01522*
X03588*
Y01492*
X03244*
X0324Y01491*
X03236Y01488*
X03104Y01357*
X03033*
X03031Y01361*
X03214Y01544*
X03674*
X03678Y01545*
X03682Y01547*
X03768Y01634*
X03771Y01637*
X03772Y01642*
Y01702*
X03778Y01704*
X03786Y0171*
X03791Y01717*
X03795Y01726*
X03796Y01735*
X03795Y01745*
X03791Y01753*
X03786Y01761*
X03778Y01766*
X0377Y0177*
X0376Y01771*
X03751Y0177*
X03742Y01766*
X03735Y01761*
X03729Y01753*
X03726Y01745*
X03725Y01735*
X03726Y01726*
X03729Y01717*
X03735Y0171*
X03742Y01704*
X03749Y01702*
Y01646*
X03669Y01567*
X03282*
X0328Y01571*
X03282Y01572*
X03369Y01659*
X03371Y01663*
X03372Y01667*
Y01717*
X03379Y01719*
X03386Y01725*
X03392Y01732*
X03395Y01741*
X03397Y0175*
X03395Y0176*
X03392Y01768*
X03386Y01776*
X03379Y01781*
X0337Y01785*
X03361Y01786*
G37*
G36*
X00054Y01686D02*
X00045Y01685D01*
X00036Y01681*
X00029Y01676*
X00023Y01668*
X0002Y0166*
X00018Y0165*
X0002Y01641*
X00023Y01632*
X00029Y01625*
X00036Y01619*
X00045Y01616*
X00054Y01614*
X00063Y01616*
X00072Y01619*
X00079Y01625*
X00085Y01632*
X00089Y01641*
X0009Y0165*
X00089Y0166*
X00085Y01668*
X00079Y01676*
X00072Y01681*
X00063Y01685*
X00054Y01686*
G37*
G36*
X01374Y01632D02*
X01353D01*
Y01609*
X01374*
Y01632*
G37*
G36*
X01405D02*
X01384D01*
Y01609*
X01405*
Y01632*
G37*
G36*
X01374Y01665D02*
X01353D01*
Y01642*
X01374*
Y01665*
G37*
G36*
X00474Y01695D02*
X00444D01*
X00445Y01691*
X00448Y01682*
X00454Y01675*
X00461Y01669*
X0047Y01666*
X00474Y01665*
Y01695*
G37*
G36*
X03682Y01771D02*
X03672Y0177D01*
X03664Y01766*
X03656Y01761*
X03651Y01753*
X03647Y01745*
X03646Y01735*
X03647Y01726*
X03651Y01717*
X03656Y0171*
X03664Y01704*
X03672Y01701*
X03682Y01699*
X03691Y01701*
X037Y01704*
X03707Y0171*
X03713Y01717*
X03716Y01726*
X03717Y01735*
X03716Y01745*
X03713Y01753*
X03707Y01761*
X037Y01766*
X03691Y0177*
X03682Y01771*
G37*
G36*
X00189Y01695D02*
X00159D01*
Y01665*
X00163Y01666*
X00172Y01669*
X00179Y01675*
X00185Y01682*
X00189Y01691*
Y01695*
G37*
G36*
X01405Y01665D02*
X01384D01*
Y01642*
X01405*
Y01665*
G37*
G36*
X00149Y01695D02*
X00119D01*
X0012Y01691*
X00123Y01682*
X00129Y01675*
X00136Y01669*
X00145Y01666*
X00149Y01665*
Y01695*
G37*
G36*
X01821Y01115D02*
X01808D01*
Y0108*
X01821*
Y01115*
G37*
G36*
X03921Y00322D02*
X03838D01*
Y00239*
X03921*
Y00322*
G37*
G36*
X03289Y00272D02*
X03283Y0027D01*
X03278Y00267*
X03274Y00262*
X03273Y00255*
X03274Y00249*
X03278Y00244*
X03283Y0024*
X03289Y00239*
X03295Y0024*
X03301Y00244*
X03304Y00249*
X03305Y00255*
X03304Y00262*
X03301Y00267*
X03295Y0027*
X03289Y00272*
G37*
G36*
X03671Y00322D02*
X03588D01*
Y00239*
X03671*
Y00322*
G37*
G36*
X00567Y00257D02*
X0054D01*
Y00226*
X00567*
Y00257*
G37*
G36*
X00603D02*
X00577D01*
Y00226*
X00603*
Y00257*
G37*
G36*
X03434Y00272D02*
X03428Y0027D01*
X03423Y00267*
X03419Y00262*
X03418Y00255*
X03419Y00249*
X03423Y00244*
X03428Y0024*
X03434Y00239*
X0344Y0024*
X03446Y00244*
X03449Y00249*
X0345Y00255*
X03449Y00262*
X03446Y00267*
X0344Y0027*
X03434Y00272*
G37*
G36*
X00979Y00391D02*
X0097Y0039D01*
X00961Y00386*
X00954Y00381*
X00948Y00373*
X00945Y00365*
X00943Y00355*
X00945Y00346*
X00948Y00337*
X00954Y0033*
X00961Y00324*
X0097Y00321*
X00979Y00319*
X00988Y00321*
X00997Y00324*
X01004Y0033*
X0101Y00337*
X01014Y00346*
X01015Y00355*
X01014Y00365*
X0101Y00373*
X01004Y00381*
X00997Y00386*
X00988Y0039*
X00979Y00391*
G37*
G36*
X01429D02*
X0142Y0039D01*
X01411Y00386*
X01404Y00381*
X01398Y00373*
X01395Y00365*
X01393Y00355*
X01395Y00346*
X01398Y00337*
X01404Y0033*
X01411Y00324*
X0142Y00321*
X01429Y00319*
X01438Y00321*
X01447Y00324*
X01454Y0033*
X0146Y00337*
X01464Y00346*
X01465Y00355*
X01464Y00365*
X0146Y00373*
X01454Y00381*
X01447Y00386*
X01438Y0039*
X01429Y00391*
G37*
G36*
X032Y00331D02*
X03145D01*
Y0028*
X032*
Y00289*
X03209*
X03215Y0029*
X03221Y00294*
X03224Y00299*
X03225Y00305*
X03224Y00312*
X03221Y00317*
X03215Y0032*
X03209Y00322*
X032*
Y00331*
G37*
G36*
X00567Y00297D02*
X0054D01*
Y00267*
X00567*
Y00297*
G37*
G36*
X00603D02*
X00577D01*
Y00267*
X00603*
Y00297*
G37*
G36*
X032Y00231D02*
X03145D01*
Y0018*
X032*
Y00189*
X03209*
X03215Y0019*
X03221Y00194*
X03224Y00199*
X03225Y00205*
X03224Y00212*
X03221Y00217*
X03215Y0022*
X03209Y00222*
X032*
Y00231*
G37*
G36*
X01924Y0019D02*
X0192D01*
X01911Y00186*
X01904Y00181*
X01898Y00173*
X01895Y00165*
X01894Y0016*
X01924*
Y0019*
G37*
G36*
X01934D02*
Y0016D01*
X01964*
Y00165*
X0196Y00173*
X01954Y00181*
X01947Y00186*
X01938Y0019*
X01934*
G37*
G36*
X01484D02*
Y0016D01*
X01514*
Y00165*
X0151Y00173*
X01504Y00181*
X01497Y00186*
X01488Y0019*
X01484*
G37*
G36*
X01034D02*
Y0016D01*
X01064*
Y00165*
X0106Y00173*
X01054Y00181*
X01047Y00186*
X01038Y0019*
X01034*
G37*
G36*
X01474D02*
X0147D01*
X01461Y00186*
X01454Y00181*
X01448Y00173*
X01445Y00165*
X01444Y0016*
X01474*
Y0019*
G37*
G36*
X02374D02*
X0237D01*
X02361Y00186*
X02354Y00181*
X02348Y00173*
X02345Y00165*
X02344Y0016*
X02374*
Y0019*
G37*
G36*
X00577Y00211D02*
X00537D01*
Y00167*
X00577*
Y00211*
G37*
G36*
X00627D02*
X00587D01*
Y00167*
X00627*
Y00211*
G37*
G36*
X02834Y0019D02*
Y0016D01*
X02864*
Y00165*
X0286Y00173*
X02854Y00181*
X02847Y00186*
X02838Y0019*
X02834*
G37*
G36*
X02384D02*
Y0016D01*
X02414*
Y00165*
X0241Y00173*
X02404Y00181*
X02397Y00186*
X02388Y0019*
X02384*
G37*
G36*
X02824D02*
X0282D01*
X02811Y00186*
X02804Y00181*
X02798Y00173*
X02795Y00165*
X02794Y0016*
X02824*
Y0019*
G37*
G36*
X01924Y0045D02*
X01894D01*
X01895Y00446*
X01898Y00437*
X01904Y0043*
X01911Y00424*
X0192Y00421*
X01924Y0042*
Y0045*
G37*
G36*
X02374D02*
X02344D01*
X02345Y00446*
X02348Y00437*
X02354Y0043*
X02361Y00424*
X0237Y00421*
X02374Y0042*
Y0045*
G37*
G36*
X01474D02*
X01444D01*
X01445Y00446*
X01448Y00437*
X01454Y0043*
X01461Y00424*
X0147Y00421*
X01474Y0042*
Y0045*
G37*
G36*
X02724Y00468D02*
X02714Y00466D01*
X02704Y00462*
X02695Y00455*
X02688Y00447*
X02684Y00437*
X02683Y00426*
X02684Y00415*
X02688Y00405*
X02695Y00396*
X02704Y0039*
X02714Y00385*
X02724Y00384*
X02735Y00385*
X02745Y0039*
X02754Y00396*
X02761Y00405*
X02765Y00415*
X02766Y00426*
X02765Y00437*
X02761Y00447*
X02754Y00455*
X02745Y00462*
X02735Y00466*
X02724Y00468*
G37*
G36*
X01024Y0045D02*
X00994D01*
X00995Y00446*
X00998Y00437*
X01004Y0043*
X01011Y00424*
X0102Y00421*
X01024Y0042*
Y0045*
G37*
G36*
X02824D02*
X02794D01*
X02795Y00446*
X02798Y00437*
X02804Y0043*
X02811Y00424*
X0282Y00421*
X02824Y0042*
Y0045*
G37*
G36*
X0367Y00475D02*
X03634D01*
Y00439*
X0364Y0044*
X0365Y00444*
X03659Y00451*
X03665Y00459*
X0367Y00469*
Y00475*
G37*
G36*
X03874D02*
X03838D01*
X03839Y00469*
X03843Y00459*
X0385Y00451*
X03858Y00444*
X03868Y0044*
X03874Y00439*
Y00475*
G37*
G36*
X03624D02*
X03588D01*
X03589Y00469*
X03593Y00459*
X036Y00451*
X03608Y00444*
X03618Y0044*
X03624Y00439*
Y00475*
G37*
G36*
X00485Y00606D02*
X00394D01*
Y00507*
X00408*
Y00479*
X00405Y00471*
X00403Y00462*
X00405Y00452*
X00408Y00444*
X00414Y00436*
X00421Y00431*
X0043Y00427*
X00439Y00426*
X00448Y00427*
X00457Y00431*
X00465Y00436*
X0047Y00444*
X00474Y00452*
X00475Y00462*
X00474Y00471*
X0047Y00479*
Y00507*
X00485*
Y00606*
G37*
G36*
X03289Y00472D02*
X03283Y0047D01*
X03278Y00467*
X03274Y00462*
X03273Y00455*
X03274Y00449*
X03278Y00444*
X03283Y0044*
X03289Y00439*
X03295Y0044*
X03301Y00444*
X03304Y00449*
X03305Y00455*
X03304Y00462*
X03301Y00467*
X03295Y0047*
X03289Y00472*
G37*
G36*
X02274Y00468D02*
X02264Y00466D01*
X02254Y00462*
X02245Y00455*
X02238Y00447*
X02234Y00437*
X02233Y00426*
X02234Y00415*
X02238Y00405*
X02245Y00396*
X02254Y0039*
X02264Y00385*
X02274Y00384*
X02285Y00385*
X02295Y0039*
X02304Y00396*
X02311Y00405*
X02315Y00415*
X02316Y00426*
X02315Y00437*
X02311Y00447*
X02304Y00455*
X02295Y00462*
X02285Y00466*
X02274Y00468*
G37*
G36*
X00434Y00357D02*
X00404D01*
X00405Y00352*
X00408Y00344*
X00414Y00336*
X00421Y00331*
X0043Y00327*
X00434Y00326*
Y00357*
G37*
G36*
X00474D02*
X00444D01*
Y00326*
X00448Y00327*
X00457Y00331*
X00465Y00336*
X0047Y00344*
X00474Y00352*
Y00357*
G37*
G36*
X02779Y00391D02*
X0277Y0039D01*
X02761Y00386*
X02754Y00381*
X02748Y00373*
X02745Y00365*
X02743Y00355*
X02745Y00346*
X02748Y00337*
X02754Y0033*
X02761Y00324*
X0277Y00321*
X02779Y00319*
X02788Y00321*
X02797Y00324*
X02804Y0033*
X0281Y00337*
X02814Y00346*
X02815Y00355*
X02814Y00365*
X0281Y00373*
X02804Y00381*
X02797Y00386*
X02788Y0039*
X02779Y00391*
G37*
G36*
X01879D02*
X0187Y0039D01*
X01861Y00386*
X01854Y00381*
X01848Y00373*
X01845Y00365*
X01843Y00355*
X01845Y00346*
X01848Y00337*
X01854Y0033*
X01861Y00324*
X0187Y00321*
X01879Y00319*
X01888Y00321*
X01897Y00324*
X01904Y0033*
X0191Y00337*
X01914Y00346*
X01915Y00355*
X01914Y00365*
X0191Y00373*
X01904Y00381*
X01897Y00386*
X01888Y0039*
X01879Y00391*
G37*
G36*
X02329D02*
X0232Y0039D01*
X02311Y00386*
X02304Y00381*
X02298Y00373*
X02295Y00365*
X02293Y00355*
X02295Y00346*
X02298Y00337*
X02304Y0033*
X02311Y00324*
X0232Y00321*
X02329Y00319*
X02338Y00321*
X02347Y00324*
X02354Y0033*
X0236Y00337*
X02364Y00346*
X02365Y00355*
X02364Y00365*
X0236Y00373*
X02354Y00381*
X02347Y00386*
X02338Y0039*
X02329Y00391*
G37*
G36*
X03289Y00372D02*
X03283Y0037D01*
X03278Y00367*
X03274Y00362*
X03273Y00355*
X03274Y00349*
X03278Y00344*
X03283Y0034*
X03289Y00339*
X03295Y0034*
X03301Y00344*
X03304Y00349*
X03305Y00355*
X03304Y00362*
X03301Y00367*
X03295Y0037*
X03289Y00372*
G37*
G36*
X01374Y00468D02*
X01364Y00466D01*
X01354Y00462*
X01345Y00455*
X01338Y00447*
X01334Y00437*
X01333Y00426*
X01334Y00415*
X01338Y00405*
X01345Y00396*
X01354Y0039*
X01364Y00385*
X01374Y00384*
X01385Y00385*
X01395Y0039*
X01404Y00396*
X01411Y00405*
X01415Y00415*
X01416Y00426*
X01415Y00437*
X01411Y00447*
X01404Y00455*
X01395Y00462*
X01385Y00466*
X01374Y00468*
G37*
G36*
X01824D02*
X01814Y00466D01*
X01804Y00462*
X01795Y00455*
X01788Y00447*
X01784Y00437*
X01783Y00426*
X01784Y00415*
X01788Y00405*
X01795Y00396*
X01804Y0039*
X01814Y00385*
X01824Y00384*
X01835Y00385*
X01845Y0039*
X01854Y00396*
X01861Y00405*
X01865Y00415*
X01866Y00426*
X01865Y00437*
X01861Y00447*
X01854Y00455*
X01845Y00462*
X01835Y00466*
X01824Y00468*
G37*
G36*
X00924D02*
X00914Y00466D01*
X00904Y00462*
X00895Y00455*
X00888Y00447*
X00884Y00437*
X00883Y00426*
X00884Y00415*
X00888Y00405*
X00895Y00396*
X00904Y0039*
X00914Y00385*
X00924Y00384*
X00935Y00385*
X00945Y0039*
X00954Y00396*
X00961Y00405*
X00965Y00415*
X00966Y00426*
X00965Y00437*
X00961Y00447*
X00954Y00455*
X00945Y00462*
X00935Y00466*
X00924Y00468*
G37*
G36*
X00434Y00397D02*
X0043Y00396D01*
X00421Y00393*
X00414Y00387*
X00408Y0038*
X00405Y00371*
X00404Y00367*
X00434*
Y00397*
G37*
G36*
X00444D02*
Y00367D01*
X00474*
Y00371*
X0047Y0038*
X00465Y00387*
X00457Y00393*
X00448Y00396*
X00444Y00397*
G37*
G36*
X01024Y0019D02*
X0102D01*
X01011Y00186*
X01004Y00181*
X00998Y00173*
X00995Y00165*
X00994Y0016*
X01024*
Y0019*
G37*
G36*
X00924Y00168D02*
X00914Y00166D01*
X00904Y00162*
X00895Y00155*
X00888Y00147*
X00884Y00137*
X00883Y00126*
X00884Y00115*
X00888Y00105*
X00895Y00096*
X00904Y0009*
X00914Y00085*
X00924Y00084*
X00935Y00085*
X00945Y0009*
X00954Y00096*
X00961Y00105*
X00965Y00115*
X00966Y00126*
X00965Y00137*
X00961Y00147*
X00954Y00155*
X00945Y00162*
X00935Y00166*
X00924Y00168*
G37*
G36*
X01374D02*
X01364Y00166D01*
X01354Y00162*
X01345Y00155*
X01338Y00147*
X01334Y00137*
X01333Y00126*
X01334Y00115*
X01338Y00105*
X01345Y00096*
X01354Y0009*
X01364Y00085*
X01374Y00084*
X01385Y00085*
X01395Y0009*
X01404Y00096*
X01411Y00105*
X01415Y00115*
X01416Y00126*
X01415Y00137*
X01411Y00147*
X01404Y00155*
X01395Y00162*
X01385Y00166*
X01374Y00168*
G37*
G36*
X0258Y00571D02*
X02525D01*
Y0052*
X02541*
Y00126*
X02487Y00072*
X02461*
X0246Y00073*
X02454Y00081*
X02447Y00086*
X02438Y0009*
X02429Y00091*
X0242Y0009*
X02411Y00086*
X02404Y00081*
X02398Y00073*
X02395Y00065*
X02393Y00055*
X02395Y00046*
X02398Y00037*
X02404Y0003*
X02411Y00024*
X0242Y00021*
X02429Y00019*
X02438Y00021*
X02447Y00024*
X02454Y0003*
X0246Y00037*
X02461Y00039*
X02494*
X025Y0004*
X02506Y00044*
X02569Y00107*
X02573Y00113*
X02574Y00119*
Y0052*
X0258*
Y00571*
G37*
G36*
X0168D02*
X01625D01*
Y0052*
X01641*
Y00126*
X01587Y00072*
X01561*
X0156Y00073*
X01554Y00081*
X01547Y00086*
X01538Y0009*
X01529Y00091*
X0152Y0009*
X01511Y00086*
X01504Y00081*
X01498Y00073*
X01495Y00065*
X01493Y00055*
X01495Y00046*
X01498Y00037*
X01504Y0003*
X01511Y00024*
X0152Y00021*
X01529Y00019*
X01538Y00021*
X01547Y00024*
X01554Y0003*
X0156Y00037*
X01561Y00039*
X01594*
X016Y0004*
X01606Y00044*
X01669Y00107*
X01673Y00113*
X01674Y00119*
Y0052*
X0168*
Y00571*
G37*
G36*
X0213D02*
X02075D01*
Y0052*
X02091*
Y00126*
X02037Y00072*
X02011*
X0201Y00073*
X02004Y00081*
X01997Y00086*
X01988Y0009*
X01979Y00091*
X0197Y0009*
X01961Y00086*
X01954Y00081*
X01948Y00073*
X01945Y00065*
X01943Y00055*
X01945Y00046*
X01948Y00037*
X01954Y0003*
X01961Y00024*
X0197Y00021*
X01979Y00019*
X01988Y00021*
X01997Y00024*
X02004Y0003*
X0201Y00037*
X02011Y00039*
X02044*
X0205Y0004*
X02056Y00044*
X02119Y00107*
X02123Y00113*
X02124Y00119*
Y0052*
X0213*
Y00571*
G37*
G36*
X01824Y00168D02*
X01814Y00166D01*
X01804Y00162*
X01795Y00155*
X01788Y00147*
X01784Y00137*
X01783Y00126*
X01784Y00115*
X01788Y00105*
X01795Y00096*
X01804Y0009*
X01814Y00085*
X01824Y00084*
X01835Y00085*
X01845Y0009*
X01854Y00096*
X01861Y00105*
X01865Y00115*
X01866Y00126*
X01865Y00137*
X01861Y00147*
X01854Y00155*
X01845Y00162*
X01835Y00166*
X01824Y00168*
G37*
G36*
X03634Y00121D02*
Y00085D01*
X0367*
Y00091*
X03665Y00101*
X03659Y0011*
X0365Y00117*
X0364Y00121*
X03634*
G37*
G36*
X03874D02*
X03868D01*
X03858Y00117*
X0385Y0011*
X03843Y00101*
X03839Y00091*
X03838Y00085*
X03874*
Y00121*
G37*
G36*
X03624D02*
X03618D01*
X03608Y00117*
X036Y0011*
X03593Y00101*
X03589Y00091*
X03588Y00085*
X03624*
Y00121*
G37*
G36*
X02274Y00168D02*
X02264Y00166D01*
X02254Y00162*
X02245Y00155*
X02238Y00147*
X02234Y00137*
X02233Y00126*
X02234Y00115*
X02238Y00105*
X02245Y00096*
X02254Y0009*
X02264Y00085*
X02274Y00084*
X02285Y00085*
X02295Y0009*
X02304Y00096*
X02311Y00105*
X02315Y00115*
X02316Y00126*
X02315Y00137*
X02311Y00147*
X02304Y00155*
X02295Y00162*
X02285Y00166*
X02274Y00168*
G37*
G36*
X02724D02*
X02714Y00166D01*
X02704Y00162*
X02695Y00155*
X02688Y00147*
X02684Y00137*
X02683Y00126*
X02684Y00115*
X02688Y00105*
X02695Y00096*
X02704Y0009*
X02714Y00085*
X02724Y00084*
X02735Y00085*
X02745Y0009*
X02754Y00096*
X02761Y00105*
X02765Y00115*
X02766Y00126*
X02765Y00137*
X02761Y00147*
X02754Y00155*
X02745Y00162*
X02735Y00166*
X02724Y00168*
G37*
G36*
X01235Y00571D02*
X0118D01*
Y0052*
X01191*
Y00126*
X01137Y00072*
X01111*
X0111Y00073*
X01104Y00081*
X01097Y00086*
X01088Y0009*
X01079Y00091*
X0107Y0009*
X01061Y00086*
X01054Y00081*
X01048Y00073*
X01045Y00065*
X01043Y00055*
X01045Y00046*
X01048Y00037*
X01054Y0003*
X01061Y00024*
X0107Y00021*
X01079Y00019*
X01088Y00021*
X01097Y00024*
X01104Y0003*
X0111Y00037*
X01111Y00039*
X01144*
X0115Y0004*
X01156Y00044*
X01219Y00107*
X01223Y00113*
X01224Y00119*
Y0052*
X01235*
Y00571*
G37*
G36*
X01429Y00091D02*
X0142Y0009D01*
X01411Y00086*
X01404Y00081*
X01398Y00073*
X01395Y00065*
X01393Y00055*
X01395Y00046*
X01398Y00037*
X01404Y0003*
X01411Y00024*
X0142Y00021*
X01429Y00019*
X01438Y00021*
X01447Y00024*
X01454Y0003*
X0146Y00037*
X01464Y00046*
X01465Y00055*
X01464Y00065*
X0146Y00073*
X01454Y00081*
X01447Y00086*
X01438Y0009*
X01429Y00091*
G37*
G36*
X01879D02*
X0187Y0009D01*
X01861Y00086*
X01854Y00081*
X01848Y00073*
X01845Y00065*
X01843Y00055*
X01845Y00046*
X01848Y00037*
X01854Y0003*
X01861Y00024*
X0187Y00021*
X01879Y00019*
X01888Y00021*
X01897Y00024*
X01904Y0003*
X0191Y00037*
X01914Y00046*
X01915Y00055*
X01914Y00065*
X0191Y00073*
X01904Y00081*
X01897Y00086*
X01888Y0009*
X01879Y00091*
G37*
G36*
X00979D02*
X0097Y0009D01*
X00961Y00086*
X00954Y00081*
X00948Y00073*
X00945Y00065*
X00943Y00055*
X00945Y00046*
X00948Y00037*
X00954Y0003*
X00961Y00024*
X0097Y00021*
X00979Y00019*
X00988Y00021*
X00997Y00024*
X01004Y0003*
X0101Y00037*
X01014Y00046*
X01015Y00055*
X01014Y00065*
X0101Y00073*
X01004Y00081*
X00997Y00086*
X00988Y0009*
X00979Y00091*
G37*
G36*
X00133Y00133D02*
X00014D01*
X00015Y00118*
X00019Y00099*
X00027Y00081*
X00037Y00065*
X0005Y0005*
X00065Y00037*
X00081Y00027*
X00099Y00019*
X00118Y00015*
X00133Y00014*
Y00133*
G37*
G36*
X00262D02*
X00143D01*
Y00014*
X00157Y00015*
X00176Y00019*
X00194Y00027*
X00211Y00037*
X00226Y0005*
X00239Y00065*
X00249Y00081*
X00256Y00099*
X00261Y00118*
X00262Y00133*
G37*
G36*
X02329Y00091D02*
X0232Y0009D01*
X02311Y00086*
X02304Y00081*
X02298Y00073*
X02295Y00065*
X02293Y00055*
X02295Y00046*
X02298Y00037*
X02304Y0003*
X02311Y00024*
X0232Y00021*
X02329Y00019*
X02338Y00021*
X02347Y00024*
X02354Y0003*
X0236Y00037*
X02364Y00046*
X02365Y00055*
X02364Y00065*
X0236Y00073*
X02354Y00081*
X02347Y00086*
X02338Y0009*
X02329Y00091*
G37*
G36*
X03874Y00075D02*
X03838D01*
X03839Y00069*
X03843Y00059*
X0385Y00051*
X03858Y00044*
X03868Y0004*
X03874Y00039*
Y00075*
G37*
G36*
X0392D02*
X03884D01*
Y00039*
X0389Y0004*
X039Y00044*
X03909Y00051*
X03915Y00059*
X0392Y00069*
Y00075*
G37*
G36*
X0367D02*
X03634D01*
Y00039*
X0364Y0004*
X0365Y00044*
X03659Y00051*
X03665Y00059*
X0367Y00069*
Y00075*
G37*
G36*
X02779Y00091D02*
X0277Y0009D01*
X02761Y00086*
X02754Y00081*
X02748Y00073*
X02745Y00065*
X02743Y00055*
X02745Y00046*
X02748Y00037*
X02754Y0003*
X02761Y00024*
X0277Y00021*
X02779Y00019*
X02788Y00021*
X02797Y00024*
X02804Y0003*
X0281Y00037*
X02814Y00046*
X02815Y00055*
X02814Y00065*
X0281Y00073*
X02804Y00081*
X02797Y00086*
X02788Y0009*
X02779Y00091*
G37*
G36*
X03624Y00075D02*
X03588D01*
X03589Y00069*
X03593Y00059*
X036Y00051*
X03608Y00044*
X03618Y0004*
X03624Y00039*
Y00075*
G37*
G36*
X02374Y0015D02*
X02344D01*
X02345Y00146*
X02348Y00137*
X02354Y0013*
X02361Y00124*
X0237Y00121*
X02374Y0012*
Y0015*
G37*
G36*
X02414D02*
X02384D01*
Y0012*
X02388Y00121*
X02397Y00124*
X02404Y0013*
X0241Y00137*
X02414Y00146*
Y0015*
G37*
G36*
X01964D02*
X01934D01*
Y0012*
X01938Y00121*
X01947Y00124*
X01954Y0013*
X0196Y00137*
X01964Y00146*
Y0015*
G37*
G36*
X01514D02*
X01484D01*
Y0012*
X01488Y00121*
X01497Y00124*
X01504Y0013*
X0151Y00137*
X01514Y00146*
Y0015*
G37*
G36*
X01924D02*
X01894D01*
X01895Y00146*
X01898Y00137*
X01904Y0013*
X01911Y00124*
X0192Y00121*
X01924Y0012*
Y0015*
G37*
G36*
X02824D02*
X02794D01*
X02795Y00146*
X02798Y00137*
X02804Y0013*
X02811Y00124*
X0282Y00121*
X02824Y0012*
Y0015*
G37*
G36*
X00133Y00262D02*
X00118Y00261D01*
X00099Y00256*
X00081Y00249*
X00065Y00239*
X0005Y00226*
X00037Y00211*
X00027Y00194*
X00019Y00176*
X00015Y00157*
X00014Y00143*
X00133*
Y00262*
G37*
G36*
X00143D02*
Y00143D01*
X00262*
X00261Y00157*
X00256Y00176*
X00249Y00194*
X00239Y00211*
X00226Y00226*
X00211Y00239*
X00194Y00249*
X00176Y00256*
X00157Y00261*
X00143Y00262*
G37*
G36*
X03879Y00222D02*
X03868Y00221D01*
X03858Y00217*
X0385Y0021*
X03843Y00201*
X03839Y00191*
X03837Y0018*
X03839Y00169*
X03843Y00159*
X0385Y00151*
X03858Y00144*
X03868Y0014*
X03879Y00139*
X0389Y0014*
X039Y00144*
X03909Y00151*
X03915Y00159*
X0392Y00169*
X03921Y0018*
X0392Y00191*
X03915Y00201*
X03909Y0021*
X039Y00217*
X0389Y00221*
X03879Y00222*
G37*
G36*
X02864Y0015D02*
X02834D01*
Y0012*
X02838Y00121*
X02847Y00124*
X02854Y0013*
X0286Y00137*
X02864Y00146*
Y0015*
G37*
G36*
X03629Y00222D02*
X03618Y00221D01*
X03608Y00217*
X036Y0021*
X03593Y00201*
X03589Y00191*
X03587Y0018*
X03589Y00169*
X03593Y00159*
X036Y00151*
X03608Y00144*
X03618Y0014*
X03629Y00139*
X0364Y0014*
X0365Y00144*
X03659Y00151*
X03665Y00159*
X0367Y00169*
X03671Y0018*
X0367Y00191*
X03665Y00201*
X03659Y0021*
X0365Y00217*
X0364Y00221*
X03629Y00222*
G37*
G36*
X01474Y0015D02*
X01444D01*
X01445Y00146*
X01448Y00137*
X01454Y0013*
X01461Y00124*
X0147Y00121*
X01474Y0012*
Y0015*
G37*
G36*
X00627Y00157D02*
X00587D01*
Y00112*
X00627*
Y00157*
G37*
G36*
X01129Y00191D02*
X0112Y0019D01*
X01111Y00186*
X01104Y00181*
X01098Y00173*
X01095Y00165*
X01093Y00155*
X01095Y00146*
X01098Y00137*
X01104Y0013*
X01111Y00124*
X0112Y00121*
X01129Y00119*
X01138Y00121*
X01147Y00124*
X01154Y0013*
X0116Y00137*
X01164Y00146*
X01165Y00155*
X01164Y00165*
X0116Y00173*
X01154Y00181*
X01147Y00186*
X01138Y0019*
X01129Y00191*
G37*
G36*
X00577Y00157D02*
X00537D01*
Y00112*
X00577*
Y00157*
G37*
G36*
X03884Y00121D02*
Y00085D01*
X0392*
Y00091*
X03915Y00101*
X03909Y0011*
X039Y00117*
X0389Y00121*
X03884*
G37*
G36*
X00439Y00297D02*
X0043Y00296D01*
X00421Y00293*
X00414Y00287*
X00408Y0028*
X00405Y00271*
X00403Y00262*
X00405Y00252*
X00408Y00244*
Y00211*
X00399*
Y00112*
X0049*
Y00211*
X0047*
Y00226*
X00528*
Y00297*
X00465*
Y00293*
X00457*
X00448Y00296*
X00439Y00297*
G37*
G36*
X01579Y00191D02*
X0157Y0019D01*
X01561Y00186*
X01554Y00181*
X01548Y00173*
X01545Y00165*
X01543Y00155*
X01545Y00146*
X01548Y00137*
X01554Y0013*
X01561Y00124*
X0157Y00121*
X01579Y00119*
X01588Y00121*
X01597Y00124*
X01604Y0013*
X0161Y00137*
X01614Y00146*
X01615Y00155*
X01614Y00165*
X0161Y00173*
X01604Y00181*
X01597Y00186*
X01588Y0019*
X01579Y00191*
G37*
G36*
X01024Y0015D02*
X00994D01*
X00995Y00146*
X00998Y00137*
X01004Y0013*
X01011Y00124*
X0102Y00121*
X01024Y0012*
Y0015*
G37*
G36*
X01064D02*
X01034D01*
Y0012*
X01038Y00121*
X01047Y00124*
X01054Y0013*
X0106Y00137*
X01064Y00146*
Y0015*
G37*
G36*
X02929Y00191D02*
X0292Y0019D01*
X02911Y00186*
X02904Y00181*
X02898Y00173*
X02895Y00165*
X02893Y00155*
X02895Y00146*
X02898Y00137*
X02904Y0013*
X02911Y00124*
X0292Y00121*
X02929Y00119*
X02938Y00121*
X02947Y00124*
X02954Y0013*
X0296Y00137*
X02964Y00146*
X02965Y00155*
X02964Y00165*
X0296Y00173*
X02954Y00181*
X02947Y00186*
X02938Y0019*
X02929Y00191*
G37*
G36*
X02029D02*
X0202Y0019D01*
X02011Y00186*
X02004Y00181*
X01998Y00173*
X01995Y00165*
X01993Y00155*
X01995Y00146*
X01998Y00137*
X02004Y0013*
X02011Y00124*
X0202Y00121*
X02029Y00119*
X02038Y00121*
X02047Y00124*
X02054Y0013*
X0206Y00137*
X02064Y00146*
X02065Y00155*
X02064Y00165*
X0206Y00173*
X02054Y00181*
X02047Y00186*
X02038Y0019*
X02029Y00191*
G37*
G36*
X02479D02*
X0247Y0019D01*
X02461Y00186*
X02454Y00181*
X02448Y00173*
X02445Y00165*
X02443Y00155*
X02445Y00146*
X02448Y00137*
X02454Y0013*
X02461Y00124*
X0247Y00121*
X02479Y00119*
X02488Y00121*
X02497Y00124*
X02504Y0013*
X0251Y00137*
X02514Y00146*
X02515Y00155*
X02514Y00165*
X0251Y00173*
X02504Y00181*
X02497Y00186*
X02488Y0019*
X02479Y00191*
G37*
G36*
X0392Y00475D02*
X03884D01*
Y00439*
X0389Y0044*
X039Y00444*
X03909Y00451*
X03915Y00459*
X0392Y00469*
Y00475*
G37*
G36*
X03624Y00875D02*
X03588D01*
X03589Y00869*
X03593Y00859*
X036Y00851*
X03608Y00844*
X03618Y0084*
X03624Y00839*
Y00875*
G37*
G36*
X0367D02*
X03634D01*
Y00839*
X0364Y0084*
X0365Y00844*
X03659Y00851*
X03665Y00859*
X0367Y00869*
Y00875*
G37*
G36*
X03359Y00939D02*
Y0082D01*
X03478*
X03477Y00835*
X03473Y00854*
X03465Y00872*
X03455Y00888*
X03442Y00903*
X03427Y00916*
X03411Y00926*
X03393Y00934*
X03374Y00938*
X03359Y00939*
G37*
G36*
X00514Y00835D02*
X00484D01*
Y00805*
X00488Y00806*
X00497Y00809*
X00504Y00815*
X0051Y00822*
X00514Y00831*
Y00835*
G37*
G36*
X03349Y00939D02*
X03335Y00938D01*
X03316Y00934*
X03298Y00926*
X03281Y00916*
X03266Y00903*
X03253Y00888*
X03243Y00872*
X03236Y00854*
X03231Y00835*
X0323Y0082*
X03349*
Y00939*
G37*
G36*
X03874Y00875D02*
X03838D01*
X03839Y00869*
X03843Y00859*
X0385Y00851*
X03858Y00844*
X03868Y0084*
X03874Y00839*
Y00875*
G37*
G36*
X00474D02*
X0047D01*
X00461Y00871*
X00454Y00866*
X00448Y00858*
X00445Y0085*
X00444Y00845*
X00474*
Y00875*
G37*
G36*
X00484D02*
Y00845D01*
X00514*
Y0085*
X0051Y00858*
X00504Y00866*
X00497Y00871*
X00488Y00875*
X00484*
G37*
G36*
X00159D02*
Y00845D01*
X00189*
Y0085*
X00185Y00858*
X00179Y00866*
X00172Y00871*
X00163Y00875*
X00159*
G37*
G36*
X0392D02*
X03884D01*
Y00839*
X0389Y0084*
X039Y00844*
X03909Y00851*
X03915Y00859*
X0392Y00869*
Y00875*
G37*
G36*
X00149D02*
X00145D01*
X00136Y00871*
X00129Y00866*
X00123Y00858*
X0012Y0085*
X00119Y00845*
X00149*
Y00875*
G37*
G36*
X00474Y00835D02*
X00444D01*
X00445Y00831*
X00448Y00822*
X00454Y00815*
X00461Y00809*
X0047Y00806*
X00474Y00805*
Y00835*
G37*
G36*
X01923Y00816D02*
X01868D01*
Y00765*
X01923*
Y00774*
X01929*
X01935Y00775*
X01941Y00779*
X01944Y00784*
X01945Y0079*
X01944Y00797*
X01941Y00802*
X01935Y00805*
X01929Y00807*
X01923*
Y00816*
G37*
G36*
X02129D02*
X02074D01*
Y00765*
X02129*
Y00774*
X02135*
X02141Y00775*
X02147Y00779*
X0215Y00784*
X02151Y0079*
X0215Y00797*
X02147Y00802*
X02141Y00805*
X02135Y00807*
X02129*
Y00816*
G37*
G36*
X01678D02*
X01623D01*
Y00765*
X01678*
Y00774*
X01684*
X0169Y00775*
X01696Y00779*
X01699Y00784*
X017Y0079*
X01699Y00797*
X01696Y00802*
X0169Y00805*
X01684Y00807*
X01678*
Y00816*
G37*
G36*
X01138Y00846D02*
X01132Y00844D01*
X01127Y00841*
X01123Y00836*
X01122Y00829*
X01123Y00823*
X01125Y0082*
X01122Y00816*
X01111*
Y00765*
X01166*
Y00816*
X01154*
X01151Y0082*
X01153Y00823*
X01154Y00829*
X01153Y00836*
X0115Y00841*
X01144Y00844*
X01138Y00846*
G37*
G36*
X01473Y00816D02*
X01418D01*
Y00765*
X01473*
Y00774*
X01479*
X01485Y00775*
X01491Y00779*
X01494Y00784*
X01495Y0079*
X01494Y00797*
X01491Y00802*
X01485Y00805*
X01479Y00807*
X01473*
Y00816*
G37*
G36*
X02373D02*
X02318D01*
Y00765*
X02373*
Y00774*
X02379*
X02385Y00775*
X02391Y00779*
X02394Y00784*
X02395Y0079*
X02394Y00797*
X02391Y00802*
X02385Y00805*
X02379Y00807*
X02373*
Y00816*
G37*
G36*
X00149Y00835D02*
X00119D01*
X0012Y00831*
X00123Y00822*
X00129Y00815*
X00136Y00809*
X00145Y00806*
X00149Y00805*
Y00835*
G37*
G36*
X00189D02*
X00159D01*
Y00805*
X00163Y00806*
X00172Y00809*
X00179Y00815*
X00185Y00822*
X00189Y00831*
Y00835*
G37*
G36*
X03028Y00816D02*
X02973D01*
Y00765*
X03028*
Y00774*
X03034*
X0304Y00775*
X03046Y00779*
X03049Y00784*
X0305Y0079*
X03049Y00797*
X03046Y00802*
X0304Y00805*
X03034Y00807*
X03028*
Y00816*
G37*
G36*
X02578D02*
X02523D01*
Y00765*
X02578*
Y00774*
X02584*
X0259Y00775*
X02596Y00779*
X02599Y00784*
X026Y0079*
X02599Y00797*
X02596Y00802*
X0259Y00805*
X02584Y00807*
X02578*
Y00816*
G37*
G36*
X02823D02*
X02768D01*
Y00765*
X02823*
Y00774*
X02829*
X02835Y00775*
X02841Y00779*
X02844Y00784*
X02845Y0079*
X02844Y00797*
X02841Y00802*
X02835Y00805*
X02829Y00807*
X02823*
Y00816*
G37*
G36*
X03921Y01122D02*
X03838D01*
Y01039*
X03921*
Y01122*
G37*
G36*
X03284Y01072D02*
X03278Y0107D01*
X03273Y01067*
X03269Y01062*
X03268Y01055*
X03269Y01049*
X03273Y01044*
X03278Y0104*
X03284Y01039*
X0329Y0104*
X03296Y01044*
X03299Y01049*
X033Y01055*
X03299Y01062*
X03296Y01067*
X0329Y0107*
X03284Y01072*
G37*
G36*
X03671Y01122D02*
X03588D01*
Y01039*
X03671*
Y01122*
G37*
G36*
X01844Y0107D02*
X01831D01*
Y01036*
X01844*
Y0107*
G37*
G36*
X01485Y01678D02*
X01479Y01676D01*
X01474Y01673*
X0147Y01668*
X01469Y01661*
X0147Y01655*
X01474Y0165*
X01475Y01647*
X01471Y01642*
X0147Y01635*
X01471Y01629*
X01475Y01624*
X0148Y0162*
X01486Y01619*
X01492Y0162*
X01498Y01624*
X01514*
X01559Y0158*
Y01284*
X0156Y0128*
X01562Y01276*
X01715Y01124*
Y01115*
X01708*
Y01036*
X01744*
Y01115*
X01737*
Y01128*
X01736Y01133*
X01734Y01136*
X01581Y01289*
Y01466*
X01586Y01469*
X01588Y01467*
X01594Y01466*
X016Y01467*
X01601*
X01605Y01465*
Y01321*
X01606Y01317*
X01608Y01313*
X01724Y01197*
X01728Y01195*
X01732Y01194*
X01847*
X01865Y01177*
Y01115*
X01858*
Y01036*
X01894*
Y01115*
X01887*
Y01181*
X01886Y01186*
X01884Y01189*
X0186Y01213*
X01856Y01216*
X01852Y01217*
X01737*
X01627Y01326*
Y01591*
X01626Y01596*
X01624Y01599*
X01554Y01669*
X0155Y01672*
X01546Y01673*
X01497*
X01491Y01676*
X01485Y01678*
G37*
G36*
X03429Y01072D02*
X03423Y0107D01*
X03418Y01067*
X03414Y01062*
X03413Y01055*
X03414Y01049*
X03418Y01044*
X03423Y0104*
X03429Y01039*
X03435Y0104*
X03441Y01044*
X03444Y01049*
X03445Y01055*
X03444Y01062*
X03441Y01067*
X03435Y0107*
X03429Y01072*
G37*
G36*
X01374Y01115D02*
X01338D01*
X01339Y01109*
X01343Y01099*
X0135Y01091*
X01358Y01084*
X01368Y0108*
X01374Y01079*
Y01115*
G37*
G36*
X0142D02*
X01384D01*
Y01079*
X0139Y0108*
X014Y01084*
X01409Y01091*
X01415Y01099*
X0142Y01109*
Y01115*
G37*
G36*
X01321Y01162D02*
X01238D01*
Y01079*
X01321*
Y01162*
G37*
G36*
X01479D02*
X01468Y01161D01*
X01458Y01157*
X0145Y0115*
X01443Y01141*
X01439Y01131*
X01437Y0112*
X01439Y01109*
X01443Y01099*
X0145Y01091*
X01458Y01084*
X01468Y0108*
X01479Y01079*
X0149Y0108*
X015Y01084*
X01509Y01091*
X01515Y01099*
X0152Y01109*
X01521Y0112*
X0152Y01131*
X01515Y01141*
X01509Y0115*
X015Y01157*
X0149Y01161*
X01479Y01162*
G37*
G36*
X01579D02*
X01568Y01161D01*
X01558Y01157*
X0155Y0115*
X01543Y01141*
X01539Y01131*
X01537Y0112*
X01539Y01109*
X01543Y01099*
X0155Y01091*
X01558Y01084*
X01568Y0108*
X01579Y01079*
X0159Y0108*
X016Y01084*
X01609Y01091*
X01615Y01099*
X0162Y01109*
X01621Y0112*
X0162Y01131*
X01615Y01141*
X01609Y0115*
X016Y01157*
X0159Y01161*
X01579Y01162*
G37*
G36*
X01821Y0107D02*
X01808D01*
Y01036*
X01821*
Y0107*
G37*
G36*
X03634Y00921D02*
Y00885D01*
X0367*
Y00891*
X03665Y00901*
X03659Y0091*
X0365Y00917*
X0364Y00921*
X03634*
G37*
G36*
X03874D02*
X03868D01*
X03858Y00917*
X0385Y0091*
X03843Y00901*
X03839Y00891*
X03838Y00885*
X03874*
Y00921*
G37*
G36*
X03624D02*
X03618D01*
X03608Y00917*
X036Y0091*
X03593Y00901*
X03589Y00891*
X03588Y00885*
X03624*
Y00921*
G37*
G36*
X00054Y00926D02*
X00045Y00925D01*
X00036Y00921*
X00029Y00916*
X00023Y00908*
X0002Y009*
X00018Y0089*
X0002Y00881*
X00023Y00872*
X00029Y00865*
X00036Y00859*
X00045Y00856*
X00054Y00854*
X00063Y00856*
X00072Y00859*
X00079Y00865*
X00085Y00872*
X00089Y00881*
X0009Y0089*
X00089Y009*
X00085Y00908*
X00079Y00916*
X00072Y00921*
X00063Y00925*
X00054Y00926*
G37*
G36*
X00379D02*
X0037Y00925D01*
X00361Y00921*
X00354Y00916*
X00348Y00908*
X00345Y009*
X00343Y0089*
X00345Y00881*
X00348Y00872*
X00354Y00865*
X00361Y00859*
X0037Y00856*
X00379Y00854*
X00388Y00856*
X00397Y00859*
X00404Y00865*
X0041Y00872*
X00414Y00881*
X00415Y0089*
X00414Y009*
X0041Y00908*
X00404Y00916*
X00397Y00921*
X00388Y00925*
X00379Y00926*
G37*
G36*
X03884Y00921D02*
Y00885D01*
X0392*
Y00891*
X03915Y00901*
X03909Y0091*
X039Y00917*
X0389Y00921*
X03884*
G37*
G36*
X03879Y01022D02*
X03868Y01021D01*
X03858Y01017*
X0385Y0101*
X03843Y01001*
X03839Y00991*
X03837Y0098*
X03839Y00969*
X03843Y00959*
X0385Y00951*
X03858Y00944*
X03868Y0094*
X03879Y00939*
X0389Y0094*
X039Y00944*
X03909Y00951*
X03915Y00959*
X0392Y00969*
X03921Y0098*
X0392Y00991*
X03915Y01001*
X03909Y0101*
X039Y01017*
X0389Y01021*
X03879Y01022*
G37*
G36*
X01777Y01144D02*
X01771Y01142D01*
X01766Y01139*
X01762Y01134*
X01761Y01127*
Y01115*
X01758*
Y01036*
X01794*
Y01115*
X01793*
Y01127*
X01792Y01134*
X01789Y01139*
X01783Y01142*
X01777Y01144*
G37*
G36*
X03629Y01022D02*
X03618Y01021D01*
X03608Y01017*
X036Y0101*
X03593Y01001*
X03589Y00991*
X03587Y0098*
X03589Y00969*
X03593Y00959*
X036Y00951*
X03608Y00944*
X03618Y0094*
X03629Y00939*
X0364Y0094*
X0365Y00944*
X03659Y00951*
X03665Y00959*
X0367Y00969*
X03671Y0098*
X0367Y00991*
X03665Y01001*
X03659Y0101*
X0365Y01017*
X0364Y01021*
X03629Y01022*
G37*
G36*
X00125Y00987D02*
X00114Y00985D01*
X00104Y00981*
X00095Y00975*
X00088Y00966*
X00084Y00956*
X00083Y00945*
X00084Y00934*
X00088Y00924*
X00095Y00915*
X00104Y00909*
X00114Y00905*
X00125Y00903*
X00135Y00905*
X00146Y00909*
X00154Y00915*
X00161Y00924*
X00165Y00934*
X00166Y00945*
X00165Y00956*
X00161Y00966*
X00154Y00975*
X00146Y00981*
X00135Y00985*
X00125Y00987*
G37*
G36*
X0045D02*
X00439Y00985D01*
X00429Y00981*
X0042Y00975*
X00413Y00966*
X00409Y00956*
X00408Y00945*
X00409Y00934*
X00413Y00924*
X0042Y00915*
X00429Y00909*
X00439Y00905*
X0045Y00903*
X0046Y00905*
X00471Y00909*
X00479Y00915*
X00486Y00924*
X0049Y00934*
X00491Y00945*
X0049Y00956*
X00486Y00966*
X00479Y00975*
X00471Y00981*
X0046Y00985*
X0045Y00987*
G37*
G36*
X01023Y00816D02*
X00968D01*
Y00765*
X01023*
Y00774*
X01029*
X01035Y00775*
X01041Y00779*
X01044Y00784*
X01045Y0079*
X01044Y00797*
X01041Y00802*
X01035Y00805*
X01029Y00807*
X01023*
Y00816*
G37*
G36*
X03235Y00585D02*
X03183D01*
Y00529*
X03193*
Y00505*
X03194Y00499*
X03198Y00494*
X03203Y0049*
X03209Y00489*
X03215Y0049*
X03221Y00494*
X03224Y00499*
X03225Y00505*
Y00529*
X03235*
Y00585*
G37*
G36*
X00572Y00552D02*
X00532D01*
Y00507*
X00572*
Y00552*
G37*
G36*
X03884Y00521D02*
Y00485D01*
X0392*
Y00491*
X03915Y00501*
X03909Y0051*
X039Y00517*
X0389Y00521*
X03884*
G37*
G36*
X03634D02*
Y00485D01*
X0367*
Y00491*
X03665Y00501*
X03659Y0051*
X0365Y00517*
X0364Y00521*
X03634*
G37*
G36*
X03874D02*
X03868D01*
X03858Y00517*
X0385Y0051*
X03843Y00501*
X03839Y00491*
X03838Y00485*
X03874*
Y00521*
G37*
G36*
X00622Y00552D02*
X00582D01*
Y00507*
X00622*
Y00552*
G37*
G36*
X01589Y00597D02*
X01583Y00595D01*
X01578Y00592*
X01574Y00587*
X01573Y0058*
Y00571*
X01558*
Y0052*
X01613*
Y00571*
X01605*
Y0058*
X01604Y00587*
X01601Y00592*
X01595Y00595*
X01589Y00597*
G37*
G36*
X01829D02*
X01823Y00595D01*
X01818Y00592*
X01814Y00587*
X01813Y0058*
Y00571*
X01803*
Y0052*
X01858*
Y00571*
X01845*
Y0058*
X01844Y00587*
X01841Y00592*
X01835Y00595*
X01829Y00597*
G37*
G36*
X01379D02*
X01373Y00595D01*
X01368Y00592*
X01364Y00587*
X01363Y0058*
Y00571*
X01353*
Y0052*
X01408*
Y00571*
X01395*
Y0058*
X01394Y00587*
X01391Y00592*
X01385Y00595*
X01379Y00597*
G37*
G36*
X00929D02*
X00923Y00595D01*
X00918Y00592*
X00914Y00587*
X00913Y0058*
Y00571*
X00903*
Y0052*
X00958*
Y00571*
X00945*
Y0058*
X00944Y00587*
X00941Y00592*
X00935Y00595*
X00929Y00597*
G37*
G36*
X01139D02*
X01133Y00595D01*
X01128Y00592*
X01124Y00587*
X01123Y0058*
Y00571*
X01113*
Y0052*
X01168*
Y00571*
X01155*
Y0058*
X01154Y00587*
X01151Y00592*
X01145Y00595*
X01139Y00597*
G37*
G36*
X03624Y00521D02*
X03618D01*
X03608Y00517*
X036Y0051*
X03593Y00501*
X03589Y00491*
X03588Y00485*
X03624*
Y00521*
G37*
G36*
X02374Y0049D02*
X0237D01*
X02361Y00486*
X02354Y00481*
X02348Y00473*
X02345Y00465*
X02344Y0046*
X02374*
Y0049*
G37*
G36*
X02824D02*
X0282D01*
X02811Y00486*
X02804Y00481*
X02798Y00473*
X02795Y00465*
X02794Y0046*
X02824*
Y0049*
G37*
G36*
X01924D02*
X0192D01*
X01911Y00486*
X01904Y00481*
X01898Y00473*
X01895Y00465*
X01894Y0046*
X01924*
Y0049*
G37*
G36*
X01024D02*
X0102D01*
X01011Y00486*
X01004Y00481*
X00998Y00473*
X00995Y00465*
X00994Y0046*
X01024*
Y0049*
G37*
G36*
X01474D02*
X0147D01*
X01461Y00486*
X01454Y00481*
X01448Y00473*
X01445Y00465*
X01444Y0046*
X01474*
Y0049*
G37*
G36*
X01025Y00571D02*
X0097D01*
Y0052*
X01025*
Y00529*
X01042*
X01063Y00509*
Y00478*
X01058Y00476*
X01054Y00481*
X01047Y00486*
X01038Y0049*
X01034*
Y00455*
Y0042*
X01038Y00421*
X01047Y00424*
X01054Y0043*
X01058Y00435*
X01063Y00433*
Y00387*
X01061Y00386*
X01054Y00381*
X01048Y00373*
X01045Y00365*
X01043Y00355*
X01045Y00346*
X01048Y00337*
X01054Y0033*
X01061Y00324*
X0107Y00321*
X01079Y00319*
X01088Y00321*
X01097Y00324*
X01104Y0033*
X0111Y00337*
X01114Y00346*
X01115Y00355*
X01114Y00365*
X0111Y00373*
X01104Y00381*
X01097Y00386*
X01095Y00387*
Y00433*
X011Y00435*
X01104Y0043*
X01111Y00424*
X0112Y00421*
X01129Y00419*
X01138Y00421*
X01147Y00424*
X01154Y0043*
X0116Y00437*
X01164Y00446*
X01165Y00455*
X01164Y00465*
X0116Y00473*
X01154Y00481*
X01147Y00486*
X01138Y0049*
X01129Y00491*
X0112Y0049*
X01111Y00486*
X01104Y00481*
X011Y00476*
X01095Y00478*
Y00515*
X01094Y00522*
X01091Y00527*
X01061Y00557*
X01055Y0056*
X01049Y00562*
X01025*
Y00571*
G37*
G36*
X02375D02*
X0232D01*
Y0052*
X02375*
Y00529*
X02392*
X02413Y00509*
Y00478*
X02408Y00476*
X02404Y00481*
X02397Y00486*
X02388Y0049*
X02384*
Y00455*
Y0042*
X02388Y00421*
X02397Y00424*
X02404Y0043*
X02408Y00435*
X02413Y00433*
Y00387*
X02411Y00386*
X02404Y00381*
X02398Y00373*
X02395Y00365*
X02393Y00355*
X02395Y00346*
X02398Y00337*
X02404Y0033*
X02411Y00324*
X0242Y00321*
X02429Y00319*
X02438Y00321*
X02447Y00324*
X02454Y0033*
X0246Y00337*
X02464Y00346*
X02465Y00355*
X02464Y00365*
X0246Y00373*
X02454Y00381*
X02447Y00386*
X02445Y00387*
Y00433*
X0245Y00435*
X02454Y0043*
X02461Y00424*
X0247Y00421*
X02479Y00419*
X02488Y00421*
X02497Y00424*
X02504Y0043*
X0251Y00437*
X02514Y00446*
X02515Y00455*
X02514Y00465*
X0251Y00473*
X02504Y00481*
X02497Y00486*
X02488Y0049*
X02479Y00491*
X0247Y0049*
X02461Y00486*
X02454Y00481*
X0245Y00476*
X02445Y00478*
Y00515*
X02444Y00522*
X02441Y00527*
X02411Y00557*
X02405Y0056*
X02399Y00562*
X02375*
Y00571*
G37*
G36*
X035Y00535D02*
X03448D01*
Y00522*
X03434*
X03428Y0052*
X03423Y00517*
X03419Y00512*
X03418Y00505*
X03419Y00499*
X03423Y00494*
X03428Y0049*
X03434Y00489*
X03448*
Y00479*
X035*
Y00535*
G37*
G36*
X02825Y00571D02*
X0277D01*
Y0052*
X02825*
Y00529*
X02842*
X02863Y00509*
Y00478*
X02858Y00476*
X02854Y00481*
X02847Y00486*
X02838Y0049*
X02834*
Y00455*
Y0042*
X02838Y00421*
X02847Y00424*
X02854Y0043*
X02858Y00435*
X02863Y00433*
Y00387*
X02861Y00386*
X02854Y00381*
X02848Y00373*
X02845Y00365*
X02843Y00355*
X02845Y00346*
X02848Y00337*
X02854Y0033*
X02861Y00324*
X0287Y00321*
X02879Y00319*
X02888Y00321*
X02897Y00324*
X02904Y0033*
X0291Y00337*
X02914Y00346*
X02915Y00355*
X02914Y00365*
X0291Y00373*
X02904Y00381*
X02897Y00386*
X02895Y00387*
Y00433*
X029Y00435*
X02904Y0043*
X02911Y00424*
X0292Y00421*
X02929Y00419*
X02938Y00421*
X02947Y00424*
X02954Y0043*
X0296Y00437*
X02964Y00446*
X02965Y00455*
X02964Y00465*
X0296Y00473*
X02954Y00481*
X02947Y00486*
X02938Y0049*
X02929Y00491*
X0292Y0049*
X02911Y00486*
X02904Y00481*
X029Y00476*
X02895Y00478*
Y00515*
X02894Y00522*
X02891Y00527*
X02861Y00557*
X02855Y0056*
X02849Y00562*
X02825*
Y00571*
G37*
G36*
X01475D02*
X0142D01*
Y0052*
X01475*
Y00529*
X01492*
X01513Y00509*
Y00478*
X01508Y00476*
X01504Y00481*
X01497Y00486*
X01488Y0049*
X01484*
Y00455*
Y0042*
X01488Y00421*
X01497Y00424*
X01504Y0043*
X01508Y00435*
X01513Y00433*
Y00387*
X01511Y00386*
X01504Y00381*
X01498Y00373*
X01495Y00365*
X01493Y00355*
X01495Y00346*
X01498Y00337*
X01504Y0033*
X01511Y00324*
X0152Y00321*
X01529Y00319*
X01538Y00321*
X01547Y00324*
X01554Y0033*
X0156Y00337*
X01564Y00346*
X01565Y00355*
X01564Y00365*
X0156Y00373*
X01554Y00381*
X01547Y00386*
X01545Y00387*
Y00433*
X0155Y00435*
X01554Y0043*
X01561Y00424*
X0157Y00421*
X01579Y00419*
X01588Y00421*
X01597Y00424*
X01604Y0043*
X0161Y00437*
X01614Y00446*
X01615Y00455*
X01614Y00465*
X0161Y00473*
X01604Y00481*
X01597Y00486*
X01588Y0049*
X01579Y00491*
X0157Y0049*
X01561Y00486*
X01554Y00481*
X0155Y00476*
X01545Y00478*
Y00515*
X01544Y00522*
X01541Y00527*
X01511Y00557*
X01505Y0056*
X01499Y00562*
X01475*
Y00571*
G37*
G36*
X01925D02*
X0187D01*
Y0052*
X01925*
Y00529*
X01942*
X01963Y00509*
Y00478*
X01958Y00476*
X01954Y00481*
X01947Y00486*
X01938Y0049*
X01934*
Y00455*
Y0042*
X01938Y00421*
X01947Y00424*
X01954Y0043*
X01958Y00435*
X01963Y00433*
Y00387*
X01961Y00386*
X01954Y00381*
X01948Y00373*
X01945Y00365*
X01943Y00355*
X01945Y00346*
X01948Y00337*
X01954Y0033*
X01961Y00324*
X0197Y00321*
X01979Y00319*
X01988Y00321*
X01997Y00324*
X02004Y0033*
X0201Y00337*
X02014Y00346*
X02015Y00355*
X02014Y00365*
X0201Y00373*
X02004Y00381*
X01997Y00386*
X01995Y00387*
Y00433*
X02Y00435*
X02004Y0043*
X02011Y00424*
X0202Y00421*
X02029Y00419*
X02038Y00421*
X02047Y00424*
X02054Y0043*
X0206Y00437*
X02064Y00446*
X02065Y00455*
X02064Y00465*
X0206Y00473*
X02054Y00481*
X02047Y00486*
X02038Y0049*
X02029Y00491*
X0202Y0049*
X02011Y00486*
X02004Y00481*
X02Y00476*
X01995Y00478*
Y00515*
X01994Y00522*
X01991Y00527*
X01961Y00557*
X01955Y0056*
X01949Y00562*
X01925*
Y00571*
G37*
G36*
X03921Y00722D02*
X03838D01*
Y00639*
X03921*
Y00722*
G37*
G36*
X03349Y0081D02*
X0323D01*
X03231Y00796*
X03236Y00777*
X03243Y00759*
X03253Y00742*
X03266Y00727*
X03281Y00715*
X03298Y00704*
X03316Y00697*
X03335Y00692*
X03349Y00691*
Y0081*
G37*
G36*
X03671Y00722D02*
X03588D01*
Y00639*
X03671*
Y00722*
G37*
G36*
X03469Y00601D02*
X03448D01*
Y00579*
X03469*
Y00601*
G37*
G36*
X035D02*
X03479D01*
Y00579*
X035*
Y00601*
G37*
G36*
X03478Y0081D02*
X03359D01*
Y00691*
X03374Y00692*
X03393Y00697*
X03411Y00704*
X03427Y00715*
X03442Y00727*
X03455Y00742*
X03465Y00759*
X03473Y00777*
X03477Y00796*
X03478Y0081*
G37*
G36*
X00379Y00826D02*
X0037Y00825D01*
X00361Y00821*
X00354Y00816*
X00348Y00808*
X00345Y008*
X00343Y0079*
X00345Y00781*
X00348Y00772*
X00354Y00765*
X00361Y00759*
X0037Y00756*
X00379Y00754*
X00388Y00756*
X00397Y00759*
X00404Y00765*
X0041Y00772*
X00414Y00781*
X00415Y0079*
X00414Y008*
X0041Y00808*
X00404Y00816*
X00397Y00821*
X00388Y00825*
X00379Y00826*
G37*
G36*
X00928Y00846D02*
X00922Y00844D01*
X00917Y00841*
X00913Y00836*
X00912Y00829*
X00913Y00823*
X00915Y0082*
X00912Y00816*
X00901*
Y00765*
X00956*
Y00816*
X00944*
X00941Y0082*
X00943Y00823*
X00944Y00829*
X00943Y00836*
X0094Y00841*
X00934Y00844*
X00928Y00846*
G37*
G36*
X00054Y00826D02*
X00045Y00825D01*
X00036Y00821*
X00029Y00816*
X00023Y00808*
X0002Y008*
X00018Y0079*
X0002Y00781*
X00023Y00772*
X00029Y00765*
X00036Y00759*
X00045Y00756*
X00054Y00754*
X00063Y00756*
X00072Y00759*
X00079Y00765*
X00085Y00772*
X00089Y00781*
X0009Y0079*
X00089Y008*
X00085Y00808*
X00079Y00816*
X00072Y00821*
X00063Y00825*
X00054Y00826*
G37*
G36*
X00154Y00776D02*
X00145Y00775D01*
X00136Y00771*
X00129Y00766*
X00123Y00758*
X0012Y0075*
X00118Y0074*
X0012Y00731*
X00123Y00722*
X00129Y00715*
X00136Y00709*
X00145Y00706*
X00154Y00704*
X00163Y00706*
X00172Y00709*
X00179Y00715*
X00185Y00722*
X00189Y00731*
X0019Y0074*
X00189Y0075*
X00185Y00758*
X00179Y00766*
X00172Y00771*
X00163Y00775*
X00154Y00776*
G37*
G36*
X00479D02*
X0047Y00775D01*
X00461Y00771*
X00454Y00766*
X00448Y00758*
X00445Y0075*
X00443Y0074*
X00445Y00731*
X00448Y00722*
X00454Y00715*
X00461Y00709*
X0047Y00706*
X00479Y00704*
X00488Y00706*
X00497Y00709*
X00504Y00715*
X0051Y00722*
X00514Y00731*
X00515Y0074*
X00514Y0075*
X0051Y00758*
X00504Y00766*
X00497Y00771*
X00488Y00775*
X00479Y00776*
G37*
G36*
X00622Y00606D02*
X00582D01*
Y00562*
X00622*
Y00606*
G37*
G36*
X02729Y00597D02*
X02723Y00595D01*
X02718Y00592*
X02714Y00587*
X02713Y0058*
Y00571*
X02703*
Y0052*
X02758*
Y00571*
X02745*
Y0058*
X02744Y00587*
X02741Y00592*
X02735Y00595*
X02729Y00597*
G37*
G36*
X02935Y00596D02*
X02929Y00594D01*
X02924Y00591*
X0292Y00586*
X02919Y00579*
Y00577*
Y00571*
X02908*
Y0052*
X02963*
Y00571*
X02952*
Y00579*
X02951Y00585*
X02947Y0059*
Y00591*
X02941Y00594*
X02935Y00596*
G37*
G36*
X02489Y00597D02*
X02483Y00595D01*
X02478Y00592*
X02474Y00587*
X02473Y0058*
Y00571*
X02458*
Y0052*
X02513*
Y00571*
X02505*
Y0058*
X02504Y00587*
X02501Y00592*
X02495Y00595*
X02489Y00597*
G37*
G36*
X02039D02*
X02033Y00595D01*
X02028Y00592*
X02024Y00587*
X02023Y0058*
Y00571*
X02008*
Y0052*
X02063*
Y00571*
X02055*
Y0058*
X02054Y00587*
X02051Y00592*
X02045Y00595*
X02039Y00597*
G37*
G36*
X02279D02*
X02273Y00595D01*
X02268Y00592*
X02264Y00587*
X02263Y0058*
Y00571*
X02253*
Y0052*
X02308*
Y00571*
X02295*
Y0058*
X02294Y00587*
X02291Y00592*
X02285Y00595*
X02279Y00597*
G37*
G36*
X03629Y00622D02*
X03618Y00621D01*
X03608Y00617*
X036Y0061*
X03593Y00601*
X03589Y00591*
X03587Y0058*
X03589Y00569*
X03593Y00559*
X036Y00551*
X03608Y00544*
X03618Y0054*
X03629Y00539*
X0364Y0054*
X0365Y00544*
X03659Y00551*
X03665Y00559*
X0367Y00569*
X03671Y0058*
X0367Y00591*
X03665Y00601*
X03659Y0061*
X0365Y00617*
X0364Y00621*
X03629Y00622*
G37*
G36*
X035Y00569D02*
X03479D01*
Y00546*
X035*
Y00569*
G37*
G36*
X00572Y00606D02*
X00532D01*
Y00562*
X00572*
Y00606*
G37*
G36*
X03469Y00569D02*
X03448D01*
Y00546*
X03469*
Y00569*
G37*
G36*
X03879Y00622D02*
X03868Y00621D01*
X03858Y00617*
X0385Y0061*
X03843Y00601*
X03839Y00591*
X03837Y0058*
X03839Y00569*
X03843Y00559*
X0385Y00551*
X03858Y00544*
X03868Y0054*
X03879Y00539*
X0389Y0054*
X039Y00544*
X03909Y00551*
X03915Y00559*
X0392Y00569*
X03921Y0058*
X0392Y00591*
X03915Y00601*
X03909Y0061*
X039Y00617*
X0389Y00621*
X03879Y00622*
G37*
G36*
X03289Y00572D02*
X03283Y0057D01*
X03278Y00567*
X03274Y00562*
X03273Y00555*
X03274Y00549*
X03278Y00544*
X03283Y0054*
X03289Y00539*
X03295Y0054*
X03301Y00544*
X03304Y00549*
X03305Y00555*
X03304Y00562*
X03301Y00567*
X03295Y0057*
X03289Y00572*
G37*
G36*
X00981Y02011D02*
X00958D01*
Y02009*
X00899*
Y01957*
X0092*
Y01944*
X00919Y01939*
X00916Y01938*
X00911*
Y01951*
X00859*
Y01896*
X00911*
Y01905*
X00916*
X00922Y01907*
X00927Y0191*
X00931Y01915*
X00932Y01919*
X00936Y01922*
X00964*
Y0191*
X01016*
Y01965*
X01013*
Y0198*
X00986*
Y01985*
X00981*
Y02011*
G37*
G36*
X00464Y03192D02*
X00457Y03191D01*
X00451Y03188*
X00446Y03184*
X00441Y03178*
X00439Y03172*
X00438Y03165*
Y03135*
Y03119*
Y03115*
Y03066*
X0049*
Y03115*
Y03119*
Y03135*
Y03165*
X00489Y03172*
X00487Y03178*
X00483Y03184*
X00477Y03188*
X00471Y03191*
X00464Y03192*
G37*
G36*
X01904Y03187D02*
X01897Y03186D01*
X01891Y03183*
X01886Y03179*
X01881Y03173*
X01879Y03167*
X01878Y0316*
Y0313*
Y03114*
Y0311*
Y03066*
X0193*
Y0311*
Y03114*
Y0313*
Y0316*
X01929Y03167*
X01927Y03173*
X01923Y03179*
X01917Y03183*
X01911Y03186*
X01904Y03187*
G37*
G36*
X01424D02*
X01417Y03186D01*
X01411Y03183*
X01406Y03179*
X01401Y03173*
X01399Y03167*
X01398Y0316*
Y0313*
Y03114*
Y0311*
Y03061*
X0145*
Y0311*
Y03114*
Y0313*
Y0316*
X01449Y03167*
X01447Y03173*
X01443Y03179*
X01437Y03183*
X01431Y03186*
X01424Y03187*
G37*
G36*
X03045Y03069D02*
X03014D01*
Y03043*
X03045*
Y03069*
G37*
G36*
X00939Y03187D02*
X00932Y03186D01*
X00926Y03183*
X00921Y03179*
X00916Y03173*
X00914Y03167*
X00913Y0316*
Y0313*
Y03114*
Y0311*
Y03061*
X00965*
Y0311*
Y03114*
Y0313*
Y0316*
X00964Y03167*
X00962Y03173*
X00958Y03179*
X00952Y03183*
X00946Y03186*
X00939Y03187*
G37*
G36*
X03427Y031D02*
X034D01*
Y0307*
X03427*
Y031*
G37*
G36*
X01391Y03237D02*
X01257D01*
Y03086*
X01317*
X01318Y03085*
X01324Y03084*
X0133Y03085*
X01331Y03086*
X01391*
Y03237*
G37*
G36*
X01871D02*
X01737D01*
Y03086*
X01797*
X01798Y03085*
X01804Y03084*
X0181Y03085*
X01811Y03086*
X01871*
Y03237*
G37*
G36*
X00906D02*
X00772D01*
Y03086*
X00832*
X00833Y03085*
X00839Y03084*
X00845Y03085*
X00846Y03086*
X00906*
Y03237*
G37*
G36*
X03463Y031D02*
X03437D01*
Y0307*
X03463*
Y031*
G37*
G36*
X00431Y03237D02*
X00297D01*
Y03086*
X00357*
X00358Y03085*
X00364Y03084*
X0037Y03085*
X00371Y03086*
X00431*
Y03237*
G37*
G36*
X03004Y03069D02*
X02974D01*
Y03043*
X03004*
Y03069*
G37*
G36*
X00934Y0305D02*
X00913D01*
Y03027*
X00934*
Y0305*
G37*
G36*
X00965D02*
X00944D01*
Y03027*
X00965*
Y0305*
G37*
G36*
X03045Y03033D02*
X03014D01*
Y03006*
X03045*
Y03033*
G37*
G36*
X02485Y03023D02*
X0246D01*
Y03003*
X02485*
Y03023*
G37*
G36*
X03004Y03033D02*
X02974D01*
Y03006*
X03004*
Y03033*
G37*
G36*
X01419Y0305D02*
X01398D01*
Y03027*
X01419*
Y0305*
G37*
G36*
X01899Y03055D02*
X01878D01*
Y03032*
X01899*
Y03055*
G37*
G36*
X0193D02*
X01909D01*
Y03032*
X0193*
Y03055*
G37*
G36*
X0049D02*
X00469D01*
Y03032*
X0049*
Y03055*
G37*
G36*
X0145Y0305D02*
X01429D01*
Y03027*
X0145*
Y0305*
G37*
G36*
X00459Y03055D02*
X00438D01*
Y03032*
X00459*
Y03055*
G37*
G36*
X02764Y03114D02*
X02743D01*
Y03091*
X02764*
Y03114*
G37*
G36*
X0132Y03376D02*
X01229D01*
Y03285*
X0132*
Y03376*
G37*
G36*
X018D02*
X01709D01*
Y03285*
X018*
Y03376*
G37*
G36*
X00835D02*
X00744D01*
Y03285*
X00835*
Y03376*
G37*
G36*
X03193Y03297D02*
X03149D01*
Y03244*
X03193*
Y03297*
G37*
G36*
X0036Y03376D02*
X00269D01*
Y03285*
X0036*
Y03376*
G37*
G36*
X00609Y03325D02*
X00569D01*
X0057Y03318*
X00575Y03307*
X00582Y03298*
X00591Y03291*
X00602Y03286*
X00609Y03285*
Y03325*
G37*
G36*
X01569D02*
X01529D01*
X0153Y03318*
X01535Y03307*
X01542Y03298*
X01551Y03291*
X01562Y03286*
X01569Y03285*
Y03325*
G37*
G36*
X01619D02*
X01579D01*
Y03285*
X01586Y03286*
X01597Y03291*
X01606Y03298*
X01614Y03307*
X01618Y03318*
X01619Y03325*
G37*
G36*
X01134D02*
X01094D01*
Y03285*
X01101Y03286*
X01112Y03291*
X01121Y03298*
X01129Y03307*
X01133Y03318*
X01134Y03325*
G37*
G36*
X00659D02*
X00619D01*
Y03285*
X00626Y03286*
X00637Y03291*
X00646Y03298*
X00654Y03307*
X00658Y03318*
X00659Y03325*
G37*
G36*
X01084D02*
X01044D01*
X01045Y03318*
X0105Y03307*
X01057Y03298*
X01066Y03291*
X01077Y03286*
X01084Y03285*
Y03325*
G37*
G36*
X03139Y03297D02*
X03095D01*
Y03244*
X03139*
Y03297*
G37*
G36*
X02764Y03146D02*
X02743D01*
Y03124*
X02764*
Y03146*
G37*
G36*
X02795D02*
X02774D01*
Y03124*
X02795*
Y03146*
G37*
G36*
X03463Y03141D02*
X03437D01*
Y0311*
X03463*
Y03141*
G37*
G36*
X02795Y03114D02*
X02774D01*
Y03091*
X02795*
Y03114*
G37*
G36*
X03427Y03141D02*
X034D01*
Y0311*
X03427*
Y03141*
G37*
G36*
X02259Y03185D02*
X02215D01*
Y03145*
X02259*
Y03185*
G37*
G36*
Y03236D02*
X02215D01*
Y03195*
X02259*
Y03236*
G37*
G36*
X02313D02*
X02269D01*
Y03195*
X02313*
Y03236*
G37*
G36*
X03863Y03305D02*
X03744D01*
Y03186*
X03759Y03187*
X03778Y03192*
X03796Y03199*
X03812Y0321*
X03827Y03222*
X0384Y03237*
X0385Y03254*
X03858Y03272*
X03862Y03291*
X03863Y03305*
G37*
G36*
X02313Y03185D02*
X02269D01*
Y03145*
X02313*
Y03185*
G37*
G36*
X03734Y03305D02*
X03615D01*
X03616Y03291*
X03621Y03272*
X03628Y03254*
X03638Y03237*
X03651Y03222*
X03666Y0321*
X03683Y03199*
X03701Y03192*
X0372Y03187*
X03734Y03186*
Y03305*
G37*
G36*
X0245Y03023D02*
X02425D01*
Y03003*
X0245*
Y03023*
G37*
G36*
X01319Y02975D02*
X01257D01*
Y02904*
X01319*
Y02975*
G37*
G36*
X01391D02*
X01329D01*
Y02904*
X01391*
Y02975*
G37*
G36*
X00906D02*
X00844D01*
Y02904*
X00906*
Y02975*
G37*
G36*
X00431D02*
X00369D01*
Y02904*
X00431*
Y02975*
G37*
G36*
X00834D02*
X00772D01*
Y02904*
X00834*
Y02975*
G37*
G36*
X01799D02*
X01737D01*
Y02904*
X01799*
Y02975*
G37*
G36*
X03354Y03287D02*
X0334Y03285D01*
X03326Y03279*
X03314Y0327*
X03305Y03259*
X033Y03245*
X03298Y0323*
X033Y03216*
X03305Y03202*
X03314Y0319*
X03323Y03184*
Y03027*
X03314Y0302*
X03305Y03009*
X033Y02995*
X03298Y0298*
X033Y02966*
X03305Y02952*
X03314Y0294*
X03326Y02931*
X0334Y02926*
X03354Y02924*
X03369Y02926*
X03382Y02931*
X03394Y0294*
X03397Y02944*
X03402Y02943*
Y02931*
X03516*
Y0303*
X03402*
Y03018*
X03397Y03016*
X03394Y0302*
X03385Y03027*
Y0307*
X03388*
Y03141*
X03385*
Y03184*
X03394Y0319*
X03403Y03202*
X03409Y03216*
X03411Y0323*
X03409Y03245*
X03403Y03259*
X03394Y0327*
X03382Y03279*
X03369Y03285*
X03354Y03287*
G37*
G36*
X0369Y02975D02*
X03638D01*
Y02931*
X0369*
Y02975*
G37*
G36*
X0391D02*
X03859D01*
Y02924*
X03869Y02926*
X03882Y02931*
X03894Y0294*
X03903Y02952*
X03909Y02966*
X0391Y02975*
G37*
G36*
X01871D02*
X01809D01*
Y02904*
X01871*
Y02975*
G37*
G36*
X03849D02*
X03798D01*
X038Y02966*
X03805Y02952*
X03814Y0294*
X03826Y02931*
X0384Y02926*
X03849Y02924*
Y02975*
G37*
G36*
X00359D02*
X00297D01*
Y02904*
X00359*
Y02975*
G37*
G36*
X01554Y02877D02*
X01544D01*
Y02863*
X01554*
Y02877*
G37*
G36*
X01574D02*
X01564D01*
Y02863*
X01574*
Y02877*
G37*
G36*
X01089D02*
X01079D01*
Y02863*
X01089*
Y02877*
G37*
G36*
X00609D02*
X00599D01*
Y02863*
X00609*
Y02877*
G37*
G36*
X01069D02*
X01059D01*
Y02863*
X01069*
Y02877*
G37*
G36*
X02034D02*
X02024D01*
Y02863*
X02034*
Y02877*
G37*
G36*
X02644Y03017D02*
X0263Y03015D01*
X02616Y03009*
X02604Y03*
X02595Y02989*
X02594Y02987*
X02553*
X02549Y02986*
X02518*
Y02935*
X02549*
X02553Y02934*
X02594*
X02595Y02932*
X02604Y0292*
X02616Y02911*
X0263Y02906*
X02644Y02904*
X02659Y02906*
X02672Y02911*
X02684Y0292*
X02693Y02932*
X02699Y02946*
X02701Y0296*
X02699Y02975*
X02693Y02989*
X02684Y03*
X02672Y03009*
X02659Y03015*
X02644Y03017*
G37*
G36*
X02795Y0308D02*
X02743D01*
Y03024*
X02753*
Y03014*
X02741Y03009*
X02729Y03*
X0272Y02989*
X02715Y02975*
X02713Y0296*
X02715Y02946*
X0272Y02932*
X02729Y0292*
X02741Y02911*
X02755Y02906*
X02769Y02904*
X02784Y02906*
X02797Y02911*
X02809Y0292*
X02818Y02932*
X02824Y02946*
X02826Y0296*
X02824Y02975*
X02818Y02989*
X02809Y03*
X02797Y03009*
X02785Y03014*
Y03024*
X02795*
Y0308*
G37*
G36*
X02313Y03098D02*
X02215D01*
Y03007*
X0223*
X02232Y03002*
X02229Y03*
X0222Y02989*
X02215Y02975*
X02213Y0296*
X02215Y02946*
X0222Y02932*
X02229Y0292*
X02241Y02911*
X02255Y02906*
X02269Y02904*
X02284Y02906*
X02297Y02911*
X02309Y0292*
X02318Y02932*
X02324Y02946*
X02326Y0296*
X02324Y02975*
X02318Y02989*
X02309Y03*
X023Y03007*
X02313*
Y03098*
G37*
G36*
X02054Y02877D02*
X02044D01*
Y02863*
X02054*
Y02877*
G37*
G36*
X02455Y02949D02*
X02395D01*
X02388Y02948*
X02382Y02946*
X02377Y02941*
X02372Y02936*
X0237Y0293*
X02369Y02923*
X0237Y02916*
X02372Y0291*
X02377Y02904*
X02382Y029*
X02388Y02898*
X02395Y02897*
X02455*
X02459*
X02485*
Y02949*
X02459*
X02455*
G37*
G36*
X03753Y02975D02*
X037D01*
Y02931*
X03753*
Y02975*
G37*
G36*
X00934Y03017D02*
X00913D01*
Y02994*
X00934*
Y03017*
G37*
G36*
X00965D02*
X00944D01*
Y02994*
X00965*
Y03017*
G37*
G36*
X03193Y03122D02*
X03095D01*
Y03008*
X03107*
X03108Y03003*
X03104Y03*
X03098Y02992*
X03045*
Y02995*
X02974*
Y02992*
X02941*
X02934Y03*
X02922Y03009*
X02909Y03015*
X02894Y03017*
X0288Y03015*
X02866Y03009*
X02854Y03*
X02845Y02989*
X0284Y02975*
X02838Y0296*
X0284Y02946*
X02845Y02932*
X02854Y0292*
X02866Y02911*
X0288Y02906*
X02894Y02904*
X02909Y02906*
X02922Y02911*
X02934Y0292*
X02941Y02929*
X03098*
X03104Y0292*
X03116Y02911*
X0313Y02906*
X03144Y02904*
X03159Y02906*
X03172Y02911*
X03184Y0292*
X03193Y02932*
X03199Y02946*
X03201Y0296*
X03199Y02975*
X03193Y02989*
X03184Y03*
X03175Y03007*
Y03008*
X03193*
Y03122*
G37*
G36*
X03849Y03036D02*
X0384Y03035D01*
X03826Y03029*
X03814Y0302*
X03805Y03009*
X038Y02995*
X03798Y02985*
X03849*
Y03036*
G37*
G36*
X03859D02*
Y02985D01*
X0391*
X03909Y02995*
X03903Y03009*
X03894Y0302*
X03882Y03029*
X03869Y03035*
X03859Y03036*
G37*
G36*
X01419Y03017D02*
X01398D01*
Y02994*
X01419*
Y03017*
G37*
G36*
X01899Y03022D02*
X01878D01*
Y02999*
X01899*
Y03022*
G37*
G36*
X0193D02*
X01909D01*
Y02999*
X0193*
Y03022*
G37*
G36*
X0049D02*
X00469D01*
Y02999*
X0049*
Y03022*
G37*
G36*
X0145Y03017D02*
X01429D01*
Y02994*
X0145*
Y03017*
G37*
G36*
X00459Y03022D02*
X00438D01*
Y02999*
X00459*
Y03022*
G37*
G36*
X03753Y0303D02*
X037D01*
Y02985*
X03753*
Y0303*
G37*
G36*
X00431Y03056D02*
X00369D01*
Y02985*
X00431*
Y03056*
G37*
G36*
X00834D02*
X00772D01*
Y02985*
X00834*
Y03056*
G37*
G36*
X00359D02*
X00297D01*
Y02985*
X00359*
Y03056*
G37*
G36*
X0245Y02993D02*
X02425D01*
Y02972*
X0245*
Y02993*
G37*
G36*
X02485D02*
X0246D01*
Y02972*
X02485*
Y02993*
G37*
G36*
X00906Y03056D02*
X00844D01*
Y02985*
X00906*
Y03056*
G37*
G36*
X01871D02*
X01809D01*
Y02985*
X01871*
Y03056*
G37*
G36*
X0369Y0303D02*
X03638D01*
Y02985*
X0369*
Y0303*
G37*
G36*
X01799Y03056D02*
X01737D01*
Y02985*
X01799*
Y03056*
G37*
G36*
X01319D02*
X01257D01*
Y02985*
X01319*
Y03056*
G37*
G36*
X01391D02*
X01329D01*
Y02985*
X01391*
Y03056*
G37*
G36*
X01759Y03475D02*
Y03435D01*
X01799*
X01798Y03442*
X01794Y03453*
X01786Y03463*
X01777Y0347*
X01766Y03475*
X01759*
G37*
G36*
X01949D02*
X01942D01*
X01931Y0347*
X01922Y03463*
X01915Y03453*
X0191Y03442*
X01909Y03435*
X01949*
Y03475*
G37*
G36*
X01749D02*
X01742D01*
X01731Y0347*
X01722Y03463*
X01715Y03453*
X0171Y03442*
X01709Y03435*
X01749*
Y03475*
G37*
G36*
X01469D02*
X01462D01*
X01451Y0347*
X01442Y03463*
X01435Y03453*
X0143Y03442*
X01429Y03435*
X01469*
Y03475*
G37*
G36*
X01479D02*
Y03435D01*
X01519*
X01518Y03442*
X01514Y03453*
X01506Y03463*
X01497Y0347*
X01486Y03475*
X01479*
G37*
G36*
X01959D02*
Y03435D01*
X01999*
X01998Y03442*
X01994Y03453*
X01986Y03463*
X01977Y0347*
X01966Y03475*
X01959*
G37*
G36*
X02274Y03516D02*
Y03465D01*
X02325*
X02324Y03475*
X02318Y03489*
X02309Y035*
X02297Y03509*
X02284Y03515*
X02274Y03516*
G37*
G36*
X03139D02*
X0313Y03515D01*
X03116Y03509*
X03104Y035*
X03095Y03489*
X0309Y03475*
X03088Y03465*
X03139*
Y03516*
G37*
G36*
X02264D02*
X02255Y03515D01*
X02241Y03509*
X02229Y035*
X0222Y03489*
X02215Y03475*
X02213Y03465*
X02264*
Y03516*
G37*
G36*
X03543Y03469D02*
X03519D01*
Y03448*
X03543*
Y03469*
G37*
G36*
X03578D02*
X03553D01*
Y03448*
X03578*
Y03469*
G37*
G36*
X01279Y03475D02*
Y03435D01*
X01319*
X01318Y03442*
X01314Y03453*
X01306Y03463*
X01297Y0347*
X01286Y03475*
X01279*
G37*
G36*
X00319D02*
Y03435D01*
X00359*
X00358Y03442*
X00354Y03453*
X00346Y03463*
X00337Y0347*
X00326Y03475*
X00319*
G37*
G36*
X00509D02*
X00502D01*
X00491Y0347*
X00482Y03463*
X00475Y03453*
X0047Y03442*
X00469Y03435*
X00509*
Y03475*
G37*
G36*
X00309D02*
X00302D01*
X00291Y0347*
X00282Y03463*
X00275Y03453*
X0027Y03442*
X00269Y03435*
X00309*
Y03475*
G37*
G36*
X03578Y03438D02*
X03553D01*
Y03417*
X03578*
Y03438*
G37*
G36*
X03354Y03537D02*
X0334Y03535D01*
X03326Y03529*
X03314Y0352*
X03305Y03509*
X033Y03495*
X03298Y0348*
X033Y03466*
X03305Y03452*
X03314Y0344*
X03326Y03431*
X0334Y03426*
X03354Y03424*
X03369Y03426*
X03382Y03431*
X03394Y0344*
X03403Y03452*
X03404Y03454*
X0345*
X03454Y03455*
X03485*
Y03506*
X03454*
X0345Y03507*
X03404*
X03403Y03509*
X03394Y0352*
X03382Y03529*
X03369Y03535*
X03354Y03537*
G37*
G36*
X00519Y03475D02*
Y03435D01*
X00559*
X00558Y03442*
X00554Y03453*
X00546Y03463*
X00537Y0347*
X00526Y03475*
X00519*
G37*
G36*
X00994D02*
Y03435D01*
X01034*
X01033Y03442*
X01029Y03453*
X01021Y03463*
X01012Y0347*
X01001Y03475*
X00994*
G37*
G36*
X01269D02*
X01262D01*
X01251Y0347*
X01242Y03463*
X01235Y03453*
X0123Y03442*
X01229Y03435*
X01269*
Y03475*
G37*
G36*
X00984D02*
X00977D01*
X00966Y0347*
X00957Y03463*
X0095Y03453*
X00945Y03442*
X00944Y03435*
X00984*
Y03475*
G37*
G36*
X00784D02*
X00777D01*
X00766Y0347*
X00757Y03463*
X0075Y03453*
X00745Y03442*
X00744Y03435*
X00784*
Y03475*
G37*
G36*
X00794D02*
Y03435D01*
X00834*
X00833Y03442*
X00829Y03453*
X00821Y03463*
X00812Y0347*
X00801Y03475*
X00794*
G37*
G36*
X03149Y03516D02*
Y03465D01*
X032*
X03199Y03475*
X03193Y03489*
X03184Y035*
X03172Y03509*
X03159Y03515*
X03149Y03516*
G37*
G36*
X00143Y03923D02*
Y03804D01*
X00262*
X00261Y03819*
X00256Y03838*
X00249Y03856*
X00239Y03872*
X00226Y03887*
X00211Y039*
X00194Y0391*
X00176Y03918*
X00157Y03922*
X00143Y03923*
G37*
G36*
X03354Y03912D02*
X0334Y0391D01*
X03326Y03904*
X03314Y03895*
X03305Y03884*
X033Y0387*
X03298Y03855*
X033Y03841*
X03305Y03827*
X03314Y03815*
X03326Y03806*
X0334Y03801*
X03354Y03799*
X03369Y03801*
X03382Y03806*
X03394Y03815*
X03401Y03824*
X03411*
Y03806*
X03502*
Y03905*
X03411*
Y03887*
X03401*
X03394Y03895*
X03382Y03904*
X03369Y0391*
X03354Y03912*
G37*
G36*
X00133Y03923D02*
X00118Y03922D01*
X00099Y03918*
X00081Y0391*
X00065Y039*
X0005Y03887*
X00037Y03872*
X00027Y03856*
X00019Y03838*
X00015Y03819*
X00014Y03804*
X00133*
Y03923*
G37*
G36*
X03849Y0385D02*
X03798D01*
X038Y03841*
X03805Y03827*
X03814Y03815*
X03826Y03806*
X0384Y03801*
X03849Y03799*
Y0385*
G37*
G36*
X0391D02*
X03859D01*
Y03799*
X03869Y03801*
X03882Y03806*
X03894Y03815*
X03903Y03827*
X03909Y03841*
X0391Y0385*
G37*
G36*
X03589D02*
X03549D01*
Y03806*
X03589*
Y0385*
G37*
G36*
X03849Y03911D02*
X0384Y0391D01*
X03826Y03904*
X03814Y03895*
X03805Y03884*
X038Y0387*
X03798Y0386*
X03849*
Y03911*
G37*
G36*
X03859D02*
Y0386D01*
X0391*
X03909Y0387*
X03903Y03884*
X03894Y03895*
X03882Y03904*
X03869Y0391*
X03859Y03911*
G37*
G36*
X0364Y03905D02*
X03599D01*
Y0386*
X0364*
Y03905*
G37*
G36*
Y0385D02*
X03599D01*
Y03806*
X0364*
Y0385*
G37*
G36*
X03589Y03905D02*
X03549D01*
Y0386*
X03589*
Y03905*
G37*
G36*
X00262Y03794D02*
X00143D01*
Y03675*
X00157Y03676*
X00176Y03681*
X00194Y03688*
X00211Y03698*
X00226Y03711*
X00239Y03726*
X00249Y03743*
X00256Y03761*
X00261Y0378*
X00262Y03794*
G37*
G36*
X02413Y03676D02*
X02399Y03674D01*
X02386Y03669*
X02374Y0366*
X02365Y03648*
X0236Y03635*
X02358Y0362*
X0236Y03606*
X02365Y03592*
X02374Y03581*
X02386Y03572*
X02399Y03567*
X02413Y03565*
X02428Y03567*
X02441Y03572*
X02453Y03581*
X02462Y03592*
X02467Y03606*
X02469Y0362*
X02467Y03635*
X02462Y03648*
X02453Y0366*
X02441Y03669*
X02428Y03674*
X02413Y03676*
G37*
G36*
X02551D02*
X02537Y03674D01*
X02523Y03669*
X02512Y0366*
X02503Y03648*
X02497Y03635*
X02496Y0362*
X02497Y03606*
X02503Y03592*
X02512Y03581*
X02523Y03572*
X02537Y03567*
X02551Y03565*
X02566Y03567*
X02579Y03572*
X02591Y03581*
X026Y03592*
X02605Y03606*
X02607Y0362*
X02605Y03635*
X026Y03648*
X02591Y0366*
X02579Y03669*
X02566Y03674*
X02551Y03676*
G37*
G36*
X02276D02*
X02261Y03674D01*
X02248Y03669*
X02236Y0366*
X02227Y03648*
X02222Y03635*
X0222Y0362*
X02222Y03606*
X02227Y03592*
X02236Y03581*
X02248Y03572*
X02261Y03567*
X02276Y03565*
X0229Y03567*
X02303Y03572*
X02315Y03581*
X02324Y03592*
X02329Y03606*
X02331Y0362*
X02329Y03635*
X02324Y03648*
X02315Y0366*
X02303Y03669*
X0229Y03674*
X02276Y03676*
G37*
G36*
X03549Y03577D02*
X03541Y03575D01*
X03534Y0357*
X03529Y03564*
X03528Y03555*
Y03543*
X03519*
Y03492*
X03578*
Y03543*
X03571*
Y03555*
X03569Y03564*
X03564Y0357*
X03557Y03575*
X03549Y03577*
G37*
G36*
X03001Y03676D02*
X02987Y03674D01*
X02973Y03668*
X02962Y0366*
X02953Y03648*
X02947Y03635*
X02946Y0362*
X02947Y03606*
X02953Y03592*
X02962Y03581*
X02973Y03572*
X02987Y03566*
X03001Y03565*
X03016Y03566*
X03029Y03572*
X03041Y03581*
X0305Y03592*
X03055Y03606*
X03057Y0362*
X03055Y03635*
X0305Y03648*
X03041Y0366*
X03029Y03668*
X03016Y03674*
X03001Y03676*
G37*
G36*
X02689D02*
X02675Y03674D01*
X02661Y03669*
X0265Y0366*
X02641Y03648*
X02635Y03635*
X02633Y0362*
X02635Y03606*
X02641Y03592*
X0265Y03581*
X02661Y03572*
X02675Y03567*
X02689Y03565*
X02703Y03567*
X02717Y03572*
X02728Y03581*
X02737Y03592*
X02743Y03606*
X02745Y0362*
X02743Y03635*
X02737Y03648*
X02728Y0366*
X02717Y03669*
X02703Y03674*
X02689Y03676*
G37*
G36*
X03144Y03675D02*
Y03625D01*
X03194*
X03193Y03635*
X03187Y03648*
X03178Y0366*
X03167Y03668*
X03153Y03674*
X03144Y03675*
G37*
G36*
X00133Y03794D02*
X00014D01*
X00015Y0378*
X00019Y03761*
X00027Y03743*
X00037Y03726*
X0005Y03711*
X00065Y03698*
X00081Y03688*
X00099Y03681*
X00118Y03676*
X00133Y03675*
Y03794*
G37*
G36*
X03134Y03675D02*
X03125Y03674D01*
X03111Y03668*
X031Y0366*
X03091Y03648*
X03085Y03635*
X03084Y03625*
X03134*
Y03675*
G37*
G36*
Y03615D02*
X03084D01*
X03085Y03606*
X03091Y03592*
X031Y03581*
X03111Y03572*
X03125Y03566*
X03134Y03565*
Y03615*
G37*
G36*
X03194D02*
X03144D01*
Y03565*
X03153Y03566*
X03167Y03572*
X03178Y03581*
X03187Y03592*
X03193Y03606*
X03194Y03615*
G37*
G36*
X03543Y03438D02*
X03519D01*
Y03417*
X03543*
Y03438*
G37*
G36*
X02049Y03375D02*
X02042D01*
X02031Y0337*
X02022Y03363*
X02015Y03353*
X0201Y03342*
X02009Y03335*
X02049*
Y03375*
G37*
G36*
X02059D02*
Y03335D01*
X02099*
X02098Y03342*
X02094Y03353*
X02086Y03363*
X02077Y0337*
X02066Y03375*
X02059*
G37*
G36*
X01579D02*
Y03335D01*
X01619*
X01618Y03342*
X01614Y03353*
X01606Y03363*
X01597Y0337*
X01586Y03375*
X01579*
G37*
G36*
X01094D02*
Y03335D01*
X01134*
X01133Y03342*
X01129Y03353*
X01121Y03363*
X01112Y0337*
X01101Y03375*
X01094*
G37*
G36*
X01569D02*
X01562D01*
X01551Y0337*
X01542Y03363*
X01535Y03353*
X0153Y03342*
X01529Y03335*
X01569*
Y03375*
G37*
G36*
X03498Y03381D02*
X03475D01*
Y0336*
X03498*
Y03381*
G37*
G36*
X00889Y03476D02*
X00877Y03475D01*
X00866Y0347*
X00857Y03463*
X0085Y03453*
X00845Y03442*
X00843Y0343*
X00845Y03418*
X0085Y03407*
X00857Y03398*
X00866Y03391*
X00877Y03386*
X00889Y03385*
X00901Y03386*
X00912Y03391*
X00921Y03398*
X00929Y03407*
X00933Y03418*
X00935Y0343*
X00933Y03442*
X00929Y03453*
X00921Y03463*
X00912Y0347*
X00901Y03475*
X00889Y03476*
G37*
G36*
X01089D02*
X01077Y03475D01*
X01066Y0347*
X01057Y03463*
X0105Y03453*
X01045Y03442*
X01043Y0343*
X01045Y03418*
X0105Y03407*
X01057Y03398*
X01066Y03391*
X01077Y03386*
X01089Y03385*
X01101Y03386*
X01112Y03391*
X01121Y03398*
X01129Y03407*
X01133Y03418*
X01135Y0343*
X01133Y03442*
X01129Y03453*
X01121Y03463*
X01112Y0347*
X01101Y03475*
X01089Y03476*
G37*
G36*
X00614D02*
X00602Y03475D01*
X00591Y0347*
X00582Y03463*
X00575Y03453*
X0057Y03442*
X00568Y0343*
X0057Y03418*
X00575Y03407*
X00582Y03398*
X00591Y03391*
X00602Y03386*
X00614Y03385*
X00626Y03386*
X00637Y03391*
X00646Y03398*
X00654Y03407*
X00658Y03418*
X0066Y0343*
X00658Y03442*
X00654Y03453*
X00646Y03463*
X00637Y0347*
X00626Y03475*
X00614Y03476*
G37*
G36*
X0353Y03381D02*
X03508D01*
Y0336*
X0353*
Y03381*
G37*
G36*
X00414Y03476D02*
X00402Y03475D01*
X00391Y0347*
X00382Y03463*
X00375Y03453*
X0037Y03442*
X00368Y0343*
X0037Y03418*
X00375Y03407*
X00382Y03398*
X00391Y03391*
X00402Y03386*
X00414Y03385*
X00426Y03386*
X00437Y03391*
X00446Y03398*
X00454Y03407*
X00458Y03418*
X0046Y0343*
X00458Y03442*
X00454Y03453*
X00446Y03463*
X00437Y0347*
X00426Y03475*
X00414Y03476*
G37*
G36*
X01084Y03375D02*
X01077D01*
X01066Y0337*
X01057Y03363*
X0105Y03353*
X01045Y03342*
X01044Y03335*
X01084*
Y03375*
G37*
G36*
X03139Y03359D02*
X03095D01*
Y03307*
X03139*
Y03359*
G37*
G36*
X03193D02*
X03149D01*
Y03307*
X03193*
Y03359*
G37*
G36*
X03354Y03412D02*
X0334Y0341D01*
X03326Y03404*
X03314Y03395*
X03305Y03384*
X033Y0337*
X03298Y03355*
X033Y03341*
X03305Y03327*
X03314Y03315*
X03326Y03306*
X0334Y03301*
X03354Y03299*
X03369Y03301*
X03382Y03306*
X03394Y03315*
X03403Y03327*
X03404Y03329*
X03436*
X0344Y0333*
X03463*
Y03381*
X0344*
X03436Y03382*
X03404*
X03403Y03384*
X03394Y03395*
X03382Y03404*
X03369Y0341*
X03354Y03412*
G37*
G36*
X02049Y03325D02*
X02009D01*
X0201Y03318*
X02015Y03307*
X02022Y03298*
X02031Y03291*
X02042Y03286*
X02049Y03285*
Y03325*
G37*
G36*
X02099D02*
X02059D01*
Y03285*
X02066Y03286*
X02077Y03291*
X02086Y03298*
X02094Y03307*
X02098Y03318*
X02099Y03325*
G37*
G36*
X03734Y03434D02*
X0372Y03433D01*
X03701Y03429*
X03683Y03421*
X03666Y03411*
X03651Y03398*
X03638Y03383*
X03628Y03367*
X03621Y03349*
X03616Y0333*
X03615Y03315*
X03734*
Y03434*
G37*
G36*
X00609Y03375D02*
X00602D01*
X00591Y0337*
X00582Y03363*
X00575Y03353*
X0057Y03342*
X00569Y03335*
X00609*
Y03375*
G37*
G36*
X00619D02*
Y03335D01*
X00659*
X00658Y03342*
X00654Y03353*
X00646Y03363*
X00637Y0337*
X00626Y03375*
X00619*
G37*
G36*
X0353Y0335D02*
X03508D01*
Y0333*
X0353*
Y0335*
G37*
G36*
X03744Y03434D02*
Y03315D01*
X03863*
X03862Y0333*
X03858Y03349*
X0385Y03367*
X0384Y03383*
X03827Y03398*
X03812Y03411*
X03796Y03421*
X03778Y03429*
X03759Y03433*
X03744Y03434*
G37*
G36*
X03498Y0335D02*
X03475D01*
Y0333*
X03498*
Y0335*
G37*
G36*
X01374Y03476D02*
X01362Y03475D01*
X01351Y0347*
X01342Y03463*
X01335Y03453*
X0133Y03442*
X01328Y0343*
X0133Y03418*
X01335Y03407*
X01342Y03398*
X01351Y03391*
X01362Y03386*
X01374Y03385*
X01386Y03386*
X01397Y03391*
X01406Y03398*
X01414Y03407*
X01418Y03418*
X0142Y0343*
X01418Y03442*
X01414Y03453*
X01406Y03463*
X01397Y0347*
X01386Y03475*
X01374Y03476*
G37*
G36*
X01749Y03425D02*
X01709D01*
X0171Y03418*
X01715Y03407*
X01722Y03398*
X01731Y03391*
X01742Y03386*
X01749Y03385*
Y03425*
G37*
G36*
X01799D02*
X01759D01*
Y03385*
X01766Y03386*
X01777Y03391*
X01786Y03398*
X01794Y03407*
X01798Y03418*
X01799Y03425*
G37*
G36*
X01519D02*
X01479D01*
Y03385*
X01486Y03386*
X01497Y03391*
X01506Y03398*
X01514Y03407*
X01518Y03418*
X01519Y03425*
G37*
G36*
X01319D02*
X01279D01*
Y03385*
X01286Y03386*
X01297Y03391*
X01306Y03398*
X01314Y03407*
X01318Y03418*
X01319Y03425*
G37*
G36*
X01469D02*
X01429D01*
X0143Y03418*
X01435Y03407*
X01442Y03398*
X01451Y03391*
X01462Y03386*
X01469Y03385*
Y03425*
G37*
G36*
X01949D02*
X01909D01*
X0191Y03418*
X01915Y03407*
X01922Y03398*
X01931Y03391*
X01942Y03386*
X01949Y03385*
Y03425*
G37*
G36*
X03139Y03455D02*
X03088D01*
X0309Y03446*
X03095Y03432*
X03104Y0342*
X03116Y03411*
X0313Y03406*
X03139Y03404*
Y03455*
G37*
G36*
X032D02*
X03149D01*
Y03404*
X03159Y03406*
X03172Y03411*
X03184Y0342*
X03193Y03432*
X03199Y03446*
X032Y03455*
G37*
G36*
X02325D02*
X02274D01*
Y03404*
X02284Y03406*
X02297Y03411*
X02309Y0342*
X02318Y03432*
X02324Y03446*
X02325Y03455*
G37*
G36*
X01999Y03425D02*
X01959D01*
Y03385*
X01966Y03386*
X01977Y03391*
X01986Y03398*
X01994Y03407*
X01998Y03418*
X01999Y03425*
G37*
G36*
X02264Y03455D02*
X02213D01*
X02215Y03446*
X0222Y03432*
X02229Y0342*
X02241Y03411*
X02255Y03406*
X02264Y03404*
Y03455*
G37*
G36*
X01269Y03425D02*
X01229D01*
X0123Y03418*
X01235Y03407*
X01242Y03398*
X01251Y03391*
X01262Y03386*
X01269Y03385*
Y03425*
G37*
G36*
X00309D02*
X00269D01*
X0027Y03418*
X00275Y03407*
X00282Y03398*
X00291Y03391*
X00302Y03386*
X00309Y03385*
Y03425*
G37*
G36*
X00359D02*
X00319D01*
Y03385*
X00326Y03386*
X00337Y03391*
X00346Y03398*
X00354Y03407*
X00358Y03418*
X00359Y03425*
G37*
G36*
X02054Y03476D02*
X02042Y03475D01*
X02031Y0347*
X02022Y03463*
X02015Y03453*
X0201Y03442*
X02008Y0343*
X0201Y03418*
X02015Y03407*
X02022Y03398*
X02031Y03391*
X02042Y03386*
X02054Y03385*
X02066Y03386*
X02077Y03391*
X02086Y03398*
X02094Y03407*
X02098Y03418*
X021Y0343*
X02098Y03442*
X02094Y03453*
X02086Y03463*
X02077Y0347*
X02066Y03475*
X02054Y03476*
G37*
G36*
X01574D02*
X01562Y03475D01*
X01551Y0347*
X01542Y03463*
X01535Y03453*
X0153Y03442*
X01528Y0343*
X0153Y03418*
X01535Y03407*
X01542Y03398*
X01551Y03391*
X01562Y03386*
X01574Y03385*
X01586Y03386*
X01597Y03391*
X01606Y03398*
X01614Y03407*
X01618Y03418*
X0162Y0343*
X01618Y03442*
X01614Y03453*
X01606Y03463*
X01597Y0347*
X01586Y03475*
X01574Y03476*
G37*
G36*
X01854D02*
X01842Y03475D01*
X01831Y0347*
X01822Y03463*
X01815Y03453*
X0181Y03442*
X01808Y0343*
X0181Y03418*
X01815Y03407*
X01822Y03398*
X01831Y03391*
X01842Y03386*
X01854Y03385*
X01866Y03386*
X01877Y03391*
X01886Y03398*
X01894Y03407*
X01898Y03418*
X019Y0343*
X01898Y03442*
X01894Y03453*
X01886Y03463*
X01877Y0347*
X01866Y03475*
X01854Y03476*
G37*
G36*
X00509Y03425D02*
X00469D01*
X0047Y03418*
X00475Y03407*
X00482Y03398*
X00491Y03391*
X00502Y03386*
X00509Y03385*
Y03425*
G37*
G36*
X00984D02*
X00944D01*
X00945Y03418*
X0095Y03407*
X00957Y03398*
X00966Y03391*
X00977Y03386*
X00984Y03385*
Y03425*
G37*
G36*
X01034D02*
X00994D01*
Y03385*
X01001Y03386*
X01012Y03391*
X01021Y03398*
X01029Y03407*
X01033Y03418*
X01034Y03425*
G37*
G36*
X00834D02*
X00794D01*
Y03385*
X00801Y03386*
X00812Y03391*
X00821Y03398*
X00829Y03407*
X00833Y03418*
X00834Y03425*
G37*
G36*
X00559D02*
X00519D01*
Y03385*
X00526Y03386*
X00537Y03391*
X00546Y03398*
X00554Y03407*
X00558Y03418*
X00559Y03425*
G37*
G36*
X00784D02*
X00744D01*
X00745Y03418*
X0075Y03407*
X00757Y03398*
X00766Y03391*
X00777Y03386*
X00784Y03385*
Y03425*
G37*
G36*
X00763Y02282D02*
X00741D01*
Y02261*
X00763*
Y02282*
G37*
G36*
X03145Y02298D02*
X0312D01*
Y02277*
X03145*
Y02298*
G37*
G36*
X00731Y02282D02*
X00708D01*
Y02261*
X00731*
Y02282*
G37*
G36*
X02759Y02288D02*
X02715D01*
Y02247*
X02759*
Y02288*
G37*
G36*
X02813D02*
X02769D01*
Y02247*
X02813*
Y02288*
G37*
G36*
X0318Y02298D02*
X03155D01*
Y02277*
X0318*
Y02298*
G37*
G36*
X03893Y02427D02*
X03795D01*
Y02313*
X03807*
X03808Y02308*
X03804Y02305*
X03798Y02297*
X0376*
Y023*
X03689*
Y02297*
X03641*
X03634Y02305*
X03622Y02314*
X03609Y0232*
X03594Y02322*
X0358Y0232*
X03566Y02314*
X03554Y02305*
X03545Y02294*
X0354Y0228*
X03538Y02265*
X0354Y02251*
X03545Y02237*
X03554Y02225*
X03566Y02216*
X0358Y02211*
X03594Y02209*
X03609Y02211*
X03622Y02216*
X03634Y02225*
X03641Y02234*
X03798*
X03804Y02225*
X03816Y02216*
X0383Y02211*
X03844Y02209*
X03859Y02211*
X03872Y02216*
X03884Y02225*
X03893Y02237*
X03899Y02251*
X03901Y02265*
X03899Y0228*
X03893Y02294*
X03884Y02305*
X03875Y02312*
Y02313*
X03893*
Y02427*
G37*
G36*
X02379Y02338D02*
X02335D01*
Y02298*
X02379*
Y02338*
G37*
G36*
X0081Y0235D02*
X00758D01*
Y02337*
X00749*
X00743Y02335*
X00738Y02332*
X00734Y02327*
X00733Y0232*
X00734Y02314*
X00738Y02309*
X00743Y02305*
X00749Y02304*
X00758*
Y02294*
X0081*
Y0235*
G37*
G36*
X02119Y024D02*
X02D01*
X02001Y02386*
X02006Y02367*
X02013Y02349*
X02023Y02332*
X02036Y02317*
X02051Y02305*
X02068Y02294*
X02086Y02287*
X02105Y02282*
X02119Y02281*
Y024*
G37*
G36*
X02248D02*
X02129D01*
Y02281*
X02144Y02282*
X02163Y02287*
X02181Y02294*
X02197Y02305*
X02212Y02317*
X02225Y02332*
X02235Y02349*
X02243Y02367*
X02247Y02386*
X02248Y024*
G37*
G36*
X02433Y02288D02*
X02389D01*
Y02247*
X02433*
Y02288*
G37*
G36*
X03495Y0238D02*
X03443D01*
Y02324*
X03453*
Y02319*
X03441Y02314*
X03429Y02305*
X0342Y02294*
X03415Y0228*
X03413Y02265*
X03415Y02251*
X0342Y02237*
X03429Y02225*
X03441Y02216*
X03455Y02211*
X03469Y02209*
X03484Y02211*
X03497Y02216*
X03509Y02225*
X03518Y02237*
X03524Y02251*
X03526Y02265*
X03524Y0228*
X03518Y02294*
X03509Y02305*
X03497Y02314*
X03485Y02319*
Y02324*
X03495*
Y0238*
G37*
G36*
X01045Y02327D02*
X01024D01*
Y02304*
X01044*
Y0227*
X01053*
Y02256*
X01052Y02254*
X01054Y02248*
X01057Y02242*
X01062Y02239*
X01069Y02237*
X01108*
Y02226*
X0117*
Y0222*
X01233*
Y02291*
X0117*
Y0229*
X01108*
Y0227*
X01096*
Y02326*
X01045*
Y02327*
G37*
G36*
X03344Y02322D02*
X0333Y0232D01*
X03316Y02314*
X03304Y02305*
X03295Y02294*
X03294Y02292*
X03248*
X03244Y02291*
X03213*
Y0224*
X03244*
X03248Y02239*
X03294*
X03295Y02237*
X03304Y02225*
X03316Y02216*
X0333Y02211*
X03344Y02209*
X03359Y02211*
X03372Y02216*
X03384Y02225*
X03393Y02237*
X03399Y02251*
X03401Y02265*
X03399Y0228*
X03393Y02294*
X03384Y02305*
X03372Y02314*
X03359Y0232*
X03344Y02322*
G37*
G36*
X0045Y02277D02*
X00439Y02275D01*
X00429Y02271*
X0042Y02265*
X00413Y02256*
X00409Y02246*
X00408Y02235*
X00409Y02224*
X00413Y02214*
X0042Y02205*
X00429Y02199*
X00439Y02195*
X0045Y02193*
X0046Y02195*
X00471Y02199*
X00479Y02205*
X00486Y02214*
X0049Y02224*
X00491Y02235*
X0049Y02246*
X00486Y02256*
X00479Y02265*
X00471Y02271*
X0046Y02275*
X0045Y02277*
G37*
G36*
X03018Y02403D02*
X0292D01*
Y02312*
X0293*
X02932Y02307*
X02929Y02305*
X0292Y02294*
X02915Y0228*
X02913Y02265*
X02915Y02251*
X0292Y02237*
X02929Y02225*
X02941Y02216*
X02955Y02211*
X02969Y02209*
X02984Y02211*
X02997Y02216*
X03009Y02225*
X03018Y02237*
X03024Y02251*
X03026Y02265*
X03024Y0228*
X03018Y02294*
X03009Y02305*
X03Y02312*
X03018*
Y02403*
G37*
G36*
X01277Y02309D02*
X0127Y02308D01*
X01265Y02304*
X01261Y02299*
X0126Y02293*
Y02291*
X01245*
Y0222*
X01308*
Y02291*
X01293*
Y02293*
X01292Y02299*
X01288Y02304*
X01283Y02308*
X01277Y02309*
G37*
G36*
X0083Y02282D02*
X00775D01*
Y02231*
X0083*
Y02239*
X00834*
X0084Y0224*
X00846Y02244*
X00849Y02249*
X0085Y02255*
X00849Y02262*
X00846Y02267*
X0084Y0227*
X00834Y02272*
X0083*
Y02282*
G37*
G36*
X02379Y02288D02*
X02335D01*
Y02247*
X02379*
Y02288*
G37*
G36*
X00763Y02251D02*
X00741D01*
Y02231*
X00763*
Y02251*
G37*
G36*
X01021Y02241D02*
X00999D01*
Y0222*
X01021*
Y02241*
G37*
G36*
X00731Y02251D02*
X00708D01*
Y02231*
X00731*
Y02251*
G37*
G36*
X01065Y0236D02*
X01044D01*
X01024*
Y02337*
X01045*
X01065*
Y0236*
G37*
G36*
X01096D02*
X01075D01*
Y02337*
X01096*
Y0236*
G37*
G36*
X00959Y02357D02*
X00938D01*
Y02335*
X00959*
Y02357*
G37*
G36*
X02552Y02345D02*
X02525D01*
Y02315*
X02552*
Y02345*
G37*
G36*
X02588D02*
X02562D01*
Y02315*
X02588*
Y02345*
G37*
G36*
X01138Y02364D02*
X01108D01*
Y02338*
X01138*
Y02364*
G37*
G36*
X02552Y02386D02*
X02525D01*
Y02355*
X02552*
Y02386*
G37*
G36*
X02588D02*
X02562D01*
Y02355*
X02588*
Y02386*
G37*
G36*
X0376Y02374D02*
X03729D01*
Y02348*
X0376*
Y02374*
G37*
G36*
X01179Y02364D02*
X01148D01*
Y02338*
X01179*
Y02364*
G37*
G36*
X03719Y02374D02*
X03689D01*
Y02348*
X03719*
Y02374*
G37*
G36*
X02433Y02476D02*
X02335D01*
Y02385*
X02433*
Y02399*
X0245*
Y02386*
Y02315*
X02513*
Y02386*
Y02419*
X02514Y02421*
X02515Y0243*
X02514Y0244*
X0251Y02448*
X02504Y02456*
X02497Y02461*
X02488Y02465*
X02479Y02466*
X0247Y02465*
X02462Y02462*
X02433*
Y02476*
G37*
G36*
X01138Y02328D02*
X01108D01*
Y02301*
X01138*
Y02328*
G37*
G36*
X01179D02*
X01148D01*
Y02301*
X01179*
Y02328*
G37*
G36*
X02813Y02338D02*
X02769D01*
Y02298*
X02813*
Y02338*
G37*
G36*
X02433D02*
X02389D01*
Y02298*
X02433*
Y02338*
G37*
G36*
X02759D02*
X02715D01*
Y02298*
X02759*
Y02338*
G37*
G36*
X00959Y02325D02*
X00938D01*
Y02302*
X00959*
Y02325*
G37*
G36*
X03719Y02338D02*
X03689D01*
Y02311*
X03719*
Y02338*
G37*
G36*
X0376D02*
X03729D01*
Y02311*
X0376*
Y02338*
G37*
G36*
X0318Y02328D02*
X03155D01*
Y02308*
X0318*
Y02328*
G37*
G36*
X01014Y0236D02*
X00993D01*
Y02357*
X0099*
X00969*
Y0233*
Y02302*
X0099*
Y02304*
X00993*
X01014*
Y02332*
Y0236*
G37*
G36*
X03145Y02328D02*
X0312D01*
Y02308*
X03145*
Y02328*
G37*
G36*
X00125Y02277D02*
X00114Y02275D01*
X00104Y02271*
X00095Y02265*
X00088Y02256*
X00084Y02246*
X00083Y02235*
X00084Y02224*
X00088Y02214*
X00095Y02205*
X00104Y02199*
X00114Y02195*
X00125Y02193*
X00135Y02195*
X00146Y02199*
X00154Y02205*
X00161Y02214*
X00165Y02224*
X00166Y02235*
X00165Y02246*
X00161Y02256*
X00154Y02265*
X00146Y02271*
X00135Y02275*
X00125Y02277*
G37*
G36*
X03454Y0203D02*
X03424D01*
X03425Y02026*
X03428Y02017*
X03434Y0201*
X03441Y02004*
X0345Y02001*
X03454Y02*
Y0203*
G37*
G36*
X03494D02*
X03464D01*
Y02*
X03468Y02001*
X03477Y02004*
X03484Y0201*
X0349Y02017*
X03494Y02026*
Y0203*
G37*
G36*
X03059D02*
X03029D01*
Y02*
X03033Y02001*
X03042Y02004*
X03049Y0201*
X03055Y02017*
X03059Y02026*
Y0203*
G37*
G36*
X03361Y02071D02*
X03351Y0207D01*
X03343Y02066*
X03335Y02061*
X0333Y02053*
X03326Y02045*
X03325Y02035*
X03326Y02026*
X0333Y02017*
X03335Y0201*
X03343Y02004*
X03351Y02001*
X03361Y01999*
X0337Y02001*
X03379Y02004*
X03386Y0201*
X03392Y02017*
X03395Y02026*
X03397Y02035*
X03395Y02045*
X03392Y02053*
X03386Y02061*
X03379Y02066*
X0337Y0207*
X03361Y02071*
G37*
G36*
X03019Y0203D02*
X02989D01*
X0299Y02026*
X02993Y02017*
X02999Y0201*
X03006Y02004*
X03015Y02001*
X03019Y02*
Y0203*
G37*
G36*
X01193Y02045D02*
X0117D01*
Y02025*
X01193*
Y02045*
G37*
G36*
X03844Y02055D02*
Y02025D01*
X03874*
Y0203*
X0387Y02038*
X03864Y02046*
X03857Y02051*
X03848Y02055*
X03844*
G37*
G36*
X03019Y0207D02*
X03015D01*
X03006Y02066*
X02999Y02061*
X02993Y02053*
X0299Y02045*
X02989Y0204*
X03019*
Y0207*
G37*
G36*
X03834Y02055D02*
X0383D01*
X03821Y02051*
X03814Y02046*
X03808Y02038*
X03805Y0203*
X03804Y02025*
X03834*
Y02055*
G37*
G36*
X01225Y02045D02*
X01203D01*
Y02025*
X01225*
Y02045*
G37*
G36*
X00825Y02046D02*
X00794D01*
Y02025*
X00825*
Y02046*
G37*
G36*
X03262Y02071D02*
X03253Y0207D01*
X03244Y02066*
X03237Y02061*
X03231Y02053*
X03228Y02045*
X03226Y02035*
X03228Y02026*
X03231Y02017*
X03237Y0201*
X03244Y02004*
X03253Y02001*
X03262Y01999*
X03272Y02001*
X0328Y02004*
X03288Y0201*
X03293Y02017*
X03297Y02026*
X03298Y02035*
X03297Y02045*
X03293Y02053*
X03288Y02061*
X0328Y02066*
X03272Y0207*
X03262Y02071*
G37*
G36*
X03874Y02015D02*
X03844D01*
Y01985*
X03848Y01986*
X03857Y01989*
X03864Y01995*
X0387Y02002*
X03874Y02011*
Y02015*
G37*
G36*
X01013Y02011D02*
X00991D01*
Y0199*
X01013*
Y02011*
G37*
G36*
X03834Y02015D02*
X03804D01*
X03805Y02011*
X03808Y02002*
X03814Y01995*
X03821Y01989*
X0383Y01986*
X03834Y01985*
Y02015*
G37*
G36*
X03682Y02056D02*
X03672Y02055D01*
X03664Y02051*
X03656Y02046*
X03651Y02038*
X03647Y0203*
X03646Y0202*
X03647Y02011*
X03651Y02002*
X03656Y01995*
X03664Y01989*
X03672Y01986*
X03682Y01984*
X03691Y01986*
X037Y01989*
X03707Y01995*
X03713Y02002*
X03716Y02011*
X03717Y0202*
X03716Y0203*
X03713Y02038*
X03707Y02046*
X037Y02051*
X03691Y02055*
X03682Y02056*
G37*
G36*
X0376D02*
X03751Y02055D01*
X03742Y02051*
X03735Y02046*
X03729Y02038*
X03726Y0203*
X03725Y0202*
X03726Y02011*
X03729Y02002*
X03735Y01995*
X03742Y01989*
X03751Y01986*
X0376Y01984*
X0377Y01986*
X03778Y01989*
X03786Y01995*
X03791Y02002*
X03795Y02011*
X03796Y0202*
X03795Y0203*
X03791Y02038*
X03786Y02046*
X03778Y02051*
X0377Y02055*
X0376Y02056*
G37*
G36*
X00154Y02066D02*
X00145Y02065D01*
X00136Y02061*
X00129Y02056*
X00123Y02048*
X0012Y0204*
X00118Y0203*
X0012Y02021*
X00123Y02012*
X00129Y02005*
X00136Y01999*
X00145Y01996*
X00154Y01994*
X00163Y01996*
X00172Y01999*
X00179Y02005*
X00185Y02012*
X00189Y02021*
X0019Y0203*
X00189Y0204*
X00185Y02048*
X00179Y02056*
X00172Y02061*
X00163Y02065*
X00154Y02066*
G37*
G36*
X02827Y02071D02*
X02818Y0207D01*
X02809Y02066*
X02802Y02061*
X02796Y02053*
X02793Y02045*
X02791Y02035*
X02793Y02026*
X02796Y02017*
X02802Y0201*
X02809Y02004*
X02818Y02001*
X02827Y01999*
X02837Y02001*
X02845Y02004*
X02853Y0201*
X02858Y02017*
X02862Y02026*
X02863Y02035*
X02862Y02045*
X02858Y02053*
X02853Y02061*
X02845Y02066*
X02837Y0207*
X02827Y02071*
G37*
G36*
X02926D02*
X02916Y0207D01*
X02908Y02066*
X029Y02061*
X02895Y02053*
X02891Y02045*
X0289Y02035*
X02891Y02026*
X02895Y02017*
X029Y0201*
X02908Y02004*
X02916Y02001*
X02926Y01999*
X02935Y02001*
X02944Y02004*
X02951Y0201*
X02957Y02017*
X0296Y02026*
X02962Y02035*
X0296Y02045*
X02957Y02053*
X02951Y02061*
X02944Y02066*
X02935Y0207*
X02926Y02071*
G37*
G36*
X02729D02*
X0272Y0207D01*
X02711Y02066*
X02704Y02061*
X02698Y02053*
X02694Y02045*
X02693Y02035*
X02694Y02026*
X02698Y02017*
X02704Y0201*
X02711Y02004*
X0272Y02001*
X02729Y01999*
X02738Y02001*
X02747Y02004*
X02754Y0201*
X0276Y02017*
X02763Y02026*
X02765Y02035*
X02763Y02045*
X0276Y02053*
X02754Y02061*
X02747Y02066*
X02738Y0207*
X02729Y02071*
G37*
G36*
X00825Y02015D02*
X00794D01*
Y01995*
X00825*
Y02015*
G37*
G36*
X00865D02*
X00835D01*
Y01995*
X00865*
Y02015*
G37*
G36*
X00159Y02165D02*
Y02135D01*
X00189*
Y0214*
X00185Y02148*
X00179Y02156*
X00172Y02161*
X00163Y02165*
X00159*
G37*
G36*
X00474D02*
X0047D01*
X00461Y02161*
X00454Y02156*
X00448Y02148*
X00445Y0214*
X00444Y02135*
X00474*
Y02165*
G37*
G36*
X00149D02*
X00145D01*
X00136Y02161*
X00129Y02156*
X00123Y02148*
X0012Y0214*
X00119Y02135*
X00149*
Y02165*
G37*
G36*
X02069Y02206D02*
X0206Y02205D01*
X02051Y02201*
X02044Y02196*
X02038Y02188*
X02035Y0218*
X02033Y0217*
X02035Y02161*
X02038Y02152*
X02044Y02145*
X02051Y02139*
X0206Y02136*
X02069Y02134*
X02078Y02136*
X02087Y02139*
X02094Y02145*
X021Y02152*
X02104Y02161*
X02105Y0217*
X02104Y0218*
X021Y02188*
X02094Y02196*
X02087Y02201*
X02078Y02205*
X02069Y02206*
G37*
G36*
X01904Y02165D02*
X01874D01*
Y02135*
X01878Y02136*
X01887Y02139*
X01894Y02145*
X019Y02152*
X01904Y02161*
Y02165*
G37*
G36*
X00054Y02216D02*
X00045Y02215D01*
X00036Y02211*
X00029Y02206*
X00023Y02198*
X0002Y0219*
X00018Y0218*
X0002Y02171*
X00023Y02162*
X00029Y02155*
X00036Y02149*
X00045Y02146*
X00054Y02144*
X00063Y02146*
X00072Y02149*
X00079Y02155*
X00085Y02162*
X00089Y02171*
X0009Y0218*
X00089Y0219*
X00085Y02198*
X00079Y02206*
X00072Y02211*
X00063Y02215*
X00054Y02216*
G37*
G36*
X01874Y02205D02*
Y02175D01*
X01904*
Y0218*
X019Y02188*
X01894Y02196*
X01887Y02201*
X01878Y02205*
X01874*
G37*
G36*
X0099Y02291D02*
X00938D01*
Y02272*
X00924*
X00918Y0227*
X00913Y02267*
X00909Y02262*
X00908Y02255*
Y02241*
X00899*
Y02192*
X00887*
X00876Y02203*
X00872Y02206*
X00868Y02207*
X00836*
X0083Y0221*
X00824Y02212*
X00818Y0221*
X00813Y02207*
X00809Y02202*
X00808Y02195*
X00809Y02189*
X00813Y02184*
X00818Y0218*
X00824Y02179*
X0083Y0218*
X00836Y02184*
X00863*
X0087Y02177*
X00868Y02173*
X0079*
X00789Y02178*
X00786Y02183*
X0078Y02186*
X00774Y02188*
X00768Y02186*
X00763Y02183*
X00759Y02178*
X00758Y02171*
X00759Y02165*
X00763Y0216*
X00766Y02157*
X00765Y02153*
X00751*
X00747Y02152*
X00743Y02149*
X00736Y02142*
X00735*
X00729Y0214*
X00724Y02137*
X0072Y02132*
X00719Y02125*
X0072Y02119*
X00724Y02114*
X00729Y0211*
X00735Y02109*
X00736Y02106*
Y02104*
X00698Y02066*
X00697*
X00691Y02064*
X00686Y02061*
X00682Y02056*
X00681Y02049*
X00682Y02043*
X00686Y02038*
X00691Y02034*
X00697Y02033*
X00703Y02034*
X00709Y02038*
X00712Y02043*
X00713Y02049*
Y0205*
X00773Y02109*
X00798*
X00799*
X008Y02104*
X00701Y02005*
X00699Y02002*
X00698Y01997*
Y01691*
X00694Y01686*
X00693Y01679*
X00694Y01673*
X00698Y01668*
X00703Y01664*
X00709Y01663*
X00715Y01664*
X00721Y01668*
X00724Y01673*
X00725Y01679*
X00724Y01686*
X00721Y01691*
X0072*
Y01784*
X00725Y01786*
X00728Y01784*
X00734Y01783*
X00738Y0178*
Y01774*
X00793*
Y01825*
X00738*
Y01819*
X00734Y01816*
X00728Y01815*
X00725Y01813*
X0072Y01815*
Y01993*
X00815Y02087*
X00899*
Y02083*
Y02082*
X00854*
X00848Y0208*
X00843Y02077*
X00839Y02072*
X00838Y02065*
X00839Y02059*
X00843Y02054*
X00847Y02051*
X00846Y02046*
X00835*
Y02025*
X00865*
Y02045*
Y02046*
X00868Y02049*
X00899*
Y02032*
X00958*
Y02083*
Y02084*
X00962Y02087*
X01464*
X01735Y01816*
X01739Y01814*
X01743Y01813*
X0191*
X01937Y01786*
X01935Y0178*
X01933Y0177*
X01935Y01761*
X01938Y01752*
X01944Y01745*
X01951Y01739*
X0196Y01736*
X01969Y01734*
X01978Y01736*
X01987Y01739*
X01994Y01745*
X02Y01752*
X02004Y01761*
X02005Y0177*
X02004Y0178*
X02Y01788*
X01994Y01796*
X01987Y01801*
X01978Y01805*
X01969Y01806*
X0196Y01805*
X01953Y01802*
X01923Y01832*
X01919Y01835*
X01915Y01836*
Y01837*
X01919Y0184*
X01983*
X02037Y01786*
X02035Y0178*
X02033Y0177*
X02035Y01761*
X02038Y01752*
X02044Y01745*
X02051Y01739*
X0206Y01736*
X02069Y01734*
X02078Y01736*
X02087Y01739*
X02094Y01745*
X021Y01752*
X02104Y01761*
X02105Y0177*
X02104Y0178*
X021Y01788*
X02094Y01796*
X02087Y01801*
X02078Y01805*
X02069Y01806*
X0206Y01805*
X02053Y01802*
X02001Y01854*
X02003Y01859*
X02135*
X02138Y01852*
X02144Y01845*
X02151Y01839*
X0216Y01836*
X02169Y01834*
X02178Y01836*
X02187Y01839*
X02194Y01845*
X022Y01852*
X02204Y01861*
X02205Y0187*
X02204Y0188*
X022Y01888*
X02194Y01896*
X02187Y01901*
X02178Y01905*
X02169Y01906*
X0216Y01905*
X02151Y01901*
X02144Y01896*
X02138Y01888*
X02135Y01882*
X02*
X01852Y02029*
X01848Y02032*
X01844Y02033*
X01784*
X01783Y02037*
X01787Y02039*
X01794Y02045*
X018Y02052*
X01804Y02061*
X01805Y0207*
X01804Y0208*
X018Y02088*
X01794Y02096*
X01787Y02101*
X01778Y02105*
X01769Y02106*
X0176Y02105*
X01751Y02101*
X01744Y02096*
X01738Y02088*
X01735Y0208*
X01733Y0207*
X01735Y02061*
X01738Y02052*
X01744Y02045*
X01751Y02039*
X01756Y02037*
X01755Y02033*
X01725*
X01608Y02149*
Y0215*
X01749*
X01937Y01962*
X01941Y0196*
X01945Y01959*
X02135*
X02138Y01952*
X02144Y01945*
X02151Y01939*
X0216Y01936*
X02169Y01934*
X02178Y01936*
X02187Y01939*
X02194Y01945*
X022Y01952*
X02204Y01961*
X02205Y0197*
X02204Y0198*
X022Y01988*
X02194Y01996*
X02187Y02001*
X02178Y02005*
X02169Y02006*
X0216Y02005*
X02151Y02001*
X02144Y01996*
X02138Y01988*
X02135Y01982*
X0195*
X01767Y02165*
X01766Y02166*
X01768Y02169*
X01782*
X01888Y02063*
X01892Y02061*
X01896Y0206*
X02135*
X02138Y02052*
X02144Y02045*
X02151Y02039*
X0216Y02036*
X02169Y02034*
X02178Y02036*
X02187Y02039*
X02194Y02045*
X022Y02052*
X02204Y02061*
X02205Y0207*
X02204Y0208*
X022Y02088*
X02194Y02096*
X02187Y02101*
X02178Y02105*
X02169Y02106*
X0216Y02105*
X02151Y02101*
X02144Y02096*
X02138Y02088*
X02136Y02083*
X01901*
X01847Y02136*
X01851Y0214*
Y02139*
X0186Y02136*
X01864Y02135*
Y02165*
X01834*
X01835Y02161*
X01838Y02152*
X01839*
X01835Y02149*
X01795Y02188*
X01791Y02191*
X01787Y02192*
X01021*
Y0221*
X00994*
Y02215*
X00989*
Y02235*
X0099*
Y02241*
Y02291*
G37*
G36*
X01864Y02205D02*
X0186D01*
X01851Y02201*
X01844Y02196*
X01838Y02188*
X01835Y0218*
X01834Y02175*
X01864*
Y02205*
G37*
G36*
X00379Y02216D02*
X0037Y02215D01*
X00361Y02211*
X00354Y02206*
X00348Y02198*
X00345Y0219*
X00343Y0218*
X00345Y02171*
X00348Y02162*
X00354Y02155*
X00361Y02149*
X0037Y02146*
X00379Y02144*
X00388Y02146*
X00397Y02149*
X00404Y02155*
X0041Y02162*
X00414Y02171*
X00415Y0218*
X00414Y0219*
X0041Y02198*
X00404Y02206*
X00397Y02211*
X00388Y02215*
X00379Y02216*
G37*
G36*
X0318Y02254D02*
X0312D01*
Y02202*
X03134*
Y02189*
X03133Y02185*
X03134Y02179*
X03138Y02174*
X03143Y0217*
X03149Y02169*
X0315*
X03156Y0217*
X03161Y02174*
X03165Y02179*
X03166Y02185*
Y02202*
X0318*
Y02254*
G37*
G36*
X01969Y02206D02*
X0196Y02205D01*
X01951Y02201*
X01944Y02196*
X01938Y02188*
X01935Y0218*
X01933Y0217*
X01935Y02161*
X01938Y02152*
X01944Y02145*
X01951Y02139*
X0196Y02136*
X01969Y02134*
X01978Y02136*
X01987Y02139*
X01994Y02145*
X02Y02152*
X02004Y02161*
X02005Y0217*
X02004Y0218*
X02Y02188*
X01994Y02196*
X01987Y02201*
X01978Y02205*
X01969Y02206*
G37*
G36*
X00054Y02116D02*
X00045Y02115D01*
X00036Y02111*
X00029Y02106*
X00023Y02098*
X0002Y0209*
X00018Y0208*
X0002Y02071*
X00023Y02062*
X00029Y02055*
X00036Y02049*
X00045Y02046*
X00054Y02044*
X00063Y02046*
X00072Y02049*
X00079Y02055*
X00085Y02062*
X00089Y02071*
X0009Y0208*
X00089Y0209*
X00085Y02098*
X00079Y02106*
X00072Y02111*
X00063Y02115*
X00054Y02116*
G37*
G36*
X00379D02*
X0037Y02115D01*
X00361Y02111*
X00354Y02106*
X00348Y02098*
X00345Y0209*
X00343Y0208*
X00345Y02071*
X00348Y02062*
X00354Y02055*
X00361Y02049*
X0037Y02046*
X00379Y02044*
X00388Y02046*
X00397Y02049*
X00404Y02055*
X0041Y02062*
X00414Y02071*
X00415Y0208*
X00414Y0209*
X0041Y02098*
X00404Y02106*
X00397Y02111*
X00388Y02115*
X00379Y02116*
G37*
G36*
X03464Y0207D02*
Y0204D01*
X03494*
Y02045*
X0349Y02053*
X03484Y02061*
X03477Y02066*
X03468Y0207*
X03464*
G37*
G36*
X03029D02*
Y0204D01*
X03059*
Y02045*
X03055Y02053*
X03049Y02061*
X03042Y02066*
X03033Y0207*
X03029*
G37*
G36*
X03454D02*
X0345D01*
X03441Y02066*
X03434Y02061*
X03428Y02053*
X03425Y02045*
X03424Y0204*
X03454*
Y0207*
G37*
G36*
X01193Y02076D02*
X0117D01*
Y02055*
X01193*
Y02076*
G37*
G36*
X00189Y02125D02*
X00159D01*
Y02095*
X00163Y02096*
X00172Y02099*
X00179Y02105*
X00185Y02112*
X00189Y02121*
Y02125*
G37*
G36*
X00474D02*
X00444D01*
X00445Y02121*
X00448Y02112*
X00454Y02105*
X00461Y02099*
X0047Y02096*
X00474Y02095*
Y02125*
G37*
G36*
X00149D02*
X00119D01*
X0012Y02121*
X00123Y02112*
X00129Y02105*
X00136Y02099*
X00145Y02096*
X00149Y02095*
Y02125*
G37*
G36*
X01225Y02076D02*
X01203D01*
Y02055*
X01225*
Y02076*
G37*
G36*
X01158D02*
X01103D01*
Y0207*
X01099Y02067*
X01093Y02065*
X01088Y02062*
X01084Y02057*
X01083Y0205*
X01084Y02044*
X01088Y02039*
X01093Y02035*
X01099Y02034*
X01103Y02031*
Y02025*
X01158*
Y02076*
G37*
G36*
X00779Y02384D02*
X00758D01*
Y02361*
X00779*
Y02384*
G37*
G36*
X039Y0276D02*
X03849D01*
Y02709*
X03859Y02711*
X03872Y02716*
X03884Y02725*
X03893Y02737*
X03899Y02751*
X039Y0276*
G37*
G36*
X02547Y02741D02*
X0252D01*
Y0271*
X02547*
Y02741*
G37*
G36*
X03839Y0276D02*
X03788D01*
X0379Y02751*
X03795Y02737*
X03804Y02725*
X03816Y02716*
X0383Y02711*
X03839Y02709*
Y0276*
G37*
G36*
X02964D02*
X02913D01*
X02915Y02751*
X0292Y02737*
X02929Y02725*
X02941Y02716*
X02955Y02711*
X02964Y02709*
Y0276*
G37*
G36*
X03025D02*
X02974D01*
Y02709*
X02984Y02711*
X02997Y02716*
X03009Y02725*
X03018Y02737*
X03024Y02751*
X03025Y0276*
G37*
G36*
X02574Y02775D02*
X02544D01*
X02545Y02771*
X02548Y02762*
X02554Y02755*
X02561Y02749*
X0257Y02746*
X02569Y02741*
X02557*
Y0271*
X02583*
Y02741*
Y02745*
X02579Y02744*
X02574Y02745*
Y02775*
G37*
G36*
X02614D02*
X02584D01*
Y02745*
X02588Y02746*
X02597Y02749*
X02604Y02755*
X0261Y02762*
X02614Y02771*
Y02775*
G37*
G36*
X02964Y02821D02*
X02955Y0282D01*
X02941Y02814*
X02929Y02805*
X0292Y02794*
X02915Y0278*
X02913Y0277*
X02964*
Y02821*
G37*
G36*
X02054Y02783D02*
X02024D01*
Y02747*
X02023Y0274*
X02024Y02734*
X02028Y02729*
X02033Y02725*
X02039Y02724*
X02045Y02725*
X02051Y02729*
X02054Y02734*
X02055Y0274*
X02054Y02747*
Y02783*
G37*
G36*
X00609D02*
X00579D01*
Y02747*
X00578Y0274*
X00579Y02734*
X00583Y02729*
X00588Y02725*
X00594Y02724*
X006Y02725*
X00606Y02729*
X00609Y02734*
X0061Y0274*
X00609Y02747*
Y02783*
G37*
G36*
X01089D02*
X01059D01*
Y02747*
X01058Y0274*
X01059Y02734*
X01063Y02729*
X01068Y02725*
X01074Y02724*
X0108Y02725*
X01086Y02729*
X01089Y02734*
X0109Y0274*
X01089Y02747*
Y02783*
G37*
G36*
X00364Y02707D02*
X00358Y02705D01*
X00353Y02702*
X00349Y02697*
X00348Y0269*
X00349Y02684*
X00353Y02679*
X00358Y02675*
X00364Y02674*
X0037Y02675*
X00376Y02679*
X00379Y02684*
X0038Y0269*
X00379Y02697*
X00376Y02702*
X0037Y02705*
X00364Y02707*
G37*
G36*
X02433Y02688D02*
X02389D01*
Y02648*
X02433*
Y02688*
G37*
G36*
X00889Y02747D02*
X00883Y02745D01*
X00878Y02742*
X00874Y02737*
X00873Y0273*
X00874Y02724*
X00878Y02719*
Y02655*
X00875Y02652*
X00874*
X00868Y0265*
X00863Y02647*
X00859Y02642*
X00858Y02635*
X00859Y02629*
X00863Y02624*
X00868Y0262*
X00874Y02619*
X0088Y0262*
X00886Y02624*
X00889Y02629*
X0089Y02635*
Y02636*
X00897Y02642*
X00899Y02646*
X009Y0265*
Y02719*
X00901*
X00904Y02724*
X00905Y0273*
X00904Y02737*
X00901Y02742*
X00895Y02745*
X00889Y02747*
G37*
G36*
X02379Y02688D02*
X02335D01*
Y02648*
X02379*
Y02688*
G37*
G36*
X00834Y02747D02*
X00828Y02745D01*
X00823Y02742*
X00819Y02737*
X00818Y0273*
X00819Y02724*
X00823Y02719*
Y02647*
X00819Y02642*
X00818Y02635*
X00819Y02629*
X00823Y02624*
X00828Y0262*
X00834Y02619*
X0084Y0262*
X00846Y02624*
X00849Y02629*
X0085Y02635*
X00849Y02642*
X00846Y02647*
X00845*
Y02719*
X00846*
X00849Y02724*
X0085Y0273*
X00849Y02737*
X00846Y02742*
X0084Y02745*
X00834Y02747*
G37*
G36*
X01374Y02722D02*
X01368Y0272D01*
X01363Y02717*
X01359Y02712*
X01358Y02705*
X01359Y02699*
X01363Y02694*
Y02647*
X01359Y02642*
X01358Y02635*
X01359Y02629*
X01363Y02624*
X01368Y0262*
X01374Y02619*
X0138Y0262*
X01386Y02624*
X01389Y02629*
X0139Y02635*
X01389Y02642*
X01386Y02647*
X01385*
Y02694*
X01386*
X01389Y02699*
X0139Y02705*
X01389Y02712*
X01386Y02717*
X0138Y0272*
X01374Y02722*
G37*
G36*
X02759Y02693D02*
X02715D01*
Y02653*
X02759*
Y02693*
G37*
G36*
X02547Y027D02*
X0252D01*
Y0267*
X02547*
Y027*
G37*
G36*
X02583D02*
X02557D01*
Y0267*
X02583*
Y027*
G37*
G36*
X02433Y02826D02*
X02335D01*
Y02735*
X02433*
Y02749*
X02462*
X02463*
Y02741*
X02445*
Y0267*
X02508*
Y02741*
X02495*
Y02749*
X02497*
X02504Y02755*
X0251Y02762*
X02514Y02771*
X02515Y0278*
X02514Y0279*
X0251Y02798*
X02504Y02806*
X02497Y02811*
X02488Y02815*
X02479Y02816*
X0247Y02815*
X02462Y02812*
X02433*
Y02826*
G37*
G36*
X02813Y02693D02*
X02769D01*
Y02653*
X02813*
Y02693*
G37*
G36*
X00646Y02783D02*
X00617D01*
Y02743*
X0062*
Y02713*
X00605*
Y02658*
X00657*
Y02713*
X00643*
Y02743*
X00646*
Y02783*
G37*
G36*
X01554Y02853D02*
X01544D01*
Y02838*
X01554*
Y02853*
G37*
G36*
X01574D02*
X01564D01*
Y02838*
X01574*
Y02853*
G37*
G36*
X01374Y03376D02*
X01362Y03375D01*
X01351Y0337*
X01342Y03363*
X01335Y03353*
X0133Y03342*
X01328Y0333*
X0133Y03318*
X01335Y03307*
X01342Y03298*
X01351Y03291*
X01362Y03286*
X01374Y03285*
X01386Y03286*
X01397Y03291*
X01398Y03292*
X01508Y03182*
Y02877*
X01507*
Y02838*
X01537*
Y02877*
X01535*
Y03188*
X01534Y03193*
X01531Y03197*
X01416Y03313*
X01418Y03318*
X0142Y0333*
X01418Y03342*
X01414Y03353*
X01406Y03363*
X01397Y0337*
X01386Y03375*
X01374Y03376*
G37*
G36*
X01089Y02853D02*
X01079D01*
Y02838*
X01089*
Y02853*
G37*
G36*
X00989Y03376D02*
X00977Y03375D01*
X00966Y0337*
X00957Y03363*
X0095Y03353*
X00945Y03342*
X00943Y0333*
X00945Y03318*
X0095Y03307*
X00957Y03298*
X00966Y03291*
X00977Y03286*
X00989Y03285*
X01001Y03286*
X01012Y03291*
X01013Y03292*
X01098Y03207*
Y02877*
X01097*
Y02838*
X01126*
Y02877*
X01125*
Y03213*
X01124Y03218*
X01121Y03223*
X01031Y03313*
X01033Y03318*
X01035Y0333*
X01033Y03342*
X01029Y03353*
X01021Y03363*
X01012Y0337*
X01001Y03375*
X00989Y03376*
G37*
G36*
X01474D02*
X01462Y03375D01*
X01451Y0337*
X01442Y03363*
X01435Y03353*
X0143Y03342*
X01428Y0333*
X0143Y03318*
X01435Y03307*
X01442Y03298*
X01451Y03291*
X01462Y03286*
X01474Y03285*
X01486Y03286*
X01497Y03291*
X01498Y03292*
X01583Y03207*
Y02877*
X01582*
Y02838*
X01611*
Y02877*
X0161*
Y03213*
X01609Y03218*
X01606Y03223*
X01516Y03313*
X01518Y03318*
X0152Y0333*
X01518Y03342*
X01514Y03353*
X01506Y03363*
X01497Y0337*
X01486Y03375*
X01474Y03376*
G37*
G36*
X01954D02*
X01942Y03375D01*
X01931Y0337*
X01922Y03363*
X01915Y03353*
X0191Y03342*
X01908Y0333*
X0191Y03318*
X01915Y03307*
X01922Y03298*
X01931Y03291*
X01942Y03286*
X01954Y03285*
X01966Y03286*
X01977Y03291*
X01978Y03292*
X02063Y03207*
Y02877*
X02062*
Y02838*
X02091*
Y02877*
X0209*
Y03213*
X02089Y03218*
X02086Y03223*
X01996Y03313*
X01998Y03318*
X02Y0333*
X01998Y03342*
X01994Y03353*
X01986Y03363*
X01977Y0337*
X01966Y03375*
X01954Y03376*
G37*
G36*
X00589Y02877D02*
X00579D01*
Y02863*
X00589*
Y02877*
G37*
G36*
X02054Y02853D02*
X02044D01*
Y02838*
X02054*
Y02853*
G37*
G36*
X01854Y03376D02*
X01842Y03375D01*
X01831Y0337*
X01822Y03363*
X01815Y03353*
X0181Y03342*
X01808Y0333*
X0181Y03318*
X01815Y03307*
X01822Y03298*
X01831Y03291*
X01842Y03286*
X01854Y03285*
X01866Y03286*
X01877Y03291*
X01878Y03292*
X01988Y03182*
Y02877*
X01987*
Y02838*
X02017*
Y02877*
X02015*
Y03188*
X02014Y03193*
X02011Y03197*
X01896Y03313*
X01898Y03318*
X019Y0333*
X01898Y03342*
X01894Y03353*
X01886Y03363*
X01877Y0337*
X01866Y03375*
X01854Y03376*
G37*
G36*
X02034Y02853D02*
X02024D01*
Y02838*
X02034*
Y02853*
G37*
G36*
X01069D02*
X01059D01*
Y02838*
X01069*
Y02853*
G37*
G36*
X02574Y02815D02*
X0257D01*
X02561Y02811*
X02554Y02806*
X02548Y02798*
X02545Y0279*
X02544Y02785*
X02574*
Y02815*
G37*
G36*
X02584D02*
Y02785D01*
X02614*
Y0279*
X0261Y02798*
X02604Y02806*
X02597Y02811*
X02588Y02815*
X02584*
G37*
G36*
X03849Y02821D02*
Y0277D01*
X039*
X03899Y0278*
X03893Y02794*
X03884Y02805*
X03872Y02814*
X03859Y0282*
X03849Y02821*
G37*
G36*
X02974D02*
Y0277D01*
X03025*
X03024Y0278*
X03018Y02794*
X03009Y02805*
X02997Y02814*
X02984Y0282*
X02974Y02821*
G37*
G36*
X03839D02*
X0383Y0282D01*
X03816Y02814*
X03804Y02805*
X03795Y02794*
X0379Y0278*
X03788Y0277*
X03839*
Y02821*
G37*
G36*
X02813Y02831D02*
X02715D01*
Y02812*
X02696*
X02688Y02815*
X02679Y02816*
X0267Y02815*
X02661Y02811*
X02654Y02806*
X02648Y02798*
X02645Y0279*
X02643Y0278*
X02645Y02771*
X02648Y02762*
X02654Y02755*
X02661Y02749*
X0267Y02746*
X02679Y02744*
X02688Y02746*
X02696Y02749*
X02715*
Y0274*
X02813*
Y02831*
G37*
G36*
X00514Y03376D02*
X00502Y03375D01*
X00491Y0337*
X00482Y03363*
X00475Y03353*
X0047Y03342*
X00468Y0333*
X0047Y03318*
X00475Y03307*
X00482Y03298*
X00491Y03291*
X00502Y03286*
X00514Y03285*
X00526Y03286*
X00535Y0329*
X00618Y03207*
Y02877*
X00617*
Y02838*
X00646*
Y02877*
X00645*
Y03213*
X00644Y03218*
X00641Y03223*
X00555Y03309*
X00558Y03318*
X0056Y0333*
X00558Y03342*
X00554Y03353*
X00546Y03363*
X00537Y0337*
X00526Y03375*
X00514Y03376*
G37*
G36*
X00889D02*
X00877Y03375D01*
X00866Y0337*
X00857Y03363*
X0085Y03353*
X00845Y03342*
X00843Y0333*
X00845Y03318*
X0085Y03307*
X00857Y03298*
X00866Y03291*
X00877Y03286*
X00889Y03285*
X00901Y03286*
X00912Y03291*
X00913Y03292*
X01023Y03182*
Y02877*
X01022*
Y02838*
X01052*
Y02877*
X0105*
Y03188*
X01049Y03193*
X01046Y03197*
X00931Y03313*
X00933Y03318*
X00935Y0333*
X00933Y03342*
X00929Y03353*
X00921Y03363*
X00912Y0337*
X00901Y03375*
X00889Y03376*
G37*
G36*
X00609Y02853D02*
X00599D01*
Y02838*
X00609*
Y02853*
G37*
G36*
X00414Y03376D02*
X00402Y03375D01*
X00391Y0337*
X00382Y03363*
X00375Y03353*
X0037Y03342*
X00368Y0333*
X0037Y03318*
X00375Y03307*
X00382Y03298*
X00391Y03291*
X00402Y03286*
X00414Y03285*
X00426Y03286*
X00435Y0329*
X00543Y03182*
Y02877*
X00542*
Y02838*
X00572*
Y02877*
X0057*
Y03188*
X00569Y03193*
X00566Y03197*
X00455Y03309*
X00458Y03318*
X0046Y0333*
X00458Y03342*
X00454Y03353*
X00446Y03363*
X00437Y0337*
X00426Y03375*
X00414Y03376*
G37*
G36*
X00589Y02853D02*
X00579D01*
Y02838*
X00589*
Y02853*
G37*
G36*
X01854Y02722D02*
X01848Y0272D01*
X01843Y02717*
X01839Y02712*
X01838Y02705*
X01839Y02699*
X01843Y02694*
Y02642*
X01839Y02637*
X01838Y0263*
X01839Y02624*
X01843Y02619*
X01848Y02615*
X01854Y02614*
X0186Y02615*
X01866Y02619*
X01869Y02624*
X0187Y0263*
X01869Y02637*
X01866Y02642*
X01865*
Y02694*
X01866*
X01869Y02699*
X0187Y02705*
X01869Y02712*
X01866Y02717*
X0186Y0272*
X01854Y02722*
G37*
G36*
X02574Y02465D02*
X0257D01*
X02561Y02461*
X02554Y02456*
X02548Y02448*
X02545Y0244*
X02544Y02435*
X02574*
Y02465*
G37*
G36*
X02584D02*
Y02435D01*
X02614*
Y0244*
X0261Y02448*
X02604Y02456*
X02597Y02461*
X02588Y02465*
X02584*
G37*
G36*
X03495Y02446D02*
X03474D01*
Y02424*
X03495*
Y02446*
G37*
G36*
X02129Y02529D02*
Y0241D01*
X02248*
X02247Y02425*
X02243Y02444*
X02235Y02462*
X02225Y02478*
X02212Y02493*
X02197Y02506*
X02181Y02516*
X02163Y02524*
X02144Y02528*
X02129Y02529*
G37*
G36*
X03464Y02446D02*
X03443D01*
Y02424*
X03464*
Y02446*
G37*
G36*
X02964Y0249D02*
X0292D01*
Y0245*
X02964*
Y0249*
G37*
G36*
X00821D02*
X00798D01*
Y0247*
X00821*
Y0249*
G37*
G36*
X00853D02*
X00831D01*
Y0247*
X00853*
Y0249*
G37*
G36*
X02813Y02476D02*
X02715D01*
Y02462*
X02696*
X02688Y02465*
X02679Y02466*
X0267Y02465*
X02661Y02461*
X02654Y02456*
X02648Y02448*
X02645Y0244*
X02643Y0243*
X02645Y02421*
X02648Y02412*
X02654Y02405*
X02661Y02399*
X0267Y02396*
X02679Y02394*
X02688Y02396*
X02696Y02399*
X02715*
Y02385*
X02813*
Y02476*
G37*
G36*
X03018Y0249D02*
X02974D01*
Y0245*
X03018*
Y0249*
G37*
G36*
X00414Y02707D02*
X00408Y02705D01*
X00403Y02702*
X00399Y02697*
X00398Y0269*
X00399Y02684*
X00403Y02679*
Y02506*
X00404Y02502*
X00406Y02498*
X00441Y02463*
X0044Y02461*
X00436Y0246*
X00379Y02516*
X00378Y02523*
X00375Y02528*
X00369Y02531*
X00363Y02533*
X00357Y02531*
X00352Y02528*
X00348Y02523*
Y02521*
X00343Y02519*
X00289Y02573*
X00285Y02576*
X00281Y02577*
X00267*
Y02578*
X00262Y02584*
X00257Y02588*
X00251Y0259*
X00244Y02591*
X00237Y0259*
X00231Y02588*
X00226Y02584*
X00222Y02578*
X00217*
X00212Y02584*
X00207Y02588*
X00201Y0259*
X00194Y02591*
X00187Y0259*
X00181Y02588*
X00176Y02584*
X00172Y02578*
X00169Y02572*
X00168Y02565*
X00169Y02559*
X00172Y02552*
X00176Y02547*
X00181Y02543*
Y02538*
X00176Y02534*
X00172Y02528*
X00171Y02526*
X00164*
X0016Y02525*
X00157Y02523*
X0014Y02506*
X00137Y02502*
X00136Y02498*
Y0238*
X00137Y02376*
X0014Y02373*
X00177Y02335*
X00181Y02333*
X00185Y02332*
X00295*
Y02331*
X003Y02328*
X00307Y02327*
X00313Y02328*
X00318Y02331*
X00322Y02337*
X00323Y02343*
X00322Y02349*
X00318Y02354*
X00313Y02358*
X00307Y02359*
X003Y02358*
X00295Y02354*
X00189*
X00158Y02385*
Y02494*
X00163Y02499*
X00172Y02502*
X00176Y02497*
X00181Y02493*
Y02488*
X00176Y02484*
X00172Y02478*
X00169Y02472*
X00168Y02465*
X00169Y02459*
X00172Y02452*
Y02451*
X0017Y02447*
X00167*
Y02396*
X00223*
Y02444*
X00224*
X00227Y02446*
X00231Y02443*
X00234Y02442*
Y02426*
X00289*
Y02447*
X00268*
X00266Y02451*
X00267Y02452*
X00269Y02459*
Y0246*
X00244*
Y0247*
X00269*
Y02472*
X00267Y02478*
X00262Y02484*
X00257Y02488*
Y02493*
X00262Y02497*
X00267Y02502*
X00269Y02509*
X0027Y02515*
X00269Y02522*
X00267Y02528*
X00262Y02534*
X00257Y02538*
Y02543*
X00262Y02547*
X00267Y02552*
Y02554*
X00276*
X00409Y02421*
X00413Y02419*
X00417Y02418*
X00523*
X00558Y02383*
Y02378*
X00553Y02375*
X00549Y0237*
X00544*
X00541Y02375*
X00535Y02378*
X00529Y0238*
X00523Y02378*
X00518Y02375*
X00514Y0237*
X00509*
X00506Y02375*
X005Y02378*
X00494Y0238*
X00488Y02378*
X00483Y02375*
X0048Y02371*
X00475*
X00473Y02375*
X00467Y02378*
X00461Y0238*
X00455Y02378*
X0045Y02375*
X00446Y0237*
X00445Y02363*
X00446Y02357*
X0045Y02352*
X00455Y02348*
X0046Y02347*
X00518Y0229*
Y02142*
X00513Y02141*
X0051Y02148*
X00504Y02156*
X00497Y02161*
X00488Y02165*
X00484*
Y0213*
Y02095*
X00488Y02096*
X00497Y02099*
X00504Y02105*
X0051Y02112*
X00513Y02119*
X00518Y02118*
Y02042*
X00513Y02041*
X0051Y02048*
X00504Y02056*
X00497Y02061*
X00488Y02065*
X00479Y02066*
X0047Y02065*
X00461Y02061*
X00454Y02056*
X00448Y02048*
X00445Y0204*
X00443Y0203*
X00445Y02021*
X00448Y02012*
X00454Y02005*
X00461Y01999*
X0047Y01996*
X00479Y01994*
X00488Y01996*
X00497Y01999*
X00504Y02005*
X0051Y02012*
X00513Y02019*
X00518Y02018*
Y01712*
X00513Y01711*
X0051Y01718*
X00504Y01726*
X00497Y01731*
X00488Y01735*
X00484*
Y017*
Y01665*
X00488Y01666*
X00497Y01669*
X00504Y01675*
X0051Y01682*
X00513Y01689*
X00518Y01688*
Y01665*
X00519Y01661*
X00521Y01657*
X00613Y01566*
Y01565*
X00614Y01559*
X00618Y01554*
X00623Y0155*
X00629Y01549*
X00635Y0155*
X00641Y01554*
X00644Y01559*
X00645Y01565*
X00644Y01571*
X00647Y01574*
X00648*
X00649*
X00655Y01575*
X00661Y01579*
X00664Y01584*
X00665Y01589*
X00666Y0159*
X00672Y01589*
X00679Y0159*
X00684Y01594*
X00687Y01599*
X00689Y01605*
Y01606*
X00692Y01609*
X00694*
X007Y0161*
X00706Y01614*
X00709Y01619*
X0071Y01625*
X00709Y01632*
X00706Y01637*
X007Y0164*
X00694Y01642*
X0062Y01715*
Y02314*
X00623Y02318*
X00624Y02319*
X00628Y02318*
X00635*
Y02309*
X00631Y02304*
X0063Y02297*
X00631Y02291*
X00635Y02286*
X0064Y02282*
X00646Y02281*
X00652Y02282*
X00658Y02286*
X00661Y02291*
X00662Y02297*
X00661Y02304*
X00658Y02309*
X00657*
Y02331*
X00662Y02333*
X00666Y0233*
X00672Y02329*
X00678Y0233*
X00684Y02334*
X00685Y02336*
X00686*
X0069Y0233*
X00686Y02325*
X00685Y02319*
X00686Y02313*
X0069Y02307*
X00695Y02304*
X00701Y02303*
X00707Y02304*
X00713Y02307*
X00716Y02313*
X00717Y02319*
X00716Y02325*
X00713Y0233*
X00712Y02331*
Y02393*
X00734Y02414*
X0074Y02415*
X00746Y02419*
X00749Y02424*
X0075Y0243*
X00749Y02437*
X00746Y02442*
X0074Y02445*
X00734Y02447*
X00728Y02445*
X00723Y02442*
X00719Y02437*
X00718Y0243*
X00693Y02405*
X00691Y02402*
X0069Y02397*
Y02356*
X00687Y02355*
X00683Y02358*
Y02405*
X00682Y02409*
X0068Y02413*
X00642Y0245*
Y02591*
X00657*
Y02647*
X00605*
Y02591*
X0062*
Y02447*
X00615Y02445*
X00568Y02492*
Y02525*
X00582*
Y02581*
X00531*
Y02525*
X00546*
Y02488*
Y02483*
X00549Y0248*
Y02479*
X00548Y02475*
X00462*
X00425Y02511*
Y02679*
X00426*
X00429Y02684*
X0043Y0269*
X00429Y02697*
X00426Y02702*
X0042Y02705*
X00414Y02707*
G37*
G36*
X03495Y02414D02*
X03474D01*
Y02391*
X03495*
Y02414*
G37*
G36*
X00779Y02416D02*
X00758D01*
Y02394*
X00779*
Y02416*
G37*
G36*
X03464Y02414D02*
X03443D01*
Y02391*
X03464*
Y02414*
G37*
G36*
X0081Y02384D02*
X00789D01*
Y02361*
X0081*
Y02384*
G37*
G36*
X01096Y02392D02*
X01075D01*
Y0237*
X01096*
Y02392*
G37*
G36*
X0081Y02416D02*
X00789D01*
Y02394*
X0081*
Y02416*
G37*
G36*
X00289D02*
X00267D01*
Y02396*
X00289*
Y02416*
G37*
G36*
X02119Y02529D02*
X02105Y02528D01*
X02086Y02524*
X02068Y02516*
X02051Y02506*
X02036Y02493*
X02023Y02478*
X02013Y02462*
X02006Y02444*
X02001Y02425*
X02Y0241*
X02119*
Y02529*
G37*
G36*
X00257Y02416D02*
X00234D01*
Y02396*
X00257*
Y02416*
G37*
G36*
X02574Y02425D02*
X02544D01*
X02545Y02421*
X02548Y02412*
X02554Y02405*
X02561Y02399*
X0257Y02396*
X02574Y02395*
Y02425*
G37*
G36*
X02614D02*
X02584D01*
Y02395*
X02588Y02396*
X02597Y02399*
X02604Y02405*
X0261Y02412*
X02614Y02421*
Y02425*
G37*
G36*
X00759Y02511D02*
X00753Y02509D01*
X00748Y02506*
X00744Y02501*
X00743Y02494*
X00744Y02488*
X00748Y02483*
X00753Y02479*
X00759Y02478*
X00765Y02479*
X00771Y02483*
X00774Y02488*
X00775Y02494*
X00774Y02501*
X00771Y02506*
X00765Y02509*
X00759Y02511*
G37*
G36*
X02379Y02638D02*
X02335D01*
Y02597*
X02379*
Y02638*
G37*
G36*
X02433D02*
X02389D01*
Y02597*
X02433*
Y02638*
G37*
G36*
X00572Y02783D02*
X00542D01*
Y02743*
X00546*
Y02647*
X00531*
Y02592*
X00582*
Y02647*
X00568*
Y02743*
X00572*
Y02783*
G37*
G36*
X02091D02*
X02062D01*
Y02743*
X02065*
Y02662*
X01954Y02552*
X01469*
X01468Y02551*
X01465Y02556*
X01484Y02574*
X01939*
X01943Y02575*
X01947Y02577*
X0201Y0264*
X02012Y02644*
X02013Y02648*
Y02743*
X02017*
Y02783*
X01987*
Y02743*
X01991*
Y02653*
X01934Y02597*
X01479*
X01478Y02596*
X01475Y02601*
X01604Y0273*
X01607Y02733*
X01608Y02738*
Y02743*
X01611*
Y02783*
X01582*
Y02743*
Y0274*
X01577Y02738*
X01575Y02739*
Y0274*
X01574Y02747*
Y02783*
X01544*
Y02747*
X01543Y0274*
X01544Y02734*
X01548Y02729*
X01553Y02725*
X01559Y02724*
X0156*
X01563Y0272*
X01537Y02694*
X01533Y02696*
Y02698*
Y02743*
X01537*
Y02783*
X01507*
Y02743*
X01511*
Y02703*
X01299Y02492*
X01121*
X01115Y02495*
X01109Y02497*
X01103Y02495*
X01098Y02492*
X01094Y02487*
X01093Y0248*
X01094Y02474*
X01096Y02471*
X01094Y02467*
X0105*
Y0247*
Y0249*
X00995*
Y0247*
Y02469*
X00993Y02467*
X00989Y02462*
X00988Y02455*
X00989Y02449*
X00993Y02444*
X00998Y0244*
X00999*
X01004Y02437*
X01003Y0243*
Y02426*
X00993*
Y02371*
X01044*
Y0237*
X01065*
Y02392*
X01045*
Y02426*
X01035*
Y0243*
X01034Y02437*
X01031Y02442*
Y02444*
X0118*
X01181Y02439*
X01178Y02437*
X01174Y02432*
X01173Y02425*
X01174Y02419*
X01178Y02414*
X01183Y0241*
X01189Y02409*
X0119Y02403*
X01189Y02402*
X01188Y02395*
X01189Y02389*
X01193Y02384*
X01198Y0238*
X01204Y02379*
X0121Y0238*
X01216Y02384*
X01324*
X01328Y02385*
X01332Y02387*
X01474Y02529*
X01959*
X01963Y0253*
X01967Y02532*
X02084Y0265*
X02087Y02653*
X02088Y02658*
Y02743*
X02091*
Y02783*
G37*
G36*
X01126D02*
X01097D01*
Y02743*
X011*
Y02627*
X01044Y02572*
X00736*
X0073Y02575*
X00724Y02577*
X00727Y02579*
X00989*
X00993Y0258*
X00997Y02582*
X01045Y0263*
X01047Y02634*
X01048Y02638*
Y02743*
X01052*
Y02783*
X01022*
Y02743*
X01026*
Y02643*
X00984Y02602*
X00709*
X00705Y02601*
X00701Y02598*
X00686Y02583*
X00684Y0258*
X00683Y02575*
Y02572*
X00679Y02567*
X00678Y0256*
X00679Y02554*
X00683Y02549*
X00688Y02545*
X00694Y02544*
X007Y02545*
X00706Y02549*
X00707Y0255*
X00712*
X00713Y02549*
X00718Y02545*
X00724Y02544*
X0073Y02545*
X00736Y02549*
X01049*
X01053Y0255*
X01057Y02552*
X01119Y02615*
X01122Y02618*
X01123Y02623*
Y02743*
X01126*
Y02783*
G37*
G36*
X02759Y02643D02*
X02715D01*
Y02602*
X02759*
Y02643*
G37*
G36*
X01324Y02722D02*
X01318Y0272D01*
X01313Y02717*
X01309Y02712*
X01308Y02705*
X01309Y02699*
X01313Y02694*
Y02642*
X01309Y02637*
X01308Y0263*
X01309Y02624*
X01313Y02619*
X01318Y02615*
X01324Y02614*
X0133Y02615*
X01336Y02619*
X01339Y02624*
X0134Y0263*
X01339Y02637*
X01336Y02642*
X01335*
Y02694*
X01336*
X01339Y02699*
X0134Y02705*
X01339Y02712*
X01336Y02717*
X0133Y0272*
X01324Y02722*
G37*
G36*
X01804D02*
X01798Y0272D01*
X01793Y02717*
X01789Y02712*
X01788Y02705*
X01789Y02699*
X01793Y02694*
Y02642*
X01789Y02637*
X01788Y0263*
X01789Y02624*
X01793Y02619*
X01798Y02615*
X01804Y02614*
X0181Y02615*
X01816Y02619*
X01819Y02624*
X0182Y0263*
X01819Y02637*
X01816Y02642*
X01815*
Y02694*
X01816*
X01819Y02699*
X0182Y02705*
X01819Y02712*
X01816Y02717*
X0181Y0272*
X01804Y02722*
G37*
G36*
X03893Y02664D02*
X03849D01*
Y02612*
X03893*
Y02664*
G37*
G36*
X02813Y02643D02*
X02769D01*
Y02602*
X02813*
Y02643*
G37*
G36*
X03839Y02664D02*
X03795D01*
Y02612*
X03839*
Y02664*
G37*
G36*
X03893Y02602D02*
X03849D01*
Y02549*
X03893*
Y02602*
G37*
G36*
X00853Y02521D02*
X00831D01*
Y025*
X00853*
Y02521*
G37*
G36*
X01018D02*
X00995D01*
Y025*
X01018*
Y02521*
G37*
G36*
X0105D02*
X01028D01*
Y025*
X0105*
Y02521*
G37*
G36*
X01523Y02515D02*
X01517Y02513D01*
X01512Y0251*
X01508Y02505*
X01507Y02498*
X01508Y02492*
X01512Y02487*
X01517Y02483*
X01523Y02482*
X01529Y02483*
X01535Y02487*
X01538Y02492*
X01539Y02498*
X01538Y02505*
X01535Y0251*
X01529Y02513*
X01523Y02515*
G37*
G36*
X01695Y02516D02*
X01689Y02514D01*
X01684Y02511*
X0168Y02506*
X01679Y02499*
X0168Y02493*
X01684Y02488*
X01689Y02484*
X01695Y02483*
X01701Y02484*
X01707Y02488*
X0171Y02493*
X01711Y02499*
X0171Y02506*
X01707Y02511*
X01701Y02514*
X01695Y02516*
G37*
G36*
X00821Y02521D02*
X00798D01*
Y025*
X00821*
Y02521*
G37*
G36*
X02964Y02541D02*
X0292D01*
Y025*
X02964*
Y02541*
G37*
G36*
X00983Y02521D02*
X00928D01*
Y02511*
X0092*
Y02521*
X00865*
Y0247*
X0092*
Y02478*
X00928*
Y0247*
X00983*
Y02521*
G37*
G36*
X03839Y02602D02*
X03795D01*
Y02549*
X03839*
Y02602*
G37*
G36*
X03018Y02541D02*
X02974D01*
Y025*
X03018*
Y02541*
G37*
%LNholoboard-3*%
%LPD*%
G36*
X01879Y01843D02*
D01*
X01883Y01841*
X01885*
Y01837*
X01884Y01836*
X0179*
X01788Y0184*
X01794Y01845*
X018Y01852*
X01804Y01861*
X01805Y0187*
X01804Y0188*
X018Y01888*
X01794Y01896*
X01787Y01901*
X01778Y01905*
X01817*
X01879Y01843*
G37*
G36*
X03203Y01564D02*
X03201Y01563D01*
X03015Y01378*
X02908*
X02907Y01382*
X03094Y01569*
X03201*
X03203Y01564*
G37*
G36*
X01712Y02013D02*
D01*
X01716Y02011*
X0172Y0201*
X01761*
Y02005*
X0176*
X01751Y02001*
X01744Y01996*
X01738Y01988*
X01735Y0198*
X01733Y0197*
X01735Y01961*
X01738Y01952*
X01744Y01945*
X01751Y01939*
X0176Y01936*
X01769Y01934*
X01778Y01936*
X01787Y01939*
X01794Y01945*
X018Y01952*
X01804Y01961*
X01805Y0197*
X01804Y0198*
X018Y01988*
X01794Y01996*
X01787Y02001*
X01778Y02005*
X01777*
Y0201*
X01839*
X01982Y01867*
X01981Y01863*
X01892*
X0183Y01924*
X01826Y01927*
X01822Y01928*
X01742*
X01541Y02128*
X01542Y0213*
X01595*
X01712Y02013*
G37*
G36*
X01729Y01908D02*
D01*
X01733Y01906*
X01737Y01905*
X01748*
X0175Y019*
X01744Y01896*
X01738Y01888*
X01735Y0188*
X01733Y0187*
X01735Y01861*
X01738Y01852*
X01739*
X01735Y01849*
X01477Y02106*
X01473Y02109*
X01528*
X01729Y01908*
G37*
G54D10*
X00262Y02421D03*
X00195D03*
X01835Y01369D03*
X01768D03*
X03173Y00205D03*
X03106D03*
X03173Y00305D03*
X03106D03*
X01446Y0079D03*
X01379D03*
X02346D03*
X02279D03*
X02796D03*
X02729D03*
X01053Y01985D03*
X00986D03*
X01131Y0205D03*
X01198D03*
X01379Y01822D03*
X01312D03*
X00769Y01303D03*
X00836D03*
X00766Y01799D03*
X00833D03*
X00736Y02256D03*
X00803D03*
X01023Y02495D03*
X00956D03*
X00994Y02215D03*
X00927D03*
X00826Y02495D03*
X00893D03*
X03001Y0079D03*
X02934D03*
X01896D03*
X01829D03*
X02102D03*
X02035D03*
X01651D03*
X01584D03*
X00996D03*
X00929D03*
X01206D03*
X01139D03*
X02551D03*
X02484D03*
X03503Y03355D03*
X03436D03*
X02936Y00545D03*
X03003D03*
X02731D03*
X02798D03*
X01141D03*
X01208D03*
X02486D03*
X02553D03*
X02281D03*
X02348D03*
X02036D03*
X02103D03*
X01831D03*
X01898D03*
X01586D03*
X01653D03*
X01381D03*
X01448D03*
X00931D03*
X00998D03*
G54D11*
X02769Y01289D03*
Y01222D03*
X02674Y01289D03*
Y01222D03*
X02579Y01289D03*
Y01222D03*
X02769Y01472D03*
Y01539D03*
X02674Y01472D03*
Y01539D03*
X02579Y01472D03*
Y01539D03*
X01953Y01232D03*
Y01299D03*
X03209Y00557D03*
Y00624D03*
X03144Y00407D03*
Y00474D03*
X03464Y01307D03*
Y01374D03*
X03474Y00507D03*
Y00574D03*
X00939Y03089D03*
Y03022D03*
X01379Y01637D03*
Y01704D03*
X01049Y01889D03*
Y01822D03*
X0099Y01938D03*
Y01871D03*
X01219Y01888D03*
Y01821D03*
X00885Y01924D03*
Y01857D03*
X01112Y01889D03*
Y01822D03*
X01355Y01279D03*
Y01346D03*
X00784Y02389D03*
Y02322D03*
X00964Y0233D03*
Y02263D03*
X0107Y02365D03*
Y02298D03*
X02769Y03119D03*
Y03052D03*
X03469Y02419D03*
Y02352D03*
X00464Y03094D03*
Y03027D03*
X01424Y03089D03*
Y03022D03*
X01904Y03027D03*
Y03094D03*
X01019Y02332D03*
Y02399D03*
X00557Y02553D03*
Y0262D03*
X00631Y02619D03*
Y02686D03*
G54D23*
X02764Y02293D03*
Y0243D03*
Y02648D03*
Y02785D03*
X02969Y02495D03*
Y02358D03*
X02264Y0319D03*
Y03053D03*
X02384Y0243D03*
Y02293D03*
Y0278D03*
Y02643D03*
G54D27*
X01706Y01627D02*
X01912D01*
X01382Y01951D02*
X01706Y01627D01*
X01075Y01951D02*
X01382D01*
X01677Y01597D02*
X01912D01*
X01574Y017D02*
X01677Y01597D01*
X01484Y017D02*
X01574D01*
X01211Y01888D02*
X01219Y01895D01*
X01594Y01482D02*
Y01524D01*
X01595Y01525*
X0157Y01284D02*
Y01584D01*
Y01284D02*
X01726Y01128D01*
X01616Y01321D02*
Y01591D01*
X01546Y01661D02*
X01616Y01591D01*
X01594Y01526D02*
Y01533D01*
Y01526D02*
X01595Y01525D01*
X01616Y01321D02*
X01732Y01205D01*
X00768Y0212D02*
X01533D01*
X00704Y02056D02*
X00768Y0212D01*
X01379Y01822D02*
X01382Y01819D01*
X01411*
X02369Y01125D02*
Y01284D01*
X02316Y01337D02*
X02369Y01284D01*
X02157Y01337D02*
X02316D01*
X021Y01394D02*
X02157Y01337D01*
X021Y01394D02*
Y01616D01*
X02058Y01658D02*
X021Y01616D01*
X01923Y01658D02*
X02058D01*
X01912Y01648D02*
X01923Y01658D01*
X01912Y01627D02*
Y01648D01*
X02081Y01679D02*
X02152Y01608D01*
X01711Y01679D02*
X02081D01*
X0155Y0184D02*
X01711Y01679D01*
X01729Y01696D02*
X02168D01*
X01585Y0184D02*
X01729Y01696D01*
X02168D02*
X02252Y01612D01*
X0175Y01713D02*
X02251D01*
X01623Y01841D02*
X0175Y01713D01*
X02251D02*
X02354Y0161D01*
X01445Y01364D02*
Y01602D01*
X01383Y017D02*
X01484D01*
X01049Y01925D02*
X01075Y01951D01*
X01049Y01925D02*
D01*
Y01894D02*
Y01925D01*
X01169Y01017D02*
X01339Y00847D01*
Y0074D02*
Y00847D01*
Y0074D02*
X0138Y00699D01*
X01139Y01012D02*
X01314Y00837D01*
Y00726D02*
Y00837D01*
Y00726D02*
X01368Y00672D01*
X01109Y0101D02*
X01289Y0083D01*
Y00713D02*
Y0083D01*
Y00713D02*
X01359Y00643D01*
X01079Y01007D02*
X01264Y00822D01*
Y00701D02*
Y00822D01*
Y00701D02*
X01351Y00614D01*
X02769Y01539D02*
X02803D01*
X02579D02*
X02613D01*
X02674D02*
X02708D01*
X02803Y01215D02*
X02804Y01217D01*
X02769Y01215D02*
X02803D01*
X02708D02*
X02709Y01217D01*
X02674Y01215D02*
X02708D01*
X02613D02*
X02614Y01217D01*
X02579Y01215D02*
X02613D01*
X01876Y01075D02*
Y01181D01*
X01852Y01205D02*
X01876Y01181D01*
X01732Y01205D02*
X01852D01*
X01485Y01662D02*
X01486Y01661D01*
X01519Y01635D02*
X0157Y01584D01*
X01486Y01635D02*
X01519D01*
X01486Y01661D02*
X01546D01*
X01726Y01075D02*
Y01128D01*
X01477Y01322D02*
Y01321D01*
Y01322D02*
Y01445D01*
X01521Y01373D02*
Y01424D01*
X02052Y01549D02*
Y01603D01*
X02028Y01627D02*
X02052Y01603D01*
X01952Y01627D02*
X02028D01*
X02152Y01549D02*
Y01608D01*
X02252Y01549D02*
Y01612D01*
X02354Y01549D02*
Y0161D01*
X01952Y01591D02*
D01*
Y01549D02*
Y01591D01*
X01219Y01895D02*
Y01927D01*
X01988Y01851D02*
X02069Y0177D01*
X01887Y01851D02*
X01988D01*
X01915Y01824D02*
X01969Y0177D01*
X01743Y01824D02*
X01915D01*
X01469Y02098D02*
X01743Y01824D01*
X0081Y02098D02*
X01469D01*
X01727Y0177D02*
X01869D01*
X01433Y02064D02*
X01727Y0177D01*
X01756Y02159D02*
X01945Y0197D01*
X00774Y02171D02*
X00786Y02159D01*
X016Y02141D02*
X0172Y02021D01*
X00735Y02125D02*
X00751Y02141D01*
X01533Y0212D02*
X01737Y01916D01*
X00709Y01997D02*
X0081Y02098D01*
X00709Y01679D02*
Y01997D01*
X01737Y01916D02*
X01822D01*
X01887Y01851*
X0172Y02021D02*
X01844D01*
X01945Y0197D02*
X02169D01*
X01995Y0187D02*
X02169D01*
X01844Y02021D02*
X01995Y0187D01*
X00609Y0171D02*
X00694Y01625D01*
X00584Y01694D02*
X00672Y01605D01*
X00554Y01685D02*
X00649Y0159D01*
X00529Y01665D02*
X00629Y01565D01*
X01522Y02698D02*
Y02763D01*
X01304Y0248D02*
X01522Y02698D01*
X01109Y0248D02*
X01304D01*
X01324Y02395D02*
X01469Y0254D01*
X01204Y02395D02*
X01324D01*
X01469Y0254D02*
X01959D01*
X02077Y02658*
Y02763*
X02002Y02648D02*
Y02763D01*
X01939Y02585D02*
X02002Y02648D01*
X01479Y02585D02*
X01939D01*
X01319Y02425D02*
X01479Y02585D01*
X01189Y02425D02*
X01319D01*
X01597Y02738D02*
Y02763D01*
X01314Y02455D02*
X01597Y02738D01*
X01004Y02455D02*
X01314D01*
X01854Y0263D02*
Y02705D01*
X01804Y0263D02*
Y02705D01*
X01374Y02635D02*
Y02705D01*
X01324Y0263D02*
Y02705D01*
X01037Y02638D02*
Y02763D01*
X01112Y02623D02*
Y02763D01*
X00889Y0265D02*
Y0273D01*
X00874Y02635D02*
X00889Y0265D01*
X00834Y02635D02*
Y0273D01*
X00557Y0262D02*
Y02763D01*
X03054Y00225D02*
X03074Y00205D01*
X03106*
X00724Y0256D02*
X01049D01*
X01112Y02623*
X00694Y02561D02*
Y02575D01*
X00709Y0259*
X00989*
X01037Y02638*
X00632Y02445D02*
X00672Y02405D01*
Y02345D02*
Y02405D01*
X00646Y02297D02*
Y02398D01*
X00632Y02763D02*
X00633Y02765D01*
X01274Y02295D02*
X01277Y02293D01*
X02317Y0189D02*
X02409D01*
X01269Y01278D02*
X0127D01*
X01049Y01955D02*
Y01982D01*
X01099Y0205D02*
X01101Y02049D01*
X01099Y0205D02*
X01133D01*
X01134Y02049*
X03054Y00225D02*
Y00564D01*
X03106Y00305D02*
Y00561D01*
X03144Y00474D02*
Y00572D01*
X03004Y00614D02*
X03054Y00564D01*
X03209Y00624D02*
Y00655D01*
X03165Y00699D02*
X03209Y00655D01*
X0138Y00699D02*
X03165D01*
X01351Y00614D02*
X03004D01*
X01368Y00672D02*
X03044D01*
X03144Y00572*
X01359Y00643D02*
X03024D01*
X03106Y00561*
X00929Y0079D02*
Y00829D01*
X00928D02*
X00929D01*
X01139Y0079D02*
Y00829D01*
X01379Y0079D02*
Y00829D01*
X01584Y0079D02*
Y00829D01*
X01829Y0079D02*
Y00829D01*
X02035Y0079D02*
Y00829D01*
X02279Y0079D02*
Y00829D01*
X02484Y0079D02*
Y00829D01*
X02729Y0079D02*
Y00829D01*
X02934Y0079D02*
Y00829D01*
X01079Y01007D02*
Y0114D01*
X01109Y0101D02*
Y0114D01*
X01139Y01012D02*
Y0114D01*
X01169Y01017D02*
Y0114D01*
X02881Y00881D02*
X02933Y00829D01*
X01214Y01195D02*
X01226Y01207D01*
X01193Y01033D02*
Y01212D01*
X01214Y01233*
X01232*
X01214Y01058D02*
Y01195D01*
Y01058D02*
X01391Y00881D01*
X02881*
X01193Y01033D02*
X01369Y00857D01*
X027*
X02728Y00829*
X03244Y0148D02*
X03629D01*
X03109Y01345D02*
X03244Y0148D01*
X02674Y01345D02*
X03109D01*
X02769Y0139D02*
Y01395D01*
X03361Y01667D02*
Y0175D01*
X02769Y0139D02*
X02899D01*
X03089Y0158*
X03274D02*
X03361Y01667D01*
X03089Y0158D02*
X03274D01*
X0376Y01642D02*
Y01735D01*
X03674Y01555D02*
X0376Y01642D01*
X03209Y01555D02*
X03674D01*
X02605Y01366D02*
X0302D01*
X02579Y0134D02*
X02605Y01366D01*
X0302D02*
X03209Y01555D01*
X02532Y01373D02*
X02579Y0142D01*
X02532Y00999D02*
Y01373D01*
Y00999D02*
X02558Y00974D01*
X01112Y01889D02*
Y01928D01*
X01114Y0193*
X01787Y0218D02*
X01896Y02071D01*
X02168*
X00883Y0218D02*
X01787D01*
X00751Y02141D02*
X016D01*
X00786Y02161D02*
X01756D01*
X00824Y02195D02*
X00868D01*
X00883Y0218*
X00194Y02422D02*
Y02465D01*
X00557Y02488D02*
Y02553D01*
Y02488D02*
X00646Y02398D01*
X00632Y02686D02*
Y02763D01*
X00631Y02446D02*
Y02619D01*
X00244Y02565D02*
X00281D01*
X00414Y02506D02*
Y0269D01*
X00363Y02516D02*
X00432Y02447D01*
X0054*
X00414Y02506D02*
X00457Y02463D01*
X00551*
X00623Y02391*
X00281Y02565D02*
X00417Y02429D01*
X00528*
X00628Y02329*
X00645*
X00564Y02363D02*
X00609Y02318D01*
Y0171D02*
Y02318D01*
X0053Y02364D02*
X00584Y02309D01*
Y01694D02*
Y02309D01*
X00494Y02363D02*
X00554Y02303D01*
Y01685D02*
Y02303D01*
X00461Y02363D02*
X00529Y02294D01*
Y01665D02*
Y02294D01*
X00701Y02319D02*
Y02397D01*
X00734Y0243*
X00804Y02254D02*
X00806Y02255D01*
X00778Y0232D02*
X00784Y02327D01*
G54D28*
X02384Y02425D02*
X02389Y0243D01*
X0315Y02185D02*
Y02228D01*
X00936Y01938D02*
Y01975D01*
X00854Y02065D02*
X00921D01*
X01206Y0079D02*
X01239D01*
X00996D02*
X01029D01*
X01446D02*
X01479D01*
X01651D02*
X01684D01*
X01896D02*
X01929D01*
X02102D02*
X02135D01*
X02346D02*
X02379D01*
X02551D02*
X02584D01*
X02796D02*
X02829D01*
X03001D02*
X03034D01*
X03473Y00505D02*
X03474Y00507D01*
X03434Y00505D02*
X03473D01*
X03463Y01305D02*
X03464Y01307D01*
X03429Y01305D02*
X03463D01*
X01776Y01075D02*
X01777Y01076D01*
Y01127*
X01876Y013D02*
X01877Y01299D01*
X01953*
X01826Y01423D02*
X01852Y01449D01*
X01826Y013D02*
Y01423D01*
X01752Y01449D02*
X01776Y01425D01*
Y013D02*
Y01425D01*
X0099Y01938D02*
D01*
X00936D02*
X0099D01*
X00885Y01924D02*
X00887Y01922D01*
X00916*
X00924Y02218D02*
X00927Y02215D01*
X00924Y02218D02*
Y02255D01*
X01069Y02297D02*
X0107Y02298D01*
X01069Y02254D02*
Y02297D01*
X00759Y01385D02*
X00804D01*
X03008Y00119D02*
Y00545D01*
X02944Y00055D02*
X03008Y00119D01*
X02879Y00055D02*
X02944D01*
X02558Y00119D02*
Y00545D01*
X02494Y00055D02*
X02558Y00119D01*
X02429Y00055D02*
X02494D01*
X02489Y00547D02*
Y0058D01*
X02108Y00119D02*
Y00545D01*
X02044Y00055D02*
X02108Y00119D01*
X01979Y00055D02*
X02044D01*
X02039Y00547D02*
Y0058D01*
X01658Y00119D02*
Y00545D01*
X01594Y00055D02*
X01658Y00119D01*
X01529Y00055D02*
X01594D01*
X01589Y00547D02*
Y0058D01*
X01139Y00547D02*
Y0058D01*
X01079Y00055D02*
X01144D01*
X01208Y00119*
Y00545*
X02729Y00547D02*
Y0058D01*
X02879Y00355D02*
Y00515D01*
X02849Y00545D02*
X02879Y00515D01*
X02798Y00545D02*
X02849D01*
X02279Y00547D02*
Y0058D01*
X02429Y00355D02*
Y00515D01*
X02399Y00545D02*
X02429Y00515D01*
X02348Y00545D02*
X02399D01*
X01829Y00547D02*
Y0058D01*
X01979Y00355D02*
Y00515D01*
X01949Y00545D02*
X01979Y00515D01*
X01898Y00545D02*
X01949D01*
X01379Y00547D02*
Y0058D01*
X01529Y00355D02*
Y00515D01*
X01499Y00545D02*
X01529Y00515D01*
X01448Y00545D02*
X01499D01*
X00998D02*
X01049D01*
X01079Y00515*
Y00355D02*
Y00515D01*
X00929Y00547D02*
Y0058D01*
X02479Y02708D02*
Y0278D01*
X02769Y0296D02*
Y03052D01*
X03469Y02265D02*
Y02352D01*
X03173Y00205D02*
X03209D01*
X03173Y00305D02*
X03209D01*
X03146Y00405D02*
X03209D01*
Y00505D02*
Y00557D01*
X02649Y01865D02*
X02827D01*
X00749Y0232D02*
X00778D01*
X00806Y02255D02*
X00834D01*
X00924D02*
X00953D01*
X00954Y02254*
X01019Y02399D02*
Y0243D01*
X00924Y02495D02*
X00955D01*
X00956*
X00893D02*
X00924D01*
X00893D02*
D01*
X01133Y02254D02*
X01134Y02253D01*
X01199D02*
X01202Y02255D01*
X01069Y02254D02*
D01*
X01133*
X01277Y02255D02*
Y02293D01*
X02539Y01955D02*
Y02D01*
X02936Y00545D02*
Y00579D01*
X02935D02*
X02936D01*
X01325Y01278D02*
X01355D01*
Y01279*
X01269Y01278D02*
Y01315D01*
X01134Y02253D02*
X01199D01*
G54D30*
X00734Y018D02*
X00765D01*
X00766Y01799*
G54D32*
X02395Y02923D02*
X02455D01*
X03248Y02265D02*
X03344D01*
X03354Y0348D02*
X0345D01*
X02553Y0296D02*
X02644D01*
X01904Y0313D02*
Y0316D01*
Y03114D02*
Y0313D01*
X01424D02*
Y0316D01*
Y03114D02*
Y0313D01*
X00939D02*
Y0316D01*
Y03114D02*
Y0313D01*
X00464Y03135D02*
Y03165D01*
Y03119D02*
Y03135D01*
X03354Y03355D02*
X03436D01*
X00721Y01303D02*
X00769D01*
G54D33*
X02679Y0243D02*
X02764D01*
X02384Y0278D02*
X02479D01*
X02679D02*
X02759D01*
X03354Y03855D02*
X03446D01*
X03144Y0296D02*
Y03065D01*
X03354Y0298D02*
X03459D01*
X02269Y0296D02*
Y03048D01*
X02264Y03053D02*
X02269Y03048D01*
X03844Y02265D02*
Y0237D01*
X02969Y02265D02*
Y02358D01*
X02389Y0243D02*
X02479D01*
X00439Y00167D02*
Y00262D01*
Y00167D02*
X00444Y00162D01*
X00439Y00262D02*
X00497D01*
X00439Y00462D02*
Y00557D01*
X02894Y0296D02*
X03144D01*
X03594Y02265D02*
X03844D01*
X03354Y0298D02*
Y0323D01*
X02482Y0235D02*
Y02428D01*
X02479Y0243D02*
X02482Y02428D01*
G54D36*
X00603Y02383D02*
Y02385D01*
Y02383D02*
X00615Y02371D01*
X00617*
X00623Y02364*
X0054Y02447D02*
X00603Y02385D01*
X00185Y02343D02*
X00307D01*
X00147Y0238D02*
X00185Y02343D01*
X00164Y02515D02*
X00194D01*
X00147Y02498D02*
X00164Y02515D01*
X00147Y0238D02*
Y02498D01*
G54D37*
X01869Y0217D03*
X01969D03*
X02069D03*
X02169Y0207D03*
Y0197D03*
Y0187D03*
X02069Y0177D03*
X01969D03*
X01869D03*
X01769Y0187D03*
Y0197D03*
Y0207D03*
X00054Y0132D03*
X00154Y0127D03*
X00054Y0122D03*
X00154Y0117D03*
X02729Y02035D03*
X02827D03*
X02926D03*
X03024D03*
X00379Y0089D03*
X00479Y0084D03*
X00379Y0079D03*
X00479Y0074D03*
X00054Y0089D03*
X00154Y0084D03*
X00054Y0079D03*
X00154Y0074D03*
X00379Y0132D03*
X00479Y0127D03*
X00379Y0122D03*
X00479Y0117D03*
X00379Y0175D03*
X00479Y017D03*
X00379Y0165D03*
X00479Y016D03*
X00054Y0175D03*
X00154Y017D03*
X00054Y0165D03*
X00154Y016D03*
X00379Y0218D03*
X00479Y0213D03*
X00379Y0208D03*
X00479Y0203D03*
X00054Y0218D03*
X00154Y0213D03*
X00054Y0208D03*
X00154Y0203D03*
X02779Y00355D03*
X02829Y00455D03*
X02879Y00355D03*
X02929Y00455D03*
X02329Y00355D03*
X02379Y00455D03*
X02429Y00355D03*
X02479Y00455D03*
X01879Y00355D03*
X01929Y00455D03*
X01979Y00355D03*
X02029Y00455D03*
X01429Y00355D03*
X01479Y00455D03*
X01529Y00355D03*
X01579Y00455D03*
X00979Y00355D03*
X01029Y00455D03*
X01079Y00355D03*
X01129Y00455D03*
X02779Y00055D03*
X02829Y00155D03*
X02879Y00055D03*
X02929Y00155D03*
X02329Y00055D03*
X02379Y00155D03*
X02429Y00055D03*
X02479Y00155D03*
X01879Y00055D03*
X01929Y00155D03*
X01979Y00055D03*
X02029Y00155D03*
X01429Y00055D03*
X01479Y00155D03*
X01529Y00055D03*
X01579Y00155D03*
X00979Y00055D03*
X01029Y00155D03*
X01079Y00055D03*
X01129Y00155D03*
X03839Y01735D03*
X0376D03*
X03682D03*
X03459Y0175D03*
X03361D03*
X03262D03*
X03459Y02035D03*
X03361D03*
X03262D03*
X03682Y0202D03*
X0376D03*
X03839D03*
X02479Y0243D03*
X02579D03*
X02679D03*
X00439Y00262D03*
Y00362D03*
Y00462D03*
X02479Y0278D03*
X02579D03*
X02679D03*
X02469Y01125D03*
X02369D03*
X02069D03*
X02269D03*
X02169D03*
X02729Y0175D03*
X02827D03*
X02926D03*
X03024D03*
G54D38*
X03629Y0048D03*
Y0058D03*
X03879Y0048D03*
Y0058D03*
Y0008D03*
Y0018D03*
X03629Y0008D03*
Y0018D03*
X01479Y0112D03*
X01379D03*
X01579D03*
X02352Y01449D03*
X02452D03*
X02352Y01549D03*
X02252D03*
Y01449D03*
X02152Y01549D03*
Y01449D03*
X02052Y01549D03*
Y01449D03*
X01952Y01549D03*
Y01449D03*
X01852Y01549D03*
Y01449D03*
X01752Y01549D03*
Y01449D03*
X03629Y0138D03*
Y0128D03*
X03879Y0138D03*
Y0128D03*
Y0098D03*
Y0088D03*
X03629Y0098D03*
Y0088D03*
G54D39*
X03629Y0068D03*
X03879D03*
Y0028D03*
X03629D03*
Y0148D03*
X03879D03*
Y0108D03*
X03629D03*
G54D40*
X03739Y0331D03*
X02124Y02405D03*
X03354Y00815D03*
X00138Y03799D03*
Y00138D03*
G54D41*
X01089Y0343D03*
Y0333D03*
X00989Y0343D03*
Y0333D03*
X00889Y0343D03*
Y0333D03*
X00789Y0343D03*
X02054D03*
Y0333D03*
X01954Y0343D03*
Y0333D03*
X01854Y0343D03*
Y0333D03*
X01754Y0343D03*
X01574D03*
Y0333D03*
X01474Y0343D03*
Y0333D03*
X01374Y0343D03*
Y0333D03*
X01274Y0343D03*
X00614D03*
Y0333D03*
X00514Y0343D03*
Y0333D03*
X00414Y0343D03*
Y0333D03*
X00314Y0343D03*
G54D42*
X00789Y0333D03*
X01754D03*
X01274D03*
X00314D03*
G54D43*
X01279Y0112D03*
X02452Y01549D03*
G54D44*
X02689Y0362D03*
X02551D03*
X02413D03*
X02276D03*
X03139D03*
X03001D03*
G54D45*
X03354Y03855D03*
Y0348D03*
Y03355D03*
Y0323D03*
Y0298D03*
X03854Y03855D03*
Y0298D03*
X02269Y0296D03*
X02644D03*
X02769D03*
X02894D03*
X03144D03*
X02269Y0346D03*
X03144D03*
X02969Y02265D03*
X03344D03*
X03469D03*
X03594D03*
X03844D03*
X02969Y02765D03*
X03844D03*
G54D46*
X01969Y01125D03*
G54D47*
X00244Y02465D03*
X00194D03*
X00244Y02515D03*
X00194D03*
X00244Y02565D03*
X00194D03*
G54D48*
X02395Y02923D03*
X03725Y01335D03*
X03779Y00605D03*
X03754Y0038D03*
X03404Y00405D03*
X03419Y01205D03*
X02404Y0073D03*
X03304Y01455D03*
X02304Y01205D03*
X02104D03*
X02929Y01605D03*
X02409Y01725D03*
X02179Y0178D03*
X01629Y0198D03*
X02004Y02105D03*
X02054Y01905D03*
X01979Y02005D03*
X01904Y01905D03*
X02304Y0203D03*
X01704Y02405D03*
X03354Y0268D03*
X02529Y0383D03*
X02929Y03805D03*
X02179Y03755D03*
X01204Y0383D03*
X00379Y0378D03*
X00729Y03655D03*
X00129Y03405D03*
Y0288D03*
X00729Y0278D03*
X01204D03*
X01679D03*
X02154Y0293D03*
Y03105D03*
X01679Y0298D03*
Y0318D03*
X01179Y03005D03*
Y0318D03*
X00704D03*
Y03005D03*
X01904Y0233D03*
X01529Y02305D03*
X01354Y0223D03*
X00279Y01805D03*
X01279Y0178D03*
X01079D03*
X01179D03*
X00879D03*
X01279Y0148D03*
X01179Y01405D03*
X00979D03*
Y0178D03*
X01079Y01405D03*
X00879Y0148D03*
X00979D03*
X01079D03*
X01179D03*
X00879Y01555D03*
X00979D03*
X01079D03*
X01179D03*
X01279D03*
X00879Y0163D03*
X00979D03*
X01079D03*
X01179D03*
X01279D03*
Y01705D03*
X01179D03*
X01079D03*
X00979D03*
X00879D03*
X00754Y01005D03*
X00729Y0083D03*
X00804Y00305D03*
X00729Y00505D03*
X01004Y0073D03*
X01279Y0043D03*
X01254Y00255D03*
X01729Y00405D03*
X01704Y0023D03*
X01254Y00655D03*
X01554Y0073D03*
X01804D03*
X02854D03*
X02179Y0058D03*
X02154Y0028D03*
X02654D03*
X03729Y0013D03*
X03104Y00155D03*
X03354Y00355D03*
X03079Y00455D03*
X02904Y0093D03*
X03754Y00955D03*
X02729Y0113D03*
X03054Y01155D03*
X02879Y0123D03*
X02554Y0208D03*
X02629Y0168D03*
X02979Y01905D03*
X03779Y0158D03*
X03529Y01855D03*
X03354D03*
X03579Y0198D03*
X03404Y02155D03*
X02954Y03205D03*
X03629Y0248D03*
X03329Y02505D03*
X03604Y02655D03*
X03104Y0273D03*
X03329Y0283D03*
X03654Y03655D03*
X03379Y0368D03*
X02729Y03305D03*
X02454D03*
X02529Y0343D03*
X02879Y0353D03*
X02829Y03705D03*
X02504Y0373D03*
X01304Y0368D03*
X01829Y0358D03*
X02154Y03555D03*
X01804Y03755D03*
X01504Y03605D03*
X01029Y03705D03*
X00954Y0358D03*
X00454D03*
X00604Y0373D03*
X00229Y03605D03*
X00204Y03205D03*
X00229Y02955D03*
X00329Y02455D03*
X00204Y02705D03*
X00279Y02205D03*
X00254Y0198D03*
X00204Y01505D03*
X00404Y0153D03*
X00304Y01095D03*
X00254Y0063D03*
Y00405D03*
X03904Y0318D03*
Y0308D03*
Y0338D03*
Y0328D03*
Y0358D03*
Y0348D03*
Y0368D03*
Y0378D03*
Y0218D03*
Y0248D03*
Y0168D03*
Y0158D03*
Y0188D03*
Y0178D03*
Y0198D03*
Y0208D03*
Y0118D03*
Y0038D03*
Y0078D03*
X02054Y0003D03*
X01604D03*
X01704D03*
X01804D03*
X03579D03*
X03479D03*
X03279D03*
X03379D03*
X02979D03*
X03079D03*
X03179D03*
X02604D03*
X02504D03*
X02704D03*
X02154D03*
X02254D03*
X01154D03*
X01254D03*
X01354D03*
X00854D03*
X00754D03*
X00254D03*
X00354D03*
X00454D03*
X00554D03*
X00654D03*
X00029Y0043D03*
Y0033D03*
Y0063D03*
Y0053D03*
Y0368D03*
Y0358D03*
Y0338D03*
Y0348D03*
Y0318D03*
Y0308D03*
Y0328D03*
Y0268D03*
Y0248D03*
Y0258D03*
Y0288D03*
Y0278D03*
Y0298D03*
Y0158D03*
Y0138D03*
Y0148D03*
Y0203D03*
Y0193D03*
Y0183D03*
Y0228D03*
Y0238D03*
Y01155D03*
Y01055D03*
Y00955D03*
Y0073D03*
X03054Y03905D03*
X03254D03*
X03154D03*
X02954D03*
X02854D03*
X01554D03*
X01654D03*
X01854D03*
X01754D03*
X02054D03*
X02154D03*
X01954D03*
X02554D03*
X02754D03*
X02654D03*
X02354D03*
X02454D03*
X02254D03*
X01004D03*
X01204D03*
X01104D03*
X01404D03*
X01504D03*
X01304D03*
X00704D03*
X00904D03*
X00804D03*
X00504D03*
X00604D03*
X00404D03*
X00304D03*
X03571Y034D03*
X03592Y03802D03*
X03543Y03858D03*
X03643Y03861D03*
X03592Y03911D03*
X02733Y03117D03*
X02769Y03157D03*
X02804Y03118D03*
X02264Y03135D03*
X02324Y03189D03*
X02264Y03249D03*
X02205Y03189D03*
X02493Y02998D03*
X02415Y02997D03*
X02455Y03032D03*
X02551Y02744D03*
X02762Y02345D03*
X02968Y03037D03*
X03055Y03036D03*
X0301Y03073D03*
X03472Y03106D03*
X03431Y03149D03*
X03146Y0328D03*
X03505Y03443D03*
X03592Y03442D03*
X03502Y03315D03*
Y03386D03*
X03673Y0298D03*
X0374Y03063D03*
X03846Y02587D03*
X0376Y02654D03*
X03682Y02341D03*
X03721Y02384D03*
X03509Y02419D03*
X03469Y02457D03*
X03427Y02418D03*
X03153Y02376D03*
X03104Y02302D03*
X03192Y02301D03*
X02963Y02589D03*
X02327Y02621D03*
X02445Y02644D03*
X02593Y02706D03*
X02551Y02659D03*
X02764Y02703D03*
X02701Y02648D03*
X02824Y02647D03*
X02764Y02593D03*
X03034Y02495D03*
X02904Y02494D03*
X02969Y02436D03*
X02827Y0229D03*
X02764Y02228D03*
X02701Y02288D03*
X02599Y02347D03*
X0256Y02301D03*
X02445Y02289D03*
X02313Y02287D03*
X02488Y01812D03*
X02599Y01815D03*
X01902Y01166D03*
X01843Y01134D03*
X01952Y01196D03*
X02627Y01452D03*
X02722Y01469D03*
X02813Y01468D03*
Y01285D03*
X02722Y01286D03*
X02627Y01285D03*
X03421Y01005D03*
X03468Y0097D03*
X03515Y01004D03*
X0352Y00204D03*
X03473Y0017D03*
X03426Y00205D03*
X03417Y01356D03*
X0347Y01412D03*
X03515Y01355D03*
X0352Y00555D03*
X03475Y00612D03*
X03422Y00556D03*
X00573Y00309D03*
X00617Y00263D03*
X00571Y00219D03*
X00637Y00164D03*
X00526Y0016D03*
X00581Y00103D03*
X01389Y01317D03*
X01331Y01631D03*
X01969Y0299D03*
X01754Y0276D03*
X01904Y02985D03*
X02033Y02898D03*
X02109Y0285D03*
X01959D03*
X02026Y0299D03*
X01489D03*
X01274Y0276D03*
X01424Y02985D03*
X01553Y02898D03*
X01629Y0285D03*
X01479D03*
X01546Y0299D03*
X01004D03*
X00789Y0276D03*
X00939Y02985D03*
X01068Y02898D03*
X01144Y0285D03*
X00994D03*
X01061Y0299D03*
X00809Y02533D03*
X0106Y02495D03*
X01023Y02531D03*
X01018Y02299D03*
X01108Y02301D03*
X0101Y02252D03*
X00836Y0134D03*
X00801Y0127D03*
X0135Y01857D03*
X0131Y01782D03*
X01219Y01783D03*
X01262Y01818D03*
X01162D03*
X01112Y01782D03*
X01047D03*
X00989Y01829D03*
X00833Y01834D03*
Y01766D03*
X00884Y01816D03*
X00839Y01383D03*
X01319Y01343D03*
X0131Y01402D03*
X0127Y01354D03*
X01268Y01451D03*
X01226Y01401D03*
X00886Y01425D03*
X00934Y01384D03*
X00883Y01342D03*
X00577Y00626D03*
X00646Y00555D03*
X00576Y00483D03*
X01594Y01563D03*
X01829Y01853D03*
X03003Y01423D03*
X03113Y01531D03*
X01592Y01408D03*
X01545Y01443D03*
X01657Y01417D03*
X00504Y02234D03*
X00924Y02538D03*
X01559Y02563D03*
X01664Y02465D03*
X00714Y0165D03*
X01494Y01585D03*
X0083Y01985D03*
X01039Y02214D03*
X00186Y02371D03*
X00698Y02272D03*
X00715Y02455D03*
X01174Y0256D03*
X00724Y0263D03*
X00594Y0254D03*
X00584Y0299D03*
X00519Y0285D03*
X00669D03*
X00593Y02898D03*
X01829Y02908D03*
Y02967D03*
Y02938D03*
X01869D03*
X01789D03*
Y02967D03*
X01869D03*
Y02908D03*
X01789D03*
X01349D03*
Y02967D03*
Y02938D03*
X01389D03*
X01309D03*
Y02967D03*
X01389D03*
Y02908D03*
X01309D03*
X00389D03*
Y02967D03*
Y02938D03*
X00429D03*
X00349D03*
Y02967D03*
X00429D03*
Y02908D03*
X00349D03*
X00824D03*
X00904D03*
Y02967D03*
X00824D03*
Y02938D03*
X00904D03*
X00864D03*
Y02967D03*
Y02908D03*
X00464Y02985D03*
X00314Y0276D03*
X00529Y0299D03*
X01695Y02499D03*
X01523Y02498D03*
X03149Y02185D03*
X01693Y01929D03*
Y02008D03*
X01521Y01426D03*
X01594Y01482D03*
Y01533D03*
X01114Y0193D03*
X00734Y018D03*
X01411Y01819D03*
X01445Y01602D03*
Y01364D03*
X00854Y02065D03*
X01484Y017D03*
X01239Y0079D03*
X01029D03*
X01479D03*
X01684D03*
X01929D03*
X02135D03*
X02379D03*
X02584D03*
X02829D03*
X03034D03*
X03289Y00255D03*
Y00355D03*
Y00455D03*
Y00555D03*
X03284Y01355D03*
Y01255D03*
Y01155D03*
Y01055D03*
X03429D03*
X03434Y00255D03*
Y00505D03*
X03429Y01305D03*
X02804Y0154D03*
X02769Y0142D03*
X02804Y01217D03*
X02709D03*
X02614D03*
X02709Y0154D03*
X02614D03*
X02579Y0134D03*
X02674Y0142D03*
X02579D03*
X01486Y01635D03*
X01485Y01661D03*
X01777Y01127D03*
X00935Y01939D03*
X01477Y01321D03*
Y01445D03*
X01521Y01373D03*
X01623Y01841D03*
X0155Y0184D03*
X01585D03*
X01219Y01927D03*
X01433Y02064D03*
X00709Y01679D03*
X00697Y02049D03*
X00735Y02125D03*
X00774Y02171D03*
X00804Y01385D03*
X00694Y01625D03*
X00672Y01605D03*
X00649Y0159D03*
X00629Y01565D03*
X00564Y02363D03*
X00529D03*
X00494D03*
X00461D03*
X02489Y0058D03*
X02039D03*
X01589D03*
X01139D03*
X02729D03*
X02279D03*
X01829D03*
X01379D03*
X00929D03*
X01204Y02395D03*
X01189Y02425D03*
X01109Y0248D03*
X01004Y02455D03*
X01854Y02705D03*
X01804D03*
X01854Y0263D03*
X01804D03*
X01374Y02635D03*
X01019Y0243D03*
X01374Y02705D03*
X01324D03*
Y0263D03*
X00694Y0256D03*
X00724D03*
X00874Y02635D03*
X00834D03*
X00889Y0273D03*
X00834D03*
X00749Y0232D03*
X00414Y0269D03*
X00364D03*
X00464Y03165D03*
Y03105D03*
Y03135D03*
X00364Y03215D03*
Y031D03*
Y0319D03*
Y0316D03*
Y0313D03*
X00839Y03215D03*
Y031D03*
X00939Y0316D03*
Y031D03*
Y0313D03*
X00839Y0319D03*
Y0316D03*
Y0313D03*
X01324Y03215D03*
Y031D03*
X01424Y0316D03*
Y031D03*
Y0313D03*
X01324Y0319D03*
Y0316D03*
Y0313D03*
X01804D03*
Y0316D03*
Y0319D03*
X01904Y0313D03*
Y031D03*
Y0316D03*
X01804Y031D03*
Y03215D03*
X00594Y0274D03*
X01074D03*
X01559D03*
X02039D03*
X00623Y02364D03*
Y02391D03*
X03209Y00505D03*
Y00405D03*
Y00305D03*
Y00205D03*
X01169Y0114D03*
X01139D03*
X01109D03*
X01079D03*
X03549Y03555D03*
X00924Y02255D03*
Y02495D03*
X00734Y0243D03*
X02649Y01865D03*
X02827D03*
X00646Y02297D03*
X00672Y02345D03*
X00701Y02319D03*
X01069Y02254D03*
X01277Y02293D03*
X02317Y0189D03*
X02539Y02D03*
X02409Y0189D03*
X01269Y01315D03*
X01049Y01925D03*
Y01955D03*
X01099Y0205D03*
X01325Y01278D03*
X00928Y00829D03*
X01138D03*
X01378D03*
X01583D03*
X01828D03*
X02034D03*
X02278D03*
X02484D03*
X02728D03*
X02933D03*
X01226Y01207D03*
X01231Y01233D03*
X00916Y01922D03*
X02674Y01345D03*
X02769Y0139D03*
X02557Y00973D03*
X00719Y01305D03*
X00834Y02255D03*
X00829Y0232D03*
X00939D03*
Y0243D03*
X00829D03*
X00849Y0236D03*
Y0239D03*
X00919D03*
Y0236D03*
X00884Y02375D03*
X00869Y0241D03*
X00899D03*
Y0234D03*
X00869D03*
X02935Y00579D03*
X0374Y02894D03*
X03059Y03346D03*
X03228Y0335D03*
X00824Y02195D03*
X00677Y02215D03*
X00363Y02516D03*
X00307Y02343D03*
X00759Y02494D03*
X00789Y02497D03*
G54D49*
X03529Y03355D03*
X00993Y02496D03*
X01417Y01365D03*
G54D50*
X03248Y02265D03*
X0345Y0348D03*
X02553Y0296D03*
X0083Y0202D03*
G54D51*
X0315Y02303D03*
Y02228D03*
X03548Y03443D03*
Y03518D03*
X02455Y02998D03*
Y02923D03*
X00928Y01983D03*
Y02058D03*
G54D52*
X03456Y03855D03*
X03594D03*
X00444Y00162D03*
X00582D03*
X00439Y00557D03*
X00577D03*
G54D53*
X01324Y03161D03*
Y0298D03*
X00839Y03161D03*
Y0298D03*
X01804Y03161D03*
Y0298D03*
X00364D03*
Y03161D03*
G54D54*
X00759Y01385D03*
X00885D03*
G54D55*
X0127Y01278D03*
Y01404D03*
X02539Y01955D03*
Y01829D03*
G54D56*
X01143Y02258D03*
Y02333D03*
X03724Y02343D03*
Y02268D03*
X03009Y03038D03*
Y02963D03*
G54D57*
X01202Y02255D03*
X01277D03*
X02557Y0235D03*
X02482D03*
X00572Y00262D03*
X00497D03*
X02552Y02705D03*
X02477D03*
X03432Y03105D03*
X03357D03*
G54D58*
X01876Y01075D03*
X01826D03*
X01776D03*
X01726D03*
X01876Y013D03*
X01826D03*
X01776D03*
X01726D03*
G54D59*
X01912Y01627D03*
X01952D03*
X01912Y01597D03*
X01952D03*
G54D60*
X00557Y02763D03*
X00594D03*
X00632D03*
Y02858D03*
X00594D03*
X00557D03*
X02002Y02763D03*
X02039D03*
X02077D03*
Y02858D03*
X02039D03*
X02002D03*
X01522Y02763D03*
X01559D03*
X01597D03*
Y02858D03*
X01559D03*
X01522D03*
X01037Y02763D03*
X01074D03*
X01112D03*
Y02858D03*
X01074D03*
X01037D03*
G54D61*
X03695Y0298D03*
X03459D03*
G54D62*
X03144Y03302D03*
Y03065D03*
X03844Y02607D03*
Y0237D03*
G54D63*
X03548Y03518D02*
X03549Y03519D01*
Y03555*
G54D64*
X00557Y02858D02*
Y03188D01*
X00414Y0333D02*
X00557Y03188D01*
X00632Y02858D02*
Y03213D01*
X00514Y0333D02*
X00632Y03213D01*
X00994Y0333D02*
X01112Y03213D01*
Y02858D02*
Y03213D01*
X00894Y0333D02*
X01037Y03188D01*
Y02858D02*
Y03188D01*
X01479Y0333D02*
X01597Y03213D01*
Y02858D02*
Y03213D01*
X01379Y0333D02*
X01522Y03188D01*
Y02858D02*
Y03188D01*
X01959Y0333D02*
X02077Y03213D01*
Y02858D02*
Y03213D01*
X02002Y02858D02*
Y03188D01*
X01859Y0333D02*
X02002Y03188D01*
M02*