%FSTAX23Y23*%
%MOIN*%
%SFA1B1*%

%IPPOS*%
%ADD27C,0.010000*%
%ADD65C,0.008000*%
%ADD66C,0.010000*%
%ADD68C,0.002000*%
%ADD69C,0.005000*%
%LNholoboard-1*%
%LPD*%
G54D27*
X02709Y02293D02*
Y0243D01*
X02819Y02293D02*
Y0243D01*
X03444Y0141D02*
X03484D01*
X03454Y0061D02*
X03494D01*
X02709Y02648D02*
Y02785D01*
X02819Y02648D02*
Y02785D01*
X03456Y0391D02*
X03594D01*
X03456Y038D02*
X03594D01*
X00919Y03125D02*
X00959D01*
X01029Y01785D02*
X01069D01*
X00949Y01965D02*
Y02005D01*
X01234Y0203D02*
Y0207D01*
X0097Y01834D02*
X0101D01*
X01199Y01784D02*
X01239D01*
X00865Y0182D02*
X00905D01*
X01092Y01785D02*
X01132D01*
X01335Y01382D02*
X01375D01*
X01275Y01802D02*
Y01842D01*
X00872Y01283D02*
Y01323D01*
X00869Y01779D02*
Y01819D01*
X00699Y02236D02*
Y02276D01*
X01059Y02475D02*
Y02515D01*
X00764Y02425D02*
X00804D01*
X0103Y02195D02*
Y02235D01*
X00944Y02366D02*
X00984D01*
X0105Y02401D02*
X0109D01*
X00789Y02475D02*
Y02515D01*
X00444Y00217D02*
X00582D01*
X00444Y00106D02*
X00582D01*
X00439Y00612D02*
X00577D01*
X00439Y00501D02*
X00577D01*
X03024Y02358D02*
Y02495D01*
X02914Y02358D02*
Y02495D01*
X02319Y03053D02*
Y0319D01*
X02209Y03053D02*
Y0319D01*
X02439Y02293D02*
Y0243D01*
X02329Y02293D02*
Y0243D01*
X02439Y02643D02*
Y0278D01*
X02329Y02643D02*
Y0278D01*
X00444Y0313D02*
X00484D01*
X01404Y03125D02*
X01444D01*
X01884Y0313D02*
X01924D01*
X00999Y02295D02*
X01039D01*
X03459Y02917D02*
X03695D01*
X03459Y03043D02*
X03695D01*
X03207Y03065D02*
Y03302D01*
X03081Y03065D02*
Y03302D01*
X03907Y0237D02*
Y02607D01*
X03781Y0237D02*
Y02607D01*
G54D65*
X019Y01208D02*
D01*
X01898Y01207*
X01897Y01207*
X01895Y01207*
X01894Y01207*
X01892Y01206*
X01891Y01206*
X0189Y01205*
X01888Y01204*
X01887Y01203*
X01886Y01203*
X01885Y01202*
X01884Y01201*
X01883Y01199*
X01882Y01198*
X01881Y01197*
X01881Y01196*
X0188Y01194*
X0188Y01193*
X01879Y01192*
X01879Y0119*
X01879Y01189*
X01879Y01187*
Y01186*
X01879Y01184*
X01879Y01183*
X01879Y01181*
X0188Y0118*
X0188Y01179*
X01881Y01177*
X01881Y01176*
X01882Y01175*
X01883Y01174*
X01884Y01172*
X01885Y01171*
X01886Y0117*
X01887Y0117*
X01888Y01169*
X0189Y01168*
X01891Y01167*
X01892Y01167*
X01894Y01166*
X01895Y01166*
X01897Y01166*
X01898Y01166*
X019Y01166*
X00161Y0239D02*
Y02453D01*
X00295*
X00161Y0239D02*
X00295D01*
Y02453*
X02738Y01188D02*
X02801D01*
X02738D02*
Y01322D01*
X02801Y01188D02*
Y01322D01*
X02738D02*
X02801D01*
X02643Y01188D02*
X02706D01*
X02643D02*
Y01322D01*
X02706Y01188D02*
Y01322D01*
X02643D02*
X02706D01*
X02548Y01188D02*
X02611D01*
X02548D02*
Y01322D01*
X02611Y01188D02*
Y01322D01*
X02548D02*
X02611D01*
X02738Y01572D02*
X02801D01*
Y01438D02*
Y01572D01*
X02738Y01438D02*
Y01572D01*
Y01438D02*
X02801D01*
X02643Y01572D02*
X02706D01*
Y01438D02*
Y01572D01*
X02643Y01438D02*
Y01572D01*
Y01438D02*
X02706D01*
X02548Y01572D02*
X02611D01*
Y01438D02*
Y01572D01*
X02548Y01438D02*
Y01572D01*
Y01438D02*
X02611D01*
X01922Y01332D02*
X01985D01*
Y01198D02*
Y01332D01*
X01922Y01198D02*
Y01332D01*
Y01198D02*
X01985D01*
X01734Y01338D02*
Y01401D01*
X01868*
X01734Y01338D02*
X01868D01*
Y01401*
X03178Y00657D02*
X03241D01*
Y00523D02*
Y00657D01*
X03178Y00523D02*
Y00657D01*
Y00523D02*
X03241D01*
X03072Y00174D02*
Y00237D01*
X03206*
X03072Y00174D02*
X03206D01*
Y00237*
X03072Y00274D02*
Y00337D01*
X03206*
X03072Y00274D02*
X03206D01*
Y00337*
X03113Y00507D02*
X03176D01*
Y00373D02*
Y00507D01*
X03113Y00373D02*
Y00507D01*
Y00373D02*
X03176D01*
X01345Y00759D02*
Y00822D01*
X01479*
X01345Y00759D02*
X01479D01*
Y00822*
X02245Y00759D02*
Y00822D01*
X02379*
X02245Y00759D02*
X02379D01*
Y00822*
X02695Y00759D02*
Y00822D01*
X02829*
X02695Y00759D02*
X02829D01*
Y00822*
X03184Y02316D02*
X03248D01*
X03184Y02214D02*
X03248D01*
Y02232*
Y02299D02*
Y02316D01*
X0345Y03429D02*
X03514D01*
X0345Y03531D02*
X03514D01*
X0345Y03514D02*
Y03531D01*
Y03429D02*
Y03447D01*
X02489Y03011D02*
X02553D01*
X02489Y02909D02*
X02553D01*
Y02927*
Y02994D02*
Y03011D01*
X01348Y01737D02*
X01411D01*
Y01603D02*
Y01737D01*
X01348Y01603D02*
Y01737D01*
Y01603D02*
X01411D01*
X00759Y01417D02*
X00885D01*
X00759Y01354D02*
X00885D01*
X01238Y01278D02*
Y01404D01*
X01301Y01278D02*
Y01404D01*
X0083Y01969D02*
X00894D01*
X0083Y02071D02*
X00894D01*
X0083Y02054D02*
Y02071D01*
Y01969D02*
Y01987D01*
X01114Y0237D02*
X01173D01*
X01314Y02214D02*
Y02297D01*
X01164Y02214D02*
X01314D01*
X01164Y02297D02*
X01314D01*
X01164Y02214D02*
Y02297D01*
X019Y01124D02*
Y01166D01*
Y01208D02*
Y0125D01*
X01703Y01124D02*
Y0125D01*
Y01124D02*
X019D01*
X01703Y0125D02*
X019D01*
X02594Y02321D02*
Y0238D01*
X00609Y00232D02*
Y00291D01*
X02589Y02676D02*
Y02735D01*
X03695Y0238D02*
X03754D01*
X0298Y03075D02*
X03039D01*
X03469Y03076D02*
Y03135D01*
X029Y00759D02*
Y00822D01*
X03034*
X029Y00759D02*
X03034D01*
Y00822*
X01795Y00759D02*
Y00822D01*
X01929*
X01795Y00759D02*
X01929D01*
Y00822*
X02001Y00759D02*
Y00822D01*
X02135*
X02001Y00759D02*
X02135D01*
Y00822*
X0155Y00759D02*
Y00822D01*
X01684*
X0155Y00759D02*
X01684D01*
Y00822*
X00895Y00759D02*
Y00822D01*
X01029*
X00895Y00759D02*
X01029D01*
Y00822*
X01105Y00759D02*
Y00822D01*
X01239*
X01105Y00759D02*
X01239D01*
Y00822*
X0245Y00759D02*
Y00822D01*
X02584*
X0245Y00759D02*
X02584D01*
Y00822*
X02738Y03018D02*
X02801D01*
X02738D02*
Y03152D01*
X02801Y03018D02*
Y03152D01*
X02738D02*
X02801D01*
X03402Y03324D02*
Y03387D01*
X03536*
X03402Y03324D02*
X03536D01*
Y03387*
X03438Y02318D02*
X03501D01*
X03438D02*
Y02452D01*
X03501Y02318D02*
Y02452D01*
X03438D02*
X03501D01*
X03036Y00514D02*
Y00577D01*
X02902Y00514D02*
X03036D01*
X02902Y00577D02*
X03036D01*
X02902Y00514D02*
Y00577D01*
X02831Y00514D02*
Y00577D01*
X02697Y00514D02*
X02831D01*
X02697Y00577D02*
X02831D01*
X02697Y00514D02*
Y00577D01*
X01241Y00514D02*
Y00577D01*
X01107Y00514D02*
X01241D01*
X01107Y00577D02*
X01241D01*
X01107Y00514D02*
Y00577D01*
X02586Y00514D02*
Y00577D01*
X02452Y00514D02*
X02586D01*
X02452Y00577D02*
X02586D01*
X02452Y00514D02*
Y00577D01*
X02381Y00514D02*
Y00577D01*
X02247Y00514D02*
X02381D01*
X02247Y00577D02*
X02381D01*
X02247Y00514D02*
Y00577D01*
X02136Y00514D02*
Y00577D01*
X02002Y00514D02*
X02136D01*
X02002Y00577D02*
X02136D01*
X02002Y00514D02*
Y00577D01*
X01931Y00514D02*
Y00577D01*
X01797Y00514D02*
X01931D01*
X01797Y00577D02*
X01931D01*
X01797Y00514D02*
Y00577D01*
X01686Y00514D02*
Y00577D01*
X01552Y00514D02*
X01686D01*
X01552Y00577D02*
X01686D01*
X01552Y00514D02*
Y00577D01*
X01481Y00514D02*
Y00577D01*
X01347Y00514D02*
X01481D01*
X01347Y00577D02*
X01481D01*
X01347Y00514D02*
Y00577D01*
X01031Y00514D02*
Y00577D01*
X00897Y00514D02*
X01031D01*
X00897Y00577D02*
X01031D01*
X00897Y00514D02*
Y00577D01*
X00533Y02786D02*
X00655D01*
X00533Y02834D02*
X00655D01*
Y02786D02*
Y02834D01*
X00533Y02786D02*
Y02834D01*
X01978Y02786D02*
X021D01*
X01978Y02834D02*
X021D01*
Y02786D02*
Y02834D01*
X01978Y02786D02*
Y02834D01*
X01498Y02786D02*
X0162D01*
X01498Y02834D02*
X0162D01*
Y02786D02*
Y02834D01*
X01498Y02786D02*
Y02834D01*
X01013Y02786D02*
X01135D01*
X01013Y02834D02*
X01135D01*
Y02786D02*
Y02834D01*
X01013Y02786D02*
Y02834D01*
X02571Y01829D02*
Y01955D01*
X02508Y01829D02*
Y01955D01*
X00525Y02653D02*
X00588D01*
Y02519D02*
Y02653D01*
X00525Y02519D02*
Y02653D01*
Y02519D02*
X00588D01*
X006Y02719D02*
X00663D01*
Y02585D02*
Y02719D01*
X006Y02585D02*
Y02719D01*
Y02585D02*
X00663D01*
G54D66*
X03155Y02189D02*
D01*
X03154Y02189*
X03154Y02189*
X03154Y0219*
X03154Y0219*
X03154Y0219*
X03154Y02191*
X03154Y02191*
X03154Y02191*
X03154Y02191*
X03153Y02192*
X03153Y02192*
X03153Y02192*
X03153Y02192*
X03152Y02193*
X03152Y02193*
X03152Y02193*
X03151Y02193*
X03151Y02193*
X03151Y02193*
X0315Y02193*
X0315Y02193*
X0315Y02193*
X03149*
X03149Y02193*
X03149Y02193*
X03148Y02193*
X03148Y02193*
X03148Y02193*
X03147Y02193*
X03147Y02193*
X03147Y02193*
X03146Y02192*
X03146Y02192*
X03146Y02192*
X03146Y02192*
X03145Y02191*
X03145Y02191*
X03145Y02191*
X03145Y02191*
X03145Y0219*
X03145Y0219*
X03145Y0219*
X03145Y02189*
X03145Y02189*
X03145Y02189*
X03145Y02188*
X03145Y02188*
X03145Y02187*
X03145Y02187*
X03145Y02187*
X03145Y02186*
X03145Y02186*
X03145Y02186*
X03145Y02186*
X03146Y02185*
X03146Y02185*
X03146Y02185*
X03146Y02185*
X03147Y02184*
X03147Y02184*
X03147Y02184*
X03148Y02184*
X03148Y02184*
X03148Y02184*
X03149Y02184*
X03149Y02184*
X03149Y02184*
X0315*
X0315Y02184*
X0315Y02184*
X03151Y02184*
X03151Y02184*
X03151Y02184*
X03152Y02184*
X03152Y02184*
X03152Y02184*
X03153Y02185*
X03153Y02185*
X03153Y02185*
X03153Y02185*
X03154Y02186*
X03154Y02186*
X03154Y02186*
X03154Y02186*
X03154Y02187*
X03154Y02187*
X03154Y02187*
X03154Y02188*
X03154Y02188*
X03155Y02189*
X03553Y03557D02*
D01*
X03552Y03557*
X03552Y03557*
X03552Y03558*
X03552Y03558*
X03552Y03558*
X03552Y03559*
X03552Y03559*
X03552Y03559*
X03552Y03559*
X03551Y0356*
X03551Y0356*
X03551Y0356*
X03551Y0356*
X0355Y03561*
X0355Y03561*
X0355Y03561*
X03549Y03561*
X03549Y03561*
X03549Y03561*
X03548Y03561*
X03548Y03561*
X03548Y03561*
X03547*
X03547Y03561*
X03547Y03561*
X03546Y03561*
X03546Y03561*
X03546Y03561*
X03545Y03561*
X03545Y03561*
X03545Y03561*
X03544Y0356*
X03544Y0356*
X03544Y0356*
X03544Y0356*
X03543Y03559*
X03543Y03559*
X03543Y03559*
X03543Y03559*
X03543Y03558*
X03543Y03558*
X03543Y03558*
X03543Y03557*
X03543Y03557*
X03543Y03557*
X03543Y03556*
X03543Y03556*
X03543Y03555*
X03543Y03555*
X03543Y03555*
X03543Y03554*
X03543Y03554*
X03543Y03554*
X03543Y03554*
X03544Y03553*
X03544Y03553*
X03544Y03553*
X03544Y03553*
X03545Y03552*
X03545Y03552*
X03545Y03552*
X03546Y03552*
X03546Y03552*
X03546Y03552*
X03547Y03552*
X03547Y03552*
X03547Y03552*
X03548*
X03548Y03552*
X03548Y03552*
X03549Y03552*
X03549Y03552*
X03549Y03552*
X0355Y03552*
X0355Y03552*
X0355Y03552*
X03551Y03553*
X03551Y03553*
X03551Y03553*
X03551Y03553*
X03552Y03554*
X03552Y03554*
X03552Y03554*
X03552Y03554*
X03552Y03555*
X03552Y03555*
X03552Y03555*
X03552Y03556*
X03552Y03556*
X03553Y03557*
X0246Y02884D02*
D01*
X02459Y02884*
X02459Y02884*
X02459Y02885*
X02459Y02885*
X02459Y02885*
X02459Y02886*
X02459Y02886*
X02459Y02886*
X02459Y02886*
X02458Y02887*
X02458Y02887*
X02458Y02887*
X02458Y02887*
X02457Y02888*
X02457Y02888*
X02457Y02888*
X02456Y02888*
X02456Y02888*
X02456Y02888*
X02455Y02888*
X02455Y02888*
X02455Y02888*
X02454*
X02454Y02888*
X02454Y02888*
X02453Y02888*
X02453Y02888*
X02453Y02888*
X02452Y02888*
X02452Y02888*
X02452Y02888*
X02451Y02887*
X02451Y02887*
X02451Y02887*
X02451Y02887*
X0245Y02886*
X0245Y02886*
X0245Y02886*
X0245Y02886*
X0245Y02885*
X0245Y02885*
X0245Y02885*
X0245Y02884*
X0245Y02884*
X0245Y02884*
X0245Y02883*
X0245Y02883*
X0245Y02882*
X0245Y02882*
X0245Y02882*
X0245Y02881*
X0245Y02881*
X0245Y02881*
X0245Y02881*
X02451Y0288*
X02451Y0288*
X02451Y0288*
X02451Y0288*
X02452Y02879*
X02452Y02879*
X02452Y02879*
X02453Y02879*
X02453Y02879*
X02453Y02879*
X02454Y02879*
X02454Y02879*
X02454Y02879*
X02455*
X02455Y02879*
X02455Y02879*
X02456Y02879*
X02456Y02879*
X02456Y02879*
X02457Y02879*
X02457Y02879*
X02457Y02879*
X02458Y0288*
X02458Y0288*
X02458Y0288*
X02458Y0288*
X02459Y02881*
X02459Y02881*
X02459Y02881*
X02459Y02881*
X02459Y02882*
X02459Y02882*
X02459Y02882*
X02459Y02883*
X02459Y02883*
X0246Y02884*
X00933Y02097D02*
D01*
X00932Y02097*
X00932Y02097*
X00932Y02098*
X00932Y02098*
X00932Y02098*
X00932Y02099*
X00932Y02099*
X00932Y02099*
X00932Y02099*
X00931Y021*
X00931Y021*
X00931Y021*
X00931Y021*
X0093Y02101*
X0093Y02101*
X0093Y02101*
X00929Y02101*
X00929Y02101*
X00929Y02101*
X00928Y02101*
X00928Y02101*
X00928Y02101*
X00927*
X00927Y02101*
X00927Y02101*
X00926Y02101*
X00926Y02101*
X00926Y02101*
X00925Y02101*
X00925Y02101*
X00925Y02101*
X00924Y021*
X00924Y021*
X00924Y021*
X00924Y021*
X00923Y02099*
X00923Y02099*
X00923Y02099*
X00923Y02099*
X00923Y02098*
X00923Y02098*
X00923Y02098*
X00923Y02097*
X00923Y02097*
X00923Y02097*
X00923Y02096*
X00923Y02096*
X00923Y02095*
X00923Y02095*
X00923Y02095*
X00923Y02094*
X00923Y02094*
X00923Y02094*
X00923Y02094*
X00924Y02093*
X00924Y02093*
X00924Y02093*
X00924Y02093*
X00925Y02092*
X00925Y02092*
X00925Y02092*
X00926Y02092*
X00926Y02092*
X00926Y02092*
X00927Y02092*
X00927Y02092*
X00927Y02092*
X00928*
X00928Y02092*
X00928Y02092*
X00929Y02092*
X00929Y02092*
X00929Y02092*
X0093Y02092*
X0093Y02092*
X0093Y02092*
X00931Y02093*
X00931Y02093*
X00931Y02093*
X00931Y02093*
X00932Y02094*
X00932Y02094*
X00932Y02094*
X00932Y02094*
X00932Y02095*
X00932Y02095*
X00932Y02095*
X00932Y02096*
X00932Y02096*
X00933Y02097*
X01915Y01075D02*
D01*
X01914Y01075*
X01914Y01075*
X01914Y01076*
X01914Y01076*
X01914Y01076*
X01914Y01077*
X01914Y01077*
X01914Y01077*
X01914Y01077*
X01913Y01078*
X01913Y01078*
X01913Y01078*
X01913Y01078*
X01912Y01079*
X01912Y01079*
X01912Y01079*
X01911Y01079*
X01911Y01079*
X01911Y01079*
X0191Y01079*
X0191Y01079*
X0191Y01079*
X01909*
X01909Y01079*
X01909Y01079*
X01908Y01079*
X01908Y01079*
X01908Y01079*
X01907Y01079*
X01907Y01079*
X01907Y01079*
X01906Y01078*
X01906Y01078*
X01906Y01078*
X01906Y01078*
X01905Y01077*
X01905Y01077*
X01905Y01077*
X01905Y01077*
X01905Y01076*
X01905Y01076*
X01905Y01076*
X01905Y01075*
X01905Y01075*
X01905Y01075*
X01905Y01074*
X01905Y01074*
X01905Y01073*
X01905Y01073*
X01905Y01073*
X01905Y01072*
X01905Y01072*
X01905Y01072*
X01905Y01072*
X01906Y01071*
X01906Y01071*
X01906Y01071*
X01906Y01071*
X01907Y0107*
X01907Y0107*
X01907Y0107*
X01908Y0107*
X01908Y0107*
X01908Y0107*
X01909Y0107*
X01909Y0107*
X01909Y0107*
X0191*
X0191Y0107*
X0191Y0107*
X01911Y0107*
X01911Y0107*
X01911Y0107*
X01912Y0107*
X01912Y0107*
X01912Y0107*
X01913Y01071*
X01913Y01071*
X01913Y01071*
X01913Y01071*
X01914Y01072*
X01914Y01072*
X01914Y01072*
X01914Y01072*
X01914Y01073*
X01914Y01073*
X01914Y01073*
X01914Y01074*
X01914Y01074*
X01915Y01075*
X00526Y02858D02*
D01*
X00525Y02858*
X00525Y02858*
X00525Y02859*
X00525Y02859*
X00525Y02859*
X00525Y0286*
X00525Y0286*
X00525Y0286*
X00525Y0286*
X00524Y02861*
X00524Y02861*
X00524Y02861*
X00524Y02861*
X00523Y02862*
X00523Y02862*
X00523Y02862*
X00522Y02862*
X00522Y02862*
X00522Y02862*
X00521Y02862*
X00521Y02862*
X00521Y02862*
X0052*
X0052Y02862*
X0052Y02862*
X00519Y02862*
X00519Y02862*
X00519Y02862*
X00518Y02862*
X00518Y02862*
X00518Y02862*
X00517Y02861*
X00517Y02861*
X00517Y02861*
X00517Y02861*
X00516Y0286*
X00516Y0286*
X00516Y0286*
X00516Y0286*
X00516Y02859*
X00516Y02859*
X00516Y02859*
X00516Y02858*
X00516Y02858*
X00516Y02858*
X00516Y02857*
X00516Y02857*
X00516Y02856*
X00516Y02856*
X00516Y02856*
X00516Y02855*
X00516Y02855*
X00516Y02855*
X00516Y02855*
X00517Y02854*
X00517Y02854*
X00517Y02854*
X00517Y02854*
X00518Y02853*
X00518Y02853*
X00518Y02853*
X00519Y02853*
X00519Y02853*
X00519Y02853*
X0052Y02853*
X0052Y02853*
X0052Y02853*
X00521*
X00521Y02853*
X00521Y02853*
X00522Y02853*
X00522Y02853*
X00522Y02853*
X00523Y02853*
X00523Y02853*
X00523Y02853*
X00524Y02854*
X00524Y02854*
X00524Y02854*
X00524Y02854*
X00525Y02855*
X00525Y02855*
X00525Y02855*
X00525Y02855*
X00525Y02856*
X00525Y02856*
X00525Y02856*
X00525Y02857*
X00525Y02857*
X00526Y02858*
X01971D02*
D01*
X0197Y02858*
X0197Y02858*
X0197Y02859*
X0197Y02859*
X0197Y02859*
X0197Y0286*
X0197Y0286*
X0197Y0286*
X0197Y0286*
X01969Y02861*
X01969Y02861*
X01969Y02861*
X01969Y02861*
X01968Y02862*
X01968Y02862*
X01968Y02862*
X01967Y02862*
X01967Y02862*
X01967Y02862*
X01966Y02862*
X01966Y02862*
X01966Y02862*
X01965*
X01965Y02862*
X01965Y02862*
X01964Y02862*
X01964Y02862*
X01964Y02862*
X01963Y02862*
X01963Y02862*
X01963Y02862*
X01962Y02861*
X01962Y02861*
X01962Y02861*
X01962Y02861*
X01961Y0286*
X01961Y0286*
X01961Y0286*
X01961Y0286*
X01961Y02859*
X01961Y02859*
X01961Y02859*
X01961Y02858*
X01961Y02858*
X01961Y02858*
X01961Y02857*
X01961Y02857*
X01961Y02856*
X01961Y02856*
X01961Y02856*
X01961Y02855*
X01961Y02855*
X01961Y02855*
X01961Y02855*
X01962Y02854*
X01962Y02854*
X01962Y02854*
X01962Y02854*
X01963Y02853*
X01963Y02853*
X01963Y02853*
X01964Y02853*
X01964Y02853*
X01964Y02853*
X01965Y02853*
X01965Y02853*
X01965Y02853*
X01966*
X01966Y02853*
X01966Y02853*
X01967Y02853*
X01967Y02853*
X01967Y02853*
X01968Y02853*
X01968Y02853*
X01968Y02853*
X01969Y02854*
X01969Y02854*
X01969Y02854*
X01969Y02854*
X0197Y02855*
X0197Y02855*
X0197Y02855*
X0197Y02855*
X0197Y02856*
X0197Y02856*
X0197Y02856*
X0197Y02857*
X0197Y02857*
X01971Y02858*
X01491D02*
D01*
X0149Y02858*
X0149Y02858*
X0149Y02859*
X0149Y02859*
X0149Y02859*
X0149Y0286*
X0149Y0286*
X0149Y0286*
X0149Y0286*
X01489Y02861*
X01489Y02861*
X01489Y02861*
X01489Y02861*
X01488Y02862*
X01488Y02862*
X01488Y02862*
X01487Y02862*
X01487Y02862*
X01487Y02862*
X01486Y02862*
X01486Y02862*
X01486Y02862*
X01485*
X01485Y02862*
X01485Y02862*
X01484Y02862*
X01484Y02862*
X01484Y02862*
X01483Y02862*
X01483Y02862*
X01483Y02862*
X01482Y02861*
X01482Y02861*
X01482Y02861*
X01482Y02861*
X01481Y0286*
X01481Y0286*
X01481Y0286*
X01481Y0286*
X01481Y02859*
X01481Y02859*
X01481Y02859*
X01481Y02858*
X01481Y02858*
X01481Y02858*
X01481Y02857*
X01481Y02857*
X01481Y02856*
X01481Y02856*
X01481Y02856*
X01481Y02855*
X01481Y02855*
X01481Y02855*
X01481Y02855*
X01482Y02854*
X01482Y02854*
X01482Y02854*
X01482Y02854*
X01483Y02853*
X01483Y02853*
X01483Y02853*
X01484Y02853*
X01484Y02853*
X01484Y02853*
X01485Y02853*
X01485Y02853*
X01485Y02853*
X01486*
X01486Y02853*
X01486Y02853*
X01487Y02853*
X01487Y02853*
X01487Y02853*
X01488Y02853*
X01488Y02853*
X01488Y02853*
X01489Y02854*
X01489Y02854*
X01489Y02854*
X01489Y02854*
X0149Y02855*
X0149Y02855*
X0149Y02855*
X0149Y02855*
X0149Y02856*
X0149Y02856*
X0149Y02856*
X0149Y02857*
X0149Y02857*
X01491Y02858*
X01006D02*
D01*
X01005Y02858*
X01005Y02858*
X01005Y02859*
X01005Y02859*
X01005Y02859*
X01005Y0286*
X01005Y0286*
X01005Y0286*
X01005Y0286*
X01004Y02861*
X01004Y02861*
X01004Y02861*
X01004Y02861*
X01003Y02862*
X01003Y02862*
X01003Y02862*
X01002Y02862*
X01002Y02862*
X01002Y02862*
X01001Y02862*
X01001Y02862*
X01001Y02862*
X01*
X01Y02862*
X01Y02862*
X00999Y02862*
X00999Y02862*
X00999Y02862*
X00998Y02862*
X00998Y02862*
X00998Y02862*
X00997Y02861*
X00997Y02861*
X00997Y02861*
X00997Y02861*
X00996Y0286*
X00996Y0286*
X00996Y0286*
X00996Y0286*
X00996Y02859*
X00996Y02859*
X00996Y02859*
X00996Y02858*
X00996Y02858*
X00996Y02858*
X00996Y02857*
X00996Y02857*
X00996Y02856*
X00996Y02856*
X00996Y02856*
X00996Y02855*
X00996Y02855*
X00996Y02855*
X00996Y02855*
X00997Y02854*
X00997Y02854*
X00997Y02854*
X00997Y02854*
X00998Y02853*
X00998Y02853*
X00998Y02853*
X00999Y02853*
X00999Y02853*
X00999Y02853*
X01Y02853*
X01Y02853*
X01Y02853*
X01001*
X01001Y02853*
X01001Y02853*
X01002Y02853*
X01002Y02853*
X01002Y02853*
X01003Y02853*
X01003Y02853*
X01003Y02853*
X01004Y02854*
X01004Y02854*
X01004Y02854*
X01004Y02854*
X01005Y02855*
X01005Y02855*
X01005Y02855*
X01005Y02855*
X01005Y02856*
X01005Y02856*
X01005Y02856*
X01005Y02857*
X01005Y02857*
X01006Y02858*
G54D68*
X01261Y02945D02*
Y03197D01*
Y02945D02*
X01387D01*
X01261Y03197D02*
X01387D01*
Y02945D02*
Y03197D01*
X00776Y02945D02*
Y03197D01*
Y02945D02*
X00902D01*
X00776Y03197D02*
X00902D01*
Y02945D02*
Y03197D01*
X01741Y02945D02*
Y03197D01*
Y02945D02*
X01867D01*
X01741Y03197D02*
X01867D01*
Y02945D02*
Y03197D01*
X00427Y02945D02*
Y03197D01*
X00301D02*
X00427D01*
X00301Y02945D02*
X00427D01*
X00301D02*
Y03197D01*
G54D69*
X00392Y02408D02*
Y02438D01*
X00377*
X00372Y02433*
Y02423*
X00377Y02418*
X00392*
X00382D02*
X00372Y02408D01*
X00342Y02438D02*
X00352Y02433D01*
X00362Y02423*
Y02413*
X00357Y02408*
X00347*
X00342Y02413*
Y02418*
X00347Y02423*
X00362*
X00332Y02433D02*
X00327Y02438D01*
X00317*
X00312Y02433*
Y02428*
X00317Y02423*
X00312Y02418*
Y02413*
X00317Y02408*
X00327*
X00332Y02413*
Y02418*
X00327Y02423*
X00332Y02428*
Y02433*
X00327Y02423D02*
X00317D01*
X02791Y02202D02*
X02796Y02207D01*
X02806*
X02811Y02202*
Y02182*
X02806Y02177*
X02796*
X02791Y02182*
X02766Y02177D02*
Y02207D01*
X02781Y02192*
X02761*
X02731Y02177D02*
X02751D01*
X02731Y02197*
Y02202*
X02736Y02207*
X02746*
X02751Y02202*
X0111Y02458D02*
X01115Y02463D01*
X01125*
X0113Y02458*
Y02438*
X01125Y02433*
X01115*
X0111Y02438*
X0108Y02433D02*
X011D01*
X0108Y02453*
Y02458*
X01085Y02463*
X01095*
X011Y02458*
X0107D02*
X01065Y02463D01*
X01055*
X0105Y02458*
Y02438*
X01055Y02433*
X01065*
X0107Y02438*
Y02458*
X03165Y0063D02*
Y0066D01*
X0315*
X03145Y00655*
Y00645*
X0315Y0064*
X03165*
X03155D02*
X03145Y0063D01*
X03135Y00655D02*
X0313Y0066D01*
X0312*
X03115Y00655*
Y0065*
X0312Y00645*
X03125*
X0312*
X03115Y0064*
Y00635*
X0312Y0063*
X0313*
X03135Y00635*
X03085Y0066D02*
X03095Y00655D01*
X03105Y00645*
Y00635*
X031Y0063*
X0309*
X03085Y00635*
Y0064*
X0309Y00645*
X03105*
X03087Y00402D02*
Y00432D01*
X03072*
X03067Y00427*
Y00417*
X03072Y00412*
X03087*
X03077D02*
X03067Y00402D01*
X03057Y00427D02*
X03052Y00432D01*
X03042*
X03037Y00427*
Y00422*
X03042Y00417*
X03047*
X03042*
X03037Y00412*
Y00407*
X03042Y00402*
X03052*
X03057Y00407*
X03027Y00432D02*
X03007D01*
Y00427*
X03027Y00407*
Y00402*
X03047Y00283D02*
Y00313D01*
X03032*
X03027Y00308*
Y00298*
X03032Y00293*
X03047*
X03037D02*
X03027Y00283D01*
X03017Y00308D02*
X03012Y00313D01*
X03002*
X02997Y00308*
Y00303*
X03002Y00298*
X03007*
X03002*
X02997Y00293*
Y00288*
X03002Y00283*
X03012*
X03017Y00288*
X02987Y00308D02*
X02982Y00313D01*
X02972*
X02967Y00308*
Y00303*
X02972Y00298*
X02967Y00293*
Y00288*
X02972Y00283*
X02982*
X02987Y00288*
Y00293*
X02982Y00298*
X02987Y00303*
Y00308*
X02982Y00298D02*
X02972D01*
X03047Y00189D02*
Y00219D01*
X03032*
X03027Y00214*
Y00204*
X03032Y00199*
X03047*
X03037D02*
X03027Y00189D01*
X03017Y00214D02*
X03012Y00219D01*
X03002*
X02997Y00214*
Y00209*
X03002Y00204*
X03007*
X03002*
X02997Y00199*
Y00194*
X03002Y00189*
X03012*
X03017Y00194*
X02987D02*
X02982Y00189D01*
X02972*
X02967Y00194*
Y00214*
X02972Y00219*
X02982*
X02987Y00214*
Y00209*
X02982Y00204*
X02967*
X00508Y02825D02*
Y028D01*
X00503Y02795*
X00493*
X00488Y028*
Y02825*
X00478Y02795D02*
X00468D01*
X00473*
Y02825*
X00478Y0282*
X00453D02*
X00448Y02825D01*
X00438*
X00433Y0282*
Y028*
X00438Y02795*
X00448*
X00453Y028*
Y0282*
X01527Y03068D02*
X01532Y03073D01*
X01542*
X01547Y03068*
Y03048*
X01542Y03043*
X01532*
X01527Y03048*
X01517Y03068D02*
X01512Y03073D01*
X01502*
X01497Y03068*
Y03063*
X01502Y03058*
X01507*
X01502*
X01497Y03053*
Y03048*
X01502Y03043*
X01512*
X01517Y03048*
X01487Y03068D02*
X01482Y03073D01*
X01472*
X01467Y03068*
Y03048*
X01472Y03043*
X01482*
X01487Y03048*
Y03068*
X00559D02*
X00564Y03073D01*
X00574*
X00579Y03068*
Y03048*
X00574Y03043*
X00564*
X00559Y03048*
X00529Y03043D02*
X00549D01*
X00529Y03063*
Y03068*
X00534Y03073*
X00544*
X00549Y03068*
X00519D02*
X00514Y03073D01*
X00504*
X00499Y03068*
Y03063*
X00504Y03058*
X00499Y03053*
Y03048*
X00504Y03043*
X00514*
X00519Y03048*
Y03053*
X00514Y03058*
X00519Y03063*
Y03068*
X00514Y03058D02*
X00504D01*
X01728Y03063D02*
Y03093D01*
X01713*
X01708Y03088*
Y03078*
X01713Y03073*
X01728*
X01718D02*
X01708Y03063D01*
X01698D02*
X01688D01*
X01693*
Y03093*
X01698Y03088*
X01658Y03063D02*
Y03093D01*
X01673Y03078*
X01653*
X01035Y0306D02*
X0104Y03065D01*
X0105*
X01055Y0306*
Y0304*
X0105Y03035*
X0104*
X01035Y0304*
X01005Y03035D02*
X01025D01*
X01005Y03055*
Y0306*
X0101Y03065*
X0102*
X01025Y0306*
X00995Y0304D02*
X0099Y03035D01*
X0098*
X00975Y0304*
Y0306*
X0098Y03065*
X0099*
X00995Y0306*
Y03055*
X0099Y0305*
X00975*
X00799Y01749D02*
X00804Y01754D01*
X00814*
X00819Y01749*
Y01729*
X00814Y01724*
X00804*
X00799Y01729*
X00774Y01724D02*
Y01754D01*
X00789Y01739*
X00769*
X00685Y01395D02*
X0069Y014D01*
X007*
X00705Y01395*
Y01375*
X007Y0137*
X0069*
X00685Y01375*
X00655Y014D02*
X00675D01*
Y01385*
X00665Y0139*
X0066*
X00655Y01385*
Y01375*
X0066Y0137*
X0067*
X00675Y01375*
X01342Y01887D02*
X01347Y01892D01*
X01357*
X01362Y01887*
Y01867*
X01357Y01862*
X01347*
X01342Y01867*
X01332Y01892D02*
X01312D01*
Y01887*
X01332Y01867*
Y01862*
X012Y0136D02*
X01205Y01365D01*
X01215*
X0122Y0136*
Y0134*
X01215Y01335*
X01205*
X012Y0134*
X0119Y0136D02*
X01185Y01365D01*
X01175*
X0117Y0136*
Y01355*
X01175Y0135*
X0117Y01345*
Y0134*
X01175Y01335*
X01185*
X0119Y0134*
Y01345*
X01185Y0135*
X0119Y01355*
Y0136*
X01185Y0135D02*
X01175D01*
X0083Y01907D02*
X00835Y01912D01*
X00845*
X0085Y01907*
Y01887*
X00845Y01882*
X00835*
X0083Y01887*
X0082Y01882D02*
X0081D01*
X00815*
Y01912*
X0082Y01907*
X00795Y01882D02*
X00785D01*
X0079*
Y01912*
X00795Y01907*
X00984Y01816D02*
X00989Y01821D01*
X00999*
X01004Y01816*
Y01796*
X00999Y01791*
X00989*
X00984Y01796*
X00974D02*
X00969Y01791D01*
X00959*
X00954Y01796*
Y01816*
X00959Y01821*
X00969*
X00974Y01816*
Y01811*
X00969Y01806*
X00954*
X01122Y01753D02*
X01127Y01758D01*
X01137*
X01142Y01753*
Y01733*
X01137Y01728*
X01127*
X01122Y01733*
X01092Y01728D02*
X01112D01*
X01092Y01748*
Y01753*
X01097Y01758*
X01107*
X01112Y01753*
X0124D02*
X01245Y01758D01*
X01255*
X0126Y01753*
Y01733*
X01255Y01728*
X01245*
X0124Y01733*
X0123Y01728D02*
X0122D01*
X01225*
Y01758*
X0123Y01753*
X01205D02*
X012Y01758D01*
X0119*
X01185Y01753*
Y01748*
X0119Y01743*
X01195*
X0119*
X01185Y01738*
Y01733*
X0119Y01728*
X012*
X01205Y01733*
X00657Y01312D02*
X00662Y01317D01*
X00672*
X00677Y01312*
Y01292*
X00672Y01287*
X00662*
X00657Y01292*
X00647Y01287D02*
X00637D01*
X00642*
Y01317*
X00647Y01312*
X00622D02*
X00617Y01317D01*
X00607*
X00602Y01312*
Y01292*
X00607Y01287*
X00617*
X00622Y01292*
Y01312*
X01449Y01273D02*
X01454Y01278D01*
X01464*
X01469Y01273*
Y01253*
X01464Y01248*
X01454*
X01449Y01253*
X01439Y01248D02*
X01429D01*
X01434*
Y01278*
X01439Y01273*
X01394Y01248D02*
X01414D01*
X01394Y01268*
Y01273*
X01399Y01278*
X01409*
X01414Y01273*
X01153Y02116D02*
X01158Y02121D01*
X01168*
X01173Y02116*
Y02096*
X01168Y02091*
X01158*
X01153Y02096*
X01143Y02091D02*
X01133D01*
X01138*
Y02121*
X01143Y02116*
X01023Y02041D02*
X01028Y02046D01*
X01038*
X01043Y02041*
Y02021*
X01038Y02016*
X01028*
X01023Y02021*
X00993Y02046D02*
X01003Y02041D01*
X01013Y02031*
Y02021*
X01008Y02016*
X00998*
X00993Y02021*
Y02026*
X00998Y02031*
X01013*
X01039Y01753D02*
X01044Y01758D01*
X01054*
X01059Y01753*
Y01733*
X01054Y01728*
X01044*
X01039Y01733*
X01029Y01753D02*
X01024Y01758D01*
X01014*
X01009Y01753*
Y01748*
X01014Y01743*
X01019*
X01014*
X01009Y01738*
Y01733*
X01014Y01728*
X01024*
X01029Y01733*
X01236Y02344D02*
X01241Y02349D01*
X01251*
X01256Y02344*
Y02324*
X01251Y02319*
X01241*
X01236Y02324*
X01226Y02319D02*
X01216D01*
X01221*
Y02349*
X01226Y02344*
X01186Y02319D02*
Y02349D01*
X01201Y02334*
X01181*
X01161Y02415D02*
X01166Y0242D01*
X01176*
X01181Y02415*
Y02395*
X01176Y0239*
X01166*
X01161Y02395*
X01151Y0239D02*
X01141D01*
X01146*
Y0242*
X01151Y02415*
X01106Y0242D02*
X01126D01*
Y02405*
X01116Y0241*
X01111*
X01106Y02405*
Y02395*
X01111Y0239*
X01121*
X01126Y02395*
X00976Y02179D02*
X00981Y02184D01*
X00991*
X00996Y02179*
Y02159*
X00991Y02154*
X00981*
X00976Y02159*
X00966Y02154D02*
X00956D01*
X00961*
Y02184*
X00966Y02179*
X00921Y02184D02*
X00931Y02179D01*
X00941Y02169*
Y02159*
X00936Y02154*
X00926*
X00921Y02159*
Y02164*
X00926Y02169*
X00941*
X00972Y02411D02*
X00977Y02416D01*
X00987*
X00992Y02411*
Y02391*
X00987Y02386*
X00977*
X00972Y02391*
X00962Y02386D02*
X00952D01*
X00957*
Y02416*
X00962Y02411*
X00937Y02416D02*
X00917D01*
Y02411*
X00937Y02391*
Y02386*
X00882Y02564D02*
X00887Y02569D01*
X00897*
X00902Y02564*
Y02544*
X00897Y02539*
X00887*
X00882Y02544*
X00872Y02539D02*
X00862D01*
X00867*
Y02569*
X00872Y02564*
X00847D02*
X00842Y02569D01*
X00832*
X00827Y02564*
Y02559*
X00832Y02554*
X00827Y02549*
Y02544*
X00832Y02539*
X00842*
X00847Y02544*
Y02549*
X00842Y02554*
X00847Y02559*
Y02564*
X00842Y02554D02*
X00832D01*
X02641Y01962D02*
X02646Y01967D01*
X02656*
X02661Y01962*
Y01942*
X02656Y01937*
X02646*
X02641Y01942*
X02631Y01937D02*
X02621D01*
X02626*
Y01967*
X02631Y01962*
X02606Y01942D02*
X02601Y01937D01*
X02591*
X02586Y01942*
Y01962*
X02591Y01967*
X02601*
X02606Y01962*
Y01957*
X02601Y01952*
X02586*
X00803Y02462D02*
X00808Y02467D01*
X00818*
X00823Y02462*
Y02442*
X00818Y02437*
X00808*
X00803Y02442*
X00773Y02437D02*
X00793D01*
X00773Y02457*
Y02462*
X00778Y02467*
X00788*
X00793Y02462*
X00763Y02437D02*
X00753D01*
X00758*
Y02467*
X00763Y02462*
X01015Y02568D02*
X0102Y02573D01*
X0103*
X01035Y02568*
Y02548*
X0103Y02543*
X0102*
X01015Y02548*
X00985Y02543D02*
X01005D01*
X00985Y02563*
Y02568*
X0099Y02573*
X01*
X01005Y02568*
X00955Y02543D02*
X00975D01*
X00955Y02563*
Y02568*
X0096Y02573*
X0097*
X00975Y02568*
X00783Y02222D02*
X00788Y02227D01*
X00798*
X00803Y02222*
Y02202*
X00798Y02197*
X00788*
X00783Y02202*
X00753Y02197D02*
X00773D01*
X00753Y02217*
Y02222*
X00758Y02227*
X00768*
X00773Y02222*
X00743D02*
X00738Y02227D01*
X00728*
X00723Y02222*
Y02217*
X00728Y02212*
X00733*
X00728*
X00723Y02207*
Y02202*
X00728Y02197*
X00738*
X00743Y02202*
X03008Y03123D02*
X03013Y03128D01*
X03023*
X03028Y03123*
Y03103*
X03023Y03098*
X03013*
X03008Y03103*
X02978Y03128D02*
X02998D01*
Y03113*
X02988Y03118*
X02983*
X02978Y03113*
Y03103*
X02983Y03098*
X02993*
X02998Y03103*
X02948Y03128D02*
X02968D01*
Y03113*
X02958Y03118*
X02953*
X02948Y03113*
Y03103*
X02953Y03098*
X02963*
X02968Y03103*
X03039Y03407D02*
X03044Y03412D01*
X03054*
X03059Y03407*
Y03387*
X03054Y03382*
X03044*
X03039Y03387*
X03009Y03412D02*
X03029D01*
Y03397*
X03019Y03402*
X03014*
X03009Y03397*
Y03387*
X03014Y03382*
X03024*
X03029Y03387*
X02999Y03407D02*
X02994Y03412D01*
X02984*
X02979Y03407*
Y03402*
X02984Y03397*
X02989*
X02984*
X02979Y03392*
Y03387*
X02984Y03382*
X02994*
X02999Y03387*
X03543Y03131D02*
X03548Y03136D01*
X03558*
X03563Y03131*
Y03111*
X03558Y03106*
X03548*
X03543Y03111*
X03513Y03136D02*
X03533D01*
Y03121*
X03523Y03126*
X03518*
X03513Y03121*
Y03111*
X03518Y03106*
X03528*
X03533Y03111*
X03503Y03131D02*
X03498Y03136D01*
X03488*
X03483Y03131*
Y03111*
X03488Y03106*
X03498*
X03503Y03111*
Y03131*
X02169Y03198D02*
X02174Y03203D01*
X02184*
X02189Y03198*
Y03178*
X02184Y03173*
X02174*
X02169Y03178*
X02139Y03203D02*
X02159D01*
Y03188*
X02149Y03193*
X02144*
X02139Y03188*
Y03178*
X02144Y03173*
X02154*
X02159Y03178*
X02129Y03173D02*
X02119D01*
X02124*
Y03203*
X02129Y03198*
X03622Y02868D02*
X03627Y02873D01*
X03637*
X03642Y02868*
Y02848*
X03637Y02843*
X03627*
X03622Y02848*
X03597Y02843D02*
Y02873D01*
X03612Y02858*
X03592*
X03562Y02873D02*
X03572Y02868D01*
X03582Y02858*
Y02848*
X03577Y02843*
X03567*
X03562Y02848*
Y02853*
X03567Y02858*
X03582*
X03539Y03773D02*
X03544Y03778D01*
X03554*
X03559Y03773*
Y03753*
X03554Y03748*
X03544*
X03539Y03753*
X03529Y03773D02*
X03524Y03778D01*
X03514*
X03509Y03773*
Y03768*
X03514Y03763*
X03519*
X03514*
X03509Y03758*
Y03753*
X03514Y03748*
X03524*
X03529Y03753*
X03499D02*
X03494Y03748D01*
X03484*
X03479Y03753*
Y03773*
X03484Y03778*
X03494*
X03499Y03773*
Y03768*
X03494Y03763*
X03479*
X02901Y02647D02*
X02906Y02652D01*
X02916*
X02921Y02647*
Y02627*
X02916Y02622*
X02906*
X02901Y02627*
X02876Y02622D02*
Y02652D01*
X02891Y02637*
X02871*
X02861Y02647D02*
X02856Y02652D01*
X02846*
X02841Y02647*
Y02627*
X02846Y02622*
X02856*
X02861Y02627*
Y02647*
X02283D02*
X02288Y02652D01*
X02298*
X02303Y02647*
Y02627*
X02298Y02622*
X02288*
X02283Y02627*
X02258Y02622D02*
Y02652D01*
X02273Y02637*
X02253*
X02243Y02647D02*
X02238Y02652D01*
X02228*
X02223Y02647*
Y02642*
X02228Y02637*
X02233*
X02228*
X02223Y02632*
Y02627*
X02228Y02622*
X02238*
X02243Y02627*
X02543Y02631D02*
X02548Y02636D01*
X02558*
X02563Y02631*
Y02611*
X02558Y02606*
X02548*
X02543Y02611*
X02518Y02606D02*
Y02636D01*
X02533Y02621*
X02513*
X02503Y02636D02*
X02483D01*
Y02631*
X02503Y02611*
Y02606*
X03657Y02411D02*
X03662Y02416D01*
X03672*
X03677Y02411*
Y02391*
X03672Y02386*
X03662*
X03657Y02391*
X03627Y02416D02*
X03647D01*
Y02401*
X03637Y02406*
X03632*
X03627Y02401*
Y02391*
X03632Y02386*
X03642*
X03647Y02391*
X03597Y02416D02*
X03607Y02411D01*
X03617Y02401*
Y02391*
X03612Y02386*
X03602*
X03597Y02391*
Y02396*
X03602Y02401*
X03617*
X03704Y02702D02*
X03709Y02707D01*
X03719*
X03724Y02702*
Y02682*
X03719Y02677*
X03709*
X03704Y02682*
X03674Y02707D02*
X03694D01*
Y02692*
X03684Y02697*
X03679*
X03674Y02692*
Y02682*
X03679Y02677*
X03689*
X03694Y02682*
X03649Y02677D02*
Y02707D01*
X03664Y02692*
X03644*
X03098Y02541D02*
X03103Y02546D01*
X03113*
X03118Y02541*
Y02521*
X03113Y02516*
X03103*
X03098Y02521*
X03068Y02546D02*
X03088D01*
Y02531*
X03078Y02536*
X03073*
X03068Y02531*
Y02521*
X03073Y02516*
X03083*
X03088Y02521*
X03038Y02516D02*
X03058D01*
X03038Y02536*
Y02541*
X03043Y02546*
X03053*
X03058Y02541*
X03413Y00619D02*
X03418Y00624D01*
X03428*
X03433Y00619*
Y00599*
X03428Y00594*
X03418*
X03413Y00599*
X03403Y00619D02*
X03398Y00624D01*
X03388*
X03383Y00619*
Y00614*
X03388Y00609*
X03393*
X03388*
X03383Y00604*
Y00599*
X03388Y00594*
X03398*
X03403Y00599*
X03373Y00624D02*
X03353D01*
Y00619*
X03373Y00599*
Y00594*
X00358Y00568D02*
X00363Y00573D01*
X00373*
X00378Y00568*
Y00548*
X00373Y00543*
X00363*
X00358Y00548*
X00333Y00543D02*
Y00573D01*
X00348Y00558*
X00328*
X00318Y00543D02*
X00308D01*
X00313*
Y00573*
X00318Y00568*
X0035Y00175D02*
X00355Y0018D01*
X00365*
X0037Y00175*
Y00155*
X00365Y0015*
X00355*
X0035Y00155*
X00325Y0015D02*
Y0018D01*
X0034Y00165*
X0032*
X00295Y0015D02*
Y0018D01*
X0031Y00165*
X0029*
X00354Y00269D02*
X00359Y00274D01*
X00369*
X00374Y00269*
Y00249*
X00369Y00244*
X00359*
X00354Y00249*
X00329Y00244D02*
Y00274D01*
X00344Y00259*
X00324*
X00314Y00269D02*
X00309Y00274D01*
X00299*
X00294Y00269*
Y00264*
X00299Y00259*
X00294Y00254*
Y00249*
X00299Y00244*
X00309*
X00314Y00249*
Y00254*
X00309Y00259*
X00314Y00264*
Y00269*
X00309Y00259D02*
X00299D01*
X02283Y02273D02*
X02288Y02278D01*
X02298*
X02303Y02273*
Y02253*
X02298Y02248*
X02288*
X02283Y02253*
X02258Y02248D02*
Y02278D01*
X02273Y02263*
X02253*
X02223Y02278D02*
X02243D01*
Y02263*
X02233Y02268*
X02228*
X02223Y02263*
Y02253*
X02228Y02248*
X02238*
X02243Y02253*
X02555Y02277D02*
X0256Y02282D01*
X0257*
X02575Y02277*
Y02257*
X0257Y02252*
X0256*
X02555Y02257*
X0253Y02252D02*
Y02282D01*
X02545Y02267*
X02525*
X02515Y02257D02*
X0251Y02252D01*
X025*
X02495Y02257*
Y02277*
X025Y02282*
X0251*
X02515Y02277*
Y02272*
X0251Y02267*
X02495*
X03401Y01427D02*
X03406Y01432D01*
X03416*
X03421Y01427*
Y01407*
X03416Y01402*
X03406*
X03401Y01407*
X03391Y01427D02*
X03386Y01432D01*
X03376*
X03371Y01427*
Y01422*
X03376Y01417*
X03381*
X03376*
X03371Y01412*
Y01407*
X03376Y01402*
X03386*
X03391Y01407*
X03361Y01427D02*
X03356Y01432D01*
X03346*
X03341Y01427*
Y01422*
X03346Y01417*
X03341Y01412*
Y01407*
X03346Y01402*
X03356*
X03361Y01407*
Y01412*
X03356Y01417*
X03361Y01422*
Y01427*
X03356Y01417D02*
X03346D01*
X0137Y02294D02*
Y02264D01*
X0135*
X0134D02*
X0133D01*
X01335*
Y02294*
X0134Y02289*
X01882Y01634D02*
Y01664D01*
X01867*
X01862Y01659*
Y01649*
X01867Y01644*
X01882*
X01872D02*
X01862Y01634D01*
X01832D02*
X01852D01*
X01832Y01654*
Y01659*
X01837Y01664*
X01847*
X01852Y01659*
X01882Y01587D02*
Y01617D01*
X01867*
X01862Y01612*
Y01602*
X01867Y01597*
X01882*
X01872D02*
X01862Y01587D01*
X01852Y01612D02*
X01847Y01617D01*
X01837*
X01832Y01612*
Y01607*
X01837Y01602*
X01842*
X01837*
X01832Y01597*
Y01592*
X01837Y01587*
X01847*
X01852Y01592*
X01323Y01665D02*
Y01695D01*
X01308*
X01303Y0169*
Y0168*
X01308Y01675*
X01323*
X01313D02*
X01303Y01665D01*
X01293D02*
X01283D01*
X01288*
Y01695*
X01293Y0169*
X00764Y03055D02*
Y03085D01*
X00749*
X00744Y0308*
Y0307*
X00749Y03065*
X00764*
X00754D02*
X00744Y03055D01*
X00734D02*
X00724D01*
X00729*
Y03085*
X00734Y0308*
X00689Y03055D02*
X00709D01*
X00689Y03075*
Y0308*
X00694Y03085*
X00704*
X00709Y0308*
X00283Y03059D02*
Y03089D01*
X00268*
X00263Y03084*
Y03074*
X00268Y03069*
X00283*
X00273D02*
X00263Y03059D01*
X00253D02*
X00243D01*
X00248*
Y03089*
X00253Y03084*
X00228Y03059D02*
X00218D01*
X00223*
Y03089*
X00228Y03084*
X01244Y03067D02*
Y03097D01*
X01229*
X01224Y03092*
Y03082*
X01229Y03077*
X01244*
X01234D02*
X01224Y03067D01*
X01214D02*
X01204D01*
X01209*
Y03097*
X01214Y03092*
X01189D02*
X01184Y03097D01*
X01174*
X01169Y03092*
Y03087*
X01174Y03082*
X01179*
X01174*
X01169Y03077*
Y03072*
X01174Y03067*
X01184*
X01189Y03072*
X01209Y00846D02*
Y00876D01*
X01194*
X01189Y00871*
Y00861*
X01194Y00856*
X01209*
X01199D02*
X01189Y00846D01*
X01159D02*
X01179D01*
X01159Y00866*
Y00871*
X01164Y00876*
X01174*
X01179Y00871*
X01149D02*
X01144Y00876D01*
X01134*
X01129Y00871*
Y00851*
X01134Y00846*
X01144*
X01149Y00851*
Y00871*
X01008Y0085D02*
Y0088D01*
X00993*
X00988Y00875*
Y00865*
X00993Y0086*
X01008*
X00998D02*
X00988Y0085D01*
X00978Y00875D02*
X00973Y0088D01*
X00963*
X00958Y00875*
Y0087*
X00963Y00865*
X00968*
X00963*
X00958Y0086*
Y00855*
X00963Y0085*
X00973*
X00978Y00855*
X00948Y00875D02*
X00943Y0088D01*
X00933*
X00928Y00875*
Y00855*
X00933Y0085*
X00943*
X00948Y00855*
Y00875*
X01209Y00598D02*
Y00628D01*
X01194*
X01189Y00623*
Y00613*
X01194Y00608*
X01209*
X01199D02*
X01189Y00598D01*
X01179D02*
X01169D01*
X01174*
Y00628*
X01179Y00623*
X01134Y00628D02*
X01154D01*
Y00613*
X01144Y00618*
X01139*
X01134Y00613*
Y00603*
X01139Y00598*
X01149*
X01154Y00603*
X01008Y00602D02*
Y00632D01*
X00993*
X00988Y00627*
Y00617*
X00993Y00612*
X01008*
X00998D02*
X00988Y00602D01*
X00958D02*
X00978D01*
X00958Y00622*
Y00627*
X00963Y00632*
X00973*
X00978Y00627*
X00928Y00632D02*
X00948D01*
Y00617*
X00938Y00622*
X00933*
X00928Y00617*
Y00607*
X00933Y00602*
X00943*
X00948Y00607*
X01657Y00843D02*
Y00873D01*
X01642*
X01637Y00868*
Y00858*
X01642Y00853*
X01657*
X01647D02*
X01637Y00843D01*
X01607D02*
X01627D01*
X01607Y00863*
Y00868*
X01612Y00873*
X01622*
X01627Y00868*
X01597Y00843D02*
X01588D01*
X01593*
Y00873*
X01597Y00868*
X01445Y00846D02*
Y00876D01*
X0143*
X01425Y00871*
Y00861*
X0143Y00856*
X01445*
X01435D02*
X01425Y00846D01*
X01415Y00871D02*
X0141Y00876D01*
X014*
X01395Y00871*
Y00866*
X014Y00861*
X01405*
X014*
X01395Y00856*
Y00851*
X014Y00846*
X0141*
X01415Y00851*
X01385Y00846D02*
X01375D01*
X0138*
Y00876*
X01385Y00871*
X01654Y00594D02*
Y00624D01*
X01639*
X01634Y00619*
Y00609*
X01639Y00604*
X01654*
X01644D02*
X01634Y00594D01*
X01624D02*
X01614D01*
X01619*
Y00624*
X01624Y00619*
X01579Y00624D02*
X01589Y00619D01*
X01599Y00609*
Y00599*
X01594Y00594*
X01584*
X01579Y00599*
Y00604*
X01584Y00609*
X01599*
X01461Y00594D02*
Y00624D01*
X01446*
X01441Y00619*
Y00609*
X01446Y00604*
X01461*
X01451D02*
X01441Y00594D01*
X01411D02*
X01431D01*
X01411Y00614*
Y00619*
X01416Y00624*
X01426*
X01431Y00619*
X01381Y00624D02*
X01391Y00619D01*
X01401Y00609*
Y00599*
X01396Y00594*
X01386*
X01381Y00599*
Y00604*
X01386Y00609*
X01401*
X02118Y00843D02*
Y00873D01*
X02103*
X02098Y00868*
Y00858*
X02103Y00853*
X02118*
X02108D02*
X02098Y00843D01*
X02068D02*
X02088D01*
X02068Y00863*
Y00868*
X02073Y00873*
X02083*
X02088Y00868*
X02038Y00843D02*
X02058D01*
X02038Y00863*
Y00868*
X02043Y00873*
X02053*
X02058Y00868*
X01898Y00846D02*
Y00876D01*
X01883*
X01878Y00871*
Y00861*
X01883Y00856*
X01898*
X01888D02*
X01878Y00846D01*
X01868Y00871D02*
X01863Y00876D01*
X01853*
X01848Y00871*
Y00866*
X01853Y00861*
X01858*
X01853*
X01848Y00856*
Y00851*
X01853Y00846*
X01863*
X01868Y00851*
X01818Y00846D02*
X01838D01*
X01818Y00866*
Y00871*
X01823Y00876*
X01833*
X01838Y00871*
X02102Y00598D02*
Y00628D01*
X02087*
X02082Y00623*
Y00613*
X02087Y00608*
X02102*
X02092D02*
X02082Y00598D01*
X02072D02*
X02062D01*
X02067*
Y00628*
X02072Y00623*
X02047Y00628D02*
X02027D01*
Y00623*
X02047Y00603*
Y00598*
X01902D02*
Y00628D01*
X01887*
X01882Y00623*
Y00613*
X01887Y00608*
X01902*
X01892D02*
X01882Y00598D01*
X01852D02*
X01872D01*
X01852Y00618*
Y00623*
X01857Y00628*
X01867*
X01872Y00623*
X01842Y00628D02*
X01822D01*
Y00623*
X01842Y00603*
Y00598*
X02559Y00843D02*
Y00873D01*
X02544*
X02539Y00868*
Y00858*
X02544Y00853*
X02559*
X02549D02*
X02539Y00843D01*
X02509D02*
X02529D01*
X02509Y00863*
Y00868*
X02514Y00873*
X02524*
X02529Y00868*
X02499D02*
X02494Y00873D01*
X02484*
X02479Y00868*
Y00863*
X02484Y00858*
X02489*
X02484*
X02479Y00853*
Y00848*
X02484Y00843*
X02494*
X02499Y00848*
X02346Y00843D02*
Y00873D01*
X02331*
X02326Y00868*
Y00858*
X02331Y00853*
X02346*
X02336D02*
X02326Y00843D01*
X02316Y00868D02*
X02311Y00873D01*
X02301*
X02296Y00868*
Y00863*
X02301Y00858*
X02306*
X02301*
X02296Y00853*
Y00848*
X02301Y00843*
X02311*
X02316Y00848*
X02286Y00868D02*
X02281Y00873D01*
X02271*
X02266Y00868*
Y00863*
X02271Y00858*
X02276*
X02271*
X02266Y00853*
Y00848*
X02271Y00843*
X02281*
X02286Y00848*
X02547Y00606D02*
Y00636D01*
X02532*
X02527Y00631*
Y00621*
X02532Y00616*
X02547*
X02537D02*
X02527Y00606D01*
X02517D02*
X02507D01*
X02512*
Y00636*
X02517Y00631*
X02492D02*
X02487Y00636D01*
X02477*
X02472Y00631*
Y00626*
X02477Y00621*
X02472Y00616*
Y00611*
X02477Y00606*
X02487*
X02492Y00611*
Y00616*
X02487Y00621*
X02492Y00626*
Y00631*
X02487Y00621D02*
X02477D01*
X02346Y00598D02*
Y00628D01*
X02331*
X02326Y00623*
Y00613*
X02331Y00608*
X02346*
X02336D02*
X02326Y00598D01*
X02296D02*
X02316D01*
X02296Y00618*
Y00623*
X02301Y00628*
X02311*
X02316Y00623*
X02286D02*
X02281Y00628D01*
X02271*
X02266Y00623*
Y00618*
X02271Y00613*
X02266Y00608*
Y00603*
X02271Y00598*
X02281*
X02286Y00603*
Y00608*
X02281Y00613*
X02286Y00618*
Y00623*
X02281Y00613D02*
X02271D01*
X03004Y00846D02*
Y00876D01*
X02989*
X02984Y00871*
Y00861*
X02989Y00856*
X03004*
X02994D02*
X02984Y00846D01*
X02954D02*
X02974D01*
X02954Y00866*
Y00871*
X02959Y00876*
X02969*
X02974Y00871*
X02929Y00846D02*
Y00876D01*
X02944Y00861*
X02924*
X02799Y00846D02*
Y00876D01*
X02784*
X02779Y00871*
Y00861*
X02784Y00856*
X02799*
X02789D02*
X02779Y00846D01*
X02769Y00871D02*
X02764Y00876D01*
X02754*
X02749Y00871*
Y00866*
X02754Y00861*
X02759*
X02754*
X02749Y00856*
Y00851*
X02754Y00846*
X02764*
X02769Y00851*
X02724Y00846D02*
Y00876D01*
X02739Y00861*
X02719*
X03004Y00602D02*
Y00632D01*
X02989*
X02984Y00627*
Y00617*
X02989Y00612*
X03004*
X02994D02*
X02984Y00602D01*
X02974D02*
X02964D01*
X02969*
Y00632*
X02974Y00627*
X02949Y00607D02*
X02944Y00602D01*
X02934*
X02929Y00607*
Y00627*
X02934Y00632*
X02944*
X02949Y00627*
Y00622*
X02944Y00617*
X02929*
X02815Y00602D02*
Y00632D01*
X028*
X02795Y00627*
Y00617*
X028Y00612*
X02815*
X02805D02*
X02795Y00602D01*
X02765D02*
X02785D01*
X02765Y00622*
Y00627*
X0277Y00632*
X0278*
X02785Y00627*
X02755Y00607D02*
X0275Y00602D01*
X0274*
X02735Y00607*
Y00627*
X0274Y00632*
X0275*
X02755Y00627*
Y00622*
X0275Y00617*
X02735*
X01717Y01354D02*
Y01384D01*
X01702*
X01697Y01379*
Y01369*
X01702Y01364*
X01717*
X01707D02*
X01697Y01354D01*
X01672D02*
Y01384D01*
X01687Y01369*
X01667*
X01657Y01379D02*
X01652Y01384D01*
X01642*
X01637Y01379*
Y01359*
X01642Y01354*
X01652*
X01657Y01359*
Y01379*
X02091Y01252D02*
Y01282D01*
X02076*
X02071Y01277*
Y01267*
X02076Y01262*
X02091*
X02081D02*
X02071Y01252D01*
X02061Y01277D02*
X02056Y01282D01*
X02046*
X02041Y01277*
Y01272*
X02046Y01267*
X02051*
X02046*
X02041Y01262*
Y01257*
X02046Y01252*
X02056*
X02061Y01257*
X02011Y01282D02*
X02031D01*
Y01267*
X02021Y01272*
X02016*
X02011Y01267*
Y01257*
X02016Y01252*
X02026*
X02031Y01257*
X02807Y03177D02*
Y03207D01*
X02792*
X02787Y03202*
Y03192*
X02792Y03187*
X02807*
X02797D02*
X02787Y03177D01*
X02757Y03207D02*
X02777D01*
Y03192*
X02767Y03197*
X02762*
X02757Y03192*
Y03182*
X02762Y03177*
X02772*
X02777Y03182*
X02727Y03207D02*
X02747D01*
Y03192*
X02737Y03197*
X02732*
X02727Y03192*
Y03182*
X02732Y03177*
X02742*
X02747Y03182*
X03504Y03272D02*
Y03302D01*
X03489*
X03484Y03297*
Y03287*
X03489Y03282*
X03504*
X03494D02*
X03484Y03272D01*
X03454Y03302D02*
X03474D01*
Y03287*
X03464Y03292*
X03459*
X03454Y03287*
Y03277*
X03459Y03272*
X03469*
X03474Y03277*
X03424Y03272D02*
X03444D01*
X03424Y03292*
Y03297*
X03429Y03302*
X03439*
X03444Y03297*
X03421Y02429D02*
Y02459D01*
X03406*
X03401Y02454*
Y02444*
X03406Y02439*
X03421*
X03411D02*
X03401Y02429D01*
X03371Y02459D02*
X03391D01*
Y02444*
X03381Y02449*
X03376*
X03371Y02444*
Y02434*
X03376Y02429*
X03386*
X03391Y02434*
X03341Y02459D02*
X03351Y02454D01*
X03361Y02444*
Y02434*
X03356Y02429*
X03346*
X03341Y02434*
Y02439*
X03346Y02444*
X03361*
X02591Y01594D02*
Y01624D01*
X02576*
X02571Y01619*
Y01609*
X02576Y01604*
X02591*
X02581D02*
X02571Y01594D01*
X02546D02*
Y01624D01*
X02561Y01609*
X02541*
X02511Y01624D02*
X02531D01*
Y01609*
X02521Y01614*
X02516*
X02511Y01609*
Y01599*
X02516Y01594*
X02526*
X02531Y01599*
X02713Y01598D02*
Y01628D01*
X02698*
X02693Y01623*
Y01613*
X02698Y01608*
X02713*
X02703D02*
X02693Y01598D01*
X02668D02*
Y01628D01*
X02683Y01613*
X02663*
X02633Y01628D02*
X02643Y01623D01*
X02653Y01613*
Y01603*
X02648Y01598*
X02638*
X02633Y01603*
Y01608*
X02638Y01613*
X02653*
X02839Y01598D02*
Y01628D01*
X02824*
X02819Y01623*
Y01613*
X02824Y01608*
X02839*
X02829D02*
X02819Y01598D01*
X02794D02*
Y01628D01*
X02809Y01613*
X02789*
X02779Y01628D02*
X02759D01*
Y01623*
X02779Y01603*
Y01598*
X02587Y01142D02*
Y01172D01*
X02572*
X02567Y01167*
Y01157*
X02572Y01152*
X02587*
X02577D02*
X02567Y01142D01*
X02542D02*
Y01172D01*
X02557Y01157*
X02537*
X02527Y01167D02*
X02522Y01172D01*
X02512*
X02507Y01167*
Y01162*
X02512Y01157*
X02507Y01152*
Y01147*
X02512Y01142*
X02522*
X02527Y01147*
Y01152*
X02522Y01157*
X02527Y01162*
Y01167*
X02522Y01157D02*
X02512D01*
X02713Y01142D02*
Y01172D01*
X02698*
X02693Y01167*
Y01157*
X02698Y01152*
X02713*
X02703D02*
X02693Y01142D01*
X02668D02*
Y01172D01*
X02683Y01157*
X02663*
X02653Y01147D02*
X02648Y01142D01*
X02638*
X02633Y01147*
Y01167*
X02638Y01172*
X02648*
X02653Y01167*
Y01162*
X02648Y01157*
X02633*
X02839Y01142D02*
Y01172D01*
X02824*
X02819Y01167*
Y01157*
X02824Y01152*
X02839*
X02829D02*
X02819Y01142D01*
X02789Y01172D02*
X02809D01*
Y01157*
X02799Y01162*
X02794*
X02789Y01157*
Y01147*
X02794Y01142*
X02804*
X02809Y01147*
X02779Y01167D02*
X02774Y01172D01*
X02764*
X02759Y01167*
Y01147*
X02764Y01142*
X02774*
X02779Y01147*
Y01167*
X00992Y02825D02*
Y028D01*
X00987Y02795*
X00977*
X00972Y028*
Y02825*
X00962Y02795D02*
X00952D01*
X00957*
Y02825*
X00962Y0282*
X00937Y02795D02*
X00927D01*
X00932*
Y02825*
X00937Y0282*
X01476Y02825D02*
Y028D01*
X01471Y02795*
X01461*
X01456Y028*
Y02825*
X01446Y02795D02*
X01436D01*
X01441*
Y02825*
X01446Y0282*
X01401Y02795D02*
X01421D01*
X01401Y02815*
Y0282*
X01406Y02825*
X01416*
X01421Y0282*
X01961Y02825D02*
Y028D01*
X01956Y02795*
X01946*
X01941Y028*
Y02825*
X01931Y02795D02*
X01921D01*
X01926*
Y02825*
X01931Y0282*
X01906D02*
X01901Y02825D01*
X01891*
X01886Y0282*
Y02815*
X01891Y0281*
X01896*
X01891*
X01886Y02805*
Y028*
X01891Y02795*
X01901*
X01906Y028*
X01701Y01105D02*
Y0108D01*
X01696Y01075*
X01686*
X01681Y0108*
Y01105*
X01651Y01075D02*
X01671D01*
X01651Y01095*
Y011*
X01656Y01105*
X01666*
X01671Y011*
X01626Y01075D02*
Y01105D01*
X01641Y0109*
X01621*
X00776Y02038D02*
Y02013D01*
X00771Y02008*
X00761*
X00756Y02013*
Y02038*
X00746Y02008D02*
X00736D01*
X00741*
Y02038*
X00746Y02033*
X01988Y03076D02*
X01993Y03081D01*
X02003*
X02008Y03076*
Y03056*
X02003Y03051*
X01993*
X01988Y03056*
X01978Y03076D02*
X01973Y03081D01*
X01963*
X01958Y03076*
Y03071*
X01963Y03066*
X01968*
X01963*
X01958Y03061*
Y03056*
X01963Y03051*
X01973*
X01978Y03056*
X01948Y03051D02*
X01938D01*
X01943*
Y03081*
X01948Y03076*
X03488Y03588D02*
Y03608D01*
X03493Y03613*
X03503*
X03508Y03608*
Y03588*
X03503Y03583*
X03493*
X03498Y03593D02*
X03488Y03583D01*
X03493D02*
X03488Y03588D01*
X03478Y03583D02*
X03468D01*
X03473*
Y03613*
X03478Y03608*
X02527Y0304D02*
Y0306D01*
X02532Y03065*
X02542*
X02547Y0306*
Y0304*
X02542Y03035*
X02532*
X02537Y03045D02*
X02527Y03035D01*
X02532D02*
X02527Y0304D01*
X02497Y03035D02*
X02517D01*
X02497Y03055*
Y0306*
X02502Y03065*
X02512*
X02517Y0306*
X03224Y02348D02*
Y02368D01*
X03229Y02373*
X03239*
X03244Y02368*
Y02348*
X03239Y02343*
X03229*
X03234Y02353D02*
X03224Y02343D01*
X03229D02*
X03224Y02348D01*
X03214Y02368D02*
X03209Y02373D01*
X03199*
X03194Y02368*
Y02363*
X03199Y02358*
X03204*
X03199*
X03194Y02353*
Y02348*
X03199Y02343*
X03209*
X03214Y02348*
X00755Y02676D02*
Y02706D01*
X0074*
X00735Y02701*
Y02691*
X0074Y02686*
X00755*
X00745D02*
X00735Y02676D01*
X00705Y02706D02*
X00725D01*
Y02691*
X00715Y02696*
X0071*
X00705Y02691*
Y02681*
X0071Y02676*
X0072*
X00725Y02681*
X00695D02*
X0069Y02676D01*
X0068*
X00675Y02681*
Y02701*
X0068Y02706*
X0069*
X00695Y02701*
Y02696*
X0069Y02691*
X00675*
X00509Y0257D02*
Y026D01*
X00494*
X00489Y02595*
Y02585*
X00494Y0258*
X00509*
X00499D02*
X00489Y0257D01*
X00459Y026D02*
X00469Y02595D01*
X00479Y02585*
Y02575*
X00474Y0257*
X00464*
X00459Y02575*
Y0258*
X00464Y02585*
X00479*
X00449Y02595D02*
X00444Y026D01*
X00434*
X00429Y02595*
Y02575*
X00434Y0257*
X00444*
X00449Y02575*
Y02595*
M02*